G04 #@! TF.GenerationSoftware,KiCad,Pcbnew,5.0.2-bee76a0~70~ubuntu18.04.1*
G04 #@! TF.CreationDate,2019-07-06T00:12:55+01:00*
G04 #@! TF.ProjectId,Timer Gate,54696d65-7220-4476-9174-652e6b696361,rev?*
G04 #@! TF.SameCoordinates,Original*
G04 #@! TF.FileFunction,Copper,L1,Top*
G04 #@! TF.FilePolarity,Positive*
%FSLAX46Y46*%
G04 Gerber Fmt 4.6, Leading zero omitted, Abs format (unit mm)*
G04 Created by KiCad (PCBNEW 5.0.2-bee76a0~70~ubuntu18.04.1) date Sat Jul  6 00:12:55 2019*
%MOMM*%
%LPD*%
G01*
G04 APERTURE LIST*
G04 #@! TA.AperFunction,ComponentPad*
%ADD10C,1.879600*%
G04 #@! TD*
G04 #@! TA.AperFunction,ComponentPad*
%ADD11O,1.600000X1.600000*%
G04 #@! TD*
G04 #@! TA.AperFunction,ComponentPad*
%ADD12C,1.600000*%
G04 #@! TD*
G04 #@! TA.AperFunction,ComponentPad*
%ADD13O,1.200000X2.000000*%
G04 #@! TD*
G04 #@! TA.AperFunction,ComponentPad*
%ADD14C,1.800000*%
G04 #@! TD*
G04 #@! TA.AperFunction,ComponentPad*
%ADD15R,1.800000X1.800000*%
G04 #@! TD*
G04 #@! TA.AperFunction,Conductor*
%ADD16C,0.250000*%
G04 #@! TD*
G04 APERTURE END LIST*
D10*
G04 #@! TO.P,J1,1*
G04 #@! TO.N,Net-(D1-Pad1)*
X140208000Y-79248000D03*
G04 #@! TO.P,J1,2*
G04 #@! TO.N,Net-(J1-Pad2)*
X142748000Y-79248000D03*
G04 #@! TD*
G04 #@! TO.P,J2,1*
G04 #@! TO.N,Net-(J2-Pad1)*
X127508000Y-79248000D03*
G04 #@! TO.P,J2,2*
G04 #@! TO.N,Net-(J2-Pad2)*
X130048000Y-79248000D03*
G04 #@! TO.P,J2,3*
G04 #@! TO.N,Net-(J2-Pad3)*
X132588000Y-79248000D03*
G04 #@! TO.P,J2,4*
G04 #@! TO.N,Net-(D1-Pad1)*
X135128000Y-79248000D03*
G04 #@! TD*
D11*
G04 #@! TO.P,R1,2*
G04 #@! TO.N,Net-(J2-Pad3)*
X147320000Y-82296000D03*
D12*
G04 #@! TO.P,R1,1*
G04 #@! TO.N,Net-(R1-Pad1)*
X147320000Y-89916000D03*
G04 #@! TD*
G04 #@! TO.P,R2,1*
G04 #@! TO.N,Net-(D1-Pad1)*
X143764000Y-89916000D03*
D11*
G04 #@! TO.P,R2,2*
G04 #@! TO.N,Net-(R1-Pad1)*
X143764000Y-82296000D03*
G04 #@! TD*
D13*
G04 #@! TO.P,U1,10*
G04 #@! TO.N,Net-(J2-Pad1)*
X130556000Y-83363001D03*
G04 #@! TO.P,U1,1*
G04 #@! TO.N,Net-(U1-Pad1)*
X130556000Y-96033001D03*
G04 #@! TO.P,U1,9*
G04 #@! TO.N,Net-(J2-Pad2)*
X133096000Y-83363001D03*
G04 #@! TO.P,U1,2*
G04 #@! TO.N,Net-(D1-Pad1)*
X133096000Y-96033001D03*
G04 #@! TO.P,U1,8*
G04 #@! TO.N,Net-(J1-Pad2)*
X135636000Y-83363001D03*
G04 #@! TO.P,U1,3*
G04 #@! TO.N,Net-(U1-Pad3)*
X135636000Y-96033001D03*
G04 #@! TO.P,U1,7*
G04 #@! TO.N,Net-(R1-Pad1)*
X138176000Y-83363001D03*
G04 #@! TO.P,U1,4*
G04 #@! TO.N,Net-(U1-Pad4)*
X138176000Y-96033001D03*
G04 #@! TO.P,U1,6*
G04 #@! TO.N,Net-(U1-Pad6)*
X140716000Y-83363001D03*
G04 #@! TO.P,U1,5*
G04 #@! TO.N,Net-(U1-Pad5)*
X140716000Y-96033001D03*
G04 #@! TD*
D14*
G04 #@! TO.P,D1,2*
G04 #@! TO.N,Net-(D1-Pad2)*
X136144000Y-91440000D03*
D15*
G04 #@! TO.P,D1,1*
G04 #@! TO.N,Net-(D1-Pad1)*
X133604000Y-91440000D03*
G04 #@! TD*
D11*
G04 #@! TO.P,R3,2*
G04 #@! TO.N,Net-(J2-Pad1)*
X128524000Y-86868000D03*
D12*
G04 #@! TO.P,R3,1*
G04 #@! TO.N,Net-(D1-Pad2)*
X136144000Y-86868000D03*
G04 #@! TD*
D16*
G04 #@! TO.N,Net-(J1-Pad2)*
X142748000Y-77918923D02*
X142045077Y-77216000D01*
X142748000Y-79248000D02*
X142748000Y-77918923D01*
X142045077Y-77216000D02*
X138684000Y-77216000D01*
X138684000Y-77216000D02*
X137160000Y-78740000D01*
X135636000Y-82113001D02*
X135636000Y-83363001D01*
X137160000Y-80589001D02*
X135636000Y-82113001D01*
X137160000Y-78740000D02*
X137160000Y-80589001D01*
G04 #@! TO.N,Net-(J2-Pad1)*
X130556000Y-82296000D02*
X130556000Y-83363001D01*
X127508000Y-79248000D02*
X130556000Y-82296000D01*
X130556000Y-84836000D02*
X130556000Y-83363001D01*
X128524000Y-86868000D02*
X130556000Y-84836000D01*
G04 #@! TO.N,Net-(J2-Pad2)*
X133096000Y-82296000D02*
X133096000Y-83363001D01*
X130048000Y-79248000D02*
X133096000Y-82296000D01*
G04 #@! TO.N,Net-(J2-Pad3)*
X132588000Y-78232000D02*
X132588000Y-79248000D01*
X133604000Y-76708000D02*
X132588000Y-77724000D01*
X132588000Y-77724000D02*
X132588000Y-79248000D01*
X145288000Y-76708000D02*
X133604000Y-76708000D01*
X147320000Y-82296000D02*
X147320000Y-78740000D01*
X147320000Y-78740000D02*
X145288000Y-76708000D01*
G04 #@! TO.N,Net-(R1-Pad1)*
X143764000Y-85344000D02*
X143764000Y-82296000D01*
X138176000Y-84328000D02*
X138176000Y-83363001D01*
X139192000Y-85344000D02*
X138176000Y-84328000D01*
X143879370Y-85344000D02*
X139192000Y-85344000D01*
X147320000Y-89916000D02*
X147320000Y-88784630D01*
X147320000Y-88784630D02*
X143879370Y-85344000D01*
G04 #@! TO.N,Net-(D1-Pad2)*
X136943999Y-87667999D02*
X136144000Y-86868000D01*
X137043999Y-87767999D02*
X136943999Y-87667999D01*
X137043999Y-90540001D02*
X137043999Y-87767999D01*
X136144000Y-91440000D02*
X137043999Y-90540001D01*
G04 #@! TD*
M02*
