G04 #@! TF.GenerationSoftware,KiCad,Pcbnew,5.0.2-bee76a0~70~ubuntu18.04.1*
G04 #@! TF.CreationDate,2019-07-06T00:12:55+01:00*
G04 #@! TF.ProjectId,Timer Gate,54696d65-7220-4476-9174-652e6b696361,rev?*
G04 #@! TF.SameCoordinates,Original*
G04 #@! TF.FileFunction,Legend,Top*
G04 #@! TF.FilePolarity,Positive*
%FSLAX46Y46*%
G04 Gerber Fmt 4.6, Leading zero omitted, Abs format (unit mm)*
G04 Created by KiCad (PCBNEW 5.0.2-bee76a0~70~ubuntu18.04.1) date Sat Jul  6 00:12:55 2019*
%MOMM*%
%LPD*%
G01*
G04 APERTURE LIST*
%ADD10C,0.200000*%
%ADD11C,0.100000*%
%ADD12C,0.203200*%
%ADD13C,0.120000*%
%ADD14C,0.150000*%
%ADD15C,0.127000*%
G04 APERTURE END LIST*
D10*
X120689714Y-91034285D02*
X121356380Y-90843809D01*
X120880190Y-90653333D01*
X121356380Y-90462857D01*
X120689714Y-90272380D01*
X120689714Y-89986666D02*
X121356380Y-89796190D01*
X120880190Y-89605714D01*
X121356380Y-89415238D01*
X120689714Y-89224761D01*
X120689714Y-88939047D02*
X121356380Y-88748571D01*
X120880190Y-88558095D01*
X121356380Y-88367619D01*
X120689714Y-88177142D01*
X121261142Y-87796190D02*
X121308761Y-87748571D01*
X121356380Y-87796190D01*
X121308761Y-87843809D01*
X121261142Y-87796190D01*
X121356380Y-87796190D01*
X121356380Y-86891428D02*
X120832571Y-86891428D01*
X120737333Y-86939047D01*
X120689714Y-87034285D01*
X120689714Y-87224761D01*
X120737333Y-87320000D01*
X121308761Y-86891428D02*
X121356380Y-86986666D01*
X121356380Y-87224761D01*
X121308761Y-87320000D01*
X121213523Y-87367619D01*
X121118285Y-87367619D01*
X121023047Y-87320000D01*
X120975428Y-87224761D01*
X120975428Y-86986666D01*
X120927809Y-86891428D01*
X121308761Y-86462857D02*
X121356380Y-86367619D01*
X121356380Y-86177142D01*
X121308761Y-86081904D01*
X121213523Y-86034285D01*
X121165904Y-86034285D01*
X121070666Y-86081904D01*
X121023047Y-86177142D01*
X121023047Y-86320000D01*
X120975428Y-86415238D01*
X120880190Y-86462857D01*
X120832571Y-86462857D01*
X120737333Y-86415238D01*
X120689714Y-86320000D01*
X120689714Y-86177142D01*
X120737333Y-86081904D01*
X120689714Y-85748571D02*
X120689714Y-85367619D01*
X120356380Y-85605714D02*
X121213523Y-85605714D01*
X121308761Y-85558095D01*
X121356380Y-85462857D01*
X121356380Y-85367619D01*
X121356380Y-85034285D02*
X120689714Y-85034285D01*
X120880190Y-85034285D02*
X120784952Y-84986666D01*
X120737333Y-84939047D01*
X120689714Y-84843809D01*
X120689714Y-84748571D01*
X121356380Y-84272380D02*
X121308761Y-84367619D01*
X121261142Y-84415238D01*
X121165904Y-84462857D01*
X120880190Y-84462857D01*
X120784952Y-84415238D01*
X120737333Y-84367619D01*
X120689714Y-84272380D01*
X120689714Y-84129523D01*
X120737333Y-84034285D01*
X120784952Y-83986666D01*
X120880190Y-83939047D01*
X121165904Y-83939047D01*
X121261142Y-83986666D01*
X121308761Y-84034285D01*
X121356380Y-84129523D01*
X121356380Y-84272380D01*
X121356380Y-83510476D02*
X120689714Y-83510476D01*
X120784952Y-83510476D02*
X120737333Y-83462857D01*
X120689714Y-83367619D01*
X120689714Y-83224761D01*
X120737333Y-83129523D01*
X120832571Y-83081904D01*
X121356380Y-83081904D01*
X120832571Y-83081904D02*
X120737333Y-83034285D01*
X120689714Y-82939047D01*
X120689714Y-82796190D01*
X120737333Y-82700952D01*
X120832571Y-82653333D01*
X121356380Y-82653333D01*
X121308761Y-81796190D02*
X121356380Y-81891428D01*
X121356380Y-82081904D01*
X121308761Y-82177142D01*
X121213523Y-82224761D01*
X120832571Y-82224761D01*
X120737333Y-82177142D01*
X120689714Y-82081904D01*
X120689714Y-81891428D01*
X120737333Y-81796190D01*
X120832571Y-81748571D01*
X120927809Y-81748571D01*
X121023047Y-82224761D01*
X121308761Y-80891428D02*
X121356380Y-80986666D01*
X121356380Y-81177142D01*
X121308761Y-81272380D01*
X121261142Y-81320000D01*
X121165904Y-81367619D01*
X120880190Y-81367619D01*
X120784952Y-81320000D01*
X120737333Y-81272380D01*
X120689714Y-81177142D01*
X120689714Y-80986666D01*
X120737333Y-80891428D01*
X121356380Y-80462857D02*
X120356380Y-80462857D01*
X121356380Y-80034285D02*
X120832571Y-80034285D01*
X120737333Y-80081904D01*
X120689714Y-80177142D01*
X120689714Y-80320000D01*
X120737333Y-80415238D01*
X120784952Y-80462857D01*
X121261142Y-79558095D02*
X121308761Y-79510476D01*
X121356380Y-79558095D01*
X121308761Y-79605714D01*
X121261142Y-79558095D01*
X121356380Y-79558095D01*
X121356380Y-79081904D02*
X120689714Y-79081904D01*
X120356380Y-79081904D02*
X120404000Y-79129523D01*
X120451619Y-79081904D01*
X120404000Y-79034285D01*
X120356380Y-79081904D01*
X120451619Y-79081904D01*
X120689714Y-78605714D02*
X121356380Y-78605714D01*
X120784952Y-78605714D02*
X120737333Y-78558095D01*
X120689714Y-78462857D01*
X120689714Y-78320000D01*
X120737333Y-78224761D01*
X120832571Y-78177142D01*
X121356380Y-78177142D01*
X120689714Y-77843809D02*
X120689714Y-77462857D01*
X121356380Y-77700952D02*
X120499238Y-77700952D01*
X120404000Y-77653333D01*
X120356380Y-77558095D01*
X120356380Y-77462857D01*
X121356380Y-76986666D02*
X121308761Y-77081904D01*
X121261142Y-77129523D01*
X121165904Y-77177142D01*
X120880190Y-77177142D01*
X120784952Y-77129523D01*
X120737333Y-77081904D01*
X120689714Y-76986666D01*
X120689714Y-76843809D01*
X120737333Y-76748571D01*
X120784952Y-76700952D01*
X120880190Y-76653333D01*
X121165904Y-76653333D01*
X121261142Y-76700952D01*
X121308761Y-76748571D01*
X121356380Y-76843809D01*
X121356380Y-76986666D01*
D11*
X149244190Y-84700571D02*
X149648952Y-84700571D01*
X149696571Y-84676761D01*
X149720380Y-84652952D01*
X149744190Y-84605333D01*
X149744190Y-84510095D01*
X149720380Y-84462476D01*
X149696571Y-84438666D01*
X149648952Y-84414857D01*
X149244190Y-84414857D01*
X149744190Y-84176761D02*
X149244190Y-84176761D01*
X149744190Y-83891047D02*
X149458476Y-84105333D01*
X149244190Y-83891047D02*
X149529904Y-84176761D01*
X149744190Y-83010095D02*
X149506095Y-83176761D01*
X149744190Y-83295809D02*
X149244190Y-83295809D01*
X149244190Y-83105333D01*
X149268000Y-83057714D01*
X149291809Y-83033904D01*
X149339428Y-83010095D01*
X149410857Y-83010095D01*
X149458476Y-83033904D01*
X149482285Y-83057714D01*
X149506095Y-83105333D01*
X149506095Y-83295809D01*
X149291809Y-82819619D02*
X149268000Y-82795809D01*
X149244190Y-82748190D01*
X149244190Y-82629142D01*
X149268000Y-82581523D01*
X149291809Y-82557714D01*
X149339428Y-82533904D01*
X149387047Y-82533904D01*
X149458476Y-82557714D01*
X149744190Y-82843428D01*
X149744190Y-82533904D01*
X149482285Y-81772000D02*
X149506095Y-81700571D01*
X149529904Y-81676761D01*
X149577523Y-81652952D01*
X149648952Y-81652952D01*
X149696571Y-81676761D01*
X149720380Y-81700571D01*
X149744190Y-81748190D01*
X149744190Y-81938666D01*
X149244190Y-81938666D01*
X149244190Y-81772000D01*
X149268000Y-81724380D01*
X149291809Y-81700571D01*
X149339428Y-81676761D01*
X149387047Y-81676761D01*
X149434666Y-81700571D01*
X149458476Y-81724380D01*
X149482285Y-81772000D01*
X149482285Y-81938666D01*
X149410857Y-81224380D02*
X149744190Y-81224380D01*
X149410857Y-81438666D02*
X149672761Y-81438666D01*
X149720380Y-81414857D01*
X149744190Y-81367238D01*
X149744190Y-81295809D01*
X149720380Y-81248190D01*
X149696571Y-81224380D01*
X149744190Y-80986285D02*
X149410857Y-80986285D01*
X149244190Y-80986285D02*
X149268000Y-81010095D01*
X149291809Y-80986285D01*
X149268000Y-80962476D01*
X149244190Y-80986285D01*
X149291809Y-80986285D01*
X149744190Y-80676761D02*
X149720380Y-80724380D01*
X149672761Y-80748190D01*
X149244190Y-80748190D01*
X149744190Y-80272000D02*
X149244190Y-80272000D01*
X149720380Y-80272000D02*
X149744190Y-80319619D01*
X149744190Y-80414857D01*
X149720380Y-80462476D01*
X149696571Y-80486285D01*
X149648952Y-80510095D01*
X149506095Y-80510095D01*
X149458476Y-80486285D01*
X149434666Y-80462476D01*
X149410857Y-80414857D01*
X149410857Y-80319619D01*
X149434666Y-80272000D01*
X149720380Y-79843428D02*
X149744190Y-79891047D01*
X149744190Y-79986285D01*
X149720380Y-80033904D01*
X149672761Y-80057714D01*
X149482285Y-80057714D01*
X149434666Y-80033904D01*
X149410857Y-79986285D01*
X149410857Y-79891047D01*
X149434666Y-79843428D01*
X149482285Y-79819619D01*
X149529904Y-79819619D01*
X149577523Y-80057714D01*
X149744190Y-79605333D02*
X149410857Y-79605333D01*
X149506095Y-79605333D02*
X149458476Y-79581523D01*
X149434666Y-79557714D01*
X149410857Y-79510095D01*
X149410857Y-79462476D01*
X149720380Y-79319619D02*
X149744190Y-79272000D01*
X149744190Y-79176761D01*
X149720380Y-79129142D01*
X149672761Y-79105333D01*
X149648952Y-79105333D01*
X149601333Y-79129142D01*
X149577523Y-79176761D01*
X149577523Y-79248190D01*
X149553714Y-79295809D01*
X149506095Y-79319619D01*
X149482285Y-79319619D01*
X149434666Y-79295809D01*
X149410857Y-79248190D01*
X149410857Y-79176761D01*
X149434666Y-79129142D01*
X149291809Y-78533904D02*
X149268000Y-78510095D01*
X149244190Y-78462476D01*
X149244190Y-78343428D01*
X149268000Y-78295809D01*
X149291809Y-78272000D01*
X149339428Y-78248190D01*
X149387047Y-78248190D01*
X149458476Y-78272000D01*
X149744190Y-78557714D01*
X149744190Y-78248190D01*
X149244190Y-77938666D02*
X149244190Y-77891047D01*
X149268000Y-77843428D01*
X149291809Y-77819619D01*
X149339428Y-77795809D01*
X149434666Y-77772000D01*
X149553714Y-77772000D01*
X149648952Y-77795809D01*
X149696571Y-77819619D01*
X149720380Y-77843428D01*
X149744190Y-77891047D01*
X149744190Y-77938666D01*
X149720380Y-77986285D01*
X149696571Y-78010095D01*
X149648952Y-78033904D01*
X149553714Y-78057714D01*
X149434666Y-78057714D01*
X149339428Y-78033904D01*
X149291809Y-78010095D01*
X149268000Y-77986285D01*
X149244190Y-77938666D01*
X149744190Y-77295809D02*
X149744190Y-77581523D01*
X149744190Y-77438666D02*
X149244190Y-77438666D01*
X149315619Y-77486285D01*
X149363238Y-77533904D01*
X149387047Y-77581523D01*
X149744190Y-77057714D02*
X149744190Y-76962476D01*
X149720380Y-76914857D01*
X149696571Y-76891047D01*
X149625142Y-76843428D01*
X149529904Y-76819619D01*
X149339428Y-76819619D01*
X149291809Y-76843428D01*
X149268000Y-76867238D01*
X149244190Y-76914857D01*
X149244190Y-77010095D01*
X149268000Y-77057714D01*
X149291809Y-77081523D01*
X149339428Y-77105333D01*
X149458476Y-77105333D01*
X149506095Y-77081523D01*
X149529904Y-77057714D01*
X149553714Y-77010095D01*
X149553714Y-76914857D01*
X149529904Y-76867238D01*
X149506095Y-76843428D01*
X149458476Y-76819619D01*
X150594190Y-84426761D02*
X150094190Y-84426761D01*
X150094190Y-84307714D01*
X150118000Y-84236285D01*
X150165619Y-84188666D01*
X150213238Y-84164857D01*
X150308476Y-84141047D01*
X150379904Y-84141047D01*
X150475142Y-84164857D01*
X150522761Y-84188666D01*
X150570380Y-84236285D01*
X150594190Y-84307714D01*
X150594190Y-84426761D01*
X150594190Y-83926761D02*
X150260857Y-83926761D01*
X150356095Y-83926761D02*
X150308476Y-83902952D01*
X150284666Y-83879142D01*
X150260857Y-83831523D01*
X150260857Y-83783904D01*
X150594190Y-83617238D02*
X150260857Y-83617238D01*
X150094190Y-83617238D02*
X150118000Y-83641047D01*
X150141809Y-83617238D01*
X150118000Y-83593428D01*
X150094190Y-83617238D01*
X150141809Y-83617238D01*
X150260857Y-83426761D02*
X150594190Y-83307714D01*
X150260857Y-83188666D01*
X150594190Y-82998190D02*
X150260857Y-82998190D01*
X150094190Y-82998190D02*
X150118000Y-83022000D01*
X150141809Y-82998190D01*
X150118000Y-82974380D01*
X150094190Y-82998190D01*
X150141809Y-82998190D01*
X150260857Y-82760095D02*
X150594190Y-82760095D01*
X150308476Y-82760095D02*
X150284666Y-82736285D01*
X150260857Y-82688666D01*
X150260857Y-82617238D01*
X150284666Y-82569619D01*
X150332285Y-82545809D01*
X150594190Y-82545809D01*
X150260857Y-82093428D02*
X150665619Y-82093428D01*
X150713238Y-82117238D01*
X150737047Y-82141047D01*
X150760857Y-82188666D01*
X150760857Y-82260095D01*
X150737047Y-82307714D01*
X150570380Y-82093428D02*
X150594190Y-82141047D01*
X150594190Y-82236285D01*
X150570380Y-82283904D01*
X150546571Y-82307714D01*
X150498952Y-82331523D01*
X150356095Y-82331523D01*
X150308476Y-82307714D01*
X150284666Y-82283904D01*
X150260857Y-82236285D01*
X150260857Y-82141047D01*
X150284666Y-82093428D01*
X150546571Y-81188666D02*
X150570380Y-81212476D01*
X150594190Y-81283904D01*
X150594190Y-81331523D01*
X150570380Y-81402952D01*
X150522761Y-81450571D01*
X150475142Y-81474380D01*
X150379904Y-81498190D01*
X150308476Y-81498190D01*
X150213238Y-81474380D01*
X150165619Y-81450571D01*
X150118000Y-81402952D01*
X150094190Y-81331523D01*
X150094190Y-81283904D01*
X150118000Y-81212476D01*
X150141809Y-81188666D01*
X150594190Y-80902952D02*
X150570380Y-80950571D01*
X150546571Y-80974380D01*
X150498952Y-80998190D01*
X150356095Y-80998190D01*
X150308476Y-80974380D01*
X150284666Y-80950571D01*
X150260857Y-80902952D01*
X150260857Y-80831523D01*
X150284666Y-80783904D01*
X150308476Y-80760095D01*
X150356095Y-80736285D01*
X150498952Y-80736285D01*
X150546571Y-80760095D01*
X150570380Y-80783904D01*
X150594190Y-80831523D01*
X150594190Y-80902952D01*
X150260857Y-80307714D02*
X150594190Y-80307714D01*
X150260857Y-80522000D02*
X150522761Y-80522000D01*
X150570380Y-80498190D01*
X150594190Y-80450571D01*
X150594190Y-80379142D01*
X150570380Y-80331523D01*
X150546571Y-80307714D01*
X150594190Y-80069619D02*
X150260857Y-80069619D01*
X150356095Y-80069619D02*
X150308476Y-80045809D01*
X150284666Y-80022000D01*
X150260857Y-79974380D01*
X150260857Y-79926761D01*
X150570380Y-79783904D02*
X150594190Y-79736285D01*
X150594190Y-79641047D01*
X150570380Y-79593428D01*
X150522761Y-79569619D01*
X150498952Y-79569619D01*
X150451333Y-79593428D01*
X150427523Y-79641047D01*
X150427523Y-79712476D01*
X150403714Y-79760095D01*
X150356095Y-79783904D01*
X150332285Y-79783904D01*
X150284666Y-79760095D01*
X150260857Y-79712476D01*
X150260857Y-79641047D01*
X150284666Y-79593428D01*
X150570380Y-79164857D02*
X150594190Y-79212476D01*
X150594190Y-79307714D01*
X150570380Y-79355333D01*
X150522761Y-79379142D01*
X150332285Y-79379142D01*
X150284666Y-79355333D01*
X150260857Y-79307714D01*
X150260857Y-79212476D01*
X150284666Y-79164857D01*
X150332285Y-79141047D01*
X150379904Y-79141047D01*
X150427523Y-79379142D01*
X150118000Y-78283904D02*
X150094190Y-78331523D01*
X150094190Y-78402952D01*
X150118000Y-78474380D01*
X150165619Y-78522000D01*
X150213238Y-78545809D01*
X150308476Y-78569619D01*
X150379904Y-78569619D01*
X150475142Y-78545809D01*
X150522761Y-78522000D01*
X150570380Y-78474380D01*
X150594190Y-78402952D01*
X150594190Y-78355333D01*
X150570380Y-78283904D01*
X150546571Y-78260095D01*
X150379904Y-78260095D01*
X150379904Y-78355333D01*
X150594190Y-77831523D02*
X150332285Y-77831523D01*
X150284666Y-77855333D01*
X150260857Y-77902952D01*
X150260857Y-77998190D01*
X150284666Y-78045809D01*
X150570380Y-77831523D02*
X150594190Y-77879142D01*
X150594190Y-77998190D01*
X150570380Y-78045809D01*
X150522761Y-78069619D01*
X150475142Y-78069619D01*
X150427523Y-78045809D01*
X150403714Y-77998190D01*
X150403714Y-77879142D01*
X150379904Y-77831523D01*
X150260857Y-77664857D02*
X150260857Y-77474380D01*
X150094190Y-77593428D02*
X150522761Y-77593428D01*
X150570380Y-77569619D01*
X150594190Y-77522000D01*
X150594190Y-77474380D01*
X150570380Y-77117238D02*
X150594190Y-77164857D01*
X150594190Y-77260095D01*
X150570380Y-77307714D01*
X150522761Y-77331523D01*
X150332285Y-77331523D01*
X150284666Y-77307714D01*
X150260857Y-77260095D01*
X150260857Y-77164857D01*
X150284666Y-77117238D01*
X150332285Y-77093428D01*
X150379904Y-77093428D01*
X150427523Y-77331523D01*
X151634666Y-86283904D02*
X151610857Y-86307714D01*
X151539428Y-86355333D01*
X151491809Y-86379142D01*
X151420380Y-86402952D01*
X151301333Y-86426761D01*
X151206095Y-86426761D01*
X151087047Y-86402952D01*
X151015619Y-86379142D01*
X150968000Y-86355333D01*
X150896571Y-86307714D01*
X150872761Y-86283904D01*
X151420380Y-85879142D02*
X151444190Y-85926761D01*
X151444190Y-86022000D01*
X151420380Y-86069619D01*
X151396571Y-86093428D01*
X151348952Y-86117238D01*
X151206095Y-86117238D01*
X151158476Y-86093428D01*
X151134666Y-86069619D01*
X151110857Y-86022000D01*
X151110857Y-85926761D01*
X151134666Y-85879142D01*
X151634666Y-85712476D02*
X151610857Y-85688666D01*
X151539428Y-85641047D01*
X151491809Y-85617238D01*
X151420380Y-85593428D01*
X151301333Y-85569619D01*
X151206095Y-85569619D01*
X151087047Y-85593428D01*
X151015619Y-85617238D01*
X150968000Y-85641047D01*
X150896571Y-85688666D01*
X150872761Y-85712476D01*
X151444190Y-84736285D02*
X150944190Y-84736285D01*
X151420380Y-84736285D02*
X151444190Y-84783904D01*
X151444190Y-84879142D01*
X151420380Y-84926761D01*
X151396571Y-84950571D01*
X151348952Y-84974380D01*
X151206095Y-84974380D01*
X151158476Y-84950571D01*
X151134666Y-84926761D01*
X151110857Y-84879142D01*
X151110857Y-84783904D01*
X151134666Y-84736285D01*
X151444190Y-84283904D02*
X151182285Y-84283904D01*
X151134666Y-84307714D01*
X151110857Y-84355333D01*
X151110857Y-84450571D01*
X151134666Y-84498190D01*
X151420380Y-84283904D02*
X151444190Y-84331523D01*
X151444190Y-84450571D01*
X151420380Y-84498190D01*
X151372761Y-84522000D01*
X151325142Y-84522000D01*
X151277523Y-84498190D01*
X151253714Y-84450571D01*
X151253714Y-84331523D01*
X151229904Y-84283904D01*
X151444190Y-84045809D02*
X151110857Y-84045809D01*
X151206095Y-84045809D02*
X151158476Y-84022000D01*
X151134666Y-83998190D01*
X151110857Y-83950571D01*
X151110857Y-83902952D01*
X151444190Y-83736285D02*
X151110857Y-83736285D01*
X151206095Y-83736285D02*
X151158476Y-83712476D01*
X151134666Y-83688666D01*
X151110857Y-83641047D01*
X151110857Y-83593428D01*
X151420380Y-83236285D02*
X151444190Y-83283904D01*
X151444190Y-83379142D01*
X151420380Y-83426761D01*
X151372761Y-83450571D01*
X151182285Y-83450571D01*
X151134666Y-83426761D01*
X151110857Y-83379142D01*
X151110857Y-83283904D01*
X151134666Y-83236285D01*
X151182285Y-83212476D01*
X151229904Y-83212476D01*
X151277523Y-83450571D01*
X151110857Y-82998190D02*
X151444190Y-82998190D01*
X151158476Y-82998190D02*
X151134666Y-82974380D01*
X151110857Y-82926761D01*
X151110857Y-82855333D01*
X151134666Y-82807714D01*
X151182285Y-82783904D01*
X151444190Y-82783904D01*
X151396571Y-82545809D02*
X151420380Y-82522000D01*
X151444190Y-82545809D01*
X151420380Y-82569619D01*
X151396571Y-82545809D01*
X151444190Y-82545809D01*
X151110857Y-82307714D02*
X151610857Y-82307714D01*
X151134666Y-82307714D02*
X151110857Y-82260095D01*
X151110857Y-82164857D01*
X151134666Y-82117238D01*
X151158476Y-82093428D01*
X151206095Y-82069619D01*
X151348952Y-82069619D01*
X151396571Y-82093428D01*
X151420380Y-82117238D01*
X151444190Y-82164857D01*
X151444190Y-82260095D01*
X151420380Y-82307714D01*
X151444190Y-81783904D02*
X151420380Y-81831523D01*
X151396571Y-81855333D01*
X151348952Y-81879142D01*
X151206095Y-81879142D01*
X151158476Y-81855333D01*
X151134666Y-81831523D01*
X151110857Y-81783904D01*
X151110857Y-81712476D01*
X151134666Y-81664857D01*
X151158476Y-81641047D01*
X151206095Y-81617238D01*
X151348952Y-81617238D01*
X151396571Y-81641047D01*
X151420380Y-81664857D01*
X151444190Y-81712476D01*
X151444190Y-81783904D01*
X151110857Y-81188666D02*
X151444190Y-81188666D01*
X151110857Y-81402952D02*
X151372761Y-81402952D01*
X151420380Y-81379142D01*
X151444190Y-81331523D01*
X151444190Y-81260095D01*
X151420380Y-81212476D01*
X151396571Y-81188666D01*
X151444190Y-80879142D02*
X151420380Y-80926761D01*
X151372761Y-80950571D01*
X150944190Y-80950571D01*
X151420380Y-80712476D02*
X151444190Y-80664857D01*
X151444190Y-80569619D01*
X151420380Y-80522000D01*
X151372761Y-80498190D01*
X151348952Y-80498190D01*
X151301333Y-80522000D01*
X151277523Y-80569619D01*
X151277523Y-80641047D01*
X151253714Y-80688666D01*
X151206095Y-80712476D01*
X151182285Y-80712476D01*
X151134666Y-80688666D01*
X151110857Y-80641047D01*
X151110857Y-80569619D01*
X151134666Y-80522000D01*
X151444190Y-80212476D02*
X151420380Y-80260095D01*
X151396571Y-80283904D01*
X151348952Y-80307714D01*
X151206095Y-80307714D01*
X151158476Y-80283904D01*
X151134666Y-80260095D01*
X151110857Y-80212476D01*
X151110857Y-80141047D01*
X151134666Y-80093428D01*
X151158476Y-80069619D01*
X151206095Y-80045809D01*
X151348952Y-80045809D01*
X151396571Y-80069619D01*
X151420380Y-80093428D01*
X151444190Y-80141047D01*
X151444190Y-80212476D01*
X151110857Y-79831523D02*
X151444190Y-79831523D01*
X151158476Y-79831523D02*
X151134666Y-79807714D01*
X151110857Y-79760095D01*
X151110857Y-79688666D01*
X151134666Y-79641047D01*
X151182285Y-79617238D01*
X151444190Y-79617238D01*
X151206095Y-79069619D02*
X151182285Y-79093428D01*
X151158476Y-79141047D01*
X151158476Y-79188666D01*
X151182285Y-79236285D01*
X151206095Y-79260095D01*
X151253714Y-79283904D01*
X151301333Y-79283904D01*
X151348952Y-79260095D01*
X151372761Y-79236285D01*
X151396571Y-79188666D01*
X151396571Y-79141047D01*
X151372761Y-79093428D01*
X151348952Y-79069619D01*
X151158476Y-79069619D02*
X151348952Y-79069619D01*
X151372761Y-79045809D01*
X151372761Y-79022000D01*
X151348952Y-78974380D01*
X151301333Y-78950571D01*
X151182285Y-78950571D01*
X151110857Y-78998190D01*
X151063238Y-79069619D01*
X151039428Y-79164857D01*
X151063238Y-79260095D01*
X151110857Y-79331523D01*
X151182285Y-79379142D01*
X151277523Y-79402952D01*
X151372761Y-79379142D01*
X151444190Y-79331523D01*
X151491809Y-79260095D01*
X151515619Y-79164857D01*
X151491809Y-79069619D01*
X151444190Y-78998190D01*
X151110857Y-78522000D02*
X151515619Y-78522000D01*
X151563238Y-78545809D01*
X151587047Y-78569619D01*
X151610857Y-78617238D01*
X151610857Y-78688666D01*
X151587047Y-78736285D01*
X151420380Y-78522000D02*
X151444190Y-78569619D01*
X151444190Y-78664857D01*
X151420380Y-78712476D01*
X151396571Y-78736285D01*
X151348952Y-78760095D01*
X151206095Y-78760095D01*
X151158476Y-78736285D01*
X151134666Y-78712476D01*
X151110857Y-78664857D01*
X151110857Y-78569619D01*
X151134666Y-78522000D01*
X151444190Y-78283904D02*
X151110857Y-78283904D01*
X151158476Y-78283904D02*
X151134666Y-78260095D01*
X151110857Y-78212476D01*
X151110857Y-78141047D01*
X151134666Y-78093428D01*
X151182285Y-78069619D01*
X151444190Y-78069619D01*
X151182285Y-78069619D02*
X151134666Y-78045809D01*
X151110857Y-77998190D01*
X151110857Y-77926761D01*
X151134666Y-77879142D01*
X151182285Y-77855333D01*
X151444190Y-77855333D01*
X151444190Y-77402952D02*
X151182285Y-77402952D01*
X151134666Y-77426761D01*
X151110857Y-77474380D01*
X151110857Y-77569619D01*
X151134666Y-77617238D01*
X151420380Y-77402952D02*
X151444190Y-77450571D01*
X151444190Y-77569619D01*
X151420380Y-77617238D01*
X151372761Y-77641047D01*
X151325142Y-77641047D01*
X151277523Y-77617238D01*
X151253714Y-77569619D01*
X151253714Y-77450571D01*
X151229904Y-77402952D01*
X151444190Y-77164857D02*
X151110857Y-77164857D01*
X150944190Y-77164857D02*
X150968000Y-77188666D01*
X150991809Y-77164857D01*
X150968000Y-77141047D01*
X150944190Y-77164857D01*
X150991809Y-77164857D01*
X151444190Y-76855333D02*
X151420380Y-76902952D01*
X151372761Y-76926761D01*
X150944190Y-76926761D01*
X151396571Y-76664857D02*
X151420380Y-76641047D01*
X151444190Y-76664857D01*
X151420380Y-76688666D01*
X151396571Y-76664857D01*
X151444190Y-76664857D01*
X151420380Y-76212476D02*
X151444190Y-76260095D01*
X151444190Y-76355333D01*
X151420380Y-76402952D01*
X151396571Y-76426761D01*
X151348952Y-76450571D01*
X151206095Y-76450571D01*
X151158476Y-76426761D01*
X151134666Y-76402952D01*
X151110857Y-76355333D01*
X151110857Y-76260095D01*
X151134666Y-76212476D01*
X151444190Y-75926761D02*
X151420380Y-75974380D01*
X151396571Y-75998190D01*
X151348952Y-76022000D01*
X151206095Y-76022000D01*
X151158476Y-75998190D01*
X151134666Y-75974380D01*
X151110857Y-75926761D01*
X151110857Y-75855333D01*
X151134666Y-75807714D01*
X151158476Y-75783904D01*
X151206095Y-75760095D01*
X151348952Y-75760095D01*
X151396571Y-75783904D01*
X151420380Y-75807714D01*
X151444190Y-75855333D01*
X151444190Y-75926761D01*
X151444190Y-75545809D02*
X151110857Y-75545809D01*
X151158476Y-75545809D02*
X151134666Y-75522000D01*
X151110857Y-75474380D01*
X151110857Y-75402952D01*
X151134666Y-75355333D01*
X151182285Y-75331523D01*
X151444190Y-75331523D01*
X151182285Y-75331523D02*
X151134666Y-75307714D01*
X151110857Y-75260095D01*
X151110857Y-75188666D01*
X151134666Y-75141047D01*
X151182285Y-75117238D01*
X151444190Y-75117238D01*
X134878000Y-77088952D02*
X134854190Y-77136571D01*
X134854190Y-77208000D01*
X134878000Y-77279428D01*
X134925619Y-77327047D01*
X134973238Y-77350857D01*
X135068476Y-77374666D01*
X135139904Y-77374666D01*
X135235142Y-77350857D01*
X135282761Y-77327047D01*
X135330380Y-77279428D01*
X135354190Y-77208000D01*
X135354190Y-77160380D01*
X135330380Y-77088952D01*
X135306571Y-77065142D01*
X135139904Y-77065142D01*
X135139904Y-77160380D01*
X135354190Y-76850857D02*
X134854190Y-76850857D01*
X135354190Y-76565142D01*
X134854190Y-76565142D01*
X135354190Y-76327047D02*
X134854190Y-76327047D01*
X134854190Y-76208000D01*
X134878000Y-76136571D01*
X134925619Y-76088952D01*
X134973238Y-76065142D01*
X135068476Y-76041333D01*
X135139904Y-76041333D01*
X135235142Y-76065142D01*
X135282761Y-76088952D01*
X135330380Y-76136571D01*
X135354190Y-76208000D01*
X135354190Y-76327047D01*
X132552285Y-77588952D02*
X132552285Y-77422285D01*
X132814190Y-77350857D02*
X132814190Y-77588952D01*
X132314190Y-77588952D01*
X132314190Y-77350857D01*
X132766571Y-76850857D02*
X132790380Y-76874666D01*
X132814190Y-76946095D01*
X132814190Y-76993714D01*
X132790380Y-77065142D01*
X132742761Y-77112761D01*
X132695142Y-77136571D01*
X132599904Y-77160380D01*
X132528476Y-77160380D01*
X132433238Y-77136571D01*
X132385619Y-77112761D01*
X132338000Y-77065142D01*
X132314190Y-76993714D01*
X132314190Y-76946095D01*
X132338000Y-76874666D01*
X132361809Y-76850857D01*
X132814190Y-76636571D02*
X132314190Y-76636571D01*
X132552285Y-76636571D02*
X132552285Y-76350857D01*
X132814190Y-76350857D02*
X132314190Y-76350857D01*
X132314190Y-76017523D02*
X132314190Y-75922285D01*
X132338000Y-75874666D01*
X132385619Y-75827047D01*
X132480857Y-75803238D01*
X132647523Y-75803238D01*
X132742761Y-75827047D01*
X132790380Y-75874666D01*
X132814190Y-75922285D01*
X132814190Y-76017523D01*
X132790380Y-76065142D01*
X132742761Y-76112761D01*
X132647523Y-76136571D01*
X132480857Y-76136571D01*
X132385619Y-76112761D01*
X132338000Y-76065142D01*
X132314190Y-76017523D01*
X129774190Y-77469904D02*
X129774190Y-77184190D01*
X130274190Y-77327047D02*
X129774190Y-77327047D01*
X130274190Y-76731809D02*
X130036095Y-76898476D01*
X130274190Y-77017523D02*
X129774190Y-77017523D01*
X129774190Y-76827047D01*
X129798000Y-76779428D01*
X129821809Y-76755619D01*
X129869428Y-76731809D01*
X129940857Y-76731809D01*
X129988476Y-76755619D01*
X130012285Y-76779428D01*
X130036095Y-76827047D01*
X130036095Y-77017523D01*
X130274190Y-76517523D02*
X129774190Y-76517523D01*
X129798000Y-76017523D02*
X129774190Y-76065142D01*
X129774190Y-76136571D01*
X129798000Y-76208000D01*
X129845619Y-76255619D01*
X129893238Y-76279428D01*
X129988476Y-76303238D01*
X130059904Y-76303238D01*
X130155142Y-76279428D01*
X130202761Y-76255619D01*
X130250380Y-76208000D01*
X130274190Y-76136571D01*
X130274190Y-76088952D01*
X130250380Y-76017523D01*
X130226571Y-75993714D01*
X130059904Y-75993714D01*
X130059904Y-76088952D01*
X127234190Y-77374666D02*
X127734190Y-77208000D01*
X127234190Y-77041333D01*
X127686571Y-76588952D02*
X127710380Y-76612761D01*
X127734190Y-76684190D01*
X127734190Y-76731809D01*
X127710380Y-76803238D01*
X127662761Y-76850857D01*
X127615142Y-76874666D01*
X127519904Y-76898476D01*
X127448476Y-76898476D01*
X127353238Y-76874666D01*
X127305619Y-76850857D01*
X127258000Y-76803238D01*
X127234190Y-76731809D01*
X127234190Y-76684190D01*
X127258000Y-76612761D01*
X127281809Y-76588952D01*
X127686571Y-76088952D02*
X127710380Y-76112761D01*
X127734190Y-76184190D01*
X127734190Y-76231809D01*
X127710380Y-76303238D01*
X127662761Y-76350857D01*
X127615142Y-76374666D01*
X127519904Y-76398476D01*
X127448476Y-76398476D01*
X127353238Y-76374666D01*
X127305619Y-76350857D01*
X127258000Y-76303238D01*
X127234190Y-76231809D01*
X127234190Y-76184190D01*
X127258000Y-76112761D01*
X127281809Y-76088952D01*
X142474190Y-77208000D02*
X142474190Y-77112761D01*
X142498000Y-77065142D01*
X142545619Y-77017523D01*
X142640857Y-76993714D01*
X142807523Y-76993714D01*
X142902761Y-77017523D01*
X142950380Y-77065142D01*
X142974190Y-77112761D01*
X142974190Y-77208000D01*
X142950380Y-77255619D01*
X142902761Y-77303238D01*
X142807523Y-77327047D01*
X142640857Y-77327047D01*
X142545619Y-77303238D01*
X142498000Y-77255619D01*
X142474190Y-77208000D01*
X142474190Y-76779428D02*
X142878952Y-76779428D01*
X142926571Y-76755619D01*
X142950380Y-76731809D01*
X142974190Y-76684190D01*
X142974190Y-76588952D01*
X142950380Y-76541333D01*
X142926571Y-76517523D01*
X142878952Y-76493714D01*
X142474190Y-76493714D01*
X142474190Y-76327047D02*
X142474190Y-76041333D01*
X142974190Y-76184190D02*
X142474190Y-76184190D01*
X139958000Y-77088952D02*
X139934190Y-77136571D01*
X139934190Y-77208000D01*
X139958000Y-77279428D01*
X140005619Y-77327047D01*
X140053238Y-77350857D01*
X140148476Y-77374666D01*
X140219904Y-77374666D01*
X140315142Y-77350857D01*
X140362761Y-77327047D01*
X140410380Y-77279428D01*
X140434190Y-77208000D01*
X140434190Y-77160380D01*
X140410380Y-77088952D01*
X140386571Y-77065142D01*
X140219904Y-77065142D01*
X140219904Y-77160380D01*
X140434190Y-76850857D02*
X139934190Y-76850857D01*
X140434190Y-76565142D01*
X139934190Y-76565142D01*
X140434190Y-76327047D02*
X139934190Y-76327047D01*
X139934190Y-76208000D01*
X139958000Y-76136571D01*
X140005619Y-76088952D01*
X140053238Y-76065142D01*
X140148476Y-76041333D01*
X140219904Y-76041333D01*
X140315142Y-76065142D01*
X140362761Y-76088952D01*
X140410380Y-76136571D01*
X140434190Y-76208000D01*
X140434190Y-76327047D01*
D12*
G04 #@! TO.C,J1*
X139573000Y-77978000D02*
X140843000Y-77978000D01*
X140843000Y-77978000D02*
X141478000Y-78613000D01*
X141478000Y-79883000D02*
X140843000Y-80518000D01*
X141478000Y-78613000D02*
X142113000Y-77978000D01*
X142113000Y-77978000D02*
X143383000Y-77978000D01*
X143383000Y-77978000D02*
X144018000Y-78613000D01*
X144018000Y-79883000D02*
X143383000Y-80518000D01*
X143383000Y-80518000D02*
X142113000Y-80518000D01*
X142113000Y-80518000D02*
X141478000Y-79883000D01*
X138938000Y-78613000D02*
X138938000Y-79883000D01*
X139573000Y-77978000D02*
X138938000Y-78613000D01*
X138938000Y-79883000D02*
X139573000Y-80518000D01*
X140843000Y-80518000D02*
X139573000Y-80518000D01*
X144018000Y-78613000D02*
X144018000Y-79883000D01*
G04 #@! TO.C,J2*
X134493000Y-77978000D02*
X135763000Y-77978000D01*
X135763000Y-77978000D02*
X136398000Y-78613000D01*
X136398000Y-79883000D02*
X135763000Y-80518000D01*
X131318000Y-78613000D02*
X131953000Y-77978000D01*
X131953000Y-77978000D02*
X133223000Y-77978000D01*
X133223000Y-77978000D02*
X133858000Y-78613000D01*
X133858000Y-79883000D02*
X133223000Y-80518000D01*
X133223000Y-80518000D02*
X131953000Y-80518000D01*
X131953000Y-80518000D02*
X131318000Y-79883000D01*
X134493000Y-77978000D02*
X133858000Y-78613000D01*
X133858000Y-79883000D02*
X134493000Y-80518000D01*
X135763000Y-80518000D02*
X134493000Y-80518000D01*
X126873000Y-77978000D02*
X128143000Y-77978000D01*
X128143000Y-77978000D02*
X128778000Y-78613000D01*
X128778000Y-79883000D02*
X128143000Y-80518000D01*
X128778000Y-78613000D02*
X129413000Y-77978000D01*
X129413000Y-77978000D02*
X130683000Y-77978000D01*
X130683000Y-77978000D02*
X131318000Y-78613000D01*
X131318000Y-79883000D02*
X130683000Y-80518000D01*
X130683000Y-80518000D02*
X129413000Y-80518000D01*
X129413000Y-80518000D02*
X128778000Y-79883000D01*
X126238000Y-78613000D02*
X126238000Y-79883000D01*
X126873000Y-77978000D02*
X126238000Y-78613000D01*
X126238000Y-79883000D02*
X126873000Y-80518000D01*
X128143000Y-80518000D02*
X126873000Y-80518000D01*
X136398000Y-78613000D02*
X136398000Y-79883000D01*
D13*
G04 #@! TO.C,R1*
X148630000Y-82896000D02*
X148300000Y-82896000D01*
X148630000Y-89316000D02*
X148630000Y-82896000D01*
X148300000Y-89316000D02*
X148630000Y-89316000D01*
X146010000Y-82896000D02*
X146340000Y-82896000D01*
X146010000Y-89316000D02*
X146010000Y-82896000D01*
X146340000Y-89316000D02*
X146010000Y-89316000D01*
G04 #@! TO.C,R2*
X142784000Y-89316000D02*
X142454000Y-89316000D01*
X142454000Y-89316000D02*
X142454000Y-82896000D01*
X142454000Y-82896000D02*
X142784000Y-82896000D01*
X144744000Y-89316000D02*
X145074000Y-89316000D01*
X145074000Y-89316000D02*
X145074000Y-82896000D01*
X145074000Y-82896000D02*
X144744000Y-82896000D01*
G04 #@! TO.C,D1*
X133314000Y-92520000D02*
X133314000Y-92676000D01*
X133314000Y-90204000D02*
X133314000Y-90360000D01*
X135915130Y-92519837D02*
G75*
G02X133833039Y-92520000I-1041130J1079837D01*
G01*
X135915130Y-90360163D02*
G75*
G03X133833039Y-90360000I-1041130J-1079837D01*
G01*
X136546335Y-92518608D02*
G75*
G02X133314000Y-92675516I-1672335J1078608D01*
G01*
X136546335Y-90361392D02*
G75*
G03X133314000Y-90204484I-1672335J-1078608D01*
G01*
G04 #@! TO.C,R3*
X129124000Y-85558000D02*
X129124000Y-85888000D01*
X135544000Y-85558000D02*
X129124000Y-85558000D01*
X135544000Y-85888000D02*
X135544000Y-85558000D01*
X129124000Y-88178000D02*
X129124000Y-87848000D01*
X135544000Y-88178000D02*
X129124000Y-88178000D01*
X135544000Y-87848000D02*
X135544000Y-88178000D01*
G04 #@! TO.C,*
D14*
G04 #@! TO.C,J1*
D15*
X137972800Y-78914171D02*
X137972800Y-79349600D01*
X137943771Y-79436685D01*
X137885714Y-79494742D01*
X137798628Y-79523771D01*
X137740571Y-79523771D01*
X138582400Y-79523771D02*
X138234057Y-79523771D01*
X138408228Y-79523771D02*
X138408228Y-78914171D01*
X138350171Y-79001257D01*
X138292114Y-79059314D01*
X138234057Y-79088342D01*
X139758057Y-80946171D02*
X139874171Y-80946171D01*
X139932228Y-80975200D01*
X139990285Y-81033257D01*
X140019314Y-81149371D01*
X140019314Y-81352571D01*
X139990285Y-81468685D01*
X139932228Y-81526742D01*
X139874171Y-81555771D01*
X139758057Y-81555771D01*
X139700000Y-81526742D01*
X139641942Y-81468685D01*
X139612914Y-81352571D01*
X139612914Y-81149371D01*
X139641942Y-81033257D01*
X139700000Y-80975200D01*
X139758057Y-80946171D01*
X140280571Y-80946171D02*
X140280571Y-81439657D01*
X140309600Y-81497714D01*
X140338628Y-81526742D01*
X140396685Y-81555771D01*
X140512800Y-81555771D01*
X140570857Y-81526742D01*
X140599885Y-81497714D01*
X140628914Y-81439657D01*
X140628914Y-80946171D01*
X140832114Y-80946171D02*
X141180457Y-80946171D01*
X141006285Y-81555771D02*
X141006285Y-80946171D01*
X141383657Y-81555771D02*
X141383657Y-80946171D01*
X141615885Y-80946171D01*
X141673942Y-80975200D01*
X141702971Y-81004228D01*
X141732000Y-81062285D01*
X141732000Y-81149371D01*
X141702971Y-81207428D01*
X141673942Y-81236457D01*
X141615885Y-81265485D01*
X141383657Y-81265485D01*
X141993257Y-80946171D02*
X141993257Y-81439657D01*
X142022285Y-81497714D01*
X142051314Y-81526742D01*
X142109371Y-81555771D01*
X142225485Y-81555771D01*
X142283542Y-81526742D01*
X142312571Y-81497714D01*
X142341600Y-81439657D01*
X142341600Y-80946171D01*
X142544800Y-80946171D02*
X142893142Y-80946171D01*
X142718971Y-81555771D02*
X142718971Y-80946171D01*
G04 #@! TO.C,J2*
X125272800Y-78914171D02*
X125272800Y-79349600D01*
X125243771Y-79436685D01*
X125185714Y-79494742D01*
X125098628Y-79523771D01*
X125040571Y-79523771D01*
X125534057Y-78972228D02*
X125563085Y-78943200D01*
X125621142Y-78914171D01*
X125766285Y-78914171D01*
X125824342Y-78943200D01*
X125853371Y-78972228D01*
X125882400Y-79030285D01*
X125882400Y-79088342D01*
X125853371Y-79175428D01*
X125505028Y-79523771D01*
X125882400Y-79523771D01*
X129888342Y-81526742D02*
X129975428Y-81555771D01*
X130120571Y-81555771D01*
X130178628Y-81526742D01*
X130207657Y-81497714D01*
X130236685Y-81439657D01*
X130236685Y-81381600D01*
X130207657Y-81323542D01*
X130178628Y-81294514D01*
X130120571Y-81265485D01*
X130004457Y-81236457D01*
X129946400Y-81207428D01*
X129917371Y-81178400D01*
X129888342Y-81120342D01*
X129888342Y-81062285D01*
X129917371Y-81004228D01*
X129946400Y-80975200D01*
X130004457Y-80946171D01*
X130149600Y-80946171D01*
X130236685Y-80975200D01*
X130497942Y-81236457D02*
X130701142Y-81236457D01*
X130788228Y-81555771D02*
X130497942Y-81555771D01*
X130497942Y-80946171D01*
X130788228Y-80946171D01*
X131049485Y-81555771D02*
X131049485Y-80946171D01*
X131397828Y-81555771D01*
X131397828Y-80946171D01*
X131659085Y-81526742D02*
X131746171Y-81555771D01*
X131891314Y-81555771D01*
X131949371Y-81526742D01*
X131978400Y-81497714D01*
X132007428Y-81439657D01*
X132007428Y-81381600D01*
X131978400Y-81323542D01*
X131949371Y-81294514D01*
X131891314Y-81265485D01*
X131775200Y-81236457D01*
X131717142Y-81207428D01*
X131688114Y-81178400D01*
X131659085Y-81120342D01*
X131659085Y-81062285D01*
X131688114Y-81004228D01*
X131717142Y-80975200D01*
X131775200Y-80946171D01*
X131920342Y-80946171D01*
X132007428Y-80975200D01*
X132384800Y-80946171D02*
X132500914Y-80946171D01*
X132558971Y-80975200D01*
X132617028Y-81033257D01*
X132646057Y-81149371D01*
X132646057Y-81352571D01*
X132617028Y-81468685D01*
X132558971Y-81526742D01*
X132500914Y-81555771D01*
X132384800Y-81555771D01*
X132326742Y-81526742D01*
X132268685Y-81468685D01*
X132239657Y-81352571D01*
X132239657Y-81149371D01*
X132268685Y-81033257D01*
X132326742Y-80975200D01*
X132384800Y-80946171D01*
X133255657Y-81555771D02*
X133052457Y-81265485D01*
X132907314Y-81555771D02*
X132907314Y-80946171D01*
X133139542Y-80946171D01*
X133197600Y-80975200D01*
X133226628Y-81004228D01*
X133255657Y-81062285D01*
X133255657Y-81149371D01*
X133226628Y-81207428D01*
X133197600Y-81236457D01*
X133139542Y-81265485D01*
X132907314Y-81265485D01*
G04 #@! TO.C,R1*
D14*
X147772380Y-86018666D02*
X147296190Y-86352000D01*
X147772380Y-86590095D02*
X146772380Y-86590095D01*
X146772380Y-86209142D01*
X146820000Y-86113904D01*
X146867619Y-86066285D01*
X146962857Y-86018666D01*
X147105714Y-86018666D01*
X147200952Y-86066285D01*
X147248571Y-86113904D01*
X147296190Y-86209142D01*
X147296190Y-86590095D01*
X147772380Y-85066285D02*
X147772380Y-85637714D01*
X147772380Y-85352000D02*
X146772380Y-85352000D01*
X146915238Y-85447238D01*
X147010476Y-85542476D01*
X147058095Y-85637714D01*
G04 #@! TO.C,R2*
X144216380Y-86526666D02*
X143740190Y-86860000D01*
X144216380Y-87098095D02*
X143216380Y-87098095D01*
X143216380Y-86717142D01*
X143264000Y-86621904D01*
X143311619Y-86574285D01*
X143406857Y-86526666D01*
X143549714Y-86526666D01*
X143644952Y-86574285D01*
X143692571Y-86621904D01*
X143740190Y-86717142D01*
X143740190Y-87098095D01*
X143311619Y-86145714D02*
X143264000Y-86098095D01*
X143216380Y-86002857D01*
X143216380Y-85764761D01*
X143264000Y-85669523D01*
X143311619Y-85621904D01*
X143406857Y-85574285D01*
X143502095Y-85574285D01*
X143644952Y-85621904D01*
X144216380Y-86193333D01*
X144216380Y-85574285D01*
G04 #@! TO.C,U1*
X122965856Y-90830285D02*
X123937284Y-90830285D01*
X124051570Y-90773142D01*
X124108713Y-90716000D01*
X124165856Y-90601714D01*
X124165856Y-90373142D01*
X124108713Y-90258857D01*
X124051570Y-90201714D01*
X123937284Y-90144571D01*
X122965856Y-90144571D01*
X124165856Y-88944571D02*
X124165856Y-89630285D01*
X124165856Y-89287428D02*
X122965856Y-89287428D01*
X123137284Y-89401714D01*
X123251570Y-89516000D01*
X123308713Y-89630285D01*
G04 #@! TO.C,*
G04 #@! TO.C,D1*
X137945904Y-91892380D02*
X137945904Y-90892380D01*
X138184000Y-90892380D01*
X138326857Y-90940000D01*
X138422095Y-91035238D01*
X138469714Y-91130476D01*
X138517333Y-91320952D01*
X138517333Y-91463809D01*
X138469714Y-91654285D01*
X138422095Y-91749523D01*
X138326857Y-91844761D01*
X138184000Y-91892380D01*
X137945904Y-91892380D01*
X139469714Y-91892380D02*
X138898285Y-91892380D01*
X139184000Y-91892380D02*
X139184000Y-90892380D01*
X139088761Y-91035238D01*
X138993523Y-91130476D01*
X138898285Y-91178095D01*
G04 #@! TO.C,R3*
X132167333Y-87320380D02*
X131834000Y-86844190D01*
X131595904Y-87320380D02*
X131595904Y-86320380D01*
X131976857Y-86320380D01*
X132072095Y-86368000D01*
X132119714Y-86415619D01*
X132167333Y-86510857D01*
X132167333Y-86653714D01*
X132119714Y-86748952D01*
X132072095Y-86796571D01*
X131976857Y-86844190D01*
X131595904Y-86844190D01*
X132500666Y-86320380D02*
X133119714Y-86320380D01*
X132786380Y-86701333D01*
X132929238Y-86701333D01*
X133024476Y-86748952D01*
X133072095Y-86796571D01*
X133119714Y-86891809D01*
X133119714Y-87129904D01*
X133072095Y-87225142D01*
X133024476Y-87272761D01*
X132929238Y-87320380D01*
X132643523Y-87320380D01*
X132548285Y-87272761D01*
X132500666Y-87225142D01*
G04 #@! TD*
M02*
