M48
;DRILL file {KiCad 5.0.2-bee76a0~70~ubuntu18.04.1} date Sun May 12 23:42:09 2019
;FORMAT={3:3/ absolute / metric / suppress leading zeros}
FMAT,2
METRIC,TZ
T1C0.800
T2C1.016
T3C3.200
%
G90
G05
T1
X132080Y-88392
X139700Y-88392
X132080Y-91948
X139700Y-91948
X130885Y-83363
X130885Y-96033
X133425Y-83363
X133425Y-96033
X135965Y-83363
X135965Y-96033
X138505Y-83363
X138505Y-96033
X141045Y-83363
X141045Y-96033
T2
X127508Y-79248
X130048Y-79248
X132588Y-79248
X135128Y-79248
X140208Y-79248
X142748Y-79248
T3
X123952Y-94996
X147828Y-94996
T0
M30
