G04 #@! TF.GenerationSoftware,KiCad,Pcbnew,5.0.2-bee76a0~70~ubuntu18.04.1*
G04 #@! TF.CreationDate,2019-05-12T23:41:40+01:00*
G04 #@! TF.ProjectId,Timer Gate,54696d65-7220-4476-9174-652e6b696361,rev?*
G04 #@! TF.SameCoordinates,Original*
G04 #@! TF.FileFunction,Copper,L2,Bot*
G04 #@! TF.FilePolarity,Positive*
%FSLAX46Y46*%
G04 Gerber Fmt 4.6, Leading zero omitted, Abs format (unit mm)*
G04 Created by KiCad (PCBNEW 5.0.2-bee76a0~70~ubuntu18.04.1) date Sun May 12 23:41:40 2019*
%MOMM*%
%LPD*%
G01*
G04 APERTURE LIST*
G04 #@! TA.AperFunction,ComponentPad*
%ADD10C,1.879600*%
G04 #@! TD*
G04 #@! TA.AperFunction,ComponentPad*
%ADD11O,1.600000X1.600000*%
G04 #@! TD*
G04 #@! TA.AperFunction,ComponentPad*
%ADD12C,1.600000*%
G04 #@! TD*
G04 #@! TA.AperFunction,ComponentPad*
%ADD13O,1.200000X2.000000*%
G04 #@! TD*
G04 #@! TA.AperFunction,Conductor*
%ADD14C,0.254000*%
G04 #@! TD*
G04 APERTURE END LIST*
D10*
G04 #@! TO.P,J1,1*
G04 #@! TO.N,Net-(J1-Pad1)*
X140208000Y-79248000D03*
G04 #@! TO.P,J1,2*
G04 #@! TO.N,Net-(J1-Pad2)*
X142748000Y-79248000D03*
G04 #@! TD*
G04 #@! TO.P,J2,1*
G04 #@! TO.N,Net-(J2-Pad1)*
X127508000Y-79248000D03*
G04 #@! TO.P,J2,2*
G04 #@! TO.N,Net-(J2-Pad2)*
X130048000Y-79248000D03*
G04 #@! TO.P,J2,3*
G04 #@! TO.N,Net-(J2-Pad3)*
X132588000Y-79248000D03*
G04 #@! TO.P,J2,4*
G04 #@! TO.N,Net-(J1-Pad1)*
X135128000Y-79248000D03*
G04 #@! TD*
D11*
G04 #@! TO.P,R1,2*
G04 #@! TO.N,Net-(J2-Pad3)*
X139700000Y-91948000D03*
D12*
G04 #@! TO.P,R1,1*
G04 #@! TO.N,Net-(R1-Pad1)*
X132080000Y-91948000D03*
G04 #@! TD*
G04 #@! TO.P,R2,1*
G04 #@! TO.N,Net-(J1-Pad1)*
X132080000Y-88392000D03*
D11*
G04 #@! TO.P,R2,2*
G04 #@! TO.N,Net-(R1-Pad1)*
X139700000Y-88392000D03*
G04 #@! TD*
D13*
G04 #@! TO.P,U1,10*
G04 #@! TO.N,Net-(J2-Pad1)*
X130885001Y-83363001D03*
G04 #@! TO.P,U1,1*
G04 #@! TO.N,Net-(U1-Pad1)*
X130885001Y-96033001D03*
G04 #@! TO.P,U1,9*
G04 #@! TO.N,Net-(J2-Pad2)*
X133425001Y-83363001D03*
G04 #@! TO.P,U1,2*
G04 #@! TO.N,Net-(J1-Pad1)*
X133425001Y-96033001D03*
G04 #@! TO.P,U1,8*
G04 #@! TO.N,Net-(J1-Pad2)*
X135965001Y-83363001D03*
G04 #@! TO.P,U1,3*
G04 #@! TO.N,Net-(U1-Pad3)*
X135965001Y-96033001D03*
G04 #@! TO.P,U1,7*
G04 #@! TO.N,Net-(R1-Pad1)*
X138505001Y-83363001D03*
G04 #@! TO.P,U1,4*
G04 #@! TO.N,Net-(U1-Pad4)*
X138505001Y-96033001D03*
G04 #@! TO.P,U1,6*
G04 #@! TO.N,Net-(U1-Pad6)*
X141045001Y-83363001D03*
G04 #@! TO.P,U1,5*
G04 #@! TO.N,Net-(U1-Pad5)*
X141045001Y-96033001D03*
G04 #@! TD*
D14*
G04 #@! TO.N,Net-(J1-Pad1)*
G36*
X146177000Y-93486233D02*
X145933259Y-93729974D01*
X145593000Y-94551431D01*
X145593000Y-95440569D01*
X145933259Y-96262026D01*
X146177000Y-96505767D01*
X146177000Y-97917000D01*
X123571000Y-97917000D01*
X123571000Y-97231000D01*
X124396569Y-97231000D01*
X125218026Y-96890741D01*
X125846741Y-96262026D01*
X126157674Y-95511366D01*
X129650001Y-95511366D01*
X129650001Y-96554637D01*
X129721657Y-96914874D01*
X129994617Y-97323386D01*
X130403129Y-97596345D01*
X130885001Y-97692196D01*
X131366874Y-97596345D01*
X131775386Y-97323386D01*
X132048345Y-96914874D01*
X132120001Y-96554636D01*
X132120001Y-96160001D01*
X132190001Y-96160001D01*
X132190001Y-96560001D01*
X132332611Y-97022948D01*
X132641527Y-97396081D01*
X133069720Y-97622593D01*
X133107392Y-97626463D01*
X133298001Y-97501732D01*
X133298001Y-96160001D01*
X133552001Y-96160001D01*
X133552001Y-97501732D01*
X133742610Y-97626463D01*
X133780282Y-97622593D01*
X134208475Y-97396081D01*
X134517391Y-97022948D01*
X134660001Y-96560001D01*
X134660001Y-96160001D01*
X133552001Y-96160001D01*
X133298001Y-96160001D01*
X132190001Y-96160001D01*
X132120001Y-96160001D01*
X132120001Y-95511365D01*
X132118935Y-95506001D01*
X132190001Y-95506001D01*
X132190001Y-95906001D01*
X133298001Y-95906001D01*
X133298001Y-94564270D01*
X133552001Y-94564270D01*
X133552001Y-95906001D01*
X134660001Y-95906001D01*
X134660001Y-95511366D01*
X134730001Y-95511366D01*
X134730001Y-96554637D01*
X134801657Y-96914874D01*
X135074617Y-97323386D01*
X135483129Y-97596345D01*
X135965001Y-97692196D01*
X136446874Y-97596345D01*
X136855386Y-97323386D01*
X137128345Y-96914874D01*
X137200001Y-96554636D01*
X137200001Y-95511366D01*
X137270001Y-95511366D01*
X137270001Y-96554637D01*
X137341657Y-96914874D01*
X137614617Y-97323386D01*
X138023129Y-97596345D01*
X138505001Y-97692196D01*
X138986874Y-97596345D01*
X139395386Y-97323386D01*
X139668345Y-96914874D01*
X139740001Y-96554636D01*
X139740001Y-95511366D01*
X139810001Y-95511366D01*
X139810001Y-96554637D01*
X139881657Y-96914874D01*
X140154617Y-97323386D01*
X140563129Y-97596345D01*
X141045001Y-97692196D01*
X141526874Y-97596345D01*
X141935386Y-97323386D01*
X142208345Y-96914874D01*
X142280001Y-96554636D01*
X142280001Y-95511365D01*
X142208345Y-95151128D01*
X141935386Y-94742616D01*
X141526873Y-94469657D01*
X141045001Y-94373806D01*
X140563128Y-94469657D01*
X140154616Y-94742616D01*
X139881657Y-95151129D01*
X139810001Y-95511366D01*
X139740001Y-95511366D01*
X139740001Y-95511365D01*
X139668345Y-95151128D01*
X139395386Y-94742616D01*
X138986873Y-94469657D01*
X138505001Y-94373806D01*
X138023128Y-94469657D01*
X137614616Y-94742616D01*
X137341657Y-95151129D01*
X137270001Y-95511366D01*
X137200001Y-95511366D01*
X137200001Y-95511365D01*
X137128345Y-95151128D01*
X136855386Y-94742616D01*
X136446873Y-94469657D01*
X135965001Y-94373806D01*
X135483128Y-94469657D01*
X135074616Y-94742616D01*
X134801657Y-95151129D01*
X134730001Y-95511366D01*
X134660001Y-95511366D01*
X134660001Y-95506001D01*
X134517391Y-95043054D01*
X134208475Y-94669921D01*
X133780282Y-94443409D01*
X133742610Y-94439539D01*
X133552001Y-94564270D01*
X133298001Y-94564270D01*
X133107392Y-94439539D01*
X133069720Y-94443409D01*
X132641527Y-94669921D01*
X132332611Y-95043054D01*
X132190001Y-95506001D01*
X132118935Y-95506001D01*
X132048345Y-95151128D01*
X131775386Y-94742616D01*
X131366873Y-94469657D01*
X130885001Y-94373806D01*
X130403128Y-94469657D01*
X129994616Y-94742616D01*
X129721657Y-95151129D01*
X129650001Y-95511366D01*
X126157674Y-95511366D01*
X126187000Y-95440569D01*
X126187000Y-94551431D01*
X125846741Y-93729974D01*
X125218026Y-93101259D01*
X124396569Y-92761000D01*
X123571000Y-92761000D01*
X123571000Y-91662561D01*
X130645000Y-91662561D01*
X130645000Y-92233439D01*
X130863466Y-92760862D01*
X131267138Y-93164534D01*
X131794561Y-93383000D01*
X132365439Y-93383000D01*
X132892862Y-93164534D01*
X133296534Y-92760862D01*
X133515000Y-92233439D01*
X133515000Y-91948000D01*
X138236887Y-91948000D01*
X138348260Y-92507909D01*
X138665423Y-92982577D01*
X139140091Y-93299740D01*
X139558667Y-93383000D01*
X139841333Y-93383000D01*
X140259909Y-93299740D01*
X140734577Y-92982577D01*
X141051740Y-92507909D01*
X141163113Y-91948000D01*
X141051740Y-91388091D01*
X140734577Y-90913423D01*
X140259909Y-90596260D01*
X139841333Y-90513000D01*
X139558667Y-90513000D01*
X139140091Y-90596260D01*
X138665423Y-90913423D01*
X138348260Y-91388091D01*
X138236887Y-91948000D01*
X133515000Y-91948000D01*
X133515000Y-91662561D01*
X133296534Y-91135138D01*
X132892862Y-90731466D01*
X132365439Y-90513000D01*
X131794561Y-90513000D01*
X131267138Y-90731466D01*
X130863466Y-91135138D01*
X130645000Y-91662561D01*
X123571000Y-91662561D01*
X123571000Y-89399745D01*
X131251861Y-89399745D01*
X131325995Y-89645864D01*
X131863223Y-89838965D01*
X132433454Y-89811778D01*
X132834005Y-89645864D01*
X132908139Y-89399745D01*
X132080000Y-88571605D01*
X131251861Y-89399745D01*
X123571000Y-89399745D01*
X123571000Y-88175223D01*
X130633035Y-88175223D01*
X130660222Y-88745454D01*
X130826136Y-89146005D01*
X131072255Y-89220139D01*
X131900395Y-88392000D01*
X132259605Y-88392000D01*
X133087745Y-89220139D01*
X133333864Y-89146005D01*
X133526965Y-88608777D01*
X133516630Y-88392000D01*
X138236887Y-88392000D01*
X138348260Y-88951909D01*
X138665423Y-89426577D01*
X139140091Y-89743740D01*
X139558667Y-89827000D01*
X139841333Y-89827000D01*
X140259909Y-89743740D01*
X140734577Y-89426577D01*
X141051740Y-88951909D01*
X141163113Y-88392000D01*
X141051740Y-87832091D01*
X140734577Y-87357423D01*
X140259909Y-87040260D01*
X139841333Y-86957000D01*
X139558667Y-86957000D01*
X139140091Y-87040260D01*
X138665423Y-87357423D01*
X138348260Y-87832091D01*
X138236887Y-88392000D01*
X133516630Y-88392000D01*
X133499778Y-88038546D01*
X133333864Y-87637995D01*
X133087745Y-87563861D01*
X132259605Y-88392000D01*
X131900395Y-88392000D01*
X131072255Y-87563861D01*
X130826136Y-87637995D01*
X130633035Y-88175223D01*
X123571000Y-88175223D01*
X123571000Y-87384255D01*
X131251861Y-87384255D01*
X132080000Y-88212395D01*
X132908139Y-87384255D01*
X132834005Y-87138136D01*
X132296777Y-86945035D01*
X131726546Y-86972222D01*
X131325995Y-87138136D01*
X131251861Y-87384255D01*
X123571000Y-87384255D01*
X123571000Y-82841366D01*
X129650001Y-82841366D01*
X129650001Y-83884637D01*
X129721657Y-84244874D01*
X129994617Y-84653386D01*
X130403129Y-84926345D01*
X130885001Y-85022196D01*
X131366874Y-84926345D01*
X131775386Y-84653386D01*
X132048345Y-84244874D01*
X132120001Y-83884636D01*
X132120001Y-82841366D01*
X132190001Y-82841366D01*
X132190001Y-83884637D01*
X132261657Y-84244874D01*
X132534617Y-84653386D01*
X132943129Y-84926345D01*
X133425001Y-85022196D01*
X133906874Y-84926345D01*
X134315386Y-84653386D01*
X134588345Y-84244874D01*
X134660001Y-83884636D01*
X134660001Y-82841366D01*
X134730001Y-82841366D01*
X134730001Y-83884637D01*
X134801657Y-84244874D01*
X135074617Y-84653386D01*
X135483129Y-84926345D01*
X135965001Y-85022196D01*
X136446874Y-84926345D01*
X136855386Y-84653386D01*
X137128345Y-84244874D01*
X137200001Y-83884636D01*
X137200001Y-82841366D01*
X137270001Y-82841366D01*
X137270001Y-83884637D01*
X137341657Y-84244874D01*
X137614617Y-84653386D01*
X138023129Y-84926345D01*
X138505001Y-85022196D01*
X138986874Y-84926345D01*
X139395386Y-84653386D01*
X139668345Y-84244874D01*
X139740001Y-83884636D01*
X139740001Y-82841366D01*
X139810001Y-82841366D01*
X139810001Y-83884637D01*
X139881657Y-84244874D01*
X140154617Y-84653386D01*
X140563129Y-84926345D01*
X141045001Y-85022196D01*
X141526874Y-84926345D01*
X141935386Y-84653386D01*
X142208345Y-84244874D01*
X142280001Y-83884636D01*
X142280001Y-82841365D01*
X142208345Y-82481128D01*
X141935386Y-82072616D01*
X141526873Y-81799657D01*
X141045001Y-81703806D01*
X140563128Y-81799657D01*
X140154616Y-82072616D01*
X139881657Y-82481129D01*
X139810001Y-82841366D01*
X139740001Y-82841366D01*
X139740001Y-82841365D01*
X139668345Y-82481128D01*
X139395386Y-82072616D01*
X138986873Y-81799657D01*
X138505001Y-81703806D01*
X138023128Y-81799657D01*
X137614616Y-82072616D01*
X137341657Y-82481129D01*
X137270001Y-82841366D01*
X137200001Y-82841366D01*
X137200001Y-82841365D01*
X137128345Y-82481128D01*
X136855386Y-82072616D01*
X136446873Y-81799657D01*
X135965001Y-81703806D01*
X135483128Y-81799657D01*
X135074616Y-82072616D01*
X134801657Y-82481129D01*
X134730001Y-82841366D01*
X134660001Y-82841366D01*
X134660001Y-82841365D01*
X134588345Y-82481128D01*
X134315386Y-82072616D01*
X133906873Y-81799657D01*
X133425001Y-81703806D01*
X132943128Y-81799657D01*
X132534616Y-82072616D01*
X132261657Y-82481129D01*
X132190001Y-82841366D01*
X132120001Y-82841366D01*
X132120001Y-82841365D01*
X132048345Y-82481128D01*
X131775386Y-82072616D01*
X131366873Y-81799657D01*
X130885001Y-81703806D01*
X130403128Y-81799657D01*
X129994616Y-82072616D01*
X129721657Y-82481129D01*
X129650001Y-82841366D01*
X123571000Y-82841366D01*
X123571000Y-78934753D01*
X125933200Y-78934753D01*
X125933200Y-79561247D01*
X126172949Y-80140052D01*
X126615948Y-80583051D01*
X127194753Y-80822800D01*
X127821247Y-80822800D01*
X128400052Y-80583051D01*
X128778000Y-80205103D01*
X129155948Y-80583051D01*
X129734753Y-80822800D01*
X130361247Y-80822800D01*
X130940052Y-80583051D01*
X131318000Y-80205103D01*
X131695948Y-80583051D01*
X132274753Y-80822800D01*
X132901247Y-80822800D01*
X133480052Y-80583051D01*
X133706135Y-80356968D01*
X134198637Y-80356968D01*
X134289923Y-80617580D01*
X134877833Y-80834045D01*
X135503828Y-80809049D01*
X135966077Y-80617580D01*
X136057363Y-80356968D01*
X139278637Y-80356968D01*
X139369923Y-80617580D01*
X139957833Y-80834045D01*
X140583828Y-80809049D01*
X141046077Y-80617580D01*
X141137363Y-80356968D01*
X140208000Y-79427605D01*
X139278637Y-80356968D01*
X136057363Y-80356968D01*
X135128000Y-79427605D01*
X134198637Y-80356968D01*
X133706135Y-80356968D01*
X133920317Y-80142786D01*
X134019032Y-80177363D01*
X134948395Y-79248000D01*
X135307605Y-79248000D01*
X136236968Y-80177363D01*
X136497580Y-80086077D01*
X136714045Y-79498167D01*
X136694067Y-78997833D01*
X138621955Y-78997833D01*
X138646951Y-79623828D01*
X138838420Y-80086077D01*
X139099032Y-80177363D01*
X140028395Y-79248000D01*
X140387605Y-79248000D01*
X141316968Y-80177363D01*
X141415683Y-80142786D01*
X141855948Y-80583051D01*
X142434753Y-80822800D01*
X143061247Y-80822800D01*
X143640052Y-80583051D01*
X144083051Y-80140052D01*
X144322800Y-79561247D01*
X144322800Y-78934753D01*
X144083051Y-78355948D01*
X143640052Y-77912949D01*
X143061247Y-77673200D01*
X142434753Y-77673200D01*
X141855948Y-77912949D01*
X141415683Y-78353214D01*
X141316968Y-78318637D01*
X140387605Y-79248000D01*
X140028395Y-79248000D01*
X139099032Y-78318637D01*
X138838420Y-78409923D01*
X138621955Y-78997833D01*
X136694067Y-78997833D01*
X136689049Y-78872172D01*
X136497580Y-78409923D01*
X136236968Y-78318637D01*
X135307605Y-79248000D01*
X134948395Y-79248000D01*
X134019032Y-78318637D01*
X133920317Y-78353214D01*
X133706135Y-78139032D01*
X134198637Y-78139032D01*
X135128000Y-79068395D01*
X136057363Y-78139032D01*
X139278637Y-78139032D01*
X140208000Y-79068395D01*
X141137363Y-78139032D01*
X141046077Y-77878420D01*
X140458167Y-77661955D01*
X139832172Y-77686951D01*
X139369923Y-77878420D01*
X139278637Y-78139032D01*
X136057363Y-78139032D01*
X135966077Y-77878420D01*
X135378167Y-77661955D01*
X134752172Y-77686951D01*
X134289923Y-77878420D01*
X134198637Y-78139032D01*
X133706135Y-78139032D01*
X133480052Y-77912949D01*
X132901247Y-77673200D01*
X132274753Y-77673200D01*
X131695948Y-77912949D01*
X131318000Y-78290897D01*
X130940052Y-77912949D01*
X130361247Y-77673200D01*
X129734753Y-77673200D01*
X129155948Y-77912949D01*
X128778000Y-78290897D01*
X128400052Y-77912949D01*
X127821247Y-77673200D01*
X127194753Y-77673200D01*
X126615948Y-77912949D01*
X126172949Y-78355948D01*
X125933200Y-78934753D01*
X123571000Y-78934753D01*
X123571000Y-76835000D01*
X146177000Y-76835000D01*
X146177000Y-93486233D01*
X146177000Y-93486233D01*
G37*
X146177000Y-93486233D02*
X145933259Y-93729974D01*
X145593000Y-94551431D01*
X145593000Y-95440569D01*
X145933259Y-96262026D01*
X146177000Y-96505767D01*
X146177000Y-97917000D01*
X123571000Y-97917000D01*
X123571000Y-97231000D01*
X124396569Y-97231000D01*
X125218026Y-96890741D01*
X125846741Y-96262026D01*
X126157674Y-95511366D01*
X129650001Y-95511366D01*
X129650001Y-96554637D01*
X129721657Y-96914874D01*
X129994617Y-97323386D01*
X130403129Y-97596345D01*
X130885001Y-97692196D01*
X131366874Y-97596345D01*
X131775386Y-97323386D01*
X132048345Y-96914874D01*
X132120001Y-96554636D01*
X132120001Y-96160001D01*
X132190001Y-96160001D01*
X132190001Y-96560001D01*
X132332611Y-97022948D01*
X132641527Y-97396081D01*
X133069720Y-97622593D01*
X133107392Y-97626463D01*
X133298001Y-97501732D01*
X133298001Y-96160001D01*
X133552001Y-96160001D01*
X133552001Y-97501732D01*
X133742610Y-97626463D01*
X133780282Y-97622593D01*
X134208475Y-97396081D01*
X134517391Y-97022948D01*
X134660001Y-96560001D01*
X134660001Y-96160001D01*
X133552001Y-96160001D01*
X133298001Y-96160001D01*
X132190001Y-96160001D01*
X132120001Y-96160001D01*
X132120001Y-95511365D01*
X132118935Y-95506001D01*
X132190001Y-95506001D01*
X132190001Y-95906001D01*
X133298001Y-95906001D01*
X133298001Y-94564270D01*
X133552001Y-94564270D01*
X133552001Y-95906001D01*
X134660001Y-95906001D01*
X134660001Y-95511366D01*
X134730001Y-95511366D01*
X134730001Y-96554637D01*
X134801657Y-96914874D01*
X135074617Y-97323386D01*
X135483129Y-97596345D01*
X135965001Y-97692196D01*
X136446874Y-97596345D01*
X136855386Y-97323386D01*
X137128345Y-96914874D01*
X137200001Y-96554636D01*
X137200001Y-95511366D01*
X137270001Y-95511366D01*
X137270001Y-96554637D01*
X137341657Y-96914874D01*
X137614617Y-97323386D01*
X138023129Y-97596345D01*
X138505001Y-97692196D01*
X138986874Y-97596345D01*
X139395386Y-97323386D01*
X139668345Y-96914874D01*
X139740001Y-96554636D01*
X139740001Y-95511366D01*
X139810001Y-95511366D01*
X139810001Y-96554637D01*
X139881657Y-96914874D01*
X140154617Y-97323386D01*
X140563129Y-97596345D01*
X141045001Y-97692196D01*
X141526874Y-97596345D01*
X141935386Y-97323386D01*
X142208345Y-96914874D01*
X142280001Y-96554636D01*
X142280001Y-95511365D01*
X142208345Y-95151128D01*
X141935386Y-94742616D01*
X141526873Y-94469657D01*
X141045001Y-94373806D01*
X140563128Y-94469657D01*
X140154616Y-94742616D01*
X139881657Y-95151129D01*
X139810001Y-95511366D01*
X139740001Y-95511366D01*
X139740001Y-95511365D01*
X139668345Y-95151128D01*
X139395386Y-94742616D01*
X138986873Y-94469657D01*
X138505001Y-94373806D01*
X138023128Y-94469657D01*
X137614616Y-94742616D01*
X137341657Y-95151129D01*
X137270001Y-95511366D01*
X137200001Y-95511366D01*
X137200001Y-95511365D01*
X137128345Y-95151128D01*
X136855386Y-94742616D01*
X136446873Y-94469657D01*
X135965001Y-94373806D01*
X135483128Y-94469657D01*
X135074616Y-94742616D01*
X134801657Y-95151129D01*
X134730001Y-95511366D01*
X134660001Y-95511366D01*
X134660001Y-95506001D01*
X134517391Y-95043054D01*
X134208475Y-94669921D01*
X133780282Y-94443409D01*
X133742610Y-94439539D01*
X133552001Y-94564270D01*
X133298001Y-94564270D01*
X133107392Y-94439539D01*
X133069720Y-94443409D01*
X132641527Y-94669921D01*
X132332611Y-95043054D01*
X132190001Y-95506001D01*
X132118935Y-95506001D01*
X132048345Y-95151128D01*
X131775386Y-94742616D01*
X131366873Y-94469657D01*
X130885001Y-94373806D01*
X130403128Y-94469657D01*
X129994616Y-94742616D01*
X129721657Y-95151129D01*
X129650001Y-95511366D01*
X126157674Y-95511366D01*
X126187000Y-95440569D01*
X126187000Y-94551431D01*
X125846741Y-93729974D01*
X125218026Y-93101259D01*
X124396569Y-92761000D01*
X123571000Y-92761000D01*
X123571000Y-91662561D01*
X130645000Y-91662561D01*
X130645000Y-92233439D01*
X130863466Y-92760862D01*
X131267138Y-93164534D01*
X131794561Y-93383000D01*
X132365439Y-93383000D01*
X132892862Y-93164534D01*
X133296534Y-92760862D01*
X133515000Y-92233439D01*
X133515000Y-91948000D01*
X138236887Y-91948000D01*
X138348260Y-92507909D01*
X138665423Y-92982577D01*
X139140091Y-93299740D01*
X139558667Y-93383000D01*
X139841333Y-93383000D01*
X140259909Y-93299740D01*
X140734577Y-92982577D01*
X141051740Y-92507909D01*
X141163113Y-91948000D01*
X141051740Y-91388091D01*
X140734577Y-90913423D01*
X140259909Y-90596260D01*
X139841333Y-90513000D01*
X139558667Y-90513000D01*
X139140091Y-90596260D01*
X138665423Y-90913423D01*
X138348260Y-91388091D01*
X138236887Y-91948000D01*
X133515000Y-91948000D01*
X133515000Y-91662561D01*
X133296534Y-91135138D01*
X132892862Y-90731466D01*
X132365439Y-90513000D01*
X131794561Y-90513000D01*
X131267138Y-90731466D01*
X130863466Y-91135138D01*
X130645000Y-91662561D01*
X123571000Y-91662561D01*
X123571000Y-89399745D01*
X131251861Y-89399745D01*
X131325995Y-89645864D01*
X131863223Y-89838965D01*
X132433454Y-89811778D01*
X132834005Y-89645864D01*
X132908139Y-89399745D01*
X132080000Y-88571605D01*
X131251861Y-89399745D01*
X123571000Y-89399745D01*
X123571000Y-88175223D01*
X130633035Y-88175223D01*
X130660222Y-88745454D01*
X130826136Y-89146005D01*
X131072255Y-89220139D01*
X131900395Y-88392000D01*
X132259605Y-88392000D01*
X133087745Y-89220139D01*
X133333864Y-89146005D01*
X133526965Y-88608777D01*
X133516630Y-88392000D01*
X138236887Y-88392000D01*
X138348260Y-88951909D01*
X138665423Y-89426577D01*
X139140091Y-89743740D01*
X139558667Y-89827000D01*
X139841333Y-89827000D01*
X140259909Y-89743740D01*
X140734577Y-89426577D01*
X141051740Y-88951909D01*
X141163113Y-88392000D01*
X141051740Y-87832091D01*
X140734577Y-87357423D01*
X140259909Y-87040260D01*
X139841333Y-86957000D01*
X139558667Y-86957000D01*
X139140091Y-87040260D01*
X138665423Y-87357423D01*
X138348260Y-87832091D01*
X138236887Y-88392000D01*
X133516630Y-88392000D01*
X133499778Y-88038546D01*
X133333864Y-87637995D01*
X133087745Y-87563861D01*
X132259605Y-88392000D01*
X131900395Y-88392000D01*
X131072255Y-87563861D01*
X130826136Y-87637995D01*
X130633035Y-88175223D01*
X123571000Y-88175223D01*
X123571000Y-87384255D01*
X131251861Y-87384255D01*
X132080000Y-88212395D01*
X132908139Y-87384255D01*
X132834005Y-87138136D01*
X132296777Y-86945035D01*
X131726546Y-86972222D01*
X131325995Y-87138136D01*
X131251861Y-87384255D01*
X123571000Y-87384255D01*
X123571000Y-82841366D01*
X129650001Y-82841366D01*
X129650001Y-83884637D01*
X129721657Y-84244874D01*
X129994617Y-84653386D01*
X130403129Y-84926345D01*
X130885001Y-85022196D01*
X131366874Y-84926345D01*
X131775386Y-84653386D01*
X132048345Y-84244874D01*
X132120001Y-83884636D01*
X132120001Y-82841366D01*
X132190001Y-82841366D01*
X132190001Y-83884637D01*
X132261657Y-84244874D01*
X132534617Y-84653386D01*
X132943129Y-84926345D01*
X133425001Y-85022196D01*
X133906874Y-84926345D01*
X134315386Y-84653386D01*
X134588345Y-84244874D01*
X134660001Y-83884636D01*
X134660001Y-82841366D01*
X134730001Y-82841366D01*
X134730001Y-83884637D01*
X134801657Y-84244874D01*
X135074617Y-84653386D01*
X135483129Y-84926345D01*
X135965001Y-85022196D01*
X136446874Y-84926345D01*
X136855386Y-84653386D01*
X137128345Y-84244874D01*
X137200001Y-83884636D01*
X137200001Y-82841366D01*
X137270001Y-82841366D01*
X137270001Y-83884637D01*
X137341657Y-84244874D01*
X137614617Y-84653386D01*
X138023129Y-84926345D01*
X138505001Y-85022196D01*
X138986874Y-84926345D01*
X139395386Y-84653386D01*
X139668345Y-84244874D01*
X139740001Y-83884636D01*
X139740001Y-82841366D01*
X139810001Y-82841366D01*
X139810001Y-83884637D01*
X139881657Y-84244874D01*
X140154617Y-84653386D01*
X140563129Y-84926345D01*
X141045001Y-85022196D01*
X141526874Y-84926345D01*
X141935386Y-84653386D01*
X142208345Y-84244874D01*
X142280001Y-83884636D01*
X142280001Y-82841365D01*
X142208345Y-82481128D01*
X141935386Y-82072616D01*
X141526873Y-81799657D01*
X141045001Y-81703806D01*
X140563128Y-81799657D01*
X140154616Y-82072616D01*
X139881657Y-82481129D01*
X139810001Y-82841366D01*
X139740001Y-82841366D01*
X139740001Y-82841365D01*
X139668345Y-82481128D01*
X139395386Y-82072616D01*
X138986873Y-81799657D01*
X138505001Y-81703806D01*
X138023128Y-81799657D01*
X137614616Y-82072616D01*
X137341657Y-82481129D01*
X137270001Y-82841366D01*
X137200001Y-82841366D01*
X137200001Y-82841365D01*
X137128345Y-82481128D01*
X136855386Y-82072616D01*
X136446873Y-81799657D01*
X135965001Y-81703806D01*
X135483128Y-81799657D01*
X135074616Y-82072616D01*
X134801657Y-82481129D01*
X134730001Y-82841366D01*
X134660001Y-82841366D01*
X134660001Y-82841365D01*
X134588345Y-82481128D01*
X134315386Y-82072616D01*
X133906873Y-81799657D01*
X133425001Y-81703806D01*
X132943128Y-81799657D01*
X132534616Y-82072616D01*
X132261657Y-82481129D01*
X132190001Y-82841366D01*
X132120001Y-82841366D01*
X132120001Y-82841365D01*
X132048345Y-82481128D01*
X131775386Y-82072616D01*
X131366873Y-81799657D01*
X130885001Y-81703806D01*
X130403128Y-81799657D01*
X129994616Y-82072616D01*
X129721657Y-82481129D01*
X129650001Y-82841366D01*
X123571000Y-82841366D01*
X123571000Y-78934753D01*
X125933200Y-78934753D01*
X125933200Y-79561247D01*
X126172949Y-80140052D01*
X126615948Y-80583051D01*
X127194753Y-80822800D01*
X127821247Y-80822800D01*
X128400052Y-80583051D01*
X128778000Y-80205103D01*
X129155948Y-80583051D01*
X129734753Y-80822800D01*
X130361247Y-80822800D01*
X130940052Y-80583051D01*
X131318000Y-80205103D01*
X131695948Y-80583051D01*
X132274753Y-80822800D01*
X132901247Y-80822800D01*
X133480052Y-80583051D01*
X133706135Y-80356968D01*
X134198637Y-80356968D01*
X134289923Y-80617580D01*
X134877833Y-80834045D01*
X135503828Y-80809049D01*
X135966077Y-80617580D01*
X136057363Y-80356968D01*
X139278637Y-80356968D01*
X139369923Y-80617580D01*
X139957833Y-80834045D01*
X140583828Y-80809049D01*
X141046077Y-80617580D01*
X141137363Y-80356968D01*
X140208000Y-79427605D01*
X139278637Y-80356968D01*
X136057363Y-80356968D01*
X135128000Y-79427605D01*
X134198637Y-80356968D01*
X133706135Y-80356968D01*
X133920317Y-80142786D01*
X134019032Y-80177363D01*
X134948395Y-79248000D01*
X135307605Y-79248000D01*
X136236968Y-80177363D01*
X136497580Y-80086077D01*
X136714045Y-79498167D01*
X136694067Y-78997833D01*
X138621955Y-78997833D01*
X138646951Y-79623828D01*
X138838420Y-80086077D01*
X139099032Y-80177363D01*
X140028395Y-79248000D01*
X140387605Y-79248000D01*
X141316968Y-80177363D01*
X141415683Y-80142786D01*
X141855948Y-80583051D01*
X142434753Y-80822800D01*
X143061247Y-80822800D01*
X143640052Y-80583051D01*
X144083051Y-80140052D01*
X144322800Y-79561247D01*
X144322800Y-78934753D01*
X144083051Y-78355948D01*
X143640052Y-77912949D01*
X143061247Y-77673200D01*
X142434753Y-77673200D01*
X141855948Y-77912949D01*
X141415683Y-78353214D01*
X141316968Y-78318637D01*
X140387605Y-79248000D01*
X140028395Y-79248000D01*
X139099032Y-78318637D01*
X138838420Y-78409923D01*
X138621955Y-78997833D01*
X136694067Y-78997833D01*
X136689049Y-78872172D01*
X136497580Y-78409923D01*
X136236968Y-78318637D01*
X135307605Y-79248000D01*
X134948395Y-79248000D01*
X134019032Y-78318637D01*
X133920317Y-78353214D01*
X133706135Y-78139032D01*
X134198637Y-78139032D01*
X135128000Y-79068395D01*
X136057363Y-78139032D01*
X139278637Y-78139032D01*
X140208000Y-79068395D01*
X141137363Y-78139032D01*
X141046077Y-77878420D01*
X140458167Y-77661955D01*
X139832172Y-77686951D01*
X139369923Y-77878420D01*
X139278637Y-78139032D01*
X136057363Y-78139032D01*
X135966077Y-77878420D01*
X135378167Y-77661955D01*
X134752172Y-77686951D01*
X134289923Y-77878420D01*
X134198637Y-78139032D01*
X133706135Y-78139032D01*
X133480052Y-77912949D01*
X132901247Y-77673200D01*
X132274753Y-77673200D01*
X131695948Y-77912949D01*
X131318000Y-78290897D01*
X130940052Y-77912949D01*
X130361247Y-77673200D01*
X129734753Y-77673200D01*
X129155948Y-77912949D01*
X128778000Y-78290897D01*
X128400052Y-77912949D01*
X127821247Y-77673200D01*
X127194753Y-77673200D01*
X126615948Y-77912949D01*
X126172949Y-78355948D01*
X125933200Y-78934753D01*
X123571000Y-78934753D01*
X123571000Y-76835000D01*
X146177000Y-76835000D01*
X146177000Y-93486233D01*
G04 #@! TD*
M02*
