G04 #@! TF.GenerationSoftware,KiCad,Pcbnew,5.0.2-bee76a0~70~ubuntu18.04.1*
G04 #@! TF.CreationDate,2019-07-06T00:12:55+01:00*
G04 #@! TF.ProjectId,Timer Gate,54696d65-7220-4476-9174-652e6b696361,rev?*
G04 #@! TF.SameCoordinates,Original*
G04 #@! TF.FileFunction,Soldermask,Top*
G04 #@! TF.FilePolarity,Negative*
%FSLAX46Y46*%
G04 Gerber Fmt 4.6, Leading zero omitted, Abs format (unit mm)*
G04 Created by KiCad (PCBNEW 5.0.2-bee76a0~70~ubuntu18.04.1) date Sat Jul  6 00:12:55 2019*
%MOMM*%
%LPD*%
G01*
G04 APERTURE LIST*
%ADD10C,0.100000*%
G04 APERTURE END LIST*
D10*
G36*
X135763617Y-94991421D02*
X135845426Y-95016238D01*
X135886332Y-95028646D01*
X135946782Y-95060958D01*
X135999425Y-95089096D01*
X136098553Y-95170448D01*
X136179905Y-95269575D01*
X136179906Y-95269577D01*
X136240355Y-95382668D01*
X136252763Y-95423574D01*
X136277580Y-95505383D01*
X136287000Y-95601028D01*
X136287000Y-96464974D01*
X136277580Y-96560619D01*
X136270623Y-96583553D01*
X136240355Y-96683334D01*
X136186819Y-96783492D01*
X136179905Y-96796427D01*
X136098553Y-96895554D01*
X135999426Y-96976906D01*
X135999424Y-96976907D01*
X135886333Y-97037356D01*
X135845427Y-97049764D01*
X135763618Y-97074581D01*
X135636000Y-97087150D01*
X135508383Y-97074581D01*
X135426574Y-97049764D01*
X135385668Y-97037356D01*
X135272577Y-96976907D01*
X135272575Y-96976906D01*
X135173448Y-96895554D01*
X135092096Y-96796427D01*
X135085182Y-96783492D01*
X135031646Y-96683334D01*
X135020624Y-96647000D01*
X134994420Y-96560619D01*
X134985000Y-96464974D01*
X134985000Y-95601029D01*
X134994420Y-95505384D01*
X135031645Y-95382670D01*
X135031645Y-95382669D01*
X135063957Y-95322219D01*
X135092095Y-95269576D01*
X135173447Y-95170448D01*
X135272574Y-95089096D01*
X135285509Y-95082182D01*
X135385667Y-95028646D01*
X135426573Y-95016238D01*
X135508382Y-94991421D01*
X135636000Y-94978852D01*
X135763617Y-94991421D01*
X135763617Y-94991421D01*
G37*
G36*
X138303617Y-94991421D02*
X138385426Y-95016238D01*
X138426332Y-95028646D01*
X138486782Y-95060958D01*
X138539425Y-95089096D01*
X138638553Y-95170448D01*
X138719905Y-95269575D01*
X138719906Y-95269577D01*
X138780355Y-95382668D01*
X138792763Y-95423574D01*
X138817580Y-95505383D01*
X138827000Y-95601028D01*
X138827000Y-96464974D01*
X138817580Y-96560619D01*
X138810623Y-96583553D01*
X138780355Y-96683334D01*
X138726819Y-96783492D01*
X138719905Y-96796427D01*
X138638553Y-96895554D01*
X138539426Y-96976906D01*
X138539424Y-96976907D01*
X138426333Y-97037356D01*
X138385427Y-97049764D01*
X138303618Y-97074581D01*
X138176000Y-97087150D01*
X138048383Y-97074581D01*
X137966574Y-97049764D01*
X137925668Y-97037356D01*
X137812577Y-96976907D01*
X137812575Y-96976906D01*
X137713448Y-96895554D01*
X137632096Y-96796427D01*
X137625182Y-96783492D01*
X137571646Y-96683334D01*
X137560624Y-96647000D01*
X137534420Y-96560619D01*
X137525000Y-96464974D01*
X137525000Y-95601029D01*
X137534420Y-95505384D01*
X137571645Y-95382670D01*
X137571645Y-95382669D01*
X137603957Y-95322219D01*
X137632095Y-95269576D01*
X137713447Y-95170448D01*
X137812574Y-95089096D01*
X137825509Y-95082182D01*
X137925667Y-95028646D01*
X137966573Y-95016238D01*
X138048382Y-94991421D01*
X138176000Y-94978852D01*
X138303617Y-94991421D01*
X138303617Y-94991421D01*
G37*
G36*
X140843617Y-94991421D02*
X140925426Y-95016238D01*
X140966332Y-95028646D01*
X141026782Y-95060958D01*
X141079425Y-95089096D01*
X141178553Y-95170448D01*
X141259905Y-95269575D01*
X141259906Y-95269577D01*
X141320355Y-95382668D01*
X141332763Y-95423574D01*
X141357580Y-95505383D01*
X141367000Y-95601028D01*
X141367000Y-96464974D01*
X141357580Y-96560619D01*
X141350623Y-96583553D01*
X141320355Y-96683334D01*
X141266819Y-96783492D01*
X141259905Y-96796427D01*
X141178553Y-96895554D01*
X141079426Y-96976906D01*
X141079424Y-96976907D01*
X140966333Y-97037356D01*
X140925427Y-97049764D01*
X140843618Y-97074581D01*
X140716000Y-97087150D01*
X140588383Y-97074581D01*
X140506574Y-97049764D01*
X140465668Y-97037356D01*
X140352577Y-96976907D01*
X140352575Y-96976906D01*
X140253448Y-96895554D01*
X140172096Y-96796427D01*
X140165182Y-96783492D01*
X140111646Y-96683334D01*
X140100624Y-96647000D01*
X140074420Y-96560619D01*
X140065000Y-96464974D01*
X140065000Y-95601029D01*
X140074420Y-95505384D01*
X140111645Y-95382670D01*
X140111645Y-95382669D01*
X140143957Y-95322219D01*
X140172095Y-95269576D01*
X140253447Y-95170448D01*
X140352574Y-95089096D01*
X140365509Y-95082182D01*
X140465667Y-95028646D01*
X140506573Y-95016238D01*
X140588382Y-94991421D01*
X140716000Y-94978852D01*
X140843617Y-94991421D01*
X140843617Y-94991421D01*
G37*
G36*
X130683617Y-94991421D02*
X130765426Y-95016238D01*
X130806332Y-95028646D01*
X130866782Y-95060958D01*
X130919425Y-95089096D01*
X131018553Y-95170448D01*
X131099905Y-95269575D01*
X131099906Y-95269577D01*
X131160355Y-95382668D01*
X131172763Y-95423574D01*
X131197580Y-95505383D01*
X131207000Y-95601028D01*
X131207000Y-96464974D01*
X131197580Y-96560619D01*
X131190623Y-96583553D01*
X131160355Y-96683334D01*
X131106819Y-96783492D01*
X131099905Y-96796427D01*
X131018553Y-96895554D01*
X130919426Y-96976906D01*
X130919424Y-96976907D01*
X130806333Y-97037356D01*
X130765427Y-97049764D01*
X130683618Y-97074581D01*
X130556000Y-97087150D01*
X130428383Y-97074581D01*
X130346574Y-97049764D01*
X130305668Y-97037356D01*
X130192577Y-96976907D01*
X130192575Y-96976906D01*
X130093448Y-96895554D01*
X130012096Y-96796427D01*
X130005182Y-96783492D01*
X129951646Y-96683334D01*
X129940624Y-96647000D01*
X129914420Y-96560619D01*
X129905000Y-96464974D01*
X129905000Y-95601029D01*
X129914420Y-95505384D01*
X129951645Y-95382670D01*
X129951645Y-95382669D01*
X129983957Y-95322219D01*
X130012095Y-95269576D01*
X130093447Y-95170448D01*
X130192574Y-95089096D01*
X130205509Y-95082182D01*
X130305667Y-95028646D01*
X130346573Y-95016238D01*
X130428382Y-94991421D01*
X130556000Y-94978852D01*
X130683617Y-94991421D01*
X130683617Y-94991421D01*
G37*
G36*
X133223617Y-94991421D02*
X133305426Y-95016238D01*
X133346332Y-95028646D01*
X133406782Y-95060958D01*
X133459425Y-95089096D01*
X133558553Y-95170448D01*
X133639905Y-95269575D01*
X133639906Y-95269577D01*
X133700355Y-95382668D01*
X133712763Y-95423574D01*
X133737580Y-95505383D01*
X133747000Y-95601028D01*
X133747000Y-96464974D01*
X133737580Y-96560619D01*
X133730623Y-96583553D01*
X133700355Y-96683334D01*
X133646819Y-96783492D01*
X133639905Y-96796427D01*
X133558553Y-96895554D01*
X133459426Y-96976906D01*
X133459424Y-96976907D01*
X133346333Y-97037356D01*
X133305427Y-97049764D01*
X133223618Y-97074581D01*
X133096000Y-97087150D01*
X132968383Y-97074581D01*
X132886574Y-97049764D01*
X132845668Y-97037356D01*
X132732577Y-96976907D01*
X132732575Y-96976906D01*
X132633448Y-96895554D01*
X132552096Y-96796427D01*
X132545182Y-96783492D01*
X132491646Y-96683334D01*
X132480624Y-96647000D01*
X132454420Y-96560619D01*
X132445000Y-96464974D01*
X132445000Y-95601029D01*
X132454420Y-95505384D01*
X132491645Y-95382670D01*
X132491645Y-95382669D01*
X132523957Y-95322219D01*
X132552095Y-95269576D01*
X132633447Y-95170448D01*
X132732574Y-95089096D01*
X132745509Y-95082182D01*
X132845667Y-95028646D01*
X132886573Y-95016238D01*
X132968382Y-94991421D01*
X133096000Y-94978852D01*
X133223617Y-94991421D01*
X133223617Y-94991421D01*
G37*
G36*
X148203256Y-93387298D02*
X148309579Y-93408447D01*
X148610042Y-93532903D01*
X148876852Y-93711180D01*
X148880454Y-93713587D01*
X149110413Y-93943546D01*
X149291098Y-94213960D01*
X149415553Y-94514422D01*
X149479000Y-94833389D01*
X149479000Y-95158611D01*
X149456927Y-95269577D01*
X149415553Y-95477579D01*
X149404035Y-95505385D01*
X149291098Y-95778040D01*
X149110413Y-96048454D01*
X148880454Y-96278413D01*
X148880451Y-96278415D01*
X148610042Y-96459097D01*
X148610041Y-96459098D01*
X148610040Y-96459098D01*
X148522037Y-96495550D01*
X148309579Y-96583553D01*
X148203256Y-96604702D01*
X147990611Y-96647000D01*
X147665389Y-96647000D01*
X147452744Y-96604702D01*
X147346421Y-96583553D01*
X147133963Y-96495550D01*
X147045960Y-96459098D01*
X147045959Y-96459098D01*
X147045958Y-96459097D01*
X146775549Y-96278415D01*
X146775546Y-96278413D01*
X146545587Y-96048454D01*
X146364902Y-95778040D01*
X146251965Y-95505385D01*
X146240447Y-95477579D01*
X146199073Y-95269577D01*
X146177000Y-95158611D01*
X146177000Y-94833389D01*
X146240447Y-94514422D01*
X146364902Y-94213960D01*
X146545587Y-93943546D01*
X146775546Y-93713587D01*
X146779148Y-93711180D01*
X147045958Y-93532903D01*
X147346421Y-93408447D01*
X147452744Y-93387298D01*
X147665389Y-93345000D01*
X147990611Y-93345000D01*
X148203256Y-93387298D01*
X148203256Y-93387298D01*
G37*
G36*
X124327256Y-93387298D02*
X124433579Y-93408447D01*
X124734042Y-93532903D01*
X125000852Y-93711180D01*
X125004454Y-93713587D01*
X125234413Y-93943546D01*
X125415098Y-94213960D01*
X125539553Y-94514422D01*
X125603000Y-94833389D01*
X125603000Y-95158611D01*
X125580927Y-95269577D01*
X125539553Y-95477579D01*
X125528035Y-95505385D01*
X125415098Y-95778040D01*
X125234413Y-96048454D01*
X125004454Y-96278413D01*
X125004451Y-96278415D01*
X124734042Y-96459097D01*
X124734041Y-96459098D01*
X124734040Y-96459098D01*
X124646037Y-96495550D01*
X124433579Y-96583553D01*
X124327256Y-96604702D01*
X124114611Y-96647000D01*
X123789389Y-96647000D01*
X123576744Y-96604702D01*
X123470421Y-96583553D01*
X123257963Y-96495550D01*
X123169960Y-96459098D01*
X123169959Y-96459098D01*
X123169958Y-96459097D01*
X122899549Y-96278415D01*
X122899546Y-96278413D01*
X122669587Y-96048454D01*
X122488902Y-95778040D01*
X122375965Y-95505385D01*
X122364447Y-95477579D01*
X122323073Y-95269577D01*
X122301000Y-95158611D01*
X122301000Y-94833389D01*
X122364447Y-94514422D01*
X122488902Y-94213960D01*
X122669587Y-93943546D01*
X122899546Y-93713587D01*
X122903148Y-93711180D01*
X123169958Y-93532903D01*
X123470421Y-93408447D01*
X123576744Y-93387298D01*
X123789389Y-93345000D01*
X124114611Y-93345000D01*
X124327256Y-93387298D01*
X124327256Y-93387298D01*
G37*
G36*
X134555000Y-92391000D02*
X132653000Y-92391000D01*
X132653000Y-90489000D01*
X134555000Y-90489000D01*
X134555000Y-92391000D01*
X134555000Y-92391000D01*
G37*
G36*
X136421396Y-90525546D02*
X136594466Y-90597234D01*
X136750230Y-90701312D01*
X136882688Y-90833770D01*
X136986766Y-90989534D01*
X137058454Y-91162604D01*
X137095000Y-91346333D01*
X137095000Y-91533667D01*
X137058454Y-91717396D01*
X136986766Y-91890466D01*
X136882688Y-92046230D01*
X136750230Y-92178688D01*
X136594466Y-92282766D01*
X136421396Y-92354454D01*
X136237667Y-92391000D01*
X136050333Y-92391000D01*
X135866604Y-92354454D01*
X135693534Y-92282766D01*
X135537770Y-92178688D01*
X135405312Y-92046230D01*
X135301234Y-91890466D01*
X135229546Y-91717396D01*
X135193000Y-91533667D01*
X135193000Y-91346333D01*
X135229546Y-91162604D01*
X135301234Y-90989534D01*
X135405312Y-90833770D01*
X135537770Y-90701312D01*
X135693534Y-90597234D01*
X135866604Y-90525546D01*
X136050333Y-90489000D01*
X136237667Y-90489000D01*
X136421396Y-90525546D01*
X136421396Y-90525546D01*
G37*
G36*
X147568228Y-89097703D02*
X147723100Y-89161853D01*
X147862481Y-89254985D01*
X147981015Y-89373519D01*
X148074147Y-89512900D01*
X148138297Y-89667772D01*
X148171000Y-89832184D01*
X148171000Y-89999816D01*
X148138297Y-90164228D01*
X148074147Y-90319100D01*
X147981015Y-90458481D01*
X147862481Y-90577015D01*
X147723100Y-90670147D01*
X147568228Y-90734297D01*
X147403816Y-90767000D01*
X147236184Y-90767000D01*
X147071772Y-90734297D01*
X146916900Y-90670147D01*
X146777519Y-90577015D01*
X146658985Y-90458481D01*
X146565853Y-90319100D01*
X146501703Y-90164228D01*
X146469000Y-89999816D01*
X146469000Y-89832184D01*
X146501703Y-89667772D01*
X146565853Y-89512900D01*
X146658985Y-89373519D01*
X146777519Y-89254985D01*
X146916900Y-89161853D01*
X147071772Y-89097703D01*
X147236184Y-89065000D01*
X147403816Y-89065000D01*
X147568228Y-89097703D01*
X147568228Y-89097703D01*
G37*
G36*
X144012228Y-89097703D02*
X144167100Y-89161853D01*
X144306481Y-89254985D01*
X144425015Y-89373519D01*
X144518147Y-89512900D01*
X144582297Y-89667772D01*
X144615000Y-89832184D01*
X144615000Y-89999816D01*
X144582297Y-90164228D01*
X144518147Y-90319100D01*
X144425015Y-90458481D01*
X144306481Y-90577015D01*
X144167100Y-90670147D01*
X144012228Y-90734297D01*
X143847816Y-90767000D01*
X143680184Y-90767000D01*
X143515772Y-90734297D01*
X143360900Y-90670147D01*
X143221519Y-90577015D01*
X143102985Y-90458481D01*
X143009853Y-90319100D01*
X142945703Y-90164228D01*
X142913000Y-89999816D01*
X142913000Y-89832184D01*
X142945703Y-89667772D01*
X143009853Y-89512900D01*
X143102985Y-89373519D01*
X143221519Y-89254985D01*
X143360900Y-89161853D01*
X143515772Y-89097703D01*
X143680184Y-89065000D01*
X143847816Y-89065000D01*
X144012228Y-89097703D01*
X144012228Y-89097703D01*
G37*
G36*
X128690821Y-86029313D02*
X128690824Y-86029314D01*
X128690825Y-86029314D01*
X128851239Y-86077975D01*
X128851241Y-86077976D01*
X128851244Y-86077977D01*
X128999078Y-86156995D01*
X129128659Y-86263341D01*
X129235005Y-86392922D01*
X129314023Y-86540756D01*
X129314024Y-86540759D01*
X129314025Y-86540761D01*
X129362686Y-86701175D01*
X129362687Y-86701179D01*
X129379117Y-86868000D01*
X129362687Y-87034821D01*
X129362686Y-87034824D01*
X129362686Y-87034825D01*
X129337993Y-87116228D01*
X129314023Y-87195244D01*
X129235005Y-87343078D01*
X129128659Y-87472659D01*
X128999078Y-87579005D01*
X128851244Y-87658023D01*
X128851241Y-87658024D01*
X128851239Y-87658025D01*
X128690825Y-87706686D01*
X128690824Y-87706686D01*
X128690821Y-87706687D01*
X128565804Y-87719000D01*
X128482196Y-87719000D01*
X128357179Y-87706687D01*
X128357176Y-87706686D01*
X128357175Y-87706686D01*
X128196761Y-87658025D01*
X128196759Y-87658024D01*
X128196756Y-87658023D01*
X128048922Y-87579005D01*
X127919341Y-87472659D01*
X127812995Y-87343078D01*
X127733977Y-87195244D01*
X127710008Y-87116228D01*
X127685314Y-87034825D01*
X127685314Y-87034824D01*
X127685313Y-87034821D01*
X127668883Y-86868000D01*
X127685313Y-86701179D01*
X127685314Y-86701175D01*
X127733975Y-86540761D01*
X127733976Y-86540759D01*
X127733977Y-86540756D01*
X127812995Y-86392922D01*
X127919341Y-86263341D01*
X128048922Y-86156995D01*
X128196756Y-86077977D01*
X128196759Y-86077976D01*
X128196761Y-86077975D01*
X128357175Y-86029314D01*
X128357176Y-86029314D01*
X128357179Y-86029313D01*
X128482196Y-86017000D01*
X128565804Y-86017000D01*
X128690821Y-86029313D01*
X128690821Y-86029313D01*
G37*
G36*
X136392228Y-86049703D02*
X136547100Y-86113853D01*
X136686481Y-86206985D01*
X136805015Y-86325519D01*
X136898147Y-86464900D01*
X136962297Y-86619772D01*
X136995000Y-86784184D01*
X136995000Y-86951816D01*
X136962297Y-87116228D01*
X136898147Y-87271100D01*
X136805015Y-87410481D01*
X136686481Y-87529015D01*
X136547100Y-87622147D01*
X136392228Y-87686297D01*
X136227816Y-87719000D01*
X136060184Y-87719000D01*
X135895772Y-87686297D01*
X135740900Y-87622147D01*
X135601519Y-87529015D01*
X135482985Y-87410481D01*
X135389853Y-87271100D01*
X135325703Y-87116228D01*
X135293000Y-86951816D01*
X135293000Y-86784184D01*
X135325703Y-86619772D01*
X135389853Y-86464900D01*
X135482985Y-86325519D01*
X135601519Y-86206985D01*
X135740900Y-86113853D01*
X135895772Y-86049703D01*
X136060184Y-86017000D01*
X136227816Y-86017000D01*
X136392228Y-86049703D01*
X136392228Y-86049703D01*
G37*
G36*
X135763617Y-82321421D02*
X135845426Y-82346238D01*
X135886332Y-82358646D01*
X135946782Y-82390958D01*
X135999425Y-82419096D01*
X136098553Y-82500448D01*
X136179905Y-82599575D01*
X136179906Y-82599577D01*
X136240355Y-82712668D01*
X136252763Y-82753574D01*
X136277580Y-82835383D01*
X136287000Y-82931028D01*
X136287000Y-83794974D01*
X136277580Y-83890619D01*
X136252763Y-83972428D01*
X136240355Y-84013334D01*
X136186819Y-84113492D01*
X136179905Y-84126427D01*
X136098553Y-84225554D01*
X135999426Y-84306906D01*
X135999424Y-84306907D01*
X135886333Y-84367356D01*
X135845427Y-84379764D01*
X135763618Y-84404581D01*
X135636000Y-84417150D01*
X135508383Y-84404581D01*
X135426574Y-84379764D01*
X135385668Y-84367356D01*
X135272577Y-84306907D01*
X135272575Y-84306906D01*
X135173448Y-84225554D01*
X135092096Y-84126427D01*
X135085182Y-84113492D01*
X135031646Y-84013334D01*
X135025734Y-83993844D01*
X134994420Y-83890619D01*
X134985000Y-83794974D01*
X134985000Y-82931029D01*
X134994420Y-82835384D01*
X135031645Y-82712670D01*
X135031645Y-82712669D01*
X135079447Y-82623239D01*
X135092095Y-82599576D01*
X135173447Y-82500448D01*
X135272574Y-82419096D01*
X135285509Y-82412182D01*
X135385667Y-82358646D01*
X135426573Y-82346238D01*
X135508382Y-82321421D01*
X135636000Y-82308852D01*
X135763617Y-82321421D01*
X135763617Y-82321421D01*
G37*
G36*
X130683617Y-82321421D02*
X130765426Y-82346238D01*
X130806332Y-82358646D01*
X130866782Y-82390958D01*
X130919425Y-82419096D01*
X131018553Y-82500448D01*
X131099905Y-82599575D01*
X131099906Y-82599577D01*
X131160355Y-82712668D01*
X131172763Y-82753574D01*
X131197580Y-82835383D01*
X131207000Y-82931028D01*
X131207000Y-83794974D01*
X131197580Y-83890619D01*
X131172763Y-83972428D01*
X131160355Y-84013334D01*
X131106819Y-84113492D01*
X131099905Y-84126427D01*
X131018553Y-84225554D01*
X130919426Y-84306906D01*
X130919424Y-84306907D01*
X130806333Y-84367356D01*
X130765427Y-84379764D01*
X130683618Y-84404581D01*
X130556000Y-84417150D01*
X130428383Y-84404581D01*
X130346574Y-84379764D01*
X130305668Y-84367356D01*
X130192577Y-84306907D01*
X130192575Y-84306906D01*
X130093448Y-84225554D01*
X130012096Y-84126427D01*
X130005182Y-84113492D01*
X129951646Y-84013334D01*
X129945734Y-83993844D01*
X129914420Y-83890619D01*
X129905000Y-83794974D01*
X129905000Y-82931029D01*
X129914420Y-82835384D01*
X129951645Y-82712670D01*
X129951645Y-82712669D01*
X129999447Y-82623239D01*
X130012095Y-82599576D01*
X130093447Y-82500448D01*
X130192574Y-82419096D01*
X130205509Y-82412182D01*
X130305667Y-82358646D01*
X130346573Y-82346238D01*
X130428382Y-82321421D01*
X130556000Y-82308852D01*
X130683617Y-82321421D01*
X130683617Y-82321421D01*
G37*
G36*
X133223617Y-82321421D02*
X133305426Y-82346238D01*
X133346332Y-82358646D01*
X133406782Y-82390958D01*
X133459425Y-82419096D01*
X133558553Y-82500448D01*
X133639905Y-82599575D01*
X133639906Y-82599577D01*
X133700355Y-82712668D01*
X133712763Y-82753574D01*
X133737580Y-82835383D01*
X133747000Y-82931028D01*
X133747000Y-83794974D01*
X133737580Y-83890619D01*
X133712763Y-83972428D01*
X133700355Y-84013334D01*
X133646819Y-84113492D01*
X133639905Y-84126427D01*
X133558553Y-84225554D01*
X133459426Y-84306906D01*
X133459424Y-84306907D01*
X133346333Y-84367356D01*
X133305427Y-84379764D01*
X133223618Y-84404581D01*
X133096000Y-84417150D01*
X132968383Y-84404581D01*
X132886574Y-84379764D01*
X132845668Y-84367356D01*
X132732577Y-84306907D01*
X132732575Y-84306906D01*
X132633448Y-84225554D01*
X132552096Y-84126427D01*
X132545182Y-84113492D01*
X132491646Y-84013334D01*
X132485734Y-83993844D01*
X132454420Y-83890619D01*
X132445000Y-83794974D01*
X132445000Y-82931029D01*
X132454420Y-82835384D01*
X132491645Y-82712670D01*
X132491645Y-82712669D01*
X132539447Y-82623239D01*
X132552095Y-82599576D01*
X132633447Y-82500448D01*
X132732574Y-82419096D01*
X132745509Y-82412182D01*
X132845667Y-82358646D01*
X132886573Y-82346238D01*
X132968382Y-82321421D01*
X133096000Y-82308852D01*
X133223617Y-82321421D01*
X133223617Y-82321421D01*
G37*
G36*
X140843617Y-82321421D02*
X140925426Y-82346238D01*
X140966332Y-82358646D01*
X141026782Y-82390958D01*
X141079425Y-82419096D01*
X141178553Y-82500448D01*
X141259905Y-82599575D01*
X141259906Y-82599577D01*
X141320355Y-82712668D01*
X141332763Y-82753574D01*
X141357580Y-82835383D01*
X141367000Y-82931028D01*
X141367000Y-83794974D01*
X141357580Y-83890619D01*
X141332763Y-83972428D01*
X141320355Y-84013334D01*
X141266819Y-84113492D01*
X141259905Y-84126427D01*
X141178553Y-84225554D01*
X141079426Y-84306906D01*
X141079424Y-84306907D01*
X140966333Y-84367356D01*
X140925427Y-84379764D01*
X140843618Y-84404581D01*
X140716000Y-84417150D01*
X140588383Y-84404581D01*
X140506574Y-84379764D01*
X140465668Y-84367356D01*
X140352577Y-84306907D01*
X140352575Y-84306906D01*
X140253448Y-84225554D01*
X140172096Y-84126427D01*
X140165182Y-84113492D01*
X140111646Y-84013334D01*
X140105734Y-83993844D01*
X140074420Y-83890619D01*
X140065000Y-83794974D01*
X140065000Y-82931029D01*
X140074420Y-82835384D01*
X140111645Y-82712670D01*
X140111645Y-82712669D01*
X140159447Y-82623239D01*
X140172095Y-82599576D01*
X140253447Y-82500448D01*
X140352574Y-82419096D01*
X140365509Y-82412182D01*
X140465667Y-82358646D01*
X140506573Y-82346238D01*
X140588382Y-82321421D01*
X140716000Y-82308852D01*
X140843617Y-82321421D01*
X140843617Y-82321421D01*
G37*
G36*
X138303617Y-82321421D02*
X138385426Y-82346238D01*
X138426332Y-82358646D01*
X138486782Y-82390958D01*
X138539425Y-82419096D01*
X138638553Y-82500448D01*
X138719905Y-82599575D01*
X138719906Y-82599577D01*
X138780355Y-82712668D01*
X138792763Y-82753574D01*
X138817580Y-82835383D01*
X138827000Y-82931028D01*
X138827000Y-83794974D01*
X138817580Y-83890619D01*
X138792763Y-83972428D01*
X138780355Y-84013334D01*
X138726819Y-84113492D01*
X138719905Y-84126427D01*
X138638553Y-84225554D01*
X138539426Y-84306906D01*
X138539424Y-84306907D01*
X138426333Y-84367356D01*
X138385427Y-84379764D01*
X138303618Y-84404581D01*
X138176000Y-84417150D01*
X138048383Y-84404581D01*
X137966574Y-84379764D01*
X137925668Y-84367356D01*
X137812577Y-84306907D01*
X137812575Y-84306906D01*
X137713448Y-84225554D01*
X137632096Y-84126427D01*
X137625182Y-84113492D01*
X137571646Y-84013334D01*
X137565734Y-83993844D01*
X137534420Y-83890619D01*
X137525000Y-83794974D01*
X137525000Y-82931029D01*
X137534420Y-82835384D01*
X137571645Y-82712670D01*
X137571645Y-82712669D01*
X137619447Y-82623239D01*
X137632095Y-82599576D01*
X137713447Y-82500448D01*
X137812574Y-82419096D01*
X137825509Y-82412182D01*
X137925667Y-82358646D01*
X137966573Y-82346238D01*
X138048382Y-82321421D01*
X138176000Y-82308852D01*
X138303617Y-82321421D01*
X138303617Y-82321421D01*
G37*
G36*
X147486821Y-81457313D02*
X147486824Y-81457314D01*
X147486825Y-81457314D01*
X147647239Y-81505975D01*
X147647241Y-81505976D01*
X147647244Y-81505977D01*
X147795078Y-81584995D01*
X147924659Y-81691341D01*
X148031005Y-81820922D01*
X148110023Y-81968756D01*
X148158687Y-82129179D01*
X148175117Y-82296000D01*
X148158687Y-82462821D01*
X148158686Y-82462824D01*
X148158686Y-82462825D01*
X148117203Y-82599577D01*
X148110023Y-82623244D01*
X148031005Y-82771078D01*
X147924659Y-82900659D01*
X147795078Y-83007005D01*
X147647244Y-83086023D01*
X147647241Y-83086024D01*
X147647239Y-83086025D01*
X147486825Y-83134686D01*
X147486824Y-83134686D01*
X147486821Y-83134687D01*
X147361804Y-83147000D01*
X147278196Y-83147000D01*
X147153179Y-83134687D01*
X147153176Y-83134686D01*
X147153175Y-83134686D01*
X146992761Y-83086025D01*
X146992759Y-83086024D01*
X146992756Y-83086023D01*
X146844922Y-83007005D01*
X146715341Y-82900659D01*
X146608995Y-82771078D01*
X146529977Y-82623244D01*
X146522798Y-82599577D01*
X146481314Y-82462825D01*
X146481314Y-82462824D01*
X146481313Y-82462821D01*
X146464883Y-82296000D01*
X146481313Y-82129179D01*
X146529977Y-81968756D01*
X146608995Y-81820922D01*
X146715341Y-81691341D01*
X146844922Y-81584995D01*
X146992756Y-81505977D01*
X146992759Y-81505976D01*
X146992761Y-81505975D01*
X147153175Y-81457314D01*
X147153176Y-81457314D01*
X147153179Y-81457313D01*
X147278196Y-81445000D01*
X147361804Y-81445000D01*
X147486821Y-81457313D01*
X147486821Y-81457313D01*
G37*
G36*
X143930821Y-81457313D02*
X143930824Y-81457314D01*
X143930825Y-81457314D01*
X144091239Y-81505975D01*
X144091241Y-81505976D01*
X144091244Y-81505977D01*
X144239078Y-81584995D01*
X144368659Y-81691341D01*
X144475005Y-81820922D01*
X144554023Y-81968756D01*
X144602687Y-82129179D01*
X144619117Y-82296000D01*
X144602687Y-82462821D01*
X144602686Y-82462824D01*
X144602686Y-82462825D01*
X144561203Y-82599577D01*
X144554023Y-82623244D01*
X144475005Y-82771078D01*
X144368659Y-82900659D01*
X144239078Y-83007005D01*
X144091244Y-83086023D01*
X144091241Y-83086024D01*
X144091239Y-83086025D01*
X143930825Y-83134686D01*
X143930824Y-83134686D01*
X143930821Y-83134687D01*
X143805804Y-83147000D01*
X143722196Y-83147000D01*
X143597179Y-83134687D01*
X143597176Y-83134686D01*
X143597175Y-83134686D01*
X143436761Y-83086025D01*
X143436759Y-83086024D01*
X143436756Y-83086023D01*
X143288922Y-83007005D01*
X143159341Y-82900659D01*
X143052995Y-82771078D01*
X142973977Y-82623244D01*
X142966798Y-82599577D01*
X142925314Y-82462825D01*
X142925314Y-82462824D01*
X142925313Y-82462821D01*
X142908883Y-82296000D01*
X142925313Y-82129179D01*
X142973977Y-81968756D01*
X143052995Y-81820922D01*
X143159341Y-81691341D01*
X143288922Y-81584995D01*
X143436756Y-81505977D01*
X143436759Y-81505976D01*
X143436761Y-81505975D01*
X143597175Y-81457314D01*
X143597176Y-81457314D01*
X143597179Y-81457313D01*
X143722196Y-81445000D01*
X143805804Y-81445000D01*
X143930821Y-81457313D01*
X143930821Y-81457313D01*
G37*
G36*
X140511765Y-78246620D02*
X140701289Y-78325123D01*
X140871855Y-78439092D01*
X141016908Y-78584145D01*
X141130877Y-78754711D01*
X141209380Y-78944235D01*
X141249400Y-79145430D01*
X141249400Y-79350570D01*
X141209380Y-79551765D01*
X141130877Y-79741289D01*
X141016908Y-79911855D01*
X140871855Y-80056908D01*
X140701289Y-80170877D01*
X140511765Y-80249380D01*
X140310570Y-80289400D01*
X140105430Y-80289400D01*
X139904235Y-80249380D01*
X139714711Y-80170877D01*
X139544145Y-80056908D01*
X139399092Y-79911855D01*
X139285123Y-79741289D01*
X139206620Y-79551765D01*
X139166600Y-79350570D01*
X139166600Y-79145430D01*
X139206620Y-78944235D01*
X139285123Y-78754711D01*
X139399092Y-78584145D01*
X139544145Y-78439092D01*
X139714711Y-78325123D01*
X139904235Y-78246620D01*
X140105430Y-78206600D01*
X140310570Y-78206600D01*
X140511765Y-78246620D01*
X140511765Y-78246620D01*
G37*
G36*
X127811765Y-78246620D02*
X128001289Y-78325123D01*
X128171855Y-78439092D01*
X128316908Y-78584145D01*
X128430877Y-78754711D01*
X128509380Y-78944235D01*
X128549400Y-79145430D01*
X128549400Y-79350570D01*
X128509380Y-79551765D01*
X128430877Y-79741289D01*
X128316908Y-79911855D01*
X128171855Y-80056908D01*
X128001289Y-80170877D01*
X127811765Y-80249380D01*
X127610570Y-80289400D01*
X127405430Y-80289400D01*
X127204235Y-80249380D01*
X127014711Y-80170877D01*
X126844145Y-80056908D01*
X126699092Y-79911855D01*
X126585123Y-79741289D01*
X126506620Y-79551765D01*
X126466600Y-79350570D01*
X126466600Y-79145430D01*
X126506620Y-78944235D01*
X126585123Y-78754711D01*
X126699092Y-78584145D01*
X126844145Y-78439092D01*
X127014711Y-78325123D01*
X127204235Y-78246620D01*
X127405430Y-78206600D01*
X127610570Y-78206600D01*
X127811765Y-78246620D01*
X127811765Y-78246620D01*
G37*
G36*
X130351765Y-78246620D02*
X130541289Y-78325123D01*
X130711855Y-78439092D01*
X130856908Y-78584145D01*
X130970877Y-78754711D01*
X131049380Y-78944235D01*
X131089400Y-79145430D01*
X131089400Y-79350570D01*
X131049380Y-79551765D01*
X130970877Y-79741289D01*
X130856908Y-79911855D01*
X130711855Y-80056908D01*
X130541289Y-80170877D01*
X130351765Y-80249380D01*
X130150570Y-80289400D01*
X129945430Y-80289400D01*
X129744235Y-80249380D01*
X129554711Y-80170877D01*
X129384145Y-80056908D01*
X129239092Y-79911855D01*
X129125123Y-79741289D01*
X129046620Y-79551765D01*
X129006600Y-79350570D01*
X129006600Y-79145430D01*
X129046620Y-78944235D01*
X129125123Y-78754711D01*
X129239092Y-78584145D01*
X129384145Y-78439092D01*
X129554711Y-78325123D01*
X129744235Y-78246620D01*
X129945430Y-78206600D01*
X130150570Y-78206600D01*
X130351765Y-78246620D01*
X130351765Y-78246620D01*
G37*
G36*
X132891765Y-78246620D02*
X133081289Y-78325123D01*
X133251855Y-78439092D01*
X133396908Y-78584145D01*
X133510877Y-78754711D01*
X133589380Y-78944235D01*
X133629400Y-79145430D01*
X133629400Y-79350570D01*
X133589380Y-79551765D01*
X133510877Y-79741289D01*
X133396908Y-79911855D01*
X133251855Y-80056908D01*
X133081289Y-80170877D01*
X132891765Y-80249380D01*
X132690570Y-80289400D01*
X132485430Y-80289400D01*
X132284235Y-80249380D01*
X132094711Y-80170877D01*
X131924145Y-80056908D01*
X131779092Y-79911855D01*
X131665123Y-79741289D01*
X131586620Y-79551765D01*
X131546600Y-79350570D01*
X131546600Y-79145430D01*
X131586620Y-78944235D01*
X131665123Y-78754711D01*
X131779092Y-78584145D01*
X131924145Y-78439092D01*
X132094711Y-78325123D01*
X132284235Y-78246620D01*
X132485430Y-78206600D01*
X132690570Y-78206600D01*
X132891765Y-78246620D01*
X132891765Y-78246620D01*
G37*
G36*
X135431765Y-78246620D02*
X135621289Y-78325123D01*
X135791855Y-78439092D01*
X135936908Y-78584145D01*
X136050877Y-78754711D01*
X136129380Y-78944235D01*
X136169400Y-79145430D01*
X136169400Y-79350570D01*
X136129380Y-79551765D01*
X136050877Y-79741289D01*
X135936908Y-79911855D01*
X135791855Y-80056908D01*
X135621289Y-80170877D01*
X135431765Y-80249380D01*
X135230570Y-80289400D01*
X135025430Y-80289400D01*
X134824235Y-80249380D01*
X134634711Y-80170877D01*
X134464145Y-80056908D01*
X134319092Y-79911855D01*
X134205123Y-79741289D01*
X134126620Y-79551765D01*
X134086600Y-79350570D01*
X134086600Y-79145430D01*
X134126620Y-78944235D01*
X134205123Y-78754711D01*
X134319092Y-78584145D01*
X134464145Y-78439092D01*
X134634711Y-78325123D01*
X134824235Y-78246620D01*
X135025430Y-78206600D01*
X135230570Y-78206600D01*
X135431765Y-78246620D01*
X135431765Y-78246620D01*
G37*
G36*
X143051765Y-78246620D02*
X143241289Y-78325123D01*
X143411855Y-78439092D01*
X143556908Y-78584145D01*
X143670877Y-78754711D01*
X143749380Y-78944235D01*
X143789400Y-79145430D01*
X143789400Y-79350570D01*
X143749380Y-79551765D01*
X143670877Y-79741289D01*
X143556908Y-79911855D01*
X143411855Y-80056908D01*
X143241289Y-80170877D01*
X143051765Y-80249380D01*
X142850570Y-80289400D01*
X142645430Y-80289400D01*
X142444235Y-80249380D01*
X142254711Y-80170877D01*
X142084145Y-80056908D01*
X141939092Y-79911855D01*
X141825123Y-79741289D01*
X141746620Y-79551765D01*
X141706600Y-79350570D01*
X141706600Y-79145430D01*
X141746620Y-78944235D01*
X141825123Y-78754711D01*
X141939092Y-78584145D01*
X142084145Y-78439092D01*
X142254711Y-78325123D01*
X142444235Y-78246620D01*
X142645430Y-78206600D01*
X142850570Y-78206600D01*
X143051765Y-78246620D01*
X143051765Y-78246620D01*
G37*
M02*
