M48
;DRILL file {KiCad 5.0.2-bee76a0~70~ubuntu18.04.1} date Sat Jul  6 00:13:00 2019
;FORMAT={3:3/ absolute / metric / suppress leading zeros}
FMAT,2
METRIC,TZ
T1C0.800
T2C0.900
T3C1.016
T4C3.200
%
G90
G05
T1
X133096Y-96033
X143764Y-82296
X143764Y-89916
X147320Y-82296
X147320Y-89916
X128524Y-86868
X136144Y-86868
X130556Y-83363
X130556Y-96033
X133096Y-83363
X135636Y-83363
X135636Y-96033
X138176Y-83363
X138176Y-96033
X140716Y-83363
X140716Y-96033
T2
X133604Y-91440
X136144Y-91440
T3
X127508Y-79248
X130048Y-79248
X132588Y-79248
X135128Y-79248
X140208Y-79248
X142748Y-79248
T4
X147828Y-94996
X123952Y-94996
T0
M30
