G04 #@! TF.GenerationSoftware,KiCad,Pcbnew,5.0.2-bee76a0~70~ubuntu18.04.1*
G04 #@! TF.CreationDate,2019-04-08T15:23:50+01:00*
G04 #@! TF.ProjectId,Bump Stop,42756d70-2053-4746-9f70-2e6b69636164,rev?*
G04 #@! TF.SameCoordinates,Original*
G04 #@! TF.FileFunction,Copper,L1,Top*
G04 #@! TF.FilePolarity,Positive*
%FSLAX46Y46*%
G04 Gerber Fmt 4.6, Leading zero omitted, Abs format (unit mm)*
G04 Created by KiCad (PCBNEW 5.0.2-bee76a0~70~ubuntu18.04.1) date Mon Apr  8 15:23:50 2019*
%MOMM*%
%LPD*%
G01*
G04 APERTURE LIST*
G04 #@! TA.AperFunction,ComponentPad*
%ADD10C,1.800000*%
G04 #@! TD*
G04 #@! TA.AperFunction,ComponentPad*
%ADD11O,1.998980X1.998980*%
G04 #@! TD*
G04 #@! TA.AperFunction,ComponentPad*
%ADD12R,1.998980X1.998980*%
G04 #@! TD*
G04 #@! TA.AperFunction,ComponentPad*
%ADD13R,1.600000X1.600000*%
G04 #@! TD*
G04 #@! TA.AperFunction,ComponentPad*
%ADD14O,1.600000X1.600000*%
G04 #@! TD*
G04 #@! TA.AperFunction,ComponentPad*
%ADD15C,1.400000*%
G04 #@! TD*
G04 #@! TA.AperFunction,ComponentPad*
%ADD16O,1.400000X1.400000*%
G04 #@! TD*
G04 #@! TA.AperFunction,Conductor*
%ADD17C,0.250000*%
G04 #@! TD*
G04 #@! TA.AperFunction,Conductor*
%ADD18C,0.254000*%
G04 #@! TD*
G04 APERTURE END LIST*
D10*
G04 #@! TO.P,U1,8*
G04 #@! TO.N,Net-(U1-Pad8)*
X139954000Y-121666000D03*
G04 #@! TO.P,U1,9*
G04 #@! TO.N,Net-(J2-Pad1)*
X162814000Y-121666000D03*
G04 #@! TO.P,U1,7*
G04 #@! TO.N,Net-(U1-Pad7)*
X139954000Y-119126000D03*
G04 #@! TO.P,U1,10*
G04 #@! TO.N,Net-(U1-Pad10)*
X162814000Y-119126000D03*
G04 #@! TO.P,U1,6*
G04 #@! TO.N,Net-(U1-Pad6)*
X139954000Y-116586000D03*
G04 #@! TO.P,U1,11*
G04 #@! TO.N,Net-(R6-Pad2)*
X162814000Y-116586000D03*
G04 #@! TO.P,U1,5*
G04 #@! TO.N,Net-(J3-Pad2)*
X139954000Y-114046000D03*
G04 #@! TO.P,U1,12*
G04 #@! TO.N,Net-(R5-Pad2)*
X162814000Y-114046000D03*
G04 #@! TO.P,U1,4*
G04 #@! TO.N,Net-(J5-Pad2)*
X139954000Y-111506000D03*
G04 #@! TO.P,U1,13*
G04 #@! TO.N,Net-(R2-Pad2)*
X162814000Y-111506000D03*
G04 #@! TO.P,U1,3*
G04 #@! TO.N,Net-(J1-Pad2)*
X139954000Y-108966000D03*
G04 #@! TO.P,U1,14*
G04 #@! TO.N,Net-(R1-Pad2)*
X162814000Y-108966000D03*
G04 #@! TO.P,U1,2*
G04 #@! TO.N,GND*
X139954000Y-106426000D03*
G04 #@! TO.P,U1,15*
G04 #@! TO.N,Net-(U1-Pad15)*
X162814000Y-106426000D03*
G04 #@! TO.P,U1,1*
G04 #@! TO.N,+5V*
X139954000Y-103886000D03*
G04 #@! TO.P,U1,16*
G04 #@! TO.N,+3V3*
X162814000Y-103886000D03*
G04 #@! TD*
D11*
G04 #@! TO.P,J1,3*
G04 #@! TO.N,+5V*
X139446000Y-81788000D03*
D12*
G04 #@! TO.P,J1,1*
G04 #@! TO.N,GND*
X144526000Y-81788000D03*
D11*
G04 #@! TO.P,J1,2*
G04 #@! TO.N,Net-(J1-Pad2)*
X141986000Y-81788000D03*
G04 #@! TD*
G04 #@! TO.P,J2,2*
G04 #@! TO.N,GND*
X173482000Y-136652000D03*
D12*
G04 #@! TO.P,J2,1*
G04 #@! TO.N,Net-(J2-Pad1)*
X170942000Y-136652000D03*
G04 #@! TD*
D11*
G04 #@! TO.P,J3,2*
G04 #@! TO.N,Net-(J3-Pad2)*
X142494000Y-136652000D03*
D12*
G04 #@! TO.P,J3,1*
G04 #@! TO.N,GND*
X139954000Y-136652000D03*
G04 #@! TD*
D11*
G04 #@! TO.P,J4,2*
G04 #@! TO.N,Net-(J3-Pad2)*
X149098000Y-136652000D03*
D12*
G04 #@! TO.P,J4,1*
G04 #@! TO.N,GND*
X146558000Y-136652000D03*
G04 #@! TD*
D11*
G04 #@! TO.P,J5,2*
G04 #@! TO.N,Net-(J5-Pad2)*
X156210000Y-136652000D03*
D12*
G04 #@! TO.P,J5,1*
G04 #@! TO.N,GND*
X153670000Y-136652000D03*
G04 #@! TD*
D11*
G04 #@! TO.P,J6,2*
G04 #@! TO.N,Net-(J5-Pad2)*
X162814000Y-136652000D03*
D12*
G04 #@! TO.P,J6,1*
G04 #@! TO.N,GND*
X160274000Y-136652000D03*
G04 #@! TD*
D13*
G04 #@! TO.P,SW1,1*
G04 #@! TO.N,Net-(R1-Pad2)*
X167894000Y-108966000D03*
D14*
G04 #@! TO.P,SW1,5*
G04 #@! TO.N,GND*
X175514000Y-116586000D03*
G04 #@! TO.P,SW1,2*
G04 #@! TO.N,Net-(R2-Pad2)*
X167894000Y-111506000D03*
G04 #@! TO.P,SW1,6*
G04 #@! TO.N,GND*
X175514000Y-114046000D03*
G04 #@! TO.P,SW1,3*
G04 #@! TO.N,Net-(R5-Pad2)*
X167894000Y-114046000D03*
G04 #@! TO.P,SW1,7*
G04 #@! TO.N,GND*
X175514000Y-111506000D03*
G04 #@! TO.P,SW1,4*
G04 #@! TO.N,Net-(R6-Pad2)*
X167894000Y-116586000D03*
G04 #@! TO.P,SW1,8*
G04 #@! TO.N,GND*
X175514000Y-108966000D03*
G04 #@! TD*
D15*
G04 #@! TO.P,R1,1*
G04 #@! TO.N,+3V3*
X160020000Y-101346000D03*
D16*
G04 #@! TO.P,R1,2*
G04 #@! TO.N,Net-(R1-Pad2)*
X160020000Y-108966000D03*
G04 #@! TD*
D15*
G04 #@! TO.P,R2,1*
G04 #@! TO.N,+3V3*
X157480000Y-101346000D03*
D16*
G04 #@! TO.P,R2,2*
G04 #@! TO.N,Net-(R2-Pad2)*
X157480000Y-108966000D03*
G04 #@! TD*
D15*
G04 #@! TO.P,R3,1*
G04 #@! TO.N,+3V3*
X145288000Y-121920000D03*
D16*
G04 #@! TO.P,R3,2*
G04 #@! TO.N,Net-(J3-Pad2)*
X152908000Y-121920000D03*
G04 #@! TD*
D15*
G04 #@! TO.P,R4,1*
G04 #@! TO.N,+3V3*
X145288000Y-124460000D03*
D16*
G04 #@! TO.P,R4,2*
G04 #@! TO.N,Net-(J5-Pad2)*
X152908000Y-124460000D03*
G04 #@! TD*
D15*
G04 #@! TO.P,R5,1*
G04 #@! TO.N,+3V3*
X154940000Y-101346000D03*
D16*
G04 #@! TO.P,R5,2*
G04 #@! TO.N,Net-(R5-Pad2)*
X154940000Y-108966000D03*
G04 #@! TD*
D15*
G04 #@! TO.P,R6,1*
G04 #@! TO.N,+3V3*
X152400000Y-101346000D03*
D16*
G04 #@! TO.P,R6,2*
G04 #@! TO.N,Net-(R6-Pad2)*
X152400000Y-108966000D03*
G04 #@! TD*
D17*
G04 #@! TO.N,Net-(J1-Pad2)*
X141986000Y-106934000D02*
X139954000Y-108966000D01*
X141986000Y-81788000D02*
X141986000Y-106934000D01*
G04 #@! TO.N,+5V*
X139954000Y-82296000D02*
X139446000Y-81788000D01*
X139954000Y-103886000D02*
X139954000Y-82296000D01*
G04 #@! TO.N,Net-(J3-Pad2)*
X150114000Y-114046000D02*
X139954000Y-114046000D01*
X152908000Y-121920000D02*
X152908000Y-116840000D01*
X152908000Y-116840000D02*
X150114000Y-114046000D01*
X149098000Y-125730000D02*
X149098000Y-136652000D01*
X152908000Y-121920000D02*
X149098000Y-125730000D01*
X143493489Y-135652511D02*
X143493489Y-131334511D01*
X143493489Y-131334511D02*
X149098000Y-125730000D01*
X142494000Y-136652000D02*
X143493489Y-135652511D01*
G04 #@! TO.N,Net-(J5-Pad2)*
X152908000Y-124460000D02*
X153924000Y-124460000D01*
X153933001Y-124450999D02*
X154441001Y-124450999D01*
X153924000Y-124460000D02*
X153933001Y-124450999D01*
X154441001Y-124450999D02*
X154940000Y-123952000D01*
X141226792Y-111506000D02*
X139954000Y-111506000D01*
X148210410Y-111506000D02*
X141226792Y-111506000D01*
X154940000Y-118235590D02*
X148210410Y-111506000D01*
X154940000Y-123952000D02*
X154940000Y-118235590D01*
X154441001Y-124450999D02*
X154441001Y-124469001D01*
X154441001Y-124469001D02*
X156210000Y-126238000D01*
X156353492Y-128778000D02*
X156210000Y-128778000D01*
X162814000Y-136652000D02*
X162814000Y-135238508D01*
X162814000Y-135238508D02*
X156353492Y-128778000D01*
X156210000Y-126238000D02*
X156210000Y-128778000D01*
X156210000Y-128778000D02*
X156210000Y-136652000D01*
G04 #@! TO.N,Net-(R1-Pad2)*
X160020000Y-108966000D02*
X162814000Y-108966000D01*
X162814000Y-108966000D02*
X167894000Y-108966000D01*
G04 #@! TO.N,Net-(R2-Pad2)*
X160020000Y-111506000D02*
X162814000Y-111506000D01*
X157480000Y-108966000D02*
X160020000Y-111506000D01*
X164086792Y-111506000D02*
X167894000Y-111506000D01*
X162814000Y-111506000D02*
X164086792Y-111506000D01*
G04 #@! TO.N,Net-(R5-Pad2)*
X160020000Y-114046000D02*
X162814000Y-114046000D01*
X154940000Y-108966000D02*
X160020000Y-114046000D01*
X162814000Y-114046000D02*
X167894000Y-114046000D01*
G04 #@! TO.N,Net-(R6-Pad2)*
X160020000Y-116586000D02*
X162814000Y-116586000D01*
X152400000Y-108966000D02*
X160020000Y-116586000D01*
X162814000Y-116586000D02*
X167894000Y-116586000D01*
G04 #@! TO.N,Net-(J2-Pad1)*
X169692510Y-136652000D02*
X170942000Y-136652000D01*
X162814000Y-129773490D02*
X169692510Y-136652000D01*
X162814000Y-121666000D02*
X162814000Y-129773490D01*
G04 #@! TO.N,Net-(U1-Pad6)*
X139954000Y-116586000D02*
X141226792Y-116586000D01*
G04 #@! TD*
D18*
G04 #@! TO.N,+3V3*
G36*
X178106001Y-142800000D02*
X137870000Y-142800000D01*
X137870000Y-125395275D01*
X144532331Y-125395275D01*
X144594169Y-125631042D01*
X145095122Y-125807419D01*
X145625440Y-125778664D01*
X145981831Y-125631042D01*
X146043669Y-125395275D01*
X145288000Y-124639605D01*
X144532331Y-125395275D01*
X137870000Y-125395275D01*
X137870000Y-124267122D01*
X143940581Y-124267122D01*
X143969336Y-124797440D01*
X144116958Y-125153831D01*
X144352725Y-125215669D01*
X145108395Y-124460000D01*
X145467605Y-124460000D01*
X146223275Y-125215669D01*
X146459042Y-125153831D01*
X146635419Y-124652878D01*
X146606664Y-124122560D01*
X146459042Y-123766169D01*
X146223275Y-123704331D01*
X145467605Y-124460000D01*
X145108395Y-124460000D01*
X144352725Y-123704331D01*
X144116958Y-123766169D01*
X143940581Y-124267122D01*
X137870000Y-124267122D01*
X137870000Y-82243028D01*
X137906345Y-82425746D01*
X138267599Y-82966401D01*
X138808254Y-83327655D01*
X139194001Y-83404385D01*
X139194000Y-102539331D01*
X139084493Y-102584690D01*
X138652690Y-103016493D01*
X138419000Y-103580670D01*
X138419000Y-104191330D01*
X138652690Y-104755507D01*
X139053183Y-105156000D01*
X138652690Y-105556493D01*
X138419000Y-106120670D01*
X138419000Y-106731330D01*
X138652690Y-107295507D01*
X139053183Y-107696000D01*
X138652690Y-108096493D01*
X138419000Y-108660670D01*
X138419000Y-109271330D01*
X138652690Y-109835507D01*
X139053183Y-110236000D01*
X138652690Y-110636493D01*
X138419000Y-111200670D01*
X138419000Y-111811330D01*
X138652690Y-112375507D01*
X139053183Y-112776000D01*
X138652690Y-113176493D01*
X138419000Y-113740670D01*
X138419000Y-114351330D01*
X138652690Y-114915507D01*
X139053183Y-115316000D01*
X138652690Y-115716493D01*
X138419000Y-116280670D01*
X138419000Y-116891330D01*
X138652690Y-117455507D01*
X139053183Y-117856000D01*
X138652690Y-118256493D01*
X138419000Y-118820670D01*
X138419000Y-119431330D01*
X138652690Y-119995507D01*
X139053183Y-120396000D01*
X138652690Y-120796493D01*
X138419000Y-121360670D01*
X138419000Y-121971330D01*
X138652690Y-122535507D01*
X139084493Y-122967310D01*
X139648670Y-123201000D01*
X140259330Y-123201000D01*
X140823507Y-122967310D01*
X140935542Y-122855275D01*
X144532331Y-122855275D01*
X144594169Y-123091042D01*
X144852445Y-123181977D01*
X144594169Y-123288958D01*
X144532331Y-123524725D01*
X145288000Y-124280395D01*
X146043669Y-123524725D01*
X145981831Y-123288958D01*
X145723555Y-123198023D01*
X145981831Y-123091042D01*
X146043669Y-122855275D01*
X145288000Y-122099605D01*
X144532331Y-122855275D01*
X140935542Y-122855275D01*
X141255310Y-122535507D01*
X141489000Y-121971330D01*
X141489000Y-121727122D01*
X143940581Y-121727122D01*
X143969336Y-122257440D01*
X144116958Y-122613831D01*
X144352725Y-122675669D01*
X145108395Y-121920000D01*
X145467605Y-121920000D01*
X146223275Y-122675669D01*
X146459042Y-122613831D01*
X146635419Y-122112878D01*
X146606664Y-121582560D01*
X146459042Y-121226169D01*
X146223275Y-121164331D01*
X145467605Y-121920000D01*
X145108395Y-121920000D01*
X144352725Y-121164331D01*
X144116958Y-121226169D01*
X143940581Y-121727122D01*
X141489000Y-121727122D01*
X141489000Y-121360670D01*
X141333279Y-120984725D01*
X144532331Y-120984725D01*
X145288000Y-121740395D01*
X146043669Y-120984725D01*
X145981831Y-120748958D01*
X145480878Y-120572581D01*
X144950560Y-120601336D01*
X144594169Y-120748958D01*
X144532331Y-120984725D01*
X141333279Y-120984725D01*
X141255310Y-120796493D01*
X140854817Y-120396000D01*
X141255310Y-119995507D01*
X141489000Y-119431330D01*
X141489000Y-118820670D01*
X141255310Y-118256493D01*
X140854817Y-117856000D01*
X141255310Y-117455507D01*
X141300669Y-117346000D01*
X141301644Y-117346000D01*
X141523329Y-117301904D01*
X141774721Y-117133929D01*
X141942696Y-116882537D01*
X142001681Y-116586000D01*
X141942696Y-116289463D01*
X141774721Y-116038071D01*
X141523329Y-115870096D01*
X141301644Y-115826000D01*
X141300669Y-115826000D01*
X141255310Y-115716493D01*
X140854817Y-115316000D01*
X141255310Y-114915507D01*
X141300669Y-114806000D01*
X149799199Y-114806000D01*
X152148001Y-117154803D01*
X152148000Y-120822225D01*
X151945519Y-120957519D01*
X151650458Y-121399109D01*
X151546846Y-121920000D01*
X151594355Y-122158843D01*
X148613532Y-125139667D01*
X148613526Y-125139671D01*
X148613524Y-125139673D01*
X148550071Y-125182071D01*
X148507673Y-125245524D01*
X143009017Y-130744182D01*
X142945561Y-130786582D01*
X142903161Y-130850038D01*
X142903160Y-130850039D01*
X142777586Y-131037974D01*
X142718601Y-131334511D01*
X142733490Y-131409363D01*
X142733489Y-135033126D01*
X142654980Y-135017510D01*
X142333020Y-135017510D01*
X141856254Y-135112345D01*
X141510595Y-135343307D01*
X141411299Y-135194701D01*
X141201255Y-135054353D01*
X140953490Y-135005070D01*
X138954510Y-135005070D01*
X138706745Y-135054353D01*
X138496701Y-135194701D01*
X138356353Y-135404745D01*
X138307070Y-135652510D01*
X138307070Y-137651490D01*
X138356353Y-137899255D01*
X138496701Y-138109299D01*
X138706745Y-138249647D01*
X138954510Y-138298930D01*
X139171226Y-138298930D01*
X138949405Y-138520751D01*
X138769000Y-138956289D01*
X138769000Y-139427711D01*
X138949405Y-139863249D01*
X139282751Y-140196595D01*
X139718289Y-140377000D01*
X140189711Y-140377000D01*
X140625249Y-140196595D01*
X140958595Y-139863249D01*
X141139000Y-139427711D01*
X141139000Y-138956289D01*
X140958595Y-138520751D01*
X140736774Y-138298930D01*
X140953490Y-138298930D01*
X141201255Y-138249647D01*
X141411299Y-138109299D01*
X141510595Y-137960693D01*
X141839506Y-138180465D01*
X141822751Y-138187405D01*
X141489405Y-138520751D01*
X141309000Y-138956289D01*
X141309000Y-139427711D01*
X141489405Y-139863249D01*
X141822751Y-140196595D01*
X142258289Y-140377000D01*
X142729711Y-140377000D01*
X143165249Y-140196595D01*
X143498595Y-139863249D01*
X143679000Y-139427711D01*
X143679000Y-138956289D01*
X143498595Y-138520751D01*
X143165249Y-138187405D01*
X143148494Y-138180465D01*
X143672401Y-137830401D01*
X144033655Y-137289746D01*
X144160511Y-136652000D01*
X144063975Y-136166681D01*
X144209393Y-135949048D01*
X144253489Y-135727363D01*
X144253489Y-135727358D01*
X144268377Y-135652511D01*
X144253489Y-135577664D01*
X144253489Y-131649312D01*
X148338000Y-127564802D01*
X148338001Y-135194032D01*
X148114595Y-135343307D01*
X148015299Y-135194701D01*
X147805255Y-135054353D01*
X147557490Y-135005070D01*
X145558510Y-135005070D01*
X145310745Y-135054353D01*
X145100701Y-135194701D01*
X144960353Y-135404745D01*
X144911070Y-135652510D01*
X144911070Y-137651490D01*
X144960353Y-137899255D01*
X145100701Y-138109299D01*
X145310745Y-138249647D01*
X145558510Y-138298930D01*
X145775226Y-138298930D01*
X145553405Y-138520751D01*
X145373000Y-138956289D01*
X145373000Y-139427711D01*
X145553405Y-139863249D01*
X145886751Y-140196595D01*
X146322289Y-140377000D01*
X146793711Y-140377000D01*
X147229249Y-140196595D01*
X147562595Y-139863249D01*
X147743000Y-139427711D01*
X147743000Y-138956289D01*
X147562595Y-138520751D01*
X147340774Y-138298930D01*
X147557490Y-138298930D01*
X147805255Y-138249647D01*
X148015299Y-138109299D01*
X148114595Y-137960693D01*
X148443506Y-138180465D01*
X148426751Y-138187405D01*
X148093405Y-138520751D01*
X147913000Y-138956289D01*
X147913000Y-139427711D01*
X148093405Y-139863249D01*
X148426751Y-140196595D01*
X148862289Y-140377000D01*
X149333711Y-140377000D01*
X149769249Y-140196595D01*
X150102595Y-139863249D01*
X150283000Y-139427711D01*
X150283000Y-138956289D01*
X150102595Y-138520751D01*
X149769249Y-138187405D01*
X149752494Y-138180465D01*
X150276401Y-137830401D01*
X150637655Y-137289746D01*
X150764511Y-136652000D01*
X150637655Y-136014254D01*
X150276401Y-135473599D01*
X149858000Y-135194032D01*
X149858000Y-126044801D01*
X151572681Y-124330121D01*
X151546846Y-124460000D01*
X151650458Y-124980891D01*
X151945519Y-125422481D01*
X152387109Y-125717542D01*
X152776515Y-125795000D01*
X153039485Y-125795000D01*
X153428891Y-125717542D01*
X153870481Y-125422481D01*
X154006836Y-125218412D01*
X154044103Y-125210999D01*
X154108198Y-125210999D01*
X155450000Y-126552803D01*
X155450001Y-128703143D01*
X155435111Y-128778000D01*
X155450000Y-128852852D01*
X155450001Y-135194032D01*
X155226595Y-135343307D01*
X155127299Y-135194701D01*
X154917255Y-135054353D01*
X154669490Y-135005070D01*
X152670510Y-135005070D01*
X152422745Y-135054353D01*
X152212701Y-135194701D01*
X152072353Y-135404745D01*
X152023070Y-135652510D01*
X152023070Y-137651490D01*
X152072353Y-137899255D01*
X152212701Y-138109299D01*
X152422745Y-138249647D01*
X152670510Y-138298930D01*
X152887226Y-138298930D01*
X152665405Y-138520751D01*
X152485000Y-138956289D01*
X152485000Y-139427711D01*
X152665405Y-139863249D01*
X152998751Y-140196595D01*
X153434289Y-140377000D01*
X153905711Y-140377000D01*
X154341249Y-140196595D01*
X154674595Y-139863249D01*
X154855000Y-139427711D01*
X154855000Y-138956289D01*
X154674595Y-138520751D01*
X154452774Y-138298930D01*
X154669490Y-138298930D01*
X154917255Y-138249647D01*
X155127299Y-138109299D01*
X155226595Y-137960693D01*
X155555506Y-138180465D01*
X155538751Y-138187405D01*
X155205405Y-138520751D01*
X155025000Y-138956289D01*
X155025000Y-139427711D01*
X155205405Y-139863249D01*
X155538751Y-140196595D01*
X155974289Y-140377000D01*
X156445711Y-140377000D01*
X156881249Y-140196595D01*
X157214595Y-139863249D01*
X157395000Y-139427711D01*
X157395000Y-138956289D01*
X157214595Y-138520751D01*
X156881249Y-138187405D01*
X156864494Y-138180465D01*
X157388401Y-137830401D01*
X157749655Y-137289746D01*
X157876511Y-136652000D01*
X157749655Y-136014254D01*
X157388401Y-135473599D01*
X156970000Y-135194032D01*
X156970000Y-130469309D01*
X161623083Y-135122393D01*
X161521255Y-135054353D01*
X161273490Y-135005070D01*
X159274510Y-135005070D01*
X159026745Y-135054353D01*
X158816701Y-135194701D01*
X158676353Y-135404745D01*
X158627070Y-135652510D01*
X158627070Y-137651490D01*
X158676353Y-137899255D01*
X158816701Y-138109299D01*
X159026745Y-138249647D01*
X159274510Y-138298930D01*
X159491226Y-138298930D01*
X159269405Y-138520751D01*
X159089000Y-138956289D01*
X159089000Y-139427711D01*
X159269405Y-139863249D01*
X159602751Y-140196595D01*
X160038289Y-140377000D01*
X160509711Y-140377000D01*
X160945249Y-140196595D01*
X161278595Y-139863249D01*
X161459000Y-139427711D01*
X161459000Y-138956289D01*
X161278595Y-138520751D01*
X161056774Y-138298930D01*
X161273490Y-138298930D01*
X161521255Y-138249647D01*
X161731299Y-138109299D01*
X161830595Y-137960693D01*
X162159506Y-138180465D01*
X162142751Y-138187405D01*
X161809405Y-138520751D01*
X161629000Y-138956289D01*
X161629000Y-139427711D01*
X161809405Y-139863249D01*
X162142751Y-140196595D01*
X162578289Y-140377000D01*
X163049711Y-140377000D01*
X163485249Y-140196595D01*
X163818595Y-139863249D01*
X163999000Y-139427711D01*
X163999000Y-138956289D01*
X163818595Y-138520751D01*
X163485249Y-138187405D01*
X163468494Y-138180465D01*
X163992401Y-137830401D01*
X164353655Y-137289746D01*
X164480511Y-136652000D01*
X164353655Y-136014254D01*
X163992401Y-135473599D01*
X163580967Y-135198688D01*
X163574000Y-135163660D01*
X163574000Y-135163656D01*
X163529904Y-134941971D01*
X163361929Y-134690579D01*
X163298473Y-134648179D01*
X156970000Y-128319707D01*
X156970000Y-126312846D01*
X156984888Y-126237999D01*
X156970000Y-126163152D01*
X156970000Y-126163148D01*
X156925904Y-125941463D01*
X156836339Y-125807419D01*
X156800329Y-125753526D01*
X156800327Y-125753524D01*
X156757929Y-125690071D01*
X156694476Y-125647673D01*
X155511482Y-124464680D01*
X155655904Y-124248537D01*
X155700000Y-124026852D01*
X155700000Y-124026848D01*
X155714888Y-123952001D01*
X155700000Y-123877154D01*
X155700000Y-118310436D01*
X155714888Y-118235589D01*
X155700000Y-118160742D01*
X155700000Y-118160738D01*
X155655904Y-117939053D01*
X155579489Y-117824690D01*
X155530329Y-117751116D01*
X155530327Y-117751114D01*
X155487929Y-117687661D01*
X155424476Y-117645263D01*
X148800741Y-111021530D01*
X148758339Y-110958071D01*
X148506947Y-110790096D01*
X148285262Y-110746000D01*
X148285257Y-110746000D01*
X148210410Y-110731112D01*
X148135563Y-110746000D01*
X141300669Y-110746000D01*
X141255310Y-110636493D01*
X140854817Y-110236000D01*
X141255310Y-109835507D01*
X141489000Y-109271330D01*
X141489000Y-108966000D01*
X151038846Y-108966000D01*
X151142458Y-109486891D01*
X151437519Y-109928481D01*
X151879109Y-110223542D01*
X152268515Y-110301000D01*
X152531485Y-110301000D01*
X152638844Y-110279645D01*
X159429673Y-117070476D01*
X159472071Y-117133929D01*
X159535524Y-117176327D01*
X159535526Y-117176329D01*
X159660902Y-117260102D01*
X159723463Y-117301904D01*
X159945148Y-117346000D01*
X159945152Y-117346000D01*
X160019999Y-117360888D01*
X160094846Y-117346000D01*
X161467331Y-117346000D01*
X161512690Y-117455507D01*
X161913183Y-117856000D01*
X161512690Y-118256493D01*
X161279000Y-118820670D01*
X161279000Y-119431330D01*
X161512690Y-119995507D01*
X161913183Y-120396000D01*
X161512690Y-120796493D01*
X161279000Y-121360670D01*
X161279000Y-121971330D01*
X161512690Y-122535507D01*
X161944493Y-122967310D01*
X162054000Y-123012669D01*
X162054001Y-129698638D01*
X162039112Y-129773490D01*
X162054001Y-129848342D01*
X162098097Y-130070027D01*
X162266072Y-130321419D01*
X162329528Y-130363819D01*
X169102181Y-137136473D01*
X169144581Y-137199929D01*
X169295070Y-137300483D01*
X169295070Y-137651490D01*
X169344353Y-137899255D01*
X169484701Y-138109299D01*
X169694745Y-138249647D01*
X169942510Y-138298930D01*
X170159226Y-138298930D01*
X169937405Y-138520751D01*
X169757000Y-138956289D01*
X169757000Y-139427711D01*
X169937405Y-139863249D01*
X170270751Y-140196595D01*
X170706289Y-140377000D01*
X171177711Y-140377000D01*
X171613249Y-140196595D01*
X171946595Y-139863249D01*
X172127000Y-139427711D01*
X172127000Y-138956289D01*
X171946595Y-138520751D01*
X171724774Y-138298930D01*
X171941490Y-138298930D01*
X172189255Y-138249647D01*
X172399299Y-138109299D01*
X172498595Y-137960693D01*
X172827506Y-138180465D01*
X172810751Y-138187405D01*
X172477405Y-138520751D01*
X172297000Y-138956289D01*
X172297000Y-139427711D01*
X172477405Y-139863249D01*
X172810751Y-140196595D01*
X173246289Y-140377000D01*
X173717711Y-140377000D01*
X174153249Y-140196595D01*
X174486595Y-139863249D01*
X174667000Y-139427711D01*
X174667000Y-138956289D01*
X174486595Y-138520751D01*
X174153249Y-138187405D01*
X174136494Y-138180465D01*
X174660401Y-137830401D01*
X175021655Y-137289746D01*
X175148511Y-136652000D01*
X175021655Y-136014254D01*
X174660401Y-135473599D01*
X174119746Y-135112345D01*
X173642980Y-135017510D01*
X173321020Y-135017510D01*
X172844254Y-135112345D01*
X172498595Y-135343307D01*
X172399299Y-135194701D01*
X172189255Y-135054353D01*
X171941490Y-135005070D01*
X169942510Y-135005070D01*
X169694745Y-135054353D01*
X169484701Y-135194701D01*
X169414730Y-135299419D01*
X163574000Y-129458689D01*
X163574000Y-123012669D01*
X163683507Y-122967310D01*
X164115310Y-122535507D01*
X164349000Y-121971330D01*
X164349000Y-121360670D01*
X164115310Y-120796493D01*
X163714817Y-120396000D01*
X164115310Y-119995507D01*
X164349000Y-119431330D01*
X164349000Y-118820670D01*
X164115310Y-118256493D01*
X163714817Y-117856000D01*
X164115310Y-117455507D01*
X164160669Y-117346000D01*
X166675957Y-117346000D01*
X166859423Y-117620577D01*
X167334091Y-117937740D01*
X167752667Y-118021000D01*
X168035333Y-118021000D01*
X168453909Y-117937740D01*
X168928577Y-117620577D01*
X169245740Y-117145909D01*
X169357113Y-116586000D01*
X169245740Y-116026091D01*
X168928577Y-115551423D01*
X168576242Y-115316000D01*
X168928577Y-115080577D01*
X169245740Y-114605909D01*
X169357113Y-114046000D01*
X169245740Y-113486091D01*
X168928577Y-113011423D01*
X168576242Y-112776000D01*
X168928577Y-112540577D01*
X169245740Y-112065909D01*
X169357113Y-111506000D01*
X169245740Y-110946091D01*
X168928577Y-110471423D01*
X168807894Y-110390785D01*
X168941765Y-110364157D01*
X169151809Y-110223809D01*
X169292157Y-110013765D01*
X169341440Y-109766000D01*
X169341440Y-108966000D01*
X174050887Y-108966000D01*
X174162260Y-109525909D01*
X174479423Y-110000577D01*
X174831758Y-110236000D01*
X174479423Y-110471423D01*
X174162260Y-110946091D01*
X174050887Y-111506000D01*
X174162260Y-112065909D01*
X174479423Y-112540577D01*
X174831758Y-112776000D01*
X174479423Y-113011423D01*
X174162260Y-113486091D01*
X174050887Y-114046000D01*
X174162260Y-114605909D01*
X174479423Y-115080577D01*
X174831758Y-115316000D01*
X174479423Y-115551423D01*
X174162260Y-116026091D01*
X174050887Y-116586000D01*
X174162260Y-117145909D01*
X174479423Y-117620577D01*
X174954091Y-117937740D01*
X175372667Y-118021000D01*
X175655333Y-118021000D01*
X176073909Y-117937740D01*
X176548577Y-117620577D01*
X176865740Y-117145909D01*
X176977113Y-116586000D01*
X176865740Y-116026091D01*
X176548577Y-115551423D01*
X176196242Y-115316000D01*
X176548577Y-115080577D01*
X176865740Y-114605909D01*
X176977113Y-114046000D01*
X176865740Y-113486091D01*
X176548577Y-113011423D01*
X176196242Y-112776000D01*
X176548577Y-112540577D01*
X176865740Y-112065909D01*
X176977113Y-111506000D01*
X176865740Y-110946091D01*
X176548577Y-110471423D01*
X176196242Y-110236000D01*
X176548577Y-110000577D01*
X176865740Y-109525909D01*
X176977113Y-108966000D01*
X176865740Y-108406091D01*
X176548577Y-107931423D01*
X176073909Y-107614260D01*
X175655333Y-107531000D01*
X175372667Y-107531000D01*
X174954091Y-107614260D01*
X174479423Y-107931423D01*
X174162260Y-108406091D01*
X174050887Y-108966000D01*
X169341440Y-108966000D01*
X169341440Y-108166000D01*
X169292157Y-107918235D01*
X169151809Y-107708191D01*
X168941765Y-107567843D01*
X168694000Y-107518560D01*
X167094000Y-107518560D01*
X166846235Y-107567843D01*
X166636191Y-107708191D01*
X166495843Y-107918235D01*
X166446560Y-108166000D01*
X166446560Y-108206000D01*
X164160669Y-108206000D01*
X164115310Y-108096493D01*
X163714817Y-107696000D01*
X164115310Y-107295507D01*
X164349000Y-106731330D01*
X164349000Y-106120670D01*
X164115310Y-105556493D01*
X163683507Y-105124690D01*
X163663885Y-105116562D01*
X163714554Y-104966159D01*
X162814000Y-104065605D01*
X161913446Y-104966159D01*
X161964115Y-105116562D01*
X161944493Y-105124690D01*
X161512690Y-105556493D01*
X161279000Y-106120670D01*
X161279000Y-106731330D01*
X161512690Y-107295507D01*
X161913183Y-107696000D01*
X161512690Y-108096493D01*
X161467331Y-108206000D01*
X161117774Y-108206000D01*
X160982481Y-108003519D01*
X160540891Y-107708458D01*
X160151485Y-107631000D01*
X159888515Y-107631000D01*
X159499109Y-107708458D01*
X159057519Y-108003519D01*
X158762458Y-108445109D01*
X158750000Y-108507739D01*
X158737542Y-108445109D01*
X158442481Y-108003519D01*
X158000891Y-107708458D01*
X157611485Y-107631000D01*
X157348515Y-107631000D01*
X156959109Y-107708458D01*
X156517519Y-108003519D01*
X156222458Y-108445109D01*
X156210000Y-108507739D01*
X156197542Y-108445109D01*
X155902481Y-108003519D01*
X155460891Y-107708458D01*
X155071485Y-107631000D01*
X154808515Y-107631000D01*
X154419109Y-107708458D01*
X153977519Y-108003519D01*
X153682458Y-108445109D01*
X153670000Y-108507739D01*
X153657542Y-108445109D01*
X153362481Y-108003519D01*
X152920891Y-107708458D01*
X152531485Y-107631000D01*
X152268515Y-107631000D01*
X151879109Y-107708458D01*
X151437519Y-108003519D01*
X151142458Y-108445109D01*
X151038846Y-108966000D01*
X141489000Y-108966000D01*
X141489000Y-108660670D01*
X141443640Y-108551161D01*
X142470473Y-107524329D01*
X142533929Y-107481929D01*
X142701904Y-107230537D01*
X142746000Y-107008852D01*
X142746000Y-107008847D01*
X142760888Y-106934000D01*
X142746000Y-106859153D01*
X142746000Y-103645336D01*
X161267542Y-103645336D01*
X161293161Y-104255460D01*
X161477357Y-104700148D01*
X161733841Y-104786554D01*
X162634395Y-103886000D01*
X162993605Y-103886000D01*
X163894159Y-104786554D01*
X164150643Y-104700148D01*
X164360458Y-104126664D01*
X164334839Y-103516540D01*
X164150643Y-103071852D01*
X163894159Y-102985446D01*
X162993605Y-103886000D01*
X162634395Y-103886000D01*
X161733841Y-102985446D01*
X161477357Y-103071852D01*
X161267542Y-103645336D01*
X142746000Y-103645336D01*
X142746000Y-102805841D01*
X161913446Y-102805841D01*
X162814000Y-103706395D01*
X163714554Y-102805841D01*
X163628148Y-102549357D01*
X163054664Y-102339542D01*
X162444540Y-102365161D01*
X161999852Y-102549357D01*
X161913446Y-102805841D01*
X142746000Y-102805841D01*
X142746000Y-102281275D01*
X151644331Y-102281275D01*
X151706169Y-102517042D01*
X152207122Y-102693419D01*
X152737440Y-102664664D01*
X153093831Y-102517042D01*
X153155669Y-102281275D01*
X154184331Y-102281275D01*
X154246169Y-102517042D01*
X154747122Y-102693419D01*
X155277440Y-102664664D01*
X155633831Y-102517042D01*
X155695669Y-102281275D01*
X156724331Y-102281275D01*
X156786169Y-102517042D01*
X157287122Y-102693419D01*
X157817440Y-102664664D01*
X158173831Y-102517042D01*
X158235669Y-102281275D01*
X159264331Y-102281275D01*
X159326169Y-102517042D01*
X159827122Y-102693419D01*
X160357440Y-102664664D01*
X160713831Y-102517042D01*
X160775669Y-102281275D01*
X160020000Y-101525605D01*
X159264331Y-102281275D01*
X158235669Y-102281275D01*
X157480000Y-101525605D01*
X156724331Y-102281275D01*
X155695669Y-102281275D01*
X154940000Y-101525605D01*
X154184331Y-102281275D01*
X153155669Y-102281275D01*
X152400000Y-101525605D01*
X151644331Y-102281275D01*
X142746000Y-102281275D01*
X142746000Y-101153122D01*
X151052581Y-101153122D01*
X151081336Y-101683440D01*
X151228958Y-102039831D01*
X151464725Y-102101669D01*
X152220395Y-101346000D01*
X152579605Y-101346000D01*
X153335275Y-102101669D01*
X153571042Y-102039831D01*
X153661977Y-101781555D01*
X153768958Y-102039831D01*
X154004725Y-102101669D01*
X154760395Y-101346000D01*
X155119605Y-101346000D01*
X155875275Y-102101669D01*
X156111042Y-102039831D01*
X156201977Y-101781555D01*
X156308958Y-102039831D01*
X156544725Y-102101669D01*
X157300395Y-101346000D01*
X157659605Y-101346000D01*
X158415275Y-102101669D01*
X158651042Y-102039831D01*
X158741977Y-101781555D01*
X158848958Y-102039831D01*
X159084725Y-102101669D01*
X159840395Y-101346000D01*
X160199605Y-101346000D01*
X160955275Y-102101669D01*
X161191042Y-102039831D01*
X161367419Y-101538878D01*
X161338664Y-101008560D01*
X161191042Y-100652169D01*
X160955275Y-100590331D01*
X160199605Y-101346000D01*
X159840395Y-101346000D01*
X159084725Y-100590331D01*
X158848958Y-100652169D01*
X158758023Y-100910445D01*
X158651042Y-100652169D01*
X158415275Y-100590331D01*
X157659605Y-101346000D01*
X157300395Y-101346000D01*
X156544725Y-100590331D01*
X156308958Y-100652169D01*
X156218023Y-100910445D01*
X156111042Y-100652169D01*
X155875275Y-100590331D01*
X155119605Y-101346000D01*
X154760395Y-101346000D01*
X154004725Y-100590331D01*
X153768958Y-100652169D01*
X153678023Y-100910445D01*
X153571042Y-100652169D01*
X153335275Y-100590331D01*
X152579605Y-101346000D01*
X152220395Y-101346000D01*
X151464725Y-100590331D01*
X151228958Y-100652169D01*
X151052581Y-101153122D01*
X142746000Y-101153122D01*
X142746000Y-100410725D01*
X151644331Y-100410725D01*
X152400000Y-101166395D01*
X153155669Y-100410725D01*
X154184331Y-100410725D01*
X154940000Y-101166395D01*
X155695669Y-100410725D01*
X156724331Y-100410725D01*
X157480000Y-101166395D01*
X158235669Y-100410725D01*
X159264331Y-100410725D01*
X160020000Y-101166395D01*
X160775669Y-100410725D01*
X160713831Y-100174958D01*
X160212878Y-99998581D01*
X159682560Y-100027336D01*
X159326169Y-100174958D01*
X159264331Y-100410725D01*
X158235669Y-100410725D01*
X158173831Y-100174958D01*
X157672878Y-99998581D01*
X157142560Y-100027336D01*
X156786169Y-100174958D01*
X156724331Y-100410725D01*
X155695669Y-100410725D01*
X155633831Y-100174958D01*
X155132878Y-99998581D01*
X154602560Y-100027336D01*
X154246169Y-100174958D01*
X154184331Y-100410725D01*
X153155669Y-100410725D01*
X153093831Y-100174958D01*
X152592878Y-99998581D01*
X152062560Y-100027336D01*
X151706169Y-100174958D01*
X151644331Y-100410725D01*
X142746000Y-100410725D01*
X142746000Y-83245968D01*
X142969405Y-83096693D01*
X143068701Y-83245299D01*
X143278745Y-83385647D01*
X143526510Y-83434930D01*
X145525490Y-83434930D01*
X145773255Y-83385647D01*
X145983299Y-83245299D01*
X146123647Y-83035255D01*
X146172930Y-82787490D01*
X146172930Y-80788510D01*
X146123647Y-80540745D01*
X145983299Y-80330701D01*
X145773255Y-80190353D01*
X145525490Y-80141070D01*
X145308774Y-80141070D01*
X145530595Y-79919249D01*
X145711000Y-79483711D01*
X145711000Y-79012289D01*
X145530595Y-78576751D01*
X145197249Y-78243405D01*
X144761711Y-78063000D01*
X144290289Y-78063000D01*
X143854751Y-78243405D01*
X143521405Y-78576751D01*
X143341000Y-79012289D01*
X143341000Y-79483711D01*
X143521405Y-79919249D01*
X143743226Y-80141070D01*
X143526510Y-80141070D01*
X143278745Y-80190353D01*
X143068701Y-80330701D01*
X142969405Y-80479307D01*
X142640494Y-80259535D01*
X142657249Y-80252595D01*
X142990595Y-79919249D01*
X143171000Y-79483711D01*
X143171000Y-79012289D01*
X142990595Y-78576751D01*
X142657249Y-78243405D01*
X142221711Y-78063000D01*
X141750289Y-78063000D01*
X141314751Y-78243405D01*
X140981405Y-78576751D01*
X140801000Y-79012289D01*
X140801000Y-79483711D01*
X140981405Y-79919249D01*
X141314751Y-80252595D01*
X141331506Y-80259535D01*
X140807599Y-80609599D01*
X140716000Y-80746687D01*
X140624401Y-80609599D01*
X140100494Y-80259535D01*
X140117249Y-80252595D01*
X140450595Y-79919249D01*
X140631000Y-79483711D01*
X140631000Y-79012289D01*
X140450595Y-78576751D01*
X140117249Y-78243405D01*
X139681711Y-78063000D01*
X139210289Y-78063000D01*
X138774751Y-78243405D01*
X138441405Y-78576751D01*
X138261000Y-79012289D01*
X138261000Y-79483711D01*
X138441405Y-79919249D01*
X138774751Y-80252595D01*
X138791506Y-80259535D01*
X138267599Y-80609599D01*
X137906345Y-81150254D01*
X137870000Y-81332972D01*
X137870000Y-77926000D01*
X178106000Y-77926000D01*
X178106001Y-142800000D01*
X178106001Y-142800000D01*
G37*
X178106001Y-142800000D02*
X137870000Y-142800000D01*
X137870000Y-125395275D01*
X144532331Y-125395275D01*
X144594169Y-125631042D01*
X145095122Y-125807419D01*
X145625440Y-125778664D01*
X145981831Y-125631042D01*
X146043669Y-125395275D01*
X145288000Y-124639605D01*
X144532331Y-125395275D01*
X137870000Y-125395275D01*
X137870000Y-124267122D01*
X143940581Y-124267122D01*
X143969336Y-124797440D01*
X144116958Y-125153831D01*
X144352725Y-125215669D01*
X145108395Y-124460000D01*
X145467605Y-124460000D01*
X146223275Y-125215669D01*
X146459042Y-125153831D01*
X146635419Y-124652878D01*
X146606664Y-124122560D01*
X146459042Y-123766169D01*
X146223275Y-123704331D01*
X145467605Y-124460000D01*
X145108395Y-124460000D01*
X144352725Y-123704331D01*
X144116958Y-123766169D01*
X143940581Y-124267122D01*
X137870000Y-124267122D01*
X137870000Y-82243028D01*
X137906345Y-82425746D01*
X138267599Y-82966401D01*
X138808254Y-83327655D01*
X139194001Y-83404385D01*
X139194000Y-102539331D01*
X139084493Y-102584690D01*
X138652690Y-103016493D01*
X138419000Y-103580670D01*
X138419000Y-104191330D01*
X138652690Y-104755507D01*
X139053183Y-105156000D01*
X138652690Y-105556493D01*
X138419000Y-106120670D01*
X138419000Y-106731330D01*
X138652690Y-107295507D01*
X139053183Y-107696000D01*
X138652690Y-108096493D01*
X138419000Y-108660670D01*
X138419000Y-109271330D01*
X138652690Y-109835507D01*
X139053183Y-110236000D01*
X138652690Y-110636493D01*
X138419000Y-111200670D01*
X138419000Y-111811330D01*
X138652690Y-112375507D01*
X139053183Y-112776000D01*
X138652690Y-113176493D01*
X138419000Y-113740670D01*
X138419000Y-114351330D01*
X138652690Y-114915507D01*
X139053183Y-115316000D01*
X138652690Y-115716493D01*
X138419000Y-116280670D01*
X138419000Y-116891330D01*
X138652690Y-117455507D01*
X139053183Y-117856000D01*
X138652690Y-118256493D01*
X138419000Y-118820670D01*
X138419000Y-119431330D01*
X138652690Y-119995507D01*
X139053183Y-120396000D01*
X138652690Y-120796493D01*
X138419000Y-121360670D01*
X138419000Y-121971330D01*
X138652690Y-122535507D01*
X139084493Y-122967310D01*
X139648670Y-123201000D01*
X140259330Y-123201000D01*
X140823507Y-122967310D01*
X140935542Y-122855275D01*
X144532331Y-122855275D01*
X144594169Y-123091042D01*
X144852445Y-123181977D01*
X144594169Y-123288958D01*
X144532331Y-123524725D01*
X145288000Y-124280395D01*
X146043669Y-123524725D01*
X145981831Y-123288958D01*
X145723555Y-123198023D01*
X145981831Y-123091042D01*
X146043669Y-122855275D01*
X145288000Y-122099605D01*
X144532331Y-122855275D01*
X140935542Y-122855275D01*
X141255310Y-122535507D01*
X141489000Y-121971330D01*
X141489000Y-121727122D01*
X143940581Y-121727122D01*
X143969336Y-122257440D01*
X144116958Y-122613831D01*
X144352725Y-122675669D01*
X145108395Y-121920000D01*
X145467605Y-121920000D01*
X146223275Y-122675669D01*
X146459042Y-122613831D01*
X146635419Y-122112878D01*
X146606664Y-121582560D01*
X146459042Y-121226169D01*
X146223275Y-121164331D01*
X145467605Y-121920000D01*
X145108395Y-121920000D01*
X144352725Y-121164331D01*
X144116958Y-121226169D01*
X143940581Y-121727122D01*
X141489000Y-121727122D01*
X141489000Y-121360670D01*
X141333279Y-120984725D01*
X144532331Y-120984725D01*
X145288000Y-121740395D01*
X146043669Y-120984725D01*
X145981831Y-120748958D01*
X145480878Y-120572581D01*
X144950560Y-120601336D01*
X144594169Y-120748958D01*
X144532331Y-120984725D01*
X141333279Y-120984725D01*
X141255310Y-120796493D01*
X140854817Y-120396000D01*
X141255310Y-119995507D01*
X141489000Y-119431330D01*
X141489000Y-118820670D01*
X141255310Y-118256493D01*
X140854817Y-117856000D01*
X141255310Y-117455507D01*
X141300669Y-117346000D01*
X141301644Y-117346000D01*
X141523329Y-117301904D01*
X141774721Y-117133929D01*
X141942696Y-116882537D01*
X142001681Y-116586000D01*
X141942696Y-116289463D01*
X141774721Y-116038071D01*
X141523329Y-115870096D01*
X141301644Y-115826000D01*
X141300669Y-115826000D01*
X141255310Y-115716493D01*
X140854817Y-115316000D01*
X141255310Y-114915507D01*
X141300669Y-114806000D01*
X149799199Y-114806000D01*
X152148001Y-117154803D01*
X152148000Y-120822225D01*
X151945519Y-120957519D01*
X151650458Y-121399109D01*
X151546846Y-121920000D01*
X151594355Y-122158843D01*
X148613532Y-125139667D01*
X148613526Y-125139671D01*
X148613524Y-125139673D01*
X148550071Y-125182071D01*
X148507673Y-125245524D01*
X143009017Y-130744182D01*
X142945561Y-130786582D01*
X142903161Y-130850038D01*
X142903160Y-130850039D01*
X142777586Y-131037974D01*
X142718601Y-131334511D01*
X142733490Y-131409363D01*
X142733489Y-135033126D01*
X142654980Y-135017510D01*
X142333020Y-135017510D01*
X141856254Y-135112345D01*
X141510595Y-135343307D01*
X141411299Y-135194701D01*
X141201255Y-135054353D01*
X140953490Y-135005070D01*
X138954510Y-135005070D01*
X138706745Y-135054353D01*
X138496701Y-135194701D01*
X138356353Y-135404745D01*
X138307070Y-135652510D01*
X138307070Y-137651490D01*
X138356353Y-137899255D01*
X138496701Y-138109299D01*
X138706745Y-138249647D01*
X138954510Y-138298930D01*
X139171226Y-138298930D01*
X138949405Y-138520751D01*
X138769000Y-138956289D01*
X138769000Y-139427711D01*
X138949405Y-139863249D01*
X139282751Y-140196595D01*
X139718289Y-140377000D01*
X140189711Y-140377000D01*
X140625249Y-140196595D01*
X140958595Y-139863249D01*
X141139000Y-139427711D01*
X141139000Y-138956289D01*
X140958595Y-138520751D01*
X140736774Y-138298930D01*
X140953490Y-138298930D01*
X141201255Y-138249647D01*
X141411299Y-138109299D01*
X141510595Y-137960693D01*
X141839506Y-138180465D01*
X141822751Y-138187405D01*
X141489405Y-138520751D01*
X141309000Y-138956289D01*
X141309000Y-139427711D01*
X141489405Y-139863249D01*
X141822751Y-140196595D01*
X142258289Y-140377000D01*
X142729711Y-140377000D01*
X143165249Y-140196595D01*
X143498595Y-139863249D01*
X143679000Y-139427711D01*
X143679000Y-138956289D01*
X143498595Y-138520751D01*
X143165249Y-138187405D01*
X143148494Y-138180465D01*
X143672401Y-137830401D01*
X144033655Y-137289746D01*
X144160511Y-136652000D01*
X144063975Y-136166681D01*
X144209393Y-135949048D01*
X144253489Y-135727363D01*
X144253489Y-135727358D01*
X144268377Y-135652511D01*
X144253489Y-135577664D01*
X144253489Y-131649312D01*
X148338000Y-127564802D01*
X148338001Y-135194032D01*
X148114595Y-135343307D01*
X148015299Y-135194701D01*
X147805255Y-135054353D01*
X147557490Y-135005070D01*
X145558510Y-135005070D01*
X145310745Y-135054353D01*
X145100701Y-135194701D01*
X144960353Y-135404745D01*
X144911070Y-135652510D01*
X144911070Y-137651490D01*
X144960353Y-137899255D01*
X145100701Y-138109299D01*
X145310745Y-138249647D01*
X145558510Y-138298930D01*
X145775226Y-138298930D01*
X145553405Y-138520751D01*
X145373000Y-138956289D01*
X145373000Y-139427711D01*
X145553405Y-139863249D01*
X145886751Y-140196595D01*
X146322289Y-140377000D01*
X146793711Y-140377000D01*
X147229249Y-140196595D01*
X147562595Y-139863249D01*
X147743000Y-139427711D01*
X147743000Y-138956289D01*
X147562595Y-138520751D01*
X147340774Y-138298930D01*
X147557490Y-138298930D01*
X147805255Y-138249647D01*
X148015299Y-138109299D01*
X148114595Y-137960693D01*
X148443506Y-138180465D01*
X148426751Y-138187405D01*
X148093405Y-138520751D01*
X147913000Y-138956289D01*
X147913000Y-139427711D01*
X148093405Y-139863249D01*
X148426751Y-140196595D01*
X148862289Y-140377000D01*
X149333711Y-140377000D01*
X149769249Y-140196595D01*
X150102595Y-139863249D01*
X150283000Y-139427711D01*
X150283000Y-138956289D01*
X150102595Y-138520751D01*
X149769249Y-138187405D01*
X149752494Y-138180465D01*
X150276401Y-137830401D01*
X150637655Y-137289746D01*
X150764511Y-136652000D01*
X150637655Y-136014254D01*
X150276401Y-135473599D01*
X149858000Y-135194032D01*
X149858000Y-126044801D01*
X151572681Y-124330121D01*
X151546846Y-124460000D01*
X151650458Y-124980891D01*
X151945519Y-125422481D01*
X152387109Y-125717542D01*
X152776515Y-125795000D01*
X153039485Y-125795000D01*
X153428891Y-125717542D01*
X153870481Y-125422481D01*
X154006836Y-125218412D01*
X154044103Y-125210999D01*
X154108198Y-125210999D01*
X155450000Y-126552803D01*
X155450001Y-128703143D01*
X155435111Y-128778000D01*
X155450000Y-128852852D01*
X155450001Y-135194032D01*
X155226595Y-135343307D01*
X155127299Y-135194701D01*
X154917255Y-135054353D01*
X154669490Y-135005070D01*
X152670510Y-135005070D01*
X152422745Y-135054353D01*
X152212701Y-135194701D01*
X152072353Y-135404745D01*
X152023070Y-135652510D01*
X152023070Y-137651490D01*
X152072353Y-137899255D01*
X152212701Y-138109299D01*
X152422745Y-138249647D01*
X152670510Y-138298930D01*
X152887226Y-138298930D01*
X152665405Y-138520751D01*
X152485000Y-138956289D01*
X152485000Y-139427711D01*
X152665405Y-139863249D01*
X152998751Y-140196595D01*
X153434289Y-140377000D01*
X153905711Y-140377000D01*
X154341249Y-140196595D01*
X154674595Y-139863249D01*
X154855000Y-139427711D01*
X154855000Y-138956289D01*
X154674595Y-138520751D01*
X154452774Y-138298930D01*
X154669490Y-138298930D01*
X154917255Y-138249647D01*
X155127299Y-138109299D01*
X155226595Y-137960693D01*
X155555506Y-138180465D01*
X155538751Y-138187405D01*
X155205405Y-138520751D01*
X155025000Y-138956289D01*
X155025000Y-139427711D01*
X155205405Y-139863249D01*
X155538751Y-140196595D01*
X155974289Y-140377000D01*
X156445711Y-140377000D01*
X156881249Y-140196595D01*
X157214595Y-139863249D01*
X157395000Y-139427711D01*
X157395000Y-138956289D01*
X157214595Y-138520751D01*
X156881249Y-138187405D01*
X156864494Y-138180465D01*
X157388401Y-137830401D01*
X157749655Y-137289746D01*
X157876511Y-136652000D01*
X157749655Y-136014254D01*
X157388401Y-135473599D01*
X156970000Y-135194032D01*
X156970000Y-130469309D01*
X161623083Y-135122393D01*
X161521255Y-135054353D01*
X161273490Y-135005070D01*
X159274510Y-135005070D01*
X159026745Y-135054353D01*
X158816701Y-135194701D01*
X158676353Y-135404745D01*
X158627070Y-135652510D01*
X158627070Y-137651490D01*
X158676353Y-137899255D01*
X158816701Y-138109299D01*
X159026745Y-138249647D01*
X159274510Y-138298930D01*
X159491226Y-138298930D01*
X159269405Y-138520751D01*
X159089000Y-138956289D01*
X159089000Y-139427711D01*
X159269405Y-139863249D01*
X159602751Y-140196595D01*
X160038289Y-140377000D01*
X160509711Y-140377000D01*
X160945249Y-140196595D01*
X161278595Y-139863249D01*
X161459000Y-139427711D01*
X161459000Y-138956289D01*
X161278595Y-138520751D01*
X161056774Y-138298930D01*
X161273490Y-138298930D01*
X161521255Y-138249647D01*
X161731299Y-138109299D01*
X161830595Y-137960693D01*
X162159506Y-138180465D01*
X162142751Y-138187405D01*
X161809405Y-138520751D01*
X161629000Y-138956289D01*
X161629000Y-139427711D01*
X161809405Y-139863249D01*
X162142751Y-140196595D01*
X162578289Y-140377000D01*
X163049711Y-140377000D01*
X163485249Y-140196595D01*
X163818595Y-139863249D01*
X163999000Y-139427711D01*
X163999000Y-138956289D01*
X163818595Y-138520751D01*
X163485249Y-138187405D01*
X163468494Y-138180465D01*
X163992401Y-137830401D01*
X164353655Y-137289746D01*
X164480511Y-136652000D01*
X164353655Y-136014254D01*
X163992401Y-135473599D01*
X163580967Y-135198688D01*
X163574000Y-135163660D01*
X163574000Y-135163656D01*
X163529904Y-134941971D01*
X163361929Y-134690579D01*
X163298473Y-134648179D01*
X156970000Y-128319707D01*
X156970000Y-126312846D01*
X156984888Y-126237999D01*
X156970000Y-126163152D01*
X156970000Y-126163148D01*
X156925904Y-125941463D01*
X156836339Y-125807419D01*
X156800329Y-125753526D01*
X156800327Y-125753524D01*
X156757929Y-125690071D01*
X156694476Y-125647673D01*
X155511482Y-124464680D01*
X155655904Y-124248537D01*
X155700000Y-124026852D01*
X155700000Y-124026848D01*
X155714888Y-123952001D01*
X155700000Y-123877154D01*
X155700000Y-118310436D01*
X155714888Y-118235589D01*
X155700000Y-118160742D01*
X155700000Y-118160738D01*
X155655904Y-117939053D01*
X155579489Y-117824690D01*
X155530329Y-117751116D01*
X155530327Y-117751114D01*
X155487929Y-117687661D01*
X155424476Y-117645263D01*
X148800741Y-111021530D01*
X148758339Y-110958071D01*
X148506947Y-110790096D01*
X148285262Y-110746000D01*
X148285257Y-110746000D01*
X148210410Y-110731112D01*
X148135563Y-110746000D01*
X141300669Y-110746000D01*
X141255310Y-110636493D01*
X140854817Y-110236000D01*
X141255310Y-109835507D01*
X141489000Y-109271330D01*
X141489000Y-108966000D01*
X151038846Y-108966000D01*
X151142458Y-109486891D01*
X151437519Y-109928481D01*
X151879109Y-110223542D01*
X152268515Y-110301000D01*
X152531485Y-110301000D01*
X152638844Y-110279645D01*
X159429673Y-117070476D01*
X159472071Y-117133929D01*
X159535524Y-117176327D01*
X159535526Y-117176329D01*
X159660902Y-117260102D01*
X159723463Y-117301904D01*
X159945148Y-117346000D01*
X159945152Y-117346000D01*
X160019999Y-117360888D01*
X160094846Y-117346000D01*
X161467331Y-117346000D01*
X161512690Y-117455507D01*
X161913183Y-117856000D01*
X161512690Y-118256493D01*
X161279000Y-118820670D01*
X161279000Y-119431330D01*
X161512690Y-119995507D01*
X161913183Y-120396000D01*
X161512690Y-120796493D01*
X161279000Y-121360670D01*
X161279000Y-121971330D01*
X161512690Y-122535507D01*
X161944493Y-122967310D01*
X162054000Y-123012669D01*
X162054001Y-129698638D01*
X162039112Y-129773490D01*
X162054001Y-129848342D01*
X162098097Y-130070027D01*
X162266072Y-130321419D01*
X162329528Y-130363819D01*
X169102181Y-137136473D01*
X169144581Y-137199929D01*
X169295070Y-137300483D01*
X169295070Y-137651490D01*
X169344353Y-137899255D01*
X169484701Y-138109299D01*
X169694745Y-138249647D01*
X169942510Y-138298930D01*
X170159226Y-138298930D01*
X169937405Y-138520751D01*
X169757000Y-138956289D01*
X169757000Y-139427711D01*
X169937405Y-139863249D01*
X170270751Y-140196595D01*
X170706289Y-140377000D01*
X171177711Y-140377000D01*
X171613249Y-140196595D01*
X171946595Y-139863249D01*
X172127000Y-139427711D01*
X172127000Y-138956289D01*
X171946595Y-138520751D01*
X171724774Y-138298930D01*
X171941490Y-138298930D01*
X172189255Y-138249647D01*
X172399299Y-138109299D01*
X172498595Y-137960693D01*
X172827506Y-138180465D01*
X172810751Y-138187405D01*
X172477405Y-138520751D01*
X172297000Y-138956289D01*
X172297000Y-139427711D01*
X172477405Y-139863249D01*
X172810751Y-140196595D01*
X173246289Y-140377000D01*
X173717711Y-140377000D01*
X174153249Y-140196595D01*
X174486595Y-139863249D01*
X174667000Y-139427711D01*
X174667000Y-138956289D01*
X174486595Y-138520751D01*
X174153249Y-138187405D01*
X174136494Y-138180465D01*
X174660401Y-137830401D01*
X175021655Y-137289746D01*
X175148511Y-136652000D01*
X175021655Y-136014254D01*
X174660401Y-135473599D01*
X174119746Y-135112345D01*
X173642980Y-135017510D01*
X173321020Y-135017510D01*
X172844254Y-135112345D01*
X172498595Y-135343307D01*
X172399299Y-135194701D01*
X172189255Y-135054353D01*
X171941490Y-135005070D01*
X169942510Y-135005070D01*
X169694745Y-135054353D01*
X169484701Y-135194701D01*
X169414730Y-135299419D01*
X163574000Y-129458689D01*
X163574000Y-123012669D01*
X163683507Y-122967310D01*
X164115310Y-122535507D01*
X164349000Y-121971330D01*
X164349000Y-121360670D01*
X164115310Y-120796493D01*
X163714817Y-120396000D01*
X164115310Y-119995507D01*
X164349000Y-119431330D01*
X164349000Y-118820670D01*
X164115310Y-118256493D01*
X163714817Y-117856000D01*
X164115310Y-117455507D01*
X164160669Y-117346000D01*
X166675957Y-117346000D01*
X166859423Y-117620577D01*
X167334091Y-117937740D01*
X167752667Y-118021000D01*
X168035333Y-118021000D01*
X168453909Y-117937740D01*
X168928577Y-117620577D01*
X169245740Y-117145909D01*
X169357113Y-116586000D01*
X169245740Y-116026091D01*
X168928577Y-115551423D01*
X168576242Y-115316000D01*
X168928577Y-115080577D01*
X169245740Y-114605909D01*
X169357113Y-114046000D01*
X169245740Y-113486091D01*
X168928577Y-113011423D01*
X168576242Y-112776000D01*
X168928577Y-112540577D01*
X169245740Y-112065909D01*
X169357113Y-111506000D01*
X169245740Y-110946091D01*
X168928577Y-110471423D01*
X168807894Y-110390785D01*
X168941765Y-110364157D01*
X169151809Y-110223809D01*
X169292157Y-110013765D01*
X169341440Y-109766000D01*
X169341440Y-108966000D01*
X174050887Y-108966000D01*
X174162260Y-109525909D01*
X174479423Y-110000577D01*
X174831758Y-110236000D01*
X174479423Y-110471423D01*
X174162260Y-110946091D01*
X174050887Y-111506000D01*
X174162260Y-112065909D01*
X174479423Y-112540577D01*
X174831758Y-112776000D01*
X174479423Y-113011423D01*
X174162260Y-113486091D01*
X174050887Y-114046000D01*
X174162260Y-114605909D01*
X174479423Y-115080577D01*
X174831758Y-115316000D01*
X174479423Y-115551423D01*
X174162260Y-116026091D01*
X174050887Y-116586000D01*
X174162260Y-117145909D01*
X174479423Y-117620577D01*
X174954091Y-117937740D01*
X175372667Y-118021000D01*
X175655333Y-118021000D01*
X176073909Y-117937740D01*
X176548577Y-117620577D01*
X176865740Y-117145909D01*
X176977113Y-116586000D01*
X176865740Y-116026091D01*
X176548577Y-115551423D01*
X176196242Y-115316000D01*
X176548577Y-115080577D01*
X176865740Y-114605909D01*
X176977113Y-114046000D01*
X176865740Y-113486091D01*
X176548577Y-113011423D01*
X176196242Y-112776000D01*
X176548577Y-112540577D01*
X176865740Y-112065909D01*
X176977113Y-111506000D01*
X176865740Y-110946091D01*
X176548577Y-110471423D01*
X176196242Y-110236000D01*
X176548577Y-110000577D01*
X176865740Y-109525909D01*
X176977113Y-108966000D01*
X176865740Y-108406091D01*
X176548577Y-107931423D01*
X176073909Y-107614260D01*
X175655333Y-107531000D01*
X175372667Y-107531000D01*
X174954091Y-107614260D01*
X174479423Y-107931423D01*
X174162260Y-108406091D01*
X174050887Y-108966000D01*
X169341440Y-108966000D01*
X169341440Y-108166000D01*
X169292157Y-107918235D01*
X169151809Y-107708191D01*
X168941765Y-107567843D01*
X168694000Y-107518560D01*
X167094000Y-107518560D01*
X166846235Y-107567843D01*
X166636191Y-107708191D01*
X166495843Y-107918235D01*
X166446560Y-108166000D01*
X166446560Y-108206000D01*
X164160669Y-108206000D01*
X164115310Y-108096493D01*
X163714817Y-107696000D01*
X164115310Y-107295507D01*
X164349000Y-106731330D01*
X164349000Y-106120670D01*
X164115310Y-105556493D01*
X163683507Y-105124690D01*
X163663885Y-105116562D01*
X163714554Y-104966159D01*
X162814000Y-104065605D01*
X161913446Y-104966159D01*
X161964115Y-105116562D01*
X161944493Y-105124690D01*
X161512690Y-105556493D01*
X161279000Y-106120670D01*
X161279000Y-106731330D01*
X161512690Y-107295507D01*
X161913183Y-107696000D01*
X161512690Y-108096493D01*
X161467331Y-108206000D01*
X161117774Y-108206000D01*
X160982481Y-108003519D01*
X160540891Y-107708458D01*
X160151485Y-107631000D01*
X159888515Y-107631000D01*
X159499109Y-107708458D01*
X159057519Y-108003519D01*
X158762458Y-108445109D01*
X158750000Y-108507739D01*
X158737542Y-108445109D01*
X158442481Y-108003519D01*
X158000891Y-107708458D01*
X157611485Y-107631000D01*
X157348515Y-107631000D01*
X156959109Y-107708458D01*
X156517519Y-108003519D01*
X156222458Y-108445109D01*
X156210000Y-108507739D01*
X156197542Y-108445109D01*
X155902481Y-108003519D01*
X155460891Y-107708458D01*
X155071485Y-107631000D01*
X154808515Y-107631000D01*
X154419109Y-107708458D01*
X153977519Y-108003519D01*
X153682458Y-108445109D01*
X153670000Y-108507739D01*
X153657542Y-108445109D01*
X153362481Y-108003519D01*
X152920891Y-107708458D01*
X152531485Y-107631000D01*
X152268515Y-107631000D01*
X151879109Y-107708458D01*
X151437519Y-108003519D01*
X151142458Y-108445109D01*
X151038846Y-108966000D01*
X141489000Y-108966000D01*
X141489000Y-108660670D01*
X141443640Y-108551161D01*
X142470473Y-107524329D01*
X142533929Y-107481929D01*
X142701904Y-107230537D01*
X142746000Y-107008852D01*
X142746000Y-107008847D01*
X142760888Y-106934000D01*
X142746000Y-106859153D01*
X142746000Y-103645336D01*
X161267542Y-103645336D01*
X161293161Y-104255460D01*
X161477357Y-104700148D01*
X161733841Y-104786554D01*
X162634395Y-103886000D01*
X162993605Y-103886000D01*
X163894159Y-104786554D01*
X164150643Y-104700148D01*
X164360458Y-104126664D01*
X164334839Y-103516540D01*
X164150643Y-103071852D01*
X163894159Y-102985446D01*
X162993605Y-103886000D01*
X162634395Y-103886000D01*
X161733841Y-102985446D01*
X161477357Y-103071852D01*
X161267542Y-103645336D01*
X142746000Y-103645336D01*
X142746000Y-102805841D01*
X161913446Y-102805841D01*
X162814000Y-103706395D01*
X163714554Y-102805841D01*
X163628148Y-102549357D01*
X163054664Y-102339542D01*
X162444540Y-102365161D01*
X161999852Y-102549357D01*
X161913446Y-102805841D01*
X142746000Y-102805841D01*
X142746000Y-102281275D01*
X151644331Y-102281275D01*
X151706169Y-102517042D01*
X152207122Y-102693419D01*
X152737440Y-102664664D01*
X153093831Y-102517042D01*
X153155669Y-102281275D01*
X154184331Y-102281275D01*
X154246169Y-102517042D01*
X154747122Y-102693419D01*
X155277440Y-102664664D01*
X155633831Y-102517042D01*
X155695669Y-102281275D01*
X156724331Y-102281275D01*
X156786169Y-102517042D01*
X157287122Y-102693419D01*
X157817440Y-102664664D01*
X158173831Y-102517042D01*
X158235669Y-102281275D01*
X159264331Y-102281275D01*
X159326169Y-102517042D01*
X159827122Y-102693419D01*
X160357440Y-102664664D01*
X160713831Y-102517042D01*
X160775669Y-102281275D01*
X160020000Y-101525605D01*
X159264331Y-102281275D01*
X158235669Y-102281275D01*
X157480000Y-101525605D01*
X156724331Y-102281275D01*
X155695669Y-102281275D01*
X154940000Y-101525605D01*
X154184331Y-102281275D01*
X153155669Y-102281275D01*
X152400000Y-101525605D01*
X151644331Y-102281275D01*
X142746000Y-102281275D01*
X142746000Y-101153122D01*
X151052581Y-101153122D01*
X151081336Y-101683440D01*
X151228958Y-102039831D01*
X151464725Y-102101669D01*
X152220395Y-101346000D01*
X152579605Y-101346000D01*
X153335275Y-102101669D01*
X153571042Y-102039831D01*
X153661977Y-101781555D01*
X153768958Y-102039831D01*
X154004725Y-102101669D01*
X154760395Y-101346000D01*
X155119605Y-101346000D01*
X155875275Y-102101669D01*
X156111042Y-102039831D01*
X156201977Y-101781555D01*
X156308958Y-102039831D01*
X156544725Y-102101669D01*
X157300395Y-101346000D01*
X157659605Y-101346000D01*
X158415275Y-102101669D01*
X158651042Y-102039831D01*
X158741977Y-101781555D01*
X158848958Y-102039831D01*
X159084725Y-102101669D01*
X159840395Y-101346000D01*
X160199605Y-101346000D01*
X160955275Y-102101669D01*
X161191042Y-102039831D01*
X161367419Y-101538878D01*
X161338664Y-101008560D01*
X161191042Y-100652169D01*
X160955275Y-100590331D01*
X160199605Y-101346000D01*
X159840395Y-101346000D01*
X159084725Y-100590331D01*
X158848958Y-100652169D01*
X158758023Y-100910445D01*
X158651042Y-100652169D01*
X158415275Y-100590331D01*
X157659605Y-101346000D01*
X157300395Y-101346000D01*
X156544725Y-100590331D01*
X156308958Y-100652169D01*
X156218023Y-100910445D01*
X156111042Y-100652169D01*
X155875275Y-100590331D01*
X155119605Y-101346000D01*
X154760395Y-101346000D01*
X154004725Y-100590331D01*
X153768958Y-100652169D01*
X153678023Y-100910445D01*
X153571042Y-100652169D01*
X153335275Y-100590331D01*
X152579605Y-101346000D01*
X152220395Y-101346000D01*
X151464725Y-100590331D01*
X151228958Y-100652169D01*
X151052581Y-101153122D01*
X142746000Y-101153122D01*
X142746000Y-100410725D01*
X151644331Y-100410725D01*
X152400000Y-101166395D01*
X153155669Y-100410725D01*
X154184331Y-100410725D01*
X154940000Y-101166395D01*
X155695669Y-100410725D01*
X156724331Y-100410725D01*
X157480000Y-101166395D01*
X158235669Y-100410725D01*
X159264331Y-100410725D01*
X160020000Y-101166395D01*
X160775669Y-100410725D01*
X160713831Y-100174958D01*
X160212878Y-99998581D01*
X159682560Y-100027336D01*
X159326169Y-100174958D01*
X159264331Y-100410725D01*
X158235669Y-100410725D01*
X158173831Y-100174958D01*
X157672878Y-99998581D01*
X157142560Y-100027336D01*
X156786169Y-100174958D01*
X156724331Y-100410725D01*
X155695669Y-100410725D01*
X155633831Y-100174958D01*
X155132878Y-99998581D01*
X154602560Y-100027336D01*
X154246169Y-100174958D01*
X154184331Y-100410725D01*
X153155669Y-100410725D01*
X153093831Y-100174958D01*
X152592878Y-99998581D01*
X152062560Y-100027336D01*
X151706169Y-100174958D01*
X151644331Y-100410725D01*
X142746000Y-100410725D01*
X142746000Y-83245968D01*
X142969405Y-83096693D01*
X143068701Y-83245299D01*
X143278745Y-83385647D01*
X143526510Y-83434930D01*
X145525490Y-83434930D01*
X145773255Y-83385647D01*
X145983299Y-83245299D01*
X146123647Y-83035255D01*
X146172930Y-82787490D01*
X146172930Y-80788510D01*
X146123647Y-80540745D01*
X145983299Y-80330701D01*
X145773255Y-80190353D01*
X145525490Y-80141070D01*
X145308774Y-80141070D01*
X145530595Y-79919249D01*
X145711000Y-79483711D01*
X145711000Y-79012289D01*
X145530595Y-78576751D01*
X145197249Y-78243405D01*
X144761711Y-78063000D01*
X144290289Y-78063000D01*
X143854751Y-78243405D01*
X143521405Y-78576751D01*
X143341000Y-79012289D01*
X143341000Y-79483711D01*
X143521405Y-79919249D01*
X143743226Y-80141070D01*
X143526510Y-80141070D01*
X143278745Y-80190353D01*
X143068701Y-80330701D01*
X142969405Y-80479307D01*
X142640494Y-80259535D01*
X142657249Y-80252595D01*
X142990595Y-79919249D01*
X143171000Y-79483711D01*
X143171000Y-79012289D01*
X142990595Y-78576751D01*
X142657249Y-78243405D01*
X142221711Y-78063000D01*
X141750289Y-78063000D01*
X141314751Y-78243405D01*
X140981405Y-78576751D01*
X140801000Y-79012289D01*
X140801000Y-79483711D01*
X140981405Y-79919249D01*
X141314751Y-80252595D01*
X141331506Y-80259535D01*
X140807599Y-80609599D01*
X140716000Y-80746687D01*
X140624401Y-80609599D01*
X140100494Y-80259535D01*
X140117249Y-80252595D01*
X140450595Y-79919249D01*
X140631000Y-79483711D01*
X140631000Y-79012289D01*
X140450595Y-78576751D01*
X140117249Y-78243405D01*
X139681711Y-78063000D01*
X139210289Y-78063000D01*
X138774751Y-78243405D01*
X138441405Y-78576751D01*
X138261000Y-79012289D01*
X138261000Y-79483711D01*
X138441405Y-79919249D01*
X138774751Y-80252595D01*
X138791506Y-80259535D01*
X138267599Y-80609599D01*
X137906345Y-81150254D01*
X137870000Y-81332972D01*
X137870000Y-77926000D01*
X178106000Y-77926000D01*
X178106001Y-142800000D01*
G04 #@! TD*
M02*
