G04 #@! TF.GenerationSoftware,KiCad,Pcbnew,5.0.2-bee76a0~70~ubuntu18.04.1*
G04 #@! TF.CreationDate,2019-04-08T15:23:50+01:00*
G04 #@! TF.ProjectId,Bump Stop,42756d70-2053-4746-9f70-2e6b69636164,rev?*
G04 #@! TF.SameCoordinates,Original*
G04 #@! TF.FileFunction,Soldermask,Top*
G04 #@! TF.FilePolarity,Negative*
%FSLAX46Y46*%
G04 Gerber Fmt 4.6, Leading zero omitted, Abs format (unit mm)*
G04 Created by KiCad (PCBNEW 5.0.2-bee76a0~70~ubuntu18.04.1) date Mon Apr  8 15:23:50 2019*
%MOMM*%
%LPD*%
G01*
G04 APERTURE LIST*
%ADD10C,0.100000*%
G04 APERTURE END LIST*
D10*
G36*
X173657305Y-138614096D02*
X173766680Y-138659400D01*
X173865118Y-138725175D01*
X173948825Y-138808882D01*
X174014600Y-138907320D01*
X174059904Y-139016695D01*
X174083000Y-139132806D01*
X174083000Y-139251194D01*
X174059904Y-139367305D01*
X174014600Y-139476680D01*
X173948825Y-139575118D01*
X173865118Y-139658825D01*
X173766680Y-139724600D01*
X173657305Y-139769904D01*
X173541194Y-139793000D01*
X173422806Y-139793000D01*
X173306695Y-139769904D01*
X173197320Y-139724600D01*
X173098882Y-139658825D01*
X173015175Y-139575118D01*
X172949400Y-139476680D01*
X172904096Y-139367305D01*
X172881000Y-139251194D01*
X172881000Y-139132806D01*
X172904096Y-139016695D01*
X172949400Y-138907320D01*
X173015175Y-138808882D01*
X173098882Y-138725175D01*
X173197320Y-138659400D01*
X173306695Y-138614096D01*
X173422806Y-138591000D01*
X173541194Y-138591000D01*
X173657305Y-138614096D01*
X173657305Y-138614096D01*
G37*
G36*
X171117305Y-138614096D02*
X171226680Y-138659400D01*
X171325118Y-138725175D01*
X171408825Y-138808882D01*
X171474600Y-138907320D01*
X171519904Y-139016695D01*
X171543000Y-139132806D01*
X171543000Y-139251194D01*
X171519904Y-139367305D01*
X171474600Y-139476680D01*
X171408825Y-139575118D01*
X171325118Y-139658825D01*
X171226680Y-139724600D01*
X171117305Y-139769904D01*
X171001194Y-139793000D01*
X170882806Y-139793000D01*
X170766695Y-139769904D01*
X170657320Y-139724600D01*
X170558882Y-139658825D01*
X170475175Y-139575118D01*
X170409400Y-139476680D01*
X170364096Y-139367305D01*
X170341000Y-139251194D01*
X170341000Y-139132806D01*
X170364096Y-139016695D01*
X170409400Y-138907320D01*
X170475175Y-138808882D01*
X170558882Y-138725175D01*
X170657320Y-138659400D01*
X170766695Y-138614096D01*
X170882806Y-138591000D01*
X171001194Y-138591000D01*
X171117305Y-138614096D01*
X171117305Y-138614096D01*
G37*
G36*
X162989305Y-138614096D02*
X163098680Y-138659400D01*
X163197118Y-138725175D01*
X163280825Y-138808882D01*
X163346600Y-138907320D01*
X163391904Y-139016695D01*
X163415000Y-139132806D01*
X163415000Y-139251194D01*
X163391904Y-139367305D01*
X163346600Y-139476680D01*
X163280825Y-139575118D01*
X163197118Y-139658825D01*
X163098680Y-139724600D01*
X162989305Y-139769904D01*
X162873194Y-139793000D01*
X162754806Y-139793000D01*
X162638695Y-139769904D01*
X162529320Y-139724600D01*
X162430882Y-139658825D01*
X162347175Y-139575118D01*
X162281400Y-139476680D01*
X162236096Y-139367305D01*
X162213000Y-139251194D01*
X162213000Y-139132806D01*
X162236096Y-139016695D01*
X162281400Y-138907320D01*
X162347175Y-138808882D01*
X162430882Y-138725175D01*
X162529320Y-138659400D01*
X162638695Y-138614096D01*
X162754806Y-138591000D01*
X162873194Y-138591000D01*
X162989305Y-138614096D01*
X162989305Y-138614096D01*
G37*
G36*
X160449305Y-138614096D02*
X160558680Y-138659400D01*
X160657118Y-138725175D01*
X160740825Y-138808882D01*
X160806600Y-138907320D01*
X160851904Y-139016695D01*
X160875000Y-139132806D01*
X160875000Y-139251194D01*
X160851904Y-139367305D01*
X160806600Y-139476680D01*
X160740825Y-139575118D01*
X160657118Y-139658825D01*
X160558680Y-139724600D01*
X160449305Y-139769904D01*
X160333194Y-139793000D01*
X160214806Y-139793000D01*
X160098695Y-139769904D01*
X159989320Y-139724600D01*
X159890882Y-139658825D01*
X159807175Y-139575118D01*
X159741400Y-139476680D01*
X159696096Y-139367305D01*
X159673000Y-139251194D01*
X159673000Y-139132806D01*
X159696096Y-139016695D01*
X159741400Y-138907320D01*
X159807175Y-138808882D01*
X159890882Y-138725175D01*
X159989320Y-138659400D01*
X160098695Y-138614096D01*
X160214806Y-138591000D01*
X160333194Y-138591000D01*
X160449305Y-138614096D01*
X160449305Y-138614096D01*
G37*
G36*
X156385305Y-138614096D02*
X156494680Y-138659400D01*
X156593118Y-138725175D01*
X156676825Y-138808882D01*
X156742600Y-138907320D01*
X156787904Y-139016695D01*
X156811000Y-139132806D01*
X156811000Y-139251194D01*
X156787904Y-139367305D01*
X156742600Y-139476680D01*
X156676825Y-139575118D01*
X156593118Y-139658825D01*
X156494680Y-139724600D01*
X156385305Y-139769904D01*
X156269194Y-139793000D01*
X156150806Y-139793000D01*
X156034695Y-139769904D01*
X155925320Y-139724600D01*
X155826882Y-139658825D01*
X155743175Y-139575118D01*
X155677400Y-139476680D01*
X155632096Y-139367305D01*
X155609000Y-139251194D01*
X155609000Y-139132806D01*
X155632096Y-139016695D01*
X155677400Y-138907320D01*
X155743175Y-138808882D01*
X155826882Y-138725175D01*
X155925320Y-138659400D01*
X156034695Y-138614096D01*
X156150806Y-138591000D01*
X156269194Y-138591000D01*
X156385305Y-138614096D01*
X156385305Y-138614096D01*
G37*
G36*
X153845305Y-138614096D02*
X153954680Y-138659400D01*
X154053118Y-138725175D01*
X154136825Y-138808882D01*
X154202600Y-138907320D01*
X154247904Y-139016695D01*
X154271000Y-139132806D01*
X154271000Y-139251194D01*
X154247904Y-139367305D01*
X154202600Y-139476680D01*
X154136825Y-139575118D01*
X154053118Y-139658825D01*
X153954680Y-139724600D01*
X153845305Y-139769904D01*
X153729194Y-139793000D01*
X153610806Y-139793000D01*
X153494695Y-139769904D01*
X153385320Y-139724600D01*
X153286882Y-139658825D01*
X153203175Y-139575118D01*
X153137400Y-139476680D01*
X153092096Y-139367305D01*
X153069000Y-139251194D01*
X153069000Y-139132806D01*
X153092096Y-139016695D01*
X153137400Y-138907320D01*
X153203175Y-138808882D01*
X153286882Y-138725175D01*
X153385320Y-138659400D01*
X153494695Y-138614096D01*
X153610806Y-138591000D01*
X153729194Y-138591000D01*
X153845305Y-138614096D01*
X153845305Y-138614096D01*
G37*
G36*
X146733305Y-138614096D02*
X146842680Y-138659400D01*
X146941118Y-138725175D01*
X147024825Y-138808882D01*
X147090600Y-138907320D01*
X147135904Y-139016695D01*
X147159000Y-139132806D01*
X147159000Y-139251194D01*
X147135904Y-139367305D01*
X147090600Y-139476680D01*
X147024825Y-139575118D01*
X146941118Y-139658825D01*
X146842680Y-139724600D01*
X146733305Y-139769904D01*
X146617194Y-139793000D01*
X146498806Y-139793000D01*
X146382695Y-139769904D01*
X146273320Y-139724600D01*
X146174882Y-139658825D01*
X146091175Y-139575118D01*
X146025400Y-139476680D01*
X145980096Y-139367305D01*
X145957000Y-139251194D01*
X145957000Y-139132806D01*
X145980096Y-139016695D01*
X146025400Y-138907320D01*
X146091175Y-138808882D01*
X146174882Y-138725175D01*
X146273320Y-138659400D01*
X146382695Y-138614096D01*
X146498806Y-138591000D01*
X146617194Y-138591000D01*
X146733305Y-138614096D01*
X146733305Y-138614096D01*
G37*
G36*
X142669305Y-138614096D02*
X142778680Y-138659400D01*
X142877118Y-138725175D01*
X142960825Y-138808882D01*
X143026600Y-138907320D01*
X143071904Y-139016695D01*
X143095000Y-139132806D01*
X143095000Y-139251194D01*
X143071904Y-139367305D01*
X143026600Y-139476680D01*
X142960825Y-139575118D01*
X142877118Y-139658825D01*
X142778680Y-139724600D01*
X142669305Y-139769904D01*
X142553194Y-139793000D01*
X142434806Y-139793000D01*
X142318695Y-139769904D01*
X142209320Y-139724600D01*
X142110882Y-139658825D01*
X142027175Y-139575118D01*
X141961400Y-139476680D01*
X141916096Y-139367305D01*
X141893000Y-139251194D01*
X141893000Y-139132806D01*
X141916096Y-139016695D01*
X141961400Y-138907320D01*
X142027175Y-138808882D01*
X142110882Y-138725175D01*
X142209320Y-138659400D01*
X142318695Y-138614096D01*
X142434806Y-138591000D01*
X142553194Y-138591000D01*
X142669305Y-138614096D01*
X142669305Y-138614096D01*
G37*
G36*
X140129305Y-138614096D02*
X140238680Y-138659400D01*
X140337118Y-138725175D01*
X140420825Y-138808882D01*
X140486600Y-138907320D01*
X140531904Y-139016695D01*
X140555000Y-139132806D01*
X140555000Y-139251194D01*
X140531904Y-139367305D01*
X140486600Y-139476680D01*
X140420825Y-139575118D01*
X140337118Y-139658825D01*
X140238680Y-139724600D01*
X140129305Y-139769904D01*
X140013194Y-139793000D01*
X139894806Y-139793000D01*
X139778695Y-139769904D01*
X139669320Y-139724600D01*
X139570882Y-139658825D01*
X139487175Y-139575118D01*
X139421400Y-139476680D01*
X139376096Y-139367305D01*
X139353000Y-139251194D01*
X139353000Y-139132806D01*
X139376096Y-139016695D01*
X139421400Y-138907320D01*
X139487175Y-138808882D01*
X139570882Y-138725175D01*
X139669320Y-138659400D01*
X139778695Y-138614096D01*
X139894806Y-138591000D01*
X140013194Y-138591000D01*
X140129305Y-138614096D01*
X140129305Y-138614096D01*
G37*
G36*
X149273305Y-138614096D02*
X149382680Y-138659400D01*
X149481118Y-138725175D01*
X149564825Y-138808882D01*
X149630600Y-138907320D01*
X149675904Y-139016695D01*
X149699000Y-139132806D01*
X149699000Y-139251194D01*
X149675904Y-139367305D01*
X149630600Y-139476680D01*
X149564825Y-139575118D01*
X149481118Y-139658825D01*
X149382680Y-139724600D01*
X149273305Y-139769904D01*
X149157194Y-139793000D01*
X149038806Y-139793000D01*
X148922695Y-139769904D01*
X148813320Y-139724600D01*
X148714882Y-139658825D01*
X148631175Y-139575118D01*
X148565400Y-139476680D01*
X148520096Y-139367305D01*
X148497000Y-139251194D01*
X148497000Y-139132806D01*
X148520096Y-139016695D01*
X148565400Y-138907320D01*
X148631175Y-138808882D01*
X148714882Y-138725175D01*
X148813320Y-138659400D01*
X148922695Y-138614096D01*
X149038806Y-138591000D01*
X149157194Y-138591000D01*
X149273305Y-138614096D01*
X149273305Y-138614096D01*
G37*
G36*
X171992490Y-137702490D02*
X169891510Y-137702490D01*
X169891510Y-135601510D01*
X171992490Y-135601510D01*
X171992490Y-137702490D01*
X171992490Y-137702490D01*
G37*
G36*
X173687928Y-135616710D02*
X173687931Y-135616711D01*
X173687932Y-135616711D01*
X173885950Y-135676779D01*
X173885952Y-135676780D01*
X173885955Y-135676781D01*
X174068445Y-135774323D01*
X174228402Y-135905598D01*
X174359677Y-136065555D01*
X174457219Y-136248045D01*
X174517290Y-136446072D01*
X174537572Y-136652000D01*
X174517290Y-136857928D01*
X174457219Y-137055955D01*
X174359677Y-137238445D01*
X174228402Y-137398402D01*
X174068445Y-137529677D01*
X173885955Y-137627219D01*
X173885952Y-137627220D01*
X173885950Y-137627221D01*
X173687932Y-137687289D01*
X173687931Y-137687289D01*
X173687928Y-137687290D01*
X173533601Y-137702490D01*
X173430399Y-137702490D01*
X173276072Y-137687290D01*
X173276069Y-137687289D01*
X173276068Y-137687289D01*
X173078050Y-137627221D01*
X173078048Y-137627220D01*
X173078045Y-137627219D01*
X172895555Y-137529677D01*
X172735598Y-137398402D01*
X172604323Y-137238445D01*
X172506781Y-137055955D01*
X172446710Y-136857928D01*
X172426428Y-136652000D01*
X172446710Y-136446072D01*
X172506781Y-136248045D01*
X172604323Y-136065555D01*
X172735598Y-135905598D01*
X172895555Y-135774323D01*
X173078045Y-135676781D01*
X173078048Y-135676780D01*
X173078050Y-135676779D01*
X173276068Y-135616711D01*
X173276069Y-135616711D01*
X173276072Y-135616710D01*
X173430399Y-135601510D01*
X173533601Y-135601510D01*
X173687928Y-135616710D01*
X173687928Y-135616710D01*
G37*
G36*
X142699928Y-135616710D02*
X142699931Y-135616711D01*
X142699932Y-135616711D01*
X142897950Y-135676779D01*
X142897952Y-135676780D01*
X142897955Y-135676781D01*
X143080445Y-135774323D01*
X143240402Y-135905598D01*
X143371677Y-136065555D01*
X143469219Y-136248045D01*
X143529290Y-136446072D01*
X143549572Y-136652000D01*
X143529290Y-136857928D01*
X143469219Y-137055955D01*
X143371677Y-137238445D01*
X143240402Y-137398402D01*
X143080445Y-137529677D01*
X142897955Y-137627219D01*
X142897952Y-137627220D01*
X142897950Y-137627221D01*
X142699932Y-137687289D01*
X142699931Y-137687289D01*
X142699928Y-137687290D01*
X142545601Y-137702490D01*
X142442399Y-137702490D01*
X142288072Y-137687290D01*
X142288069Y-137687289D01*
X142288068Y-137687289D01*
X142090050Y-137627221D01*
X142090048Y-137627220D01*
X142090045Y-137627219D01*
X141907555Y-137529677D01*
X141747598Y-137398402D01*
X141616323Y-137238445D01*
X141518781Y-137055955D01*
X141458710Y-136857928D01*
X141438428Y-136652000D01*
X141458710Y-136446072D01*
X141518781Y-136248045D01*
X141616323Y-136065555D01*
X141747598Y-135905598D01*
X141907555Y-135774323D01*
X142090045Y-135676781D01*
X142090048Y-135676780D01*
X142090050Y-135676779D01*
X142288068Y-135616711D01*
X142288069Y-135616711D01*
X142288072Y-135616710D01*
X142442399Y-135601510D01*
X142545601Y-135601510D01*
X142699928Y-135616710D01*
X142699928Y-135616710D01*
G37*
G36*
X141004490Y-137702490D02*
X138903510Y-137702490D01*
X138903510Y-135601510D01*
X141004490Y-135601510D01*
X141004490Y-137702490D01*
X141004490Y-137702490D01*
G37*
G36*
X161324490Y-137702490D02*
X159223510Y-137702490D01*
X159223510Y-135601510D01*
X161324490Y-135601510D01*
X161324490Y-137702490D01*
X161324490Y-137702490D01*
G37*
G36*
X147608490Y-137702490D02*
X145507510Y-137702490D01*
X145507510Y-135601510D01*
X147608490Y-135601510D01*
X147608490Y-137702490D01*
X147608490Y-137702490D01*
G37*
G36*
X156415928Y-135616710D02*
X156415931Y-135616711D01*
X156415932Y-135616711D01*
X156613950Y-135676779D01*
X156613952Y-135676780D01*
X156613955Y-135676781D01*
X156796445Y-135774323D01*
X156956402Y-135905598D01*
X157087677Y-136065555D01*
X157185219Y-136248045D01*
X157245290Y-136446072D01*
X157265572Y-136652000D01*
X157245290Y-136857928D01*
X157185219Y-137055955D01*
X157087677Y-137238445D01*
X156956402Y-137398402D01*
X156796445Y-137529677D01*
X156613955Y-137627219D01*
X156613952Y-137627220D01*
X156613950Y-137627221D01*
X156415932Y-137687289D01*
X156415931Y-137687289D01*
X156415928Y-137687290D01*
X156261601Y-137702490D01*
X156158399Y-137702490D01*
X156004072Y-137687290D01*
X156004069Y-137687289D01*
X156004068Y-137687289D01*
X155806050Y-137627221D01*
X155806048Y-137627220D01*
X155806045Y-137627219D01*
X155623555Y-137529677D01*
X155463598Y-137398402D01*
X155332323Y-137238445D01*
X155234781Y-137055955D01*
X155174710Y-136857928D01*
X155154428Y-136652000D01*
X155174710Y-136446072D01*
X155234781Y-136248045D01*
X155332323Y-136065555D01*
X155463598Y-135905598D01*
X155623555Y-135774323D01*
X155806045Y-135676781D01*
X155806048Y-135676780D01*
X155806050Y-135676779D01*
X156004068Y-135616711D01*
X156004069Y-135616711D01*
X156004072Y-135616710D01*
X156158399Y-135601510D01*
X156261601Y-135601510D01*
X156415928Y-135616710D01*
X156415928Y-135616710D01*
G37*
G36*
X154720490Y-137702490D02*
X152619510Y-137702490D01*
X152619510Y-135601510D01*
X154720490Y-135601510D01*
X154720490Y-137702490D01*
X154720490Y-137702490D01*
G37*
G36*
X163019928Y-135616710D02*
X163019931Y-135616711D01*
X163019932Y-135616711D01*
X163217950Y-135676779D01*
X163217952Y-135676780D01*
X163217955Y-135676781D01*
X163400445Y-135774323D01*
X163560402Y-135905598D01*
X163691677Y-136065555D01*
X163789219Y-136248045D01*
X163849290Y-136446072D01*
X163869572Y-136652000D01*
X163849290Y-136857928D01*
X163789219Y-137055955D01*
X163691677Y-137238445D01*
X163560402Y-137398402D01*
X163400445Y-137529677D01*
X163217955Y-137627219D01*
X163217952Y-137627220D01*
X163217950Y-137627221D01*
X163019932Y-137687289D01*
X163019931Y-137687289D01*
X163019928Y-137687290D01*
X162865601Y-137702490D01*
X162762399Y-137702490D01*
X162608072Y-137687290D01*
X162608069Y-137687289D01*
X162608068Y-137687289D01*
X162410050Y-137627221D01*
X162410048Y-137627220D01*
X162410045Y-137627219D01*
X162227555Y-137529677D01*
X162067598Y-137398402D01*
X161936323Y-137238445D01*
X161838781Y-137055955D01*
X161778710Y-136857928D01*
X161758428Y-136652000D01*
X161778710Y-136446072D01*
X161838781Y-136248045D01*
X161936323Y-136065555D01*
X162067598Y-135905598D01*
X162227555Y-135774323D01*
X162410045Y-135676781D01*
X162410048Y-135676780D01*
X162410050Y-135676779D01*
X162608068Y-135616711D01*
X162608069Y-135616711D01*
X162608072Y-135616710D01*
X162762399Y-135601510D01*
X162865601Y-135601510D01*
X163019928Y-135616710D01*
X163019928Y-135616710D01*
G37*
G36*
X149303928Y-135616710D02*
X149303931Y-135616711D01*
X149303932Y-135616711D01*
X149501950Y-135676779D01*
X149501952Y-135676780D01*
X149501955Y-135676781D01*
X149684445Y-135774323D01*
X149844402Y-135905598D01*
X149975677Y-136065555D01*
X150073219Y-136248045D01*
X150133290Y-136446072D01*
X150153572Y-136652000D01*
X150133290Y-136857928D01*
X150073219Y-137055955D01*
X149975677Y-137238445D01*
X149844402Y-137398402D01*
X149684445Y-137529677D01*
X149501955Y-137627219D01*
X149501952Y-137627220D01*
X149501950Y-137627221D01*
X149303932Y-137687289D01*
X149303931Y-137687289D01*
X149303928Y-137687290D01*
X149149601Y-137702490D01*
X149046399Y-137702490D01*
X148892072Y-137687290D01*
X148892069Y-137687289D01*
X148892068Y-137687289D01*
X148694050Y-137627221D01*
X148694048Y-137627220D01*
X148694045Y-137627219D01*
X148511555Y-137529677D01*
X148351598Y-137398402D01*
X148220323Y-137238445D01*
X148122781Y-137055955D01*
X148062710Y-136857928D01*
X148042428Y-136652000D01*
X148062710Y-136446072D01*
X148122781Y-136248045D01*
X148220323Y-136065555D01*
X148351598Y-135905598D01*
X148511555Y-135774323D01*
X148694045Y-135676781D01*
X148694048Y-135676780D01*
X148694050Y-135676779D01*
X148892068Y-135616711D01*
X148892069Y-135616711D01*
X148892072Y-135616710D01*
X149046399Y-135601510D01*
X149149601Y-135601510D01*
X149303928Y-135616710D01*
X149303928Y-135616710D01*
G37*
G36*
X152981665Y-123712622D02*
X153055222Y-123719867D01*
X153196786Y-123762810D01*
X153327252Y-123832546D01*
X153441606Y-123926394D01*
X153535454Y-124040748D01*
X153605190Y-124171214D01*
X153648133Y-124312778D01*
X153662633Y-124460000D01*
X153648133Y-124607222D01*
X153605190Y-124748786D01*
X153535454Y-124879252D01*
X153441606Y-124993606D01*
X153327252Y-125087454D01*
X153196786Y-125157190D01*
X153055222Y-125200133D01*
X152981665Y-125207378D01*
X152944888Y-125211000D01*
X152871112Y-125211000D01*
X152834335Y-125207378D01*
X152760778Y-125200133D01*
X152619214Y-125157190D01*
X152488748Y-125087454D01*
X152374394Y-124993606D01*
X152280546Y-124879252D01*
X152210810Y-124748786D01*
X152167867Y-124607222D01*
X152153367Y-124460000D01*
X152167867Y-124312778D01*
X152210810Y-124171214D01*
X152280546Y-124040748D01*
X152374394Y-123926394D01*
X152488748Y-123832546D01*
X152619214Y-123762810D01*
X152760778Y-123719867D01*
X152834335Y-123712622D01*
X152871112Y-123709000D01*
X152944888Y-123709000D01*
X152981665Y-123712622D01*
X152981665Y-123712622D01*
G37*
G36*
X145416600Y-123719867D02*
X145507059Y-123737860D01*
X145643732Y-123794472D01*
X145700715Y-123832547D01*
X145766738Y-123876662D01*
X145871338Y-123981262D01*
X145871340Y-123981265D01*
X145953528Y-124104268D01*
X146010140Y-124240941D01*
X146039000Y-124386033D01*
X146039000Y-124533967D01*
X146010140Y-124679059D01*
X145953528Y-124815732D01*
X145872446Y-124937079D01*
X145871338Y-124938738D01*
X145766738Y-125043338D01*
X145766735Y-125043340D01*
X145643732Y-125125528D01*
X145507059Y-125182140D01*
X145420004Y-125199456D01*
X145361969Y-125211000D01*
X145214031Y-125211000D01*
X145155996Y-125199456D01*
X145068941Y-125182140D01*
X144932268Y-125125528D01*
X144809265Y-125043340D01*
X144809262Y-125043338D01*
X144704662Y-124938738D01*
X144703554Y-124937079D01*
X144622472Y-124815732D01*
X144565860Y-124679059D01*
X144537000Y-124533967D01*
X144537000Y-124386033D01*
X144565860Y-124240941D01*
X144622472Y-124104268D01*
X144704660Y-123981265D01*
X144704662Y-123981262D01*
X144809262Y-123876662D01*
X144875285Y-123832547D01*
X144932268Y-123794472D01*
X145068941Y-123737860D01*
X145159400Y-123719867D01*
X145214031Y-123709000D01*
X145361969Y-123709000D01*
X145416600Y-123719867D01*
X145416600Y-123719867D01*
G37*
G36*
X152981665Y-121172622D02*
X153055222Y-121179867D01*
X153196786Y-121222810D01*
X153327252Y-121292546D01*
X153441606Y-121386394D01*
X153535454Y-121500748D01*
X153605190Y-121631214D01*
X153648133Y-121772778D01*
X153662633Y-121920000D01*
X153648133Y-122067222D01*
X153605190Y-122208786D01*
X153535454Y-122339252D01*
X153441606Y-122453606D01*
X153327252Y-122547454D01*
X153196786Y-122617190D01*
X153055222Y-122660133D01*
X152981665Y-122667378D01*
X152944888Y-122671000D01*
X152871112Y-122671000D01*
X152834335Y-122667378D01*
X152760778Y-122660133D01*
X152619214Y-122617190D01*
X152488748Y-122547454D01*
X152374394Y-122453606D01*
X152280546Y-122339252D01*
X152210810Y-122208786D01*
X152167867Y-122067222D01*
X152153367Y-121920000D01*
X152167867Y-121772778D01*
X152210810Y-121631214D01*
X152280546Y-121500748D01*
X152374394Y-121386394D01*
X152488748Y-121292546D01*
X152619214Y-121222810D01*
X152760778Y-121179867D01*
X152834335Y-121172622D01*
X152871112Y-121169000D01*
X152944888Y-121169000D01*
X152981665Y-121172622D01*
X152981665Y-121172622D01*
G37*
G36*
X145416600Y-121179867D02*
X145507059Y-121197860D01*
X145643732Y-121254472D01*
X145700715Y-121292547D01*
X145766738Y-121336662D01*
X145871338Y-121441262D01*
X145871340Y-121441265D01*
X145953528Y-121564268D01*
X146010140Y-121700941D01*
X146039000Y-121846033D01*
X146039000Y-121993967D01*
X146010140Y-122139059D01*
X145953528Y-122275732D01*
X145872446Y-122397079D01*
X145871338Y-122398738D01*
X145766738Y-122503338D01*
X145766735Y-122503340D01*
X145643732Y-122585528D01*
X145507059Y-122642140D01*
X145420004Y-122659456D01*
X145361969Y-122671000D01*
X145214031Y-122671000D01*
X145155996Y-122659456D01*
X145068941Y-122642140D01*
X144932268Y-122585528D01*
X144809265Y-122503340D01*
X144809262Y-122503338D01*
X144704662Y-122398738D01*
X144703554Y-122397079D01*
X144622472Y-122275732D01*
X144565860Y-122139059D01*
X144537000Y-121993967D01*
X144537000Y-121846033D01*
X144565860Y-121700941D01*
X144622472Y-121564268D01*
X144704660Y-121441265D01*
X144704662Y-121441262D01*
X144809262Y-121336662D01*
X144875285Y-121292547D01*
X144932268Y-121254472D01*
X145068941Y-121197860D01*
X145159400Y-121179867D01*
X145214031Y-121169000D01*
X145361969Y-121169000D01*
X145416600Y-121179867D01*
X145416600Y-121179867D01*
G37*
G36*
X163091396Y-120751546D02*
X163264466Y-120823234D01*
X163420230Y-120927312D01*
X163552688Y-121059770D01*
X163656766Y-121215534D01*
X163728454Y-121388604D01*
X163765000Y-121572333D01*
X163765000Y-121759667D01*
X163728454Y-121943396D01*
X163656766Y-122116466D01*
X163552688Y-122272230D01*
X163420230Y-122404688D01*
X163264466Y-122508766D01*
X163091396Y-122580454D01*
X162907667Y-122617000D01*
X162720333Y-122617000D01*
X162536604Y-122580454D01*
X162363534Y-122508766D01*
X162207770Y-122404688D01*
X162075312Y-122272230D01*
X161971234Y-122116466D01*
X161899546Y-121943396D01*
X161863000Y-121759667D01*
X161863000Y-121572333D01*
X161899546Y-121388604D01*
X161971234Y-121215534D01*
X162075312Y-121059770D01*
X162207770Y-120927312D01*
X162363534Y-120823234D01*
X162536604Y-120751546D01*
X162720333Y-120715000D01*
X162907667Y-120715000D01*
X163091396Y-120751546D01*
X163091396Y-120751546D01*
G37*
G36*
X140231396Y-120751546D02*
X140404466Y-120823234D01*
X140560230Y-120927312D01*
X140692688Y-121059770D01*
X140796766Y-121215534D01*
X140868454Y-121388604D01*
X140905000Y-121572333D01*
X140905000Y-121759667D01*
X140868454Y-121943396D01*
X140796766Y-122116466D01*
X140692688Y-122272230D01*
X140560230Y-122404688D01*
X140404466Y-122508766D01*
X140231396Y-122580454D01*
X140047667Y-122617000D01*
X139860333Y-122617000D01*
X139676604Y-122580454D01*
X139503534Y-122508766D01*
X139347770Y-122404688D01*
X139215312Y-122272230D01*
X139111234Y-122116466D01*
X139039546Y-121943396D01*
X139003000Y-121759667D01*
X139003000Y-121572333D01*
X139039546Y-121388604D01*
X139111234Y-121215534D01*
X139215312Y-121059770D01*
X139347770Y-120927312D01*
X139503534Y-120823234D01*
X139676604Y-120751546D01*
X139860333Y-120715000D01*
X140047667Y-120715000D01*
X140231396Y-120751546D01*
X140231396Y-120751546D01*
G37*
G36*
X163091396Y-118211546D02*
X163264466Y-118283234D01*
X163420230Y-118387312D01*
X163552688Y-118519770D01*
X163656766Y-118675534D01*
X163728454Y-118848604D01*
X163765000Y-119032333D01*
X163765000Y-119219667D01*
X163728454Y-119403396D01*
X163656766Y-119576466D01*
X163552688Y-119732230D01*
X163420230Y-119864688D01*
X163264466Y-119968766D01*
X163091396Y-120040454D01*
X162907667Y-120077000D01*
X162720333Y-120077000D01*
X162536604Y-120040454D01*
X162363534Y-119968766D01*
X162207770Y-119864688D01*
X162075312Y-119732230D01*
X161971234Y-119576466D01*
X161899546Y-119403396D01*
X161863000Y-119219667D01*
X161863000Y-119032333D01*
X161899546Y-118848604D01*
X161971234Y-118675534D01*
X162075312Y-118519770D01*
X162207770Y-118387312D01*
X162363534Y-118283234D01*
X162536604Y-118211546D01*
X162720333Y-118175000D01*
X162907667Y-118175000D01*
X163091396Y-118211546D01*
X163091396Y-118211546D01*
G37*
G36*
X140231396Y-118211546D02*
X140404466Y-118283234D01*
X140560230Y-118387312D01*
X140692688Y-118519770D01*
X140796766Y-118675534D01*
X140868454Y-118848604D01*
X140905000Y-119032333D01*
X140905000Y-119219667D01*
X140868454Y-119403396D01*
X140796766Y-119576466D01*
X140692688Y-119732230D01*
X140560230Y-119864688D01*
X140404466Y-119968766D01*
X140231396Y-120040454D01*
X140047667Y-120077000D01*
X139860333Y-120077000D01*
X139676604Y-120040454D01*
X139503534Y-119968766D01*
X139347770Y-119864688D01*
X139215312Y-119732230D01*
X139111234Y-119576466D01*
X139039546Y-119403396D01*
X139003000Y-119219667D01*
X139003000Y-119032333D01*
X139039546Y-118848604D01*
X139111234Y-118675534D01*
X139215312Y-118519770D01*
X139347770Y-118387312D01*
X139503534Y-118283234D01*
X139676604Y-118211546D01*
X139860333Y-118175000D01*
X140047667Y-118175000D01*
X140231396Y-118211546D01*
X140231396Y-118211546D01*
G37*
G36*
X163091396Y-115671546D02*
X163264466Y-115743234D01*
X163420230Y-115847312D01*
X163552688Y-115979770D01*
X163656766Y-116135534D01*
X163728454Y-116308604D01*
X163765000Y-116492333D01*
X163765000Y-116679667D01*
X163728454Y-116863396D01*
X163656766Y-117036466D01*
X163552688Y-117192230D01*
X163420230Y-117324688D01*
X163264466Y-117428766D01*
X163091396Y-117500454D01*
X162907667Y-117537000D01*
X162720333Y-117537000D01*
X162536604Y-117500454D01*
X162363534Y-117428766D01*
X162207770Y-117324688D01*
X162075312Y-117192230D01*
X161971234Y-117036466D01*
X161899546Y-116863396D01*
X161863000Y-116679667D01*
X161863000Y-116492333D01*
X161899546Y-116308604D01*
X161971234Y-116135534D01*
X162075312Y-115979770D01*
X162207770Y-115847312D01*
X162363534Y-115743234D01*
X162536604Y-115671546D01*
X162720333Y-115635000D01*
X162907667Y-115635000D01*
X163091396Y-115671546D01*
X163091396Y-115671546D01*
G37*
G36*
X140231396Y-115671546D02*
X140404466Y-115743234D01*
X140560230Y-115847312D01*
X140692688Y-115979770D01*
X140796766Y-116135534D01*
X140868454Y-116308604D01*
X140905000Y-116492333D01*
X140905000Y-116679667D01*
X140868454Y-116863396D01*
X140796766Y-117036466D01*
X140692688Y-117192230D01*
X140560230Y-117324688D01*
X140404466Y-117428766D01*
X140231396Y-117500454D01*
X140047667Y-117537000D01*
X139860333Y-117537000D01*
X139676604Y-117500454D01*
X139503534Y-117428766D01*
X139347770Y-117324688D01*
X139215312Y-117192230D01*
X139111234Y-117036466D01*
X139039546Y-116863396D01*
X139003000Y-116679667D01*
X139003000Y-116492333D01*
X139039546Y-116308604D01*
X139111234Y-116135534D01*
X139215312Y-115979770D01*
X139347770Y-115847312D01*
X139503534Y-115743234D01*
X139676604Y-115671546D01*
X139860333Y-115635000D01*
X140047667Y-115635000D01*
X140231396Y-115671546D01*
X140231396Y-115671546D01*
G37*
G36*
X175680821Y-115747313D02*
X175680824Y-115747314D01*
X175680825Y-115747314D01*
X175841239Y-115795975D01*
X175841241Y-115795976D01*
X175841244Y-115795977D01*
X175989078Y-115874995D01*
X176118659Y-115981341D01*
X176225005Y-116110922D01*
X176304023Y-116258756D01*
X176304024Y-116258759D01*
X176304025Y-116258761D01*
X176352686Y-116419175D01*
X176352687Y-116419179D01*
X176369117Y-116586000D01*
X176352687Y-116752821D01*
X176352686Y-116752824D01*
X176352686Y-116752825D01*
X176319145Y-116863396D01*
X176304023Y-116913244D01*
X176225005Y-117061078D01*
X176118659Y-117190659D01*
X175989078Y-117297005D01*
X175841244Y-117376023D01*
X175841241Y-117376024D01*
X175841239Y-117376025D01*
X175680825Y-117424686D01*
X175680824Y-117424686D01*
X175680821Y-117424687D01*
X175555804Y-117437000D01*
X175472196Y-117437000D01*
X175347179Y-117424687D01*
X175347176Y-117424686D01*
X175347175Y-117424686D01*
X175186761Y-117376025D01*
X175186759Y-117376024D01*
X175186756Y-117376023D01*
X175038922Y-117297005D01*
X174909341Y-117190659D01*
X174802995Y-117061078D01*
X174723977Y-116913244D01*
X174708856Y-116863396D01*
X174675314Y-116752825D01*
X174675314Y-116752824D01*
X174675313Y-116752821D01*
X174658883Y-116586000D01*
X174675313Y-116419179D01*
X174675314Y-116419175D01*
X174723975Y-116258761D01*
X174723976Y-116258759D01*
X174723977Y-116258756D01*
X174802995Y-116110922D01*
X174909341Y-115981341D01*
X175038922Y-115874995D01*
X175186756Y-115795977D01*
X175186759Y-115795976D01*
X175186761Y-115795975D01*
X175347175Y-115747314D01*
X175347176Y-115747314D01*
X175347179Y-115747313D01*
X175472196Y-115735000D01*
X175555804Y-115735000D01*
X175680821Y-115747313D01*
X175680821Y-115747313D01*
G37*
G36*
X168060821Y-115747313D02*
X168060824Y-115747314D01*
X168060825Y-115747314D01*
X168221239Y-115795975D01*
X168221241Y-115795976D01*
X168221244Y-115795977D01*
X168369078Y-115874995D01*
X168498659Y-115981341D01*
X168605005Y-116110922D01*
X168684023Y-116258756D01*
X168684024Y-116258759D01*
X168684025Y-116258761D01*
X168732686Y-116419175D01*
X168732687Y-116419179D01*
X168749117Y-116586000D01*
X168732687Y-116752821D01*
X168732686Y-116752824D01*
X168732686Y-116752825D01*
X168699145Y-116863396D01*
X168684023Y-116913244D01*
X168605005Y-117061078D01*
X168498659Y-117190659D01*
X168369078Y-117297005D01*
X168221244Y-117376023D01*
X168221241Y-117376024D01*
X168221239Y-117376025D01*
X168060825Y-117424686D01*
X168060824Y-117424686D01*
X168060821Y-117424687D01*
X167935804Y-117437000D01*
X167852196Y-117437000D01*
X167727179Y-117424687D01*
X167727176Y-117424686D01*
X167727175Y-117424686D01*
X167566761Y-117376025D01*
X167566759Y-117376024D01*
X167566756Y-117376023D01*
X167418922Y-117297005D01*
X167289341Y-117190659D01*
X167182995Y-117061078D01*
X167103977Y-116913244D01*
X167088856Y-116863396D01*
X167055314Y-116752825D01*
X167055314Y-116752824D01*
X167055313Y-116752821D01*
X167038883Y-116586000D01*
X167055313Y-116419179D01*
X167055314Y-116419175D01*
X167103975Y-116258761D01*
X167103976Y-116258759D01*
X167103977Y-116258756D01*
X167182995Y-116110922D01*
X167289341Y-115981341D01*
X167418922Y-115874995D01*
X167566756Y-115795977D01*
X167566759Y-115795976D01*
X167566761Y-115795975D01*
X167727175Y-115747314D01*
X167727176Y-115747314D01*
X167727179Y-115747313D01*
X167852196Y-115735000D01*
X167935804Y-115735000D01*
X168060821Y-115747313D01*
X168060821Y-115747313D01*
G37*
G36*
X140231396Y-113131546D02*
X140404466Y-113203234D01*
X140560230Y-113307312D01*
X140692688Y-113439770D01*
X140796766Y-113595534D01*
X140868454Y-113768604D01*
X140905000Y-113952333D01*
X140905000Y-114139667D01*
X140868454Y-114323396D01*
X140796766Y-114496466D01*
X140692688Y-114652230D01*
X140560230Y-114784688D01*
X140404466Y-114888766D01*
X140231396Y-114960454D01*
X140047667Y-114997000D01*
X139860333Y-114997000D01*
X139676604Y-114960454D01*
X139503534Y-114888766D01*
X139347770Y-114784688D01*
X139215312Y-114652230D01*
X139111234Y-114496466D01*
X139039546Y-114323396D01*
X139003000Y-114139667D01*
X139003000Y-113952333D01*
X139039546Y-113768604D01*
X139111234Y-113595534D01*
X139215312Y-113439770D01*
X139347770Y-113307312D01*
X139503534Y-113203234D01*
X139676604Y-113131546D01*
X139860333Y-113095000D01*
X140047667Y-113095000D01*
X140231396Y-113131546D01*
X140231396Y-113131546D01*
G37*
G36*
X163091396Y-113131546D02*
X163264466Y-113203234D01*
X163420230Y-113307312D01*
X163552688Y-113439770D01*
X163656766Y-113595534D01*
X163728454Y-113768604D01*
X163765000Y-113952333D01*
X163765000Y-114139667D01*
X163728454Y-114323396D01*
X163656766Y-114496466D01*
X163552688Y-114652230D01*
X163420230Y-114784688D01*
X163264466Y-114888766D01*
X163091396Y-114960454D01*
X162907667Y-114997000D01*
X162720333Y-114997000D01*
X162536604Y-114960454D01*
X162363534Y-114888766D01*
X162207770Y-114784688D01*
X162075312Y-114652230D01*
X161971234Y-114496466D01*
X161899546Y-114323396D01*
X161863000Y-114139667D01*
X161863000Y-113952333D01*
X161899546Y-113768604D01*
X161971234Y-113595534D01*
X162075312Y-113439770D01*
X162207770Y-113307312D01*
X162363534Y-113203234D01*
X162536604Y-113131546D01*
X162720333Y-113095000D01*
X162907667Y-113095000D01*
X163091396Y-113131546D01*
X163091396Y-113131546D01*
G37*
G36*
X168060821Y-113207313D02*
X168060824Y-113207314D01*
X168060825Y-113207314D01*
X168221239Y-113255975D01*
X168221241Y-113255976D01*
X168221244Y-113255977D01*
X168369078Y-113334995D01*
X168498659Y-113441341D01*
X168605005Y-113570922D01*
X168684023Y-113718756D01*
X168684024Y-113718759D01*
X168684025Y-113718761D01*
X168732686Y-113879175D01*
X168732687Y-113879179D01*
X168749117Y-114046000D01*
X168732687Y-114212821D01*
X168732686Y-114212824D01*
X168732686Y-114212825D01*
X168699145Y-114323396D01*
X168684023Y-114373244D01*
X168605005Y-114521078D01*
X168498659Y-114650659D01*
X168369078Y-114757005D01*
X168221244Y-114836023D01*
X168221241Y-114836024D01*
X168221239Y-114836025D01*
X168060825Y-114884686D01*
X168060824Y-114884686D01*
X168060821Y-114884687D01*
X167935804Y-114897000D01*
X167852196Y-114897000D01*
X167727179Y-114884687D01*
X167727176Y-114884686D01*
X167727175Y-114884686D01*
X167566761Y-114836025D01*
X167566759Y-114836024D01*
X167566756Y-114836023D01*
X167418922Y-114757005D01*
X167289341Y-114650659D01*
X167182995Y-114521078D01*
X167103977Y-114373244D01*
X167088856Y-114323396D01*
X167055314Y-114212825D01*
X167055314Y-114212824D01*
X167055313Y-114212821D01*
X167038883Y-114046000D01*
X167055313Y-113879179D01*
X167055314Y-113879175D01*
X167103975Y-113718761D01*
X167103976Y-113718759D01*
X167103977Y-113718756D01*
X167182995Y-113570922D01*
X167289341Y-113441341D01*
X167418922Y-113334995D01*
X167566756Y-113255977D01*
X167566759Y-113255976D01*
X167566761Y-113255975D01*
X167727175Y-113207314D01*
X167727176Y-113207314D01*
X167727179Y-113207313D01*
X167852196Y-113195000D01*
X167935804Y-113195000D01*
X168060821Y-113207313D01*
X168060821Y-113207313D01*
G37*
G36*
X175680821Y-113207313D02*
X175680824Y-113207314D01*
X175680825Y-113207314D01*
X175841239Y-113255975D01*
X175841241Y-113255976D01*
X175841244Y-113255977D01*
X175989078Y-113334995D01*
X176118659Y-113441341D01*
X176225005Y-113570922D01*
X176304023Y-113718756D01*
X176304024Y-113718759D01*
X176304025Y-113718761D01*
X176352686Y-113879175D01*
X176352687Y-113879179D01*
X176369117Y-114046000D01*
X176352687Y-114212821D01*
X176352686Y-114212824D01*
X176352686Y-114212825D01*
X176319145Y-114323396D01*
X176304023Y-114373244D01*
X176225005Y-114521078D01*
X176118659Y-114650659D01*
X175989078Y-114757005D01*
X175841244Y-114836023D01*
X175841241Y-114836024D01*
X175841239Y-114836025D01*
X175680825Y-114884686D01*
X175680824Y-114884686D01*
X175680821Y-114884687D01*
X175555804Y-114897000D01*
X175472196Y-114897000D01*
X175347179Y-114884687D01*
X175347176Y-114884686D01*
X175347175Y-114884686D01*
X175186761Y-114836025D01*
X175186759Y-114836024D01*
X175186756Y-114836023D01*
X175038922Y-114757005D01*
X174909341Y-114650659D01*
X174802995Y-114521078D01*
X174723977Y-114373244D01*
X174708856Y-114323396D01*
X174675314Y-114212825D01*
X174675314Y-114212824D01*
X174675313Y-114212821D01*
X174658883Y-114046000D01*
X174675313Y-113879179D01*
X174675314Y-113879175D01*
X174723975Y-113718761D01*
X174723976Y-113718759D01*
X174723977Y-113718756D01*
X174802995Y-113570922D01*
X174909341Y-113441341D01*
X175038922Y-113334995D01*
X175186756Y-113255977D01*
X175186759Y-113255976D01*
X175186761Y-113255975D01*
X175347175Y-113207314D01*
X175347176Y-113207314D01*
X175347179Y-113207313D01*
X175472196Y-113195000D01*
X175555804Y-113195000D01*
X175680821Y-113207313D01*
X175680821Y-113207313D01*
G37*
G36*
X140231396Y-110591546D02*
X140404466Y-110663234D01*
X140560230Y-110767312D01*
X140692688Y-110899770D01*
X140796766Y-111055534D01*
X140868454Y-111228604D01*
X140905000Y-111412333D01*
X140905000Y-111599667D01*
X140868454Y-111783396D01*
X140796766Y-111956466D01*
X140692688Y-112112230D01*
X140560230Y-112244688D01*
X140404466Y-112348766D01*
X140231396Y-112420454D01*
X140047667Y-112457000D01*
X139860333Y-112457000D01*
X139676604Y-112420454D01*
X139503534Y-112348766D01*
X139347770Y-112244688D01*
X139215312Y-112112230D01*
X139111234Y-111956466D01*
X139039546Y-111783396D01*
X139003000Y-111599667D01*
X139003000Y-111412333D01*
X139039546Y-111228604D01*
X139111234Y-111055534D01*
X139215312Y-110899770D01*
X139347770Y-110767312D01*
X139503534Y-110663234D01*
X139676604Y-110591546D01*
X139860333Y-110555000D01*
X140047667Y-110555000D01*
X140231396Y-110591546D01*
X140231396Y-110591546D01*
G37*
G36*
X163091396Y-110591546D02*
X163264466Y-110663234D01*
X163420230Y-110767312D01*
X163552688Y-110899770D01*
X163656766Y-111055534D01*
X163728454Y-111228604D01*
X163765000Y-111412333D01*
X163765000Y-111599667D01*
X163728454Y-111783396D01*
X163656766Y-111956466D01*
X163552688Y-112112230D01*
X163420230Y-112244688D01*
X163264466Y-112348766D01*
X163091396Y-112420454D01*
X162907667Y-112457000D01*
X162720333Y-112457000D01*
X162536604Y-112420454D01*
X162363534Y-112348766D01*
X162207770Y-112244688D01*
X162075312Y-112112230D01*
X161971234Y-111956466D01*
X161899546Y-111783396D01*
X161863000Y-111599667D01*
X161863000Y-111412333D01*
X161899546Y-111228604D01*
X161971234Y-111055534D01*
X162075312Y-110899770D01*
X162207770Y-110767312D01*
X162363534Y-110663234D01*
X162536604Y-110591546D01*
X162720333Y-110555000D01*
X162907667Y-110555000D01*
X163091396Y-110591546D01*
X163091396Y-110591546D01*
G37*
G36*
X175680821Y-110667313D02*
X175680824Y-110667314D01*
X175680825Y-110667314D01*
X175841239Y-110715975D01*
X175841241Y-110715976D01*
X175841244Y-110715977D01*
X175989078Y-110794995D01*
X176118659Y-110901341D01*
X176225005Y-111030922D01*
X176304023Y-111178756D01*
X176304024Y-111178759D01*
X176304025Y-111178761D01*
X176352686Y-111339175D01*
X176352687Y-111339179D01*
X176369117Y-111506000D01*
X176352687Y-111672821D01*
X176352686Y-111672824D01*
X176352686Y-111672825D01*
X176319145Y-111783396D01*
X176304023Y-111833244D01*
X176225005Y-111981078D01*
X176118659Y-112110659D01*
X175989078Y-112217005D01*
X175841244Y-112296023D01*
X175841241Y-112296024D01*
X175841239Y-112296025D01*
X175680825Y-112344686D01*
X175680824Y-112344686D01*
X175680821Y-112344687D01*
X175555804Y-112357000D01*
X175472196Y-112357000D01*
X175347179Y-112344687D01*
X175347176Y-112344686D01*
X175347175Y-112344686D01*
X175186761Y-112296025D01*
X175186759Y-112296024D01*
X175186756Y-112296023D01*
X175038922Y-112217005D01*
X174909341Y-112110659D01*
X174802995Y-111981078D01*
X174723977Y-111833244D01*
X174708856Y-111783396D01*
X174675314Y-111672825D01*
X174675314Y-111672824D01*
X174675313Y-111672821D01*
X174658883Y-111506000D01*
X174675313Y-111339179D01*
X174675314Y-111339175D01*
X174723975Y-111178761D01*
X174723976Y-111178759D01*
X174723977Y-111178756D01*
X174802995Y-111030922D01*
X174909341Y-110901341D01*
X175038922Y-110794995D01*
X175186756Y-110715977D01*
X175186759Y-110715976D01*
X175186761Y-110715975D01*
X175347175Y-110667314D01*
X175347176Y-110667314D01*
X175347179Y-110667313D01*
X175472196Y-110655000D01*
X175555804Y-110655000D01*
X175680821Y-110667313D01*
X175680821Y-110667313D01*
G37*
G36*
X168060821Y-110667313D02*
X168060824Y-110667314D01*
X168060825Y-110667314D01*
X168221239Y-110715975D01*
X168221241Y-110715976D01*
X168221244Y-110715977D01*
X168369078Y-110794995D01*
X168498659Y-110901341D01*
X168605005Y-111030922D01*
X168684023Y-111178756D01*
X168684024Y-111178759D01*
X168684025Y-111178761D01*
X168732686Y-111339175D01*
X168732687Y-111339179D01*
X168749117Y-111506000D01*
X168732687Y-111672821D01*
X168732686Y-111672824D01*
X168732686Y-111672825D01*
X168699145Y-111783396D01*
X168684023Y-111833244D01*
X168605005Y-111981078D01*
X168498659Y-112110659D01*
X168369078Y-112217005D01*
X168221244Y-112296023D01*
X168221241Y-112296024D01*
X168221239Y-112296025D01*
X168060825Y-112344686D01*
X168060824Y-112344686D01*
X168060821Y-112344687D01*
X167935804Y-112357000D01*
X167852196Y-112357000D01*
X167727179Y-112344687D01*
X167727176Y-112344686D01*
X167727175Y-112344686D01*
X167566761Y-112296025D01*
X167566759Y-112296024D01*
X167566756Y-112296023D01*
X167418922Y-112217005D01*
X167289341Y-112110659D01*
X167182995Y-111981078D01*
X167103977Y-111833244D01*
X167088856Y-111783396D01*
X167055314Y-111672825D01*
X167055314Y-111672824D01*
X167055313Y-111672821D01*
X167038883Y-111506000D01*
X167055313Y-111339179D01*
X167055314Y-111339175D01*
X167103975Y-111178761D01*
X167103976Y-111178759D01*
X167103977Y-111178756D01*
X167182995Y-111030922D01*
X167289341Y-110901341D01*
X167418922Y-110794995D01*
X167566756Y-110715977D01*
X167566759Y-110715976D01*
X167566761Y-110715975D01*
X167727175Y-110667314D01*
X167727176Y-110667314D01*
X167727179Y-110667313D01*
X167852196Y-110655000D01*
X167935804Y-110655000D01*
X168060821Y-110667313D01*
X168060821Y-110667313D01*
G37*
G36*
X163091396Y-108051546D02*
X163264466Y-108123234D01*
X163420230Y-108227312D01*
X163552688Y-108359770D01*
X163656766Y-108515534D01*
X163728454Y-108688604D01*
X163765000Y-108872333D01*
X163765000Y-109059667D01*
X163728454Y-109243396D01*
X163656766Y-109416466D01*
X163552688Y-109572230D01*
X163420230Y-109704688D01*
X163264466Y-109808766D01*
X163091396Y-109880454D01*
X162907667Y-109917000D01*
X162720333Y-109917000D01*
X162536604Y-109880454D01*
X162363534Y-109808766D01*
X162207770Y-109704688D01*
X162075312Y-109572230D01*
X161971234Y-109416466D01*
X161899546Y-109243396D01*
X161863000Y-109059667D01*
X161863000Y-108872333D01*
X161899546Y-108688604D01*
X161971234Y-108515534D01*
X162075312Y-108359770D01*
X162207770Y-108227312D01*
X162363534Y-108123234D01*
X162536604Y-108051546D01*
X162720333Y-108015000D01*
X162907667Y-108015000D01*
X163091396Y-108051546D01*
X163091396Y-108051546D01*
G37*
G36*
X140231396Y-108051546D02*
X140404466Y-108123234D01*
X140560230Y-108227312D01*
X140692688Y-108359770D01*
X140796766Y-108515534D01*
X140868454Y-108688604D01*
X140905000Y-108872333D01*
X140905000Y-109059667D01*
X140868454Y-109243396D01*
X140796766Y-109416466D01*
X140692688Y-109572230D01*
X140560230Y-109704688D01*
X140404466Y-109808766D01*
X140231396Y-109880454D01*
X140047667Y-109917000D01*
X139860333Y-109917000D01*
X139676604Y-109880454D01*
X139503534Y-109808766D01*
X139347770Y-109704688D01*
X139215312Y-109572230D01*
X139111234Y-109416466D01*
X139039546Y-109243396D01*
X139003000Y-109059667D01*
X139003000Y-108872333D01*
X139039546Y-108688604D01*
X139111234Y-108515534D01*
X139215312Y-108359770D01*
X139347770Y-108227312D01*
X139503534Y-108123234D01*
X139676604Y-108051546D01*
X139860333Y-108015000D01*
X140047667Y-108015000D01*
X140231396Y-108051546D01*
X140231396Y-108051546D01*
G37*
G36*
X168745000Y-109817000D02*
X167043000Y-109817000D01*
X167043000Y-108115000D01*
X168745000Y-108115000D01*
X168745000Y-109817000D01*
X168745000Y-109817000D01*
G37*
G36*
X175680821Y-108127313D02*
X175680824Y-108127314D01*
X175680825Y-108127314D01*
X175841239Y-108175975D01*
X175841241Y-108175976D01*
X175841244Y-108175977D01*
X175989078Y-108254995D01*
X176118659Y-108361341D01*
X176225005Y-108490922D01*
X176304023Y-108638756D01*
X176304024Y-108638759D01*
X176304025Y-108638761D01*
X176352686Y-108799175D01*
X176352687Y-108799179D01*
X176369117Y-108966000D01*
X176352687Y-109132821D01*
X176352686Y-109132824D01*
X176352686Y-109132825D01*
X176315690Y-109254786D01*
X176304023Y-109293244D01*
X176225005Y-109441078D01*
X176118659Y-109570659D01*
X175989078Y-109677005D01*
X175841244Y-109756023D01*
X175841241Y-109756024D01*
X175841239Y-109756025D01*
X175680825Y-109804686D01*
X175680824Y-109804686D01*
X175680821Y-109804687D01*
X175555804Y-109817000D01*
X175472196Y-109817000D01*
X175347179Y-109804687D01*
X175347176Y-109804686D01*
X175347175Y-109804686D01*
X175186761Y-109756025D01*
X175186759Y-109756024D01*
X175186756Y-109756023D01*
X175038922Y-109677005D01*
X174909341Y-109570659D01*
X174802995Y-109441078D01*
X174723977Y-109293244D01*
X174712311Y-109254786D01*
X174675314Y-109132825D01*
X174675314Y-109132824D01*
X174675313Y-109132821D01*
X174658883Y-108966000D01*
X174675313Y-108799179D01*
X174675314Y-108799175D01*
X174723975Y-108638761D01*
X174723976Y-108638759D01*
X174723977Y-108638756D01*
X174802995Y-108490922D01*
X174909341Y-108361341D01*
X175038922Y-108254995D01*
X175186756Y-108175977D01*
X175186759Y-108175976D01*
X175186761Y-108175975D01*
X175347175Y-108127314D01*
X175347176Y-108127314D01*
X175347179Y-108127313D01*
X175472196Y-108115000D01*
X175555804Y-108115000D01*
X175680821Y-108127313D01*
X175680821Y-108127313D01*
G37*
G36*
X155013665Y-108218622D02*
X155087222Y-108225867D01*
X155228786Y-108268810D01*
X155359252Y-108338546D01*
X155473606Y-108432394D01*
X155567454Y-108546748D01*
X155637190Y-108677214D01*
X155680133Y-108818778D01*
X155694633Y-108966000D01*
X155680133Y-109113222D01*
X155637190Y-109254786D01*
X155567454Y-109385252D01*
X155473606Y-109499606D01*
X155359252Y-109593454D01*
X155228786Y-109663190D01*
X155087222Y-109706133D01*
X155013665Y-109713378D01*
X154976888Y-109717000D01*
X154903112Y-109717000D01*
X154866335Y-109713378D01*
X154792778Y-109706133D01*
X154651214Y-109663190D01*
X154520748Y-109593454D01*
X154406394Y-109499606D01*
X154312546Y-109385252D01*
X154242810Y-109254786D01*
X154199867Y-109113222D01*
X154185367Y-108966000D01*
X154199867Y-108818778D01*
X154242810Y-108677214D01*
X154312546Y-108546748D01*
X154406394Y-108432394D01*
X154520748Y-108338546D01*
X154651214Y-108268810D01*
X154792778Y-108225867D01*
X154866335Y-108218622D01*
X154903112Y-108215000D01*
X154976888Y-108215000D01*
X155013665Y-108218622D01*
X155013665Y-108218622D01*
G37*
G36*
X152473665Y-108218622D02*
X152547222Y-108225867D01*
X152688786Y-108268810D01*
X152819252Y-108338546D01*
X152933606Y-108432394D01*
X153027454Y-108546748D01*
X153097190Y-108677214D01*
X153140133Y-108818778D01*
X153154633Y-108966000D01*
X153140133Y-109113222D01*
X153097190Y-109254786D01*
X153027454Y-109385252D01*
X152933606Y-109499606D01*
X152819252Y-109593454D01*
X152688786Y-109663190D01*
X152547222Y-109706133D01*
X152473665Y-109713378D01*
X152436888Y-109717000D01*
X152363112Y-109717000D01*
X152326335Y-109713378D01*
X152252778Y-109706133D01*
X152111214Y-109663190D01*
X151980748Y-109593454D01*
X151866394Y-109499606D01*
X151772546Y-109385252D01*
X151702810Y-109254786D01*
X151659867Y-109113222D01*
X151645367Y-108966000D01*
X151659867Y-108818778D01*
X151702810Y-108677214D01*
X151772546Y-108546748D01*
X151866394Y-108432394D01*
X151980748Y-108338546D01*
X152111214Y-108268810D01*
X152252778Y-108225867D01*
X152326335Y-108218622D01*
X152363112Y-108215000D01*
X152436888Y-108215000D01*
X152473665Y-108218622D01*
X152473665Y-108218622D01*
G37*
G36*
X157553665Y-108218622D02*
X157627222Y-108225867D01*
X157768786Y-108268810D01*
X157899252Y-108338546D01*
X158013606Y-108432394D01*
X158107454Y-108546748D01*
X158177190Y-108677214D01*
X158220133Y-108818778D01*
X158234633Y-108966000D01*
X158220133Y-109113222D01*
X158177190Y-109254786D01*
X158107454Y-109385252D01*
X158013606Y-109499606D01*
X157899252Y-109593454D01*
X157768786Y-109663190D01*
X157627222Y-109706133D01*
X157553665Y-109713378D01*
X157516888Y-109717000D01*
X157443112Y-109717000D01*
X157406335Y-109713378D01*
X157332778Y-109706133D01*
X157191214Y-109663190D01*
X157060748Y-109593454D01*
X156946394Y-109499606D01*
X156852546Y-109385252D01*
X156782810Y-109254786D01*
X156739867Y-109113222D01*
X156725367Y-108966000D01*
X156739867Y-108818778D01*
X156782810Y-108677214D01*
X156852546Y-108546748D01*
X156946394Y-108432394D01*
X157060748Y-108338546D01*
X157191214Y-108268810D01*
X157332778Y-108225867D01*
X157406335Y-108218622D01*
X157443112Y-108215000D01*
X157516888Y-108215000D01*
X157553665Y-108218622D01*
X157553665Y-108218622D01*
G37*
G36*
X160093665Y-108218622D02*
X160167222Y-108225867D01*
X160308786Y-108268810D01*
X160439252Y-108338546D01*
X160553606Y-108432394D01*
X160647454Y-108546748D01*
X160717190Y-108677214D01*
X160760133Y-108818778D01*
X160774633Y-108966000D01*
X160760133Y-109113222D01*
X160717190Y-109254786D01*
X160647454Y-109385252D01*
X160553606Y-109499606D01*
X160439252Y-109593454D01*
X160308786Y-109663190D01*
X160167222Y-109706133D01*
X160093665Y-109713378D01*
X160056888Y-109717000D01*
X159983112Y-109717000D01*
X159946335Y-109713378D01*
X159872778Y-109706133D01*
X159731214Y-109663190D01*
X159600748Y-109593454D01*
X159486394Y-109499606D01*
X159392546Y-109385252D01*
X159322810Y-109254786D01*
X159279867Y-109113222D01*
X159265367Y-108966000D01*
X159279867Y-108818778D01*
X159322810Y-108677214D01*
X159392546Y-108546748D01*
X159486394Y-108432394D01*
X159600748Y-108338546D01*
X159731214Y-108268810D01*
X159872778Y-108225867D01*
X159946335Y-108218622D01*
X159983112Y-108215000D01*
X160056888Y-108215000D01*
X160093665Y-108218622D01*
X160093665Y-108218622D01*
G37*
G36*
X140231396Y-105511546D02*
X140404466Y-105583234D01*
X140560230Y-105687312D01*
X140692688Y-105819770D01*
X140796766Y-105975534D01*
X140868454Y-106148604D01*
X140905000Y-106332333D01*
X140905000Y-106519667D01*
X140868454Y-106703396D01*
X140796766Y-106876466D01*
X140692688Y-107032230D01*
X140560230Y-107164688D01*
X140404466Y-107268766D01*
X140231396Y-107340454D01*
X140047667Y-107377000D01*
X139860333Y-107377000D01*
X139676604Y-107340454D01*
X139503534Y-107268766D01*
X139347770Y-107164688D01*
X139215312Y-107032230D01*
X139111234Y-106876466D01*
X139039546Y-106703396D01*
X139003000Y-106519667D01*
X139003000Y-106332333D01*
X139039546Y-106148604D01*
X139111234Y-105975534D01*
X139215312Y-105819770D01*
X139347770Y-105687312D01*
X139503534Y-105583234D01*
X139676604Y-105511546D01*
X139860333Y-105475000D01*
X140047667Y-105475000D01*
X140231396Y-105511546D01*
X140231396Y-105511546D01*
G37*
G36*
X163091396Y-105511546D02*
X163264466Y-105583234D01*
X163420230Y-105687312D01*
X163552688Y-105819770D01*
X163656766Y-105975534D01*
X163728454Y-106148604D01*
X163765000Y-106332333D01*
X163765000Y-106519667D01*
X163728454Y-106703396D01*
X163656766Y-106876466D01*
X163552688Y-107032230D01*
X163420230Y-107164688D01*
X163264466Y-107268766D01*
X163091396Y-107340454D01*
X162907667Y-107377000D01*
X162720333Y-107377000D01*
X162536604Y-107340454D01*
X162363534Y-107268766D01*
X162207770Y-107164688D01*
X162075312Y-107032230D01*
X161971234Y-106876466D01*
X161899546Y-106703396D01*
X161863000Y-106519667D01*
X161863000Y-106332333D01*
X161899546Y-106148604D01*
X161971234Y-105975534D01*
X162075312Y-105819770D01*
X162207770Y-105687312D01*
X162363534Y-105583234D01*
X162536604Y-105511546D01*
X162720333Y-105475000D01*
X162907667Y-105475000D01*
X163091396Y-105511546D01*
X163091396Y-105511546D01*
G37*
G36*
X140231396Y-102971546D02*
X140404466Y-103043234D01*
X140560230Y-103147312D01*
X140692688Y-103279770D01*
X140796766Y-103435534D01*
X140868454Y-103608604D01*
X140905000Y-103792333D01*
X140905000Y-103979667D01*
X140868454Y-104163396D01*
X140796766Y-104336466D01*
X140692688Y-104492230D01*
X140560230Y-104624688D01*
X140404466Y-104728766D01*
X140231396Y-104800454D01*
X140047667Y-104837000D01*
X139860333Y-104837000D01*
X139676604Y-104800454D01*
X139503534Y-104728766D01*
X139347770Y-104624688D01*
X139215312Y-104492230D01*
X139111234Y-104336466D01*
X139039546Y-104163396D01*
X139003000Y-103979667D01*
X139003000Y-103792333D01*
X139039546Y-103608604D01*
X139111234Y-103435534D01*
X139215312Y-103279770D01*
X139347770Y-103147312D01*
X139503534Y-103043234D01*
X139676604Y-102971546D01*
X139860333Y-102935000D01*
X140047667Y-102935000D01*
X140231396Y-102971546D01*
X140231396Y-102971546D01*
G37*
G36*
X163091396Y-102971546D02*
X163264466Y-103043234D01*
X163420230Y-103147312D01*
X163552688Y-103279770D01*
X163656766Y-103435534D01*
X163728454Y-103608604D01*
X163765000Y-103792333D01*
X163765000Y-103979667D01*
X163728454Y-104163396D01*
X163656766Y-104336466D01*
X163552688Y-104492230D01*
X163420230Y-104624688D01*
X163264466Y-104728766D01*
X163091396Y-104800454D01*
X162907667Y-104837000D01*
X162720333Y-104837000D01*
X162536604Y-104800454D01*
X162363534Y-104728766D01*
X162207770Y-104624688D01*
X162075312Y-104492230D01*
X161971234Y-104336466D01*
X161899546Y-104163396D01*
X161863000Y-103979667D01*
X161863000Y-103792333D01*
X161899546Y-103608604D01*
X161971234Y-103435534D01*
X162075312Y-103279770D01*
X162207770Y-103147312D01*
X162363534Y-103043234D01*
X162536604Y-102971546D01*
X162720333Y-102935000D01*
X162907667Y-102935000D01*
X163091396Y-102971546D01*
X163091396Y-102971546D01*
G37*
G36*
X160152004Y-100606544D02*
X160239059Y-100623860D01*
X160375732Y-100680472D01*
X160375733Y-100680473D01*
X160498738Y-100762662D01*
X160603338Y-100867262D01*
X160603340Y-100867265D01*
X160685528Y-100990268D01*
X160742140Y-101126941D01*
X160771000Y-101272033D01*
X160771000Y-101419967D01*
X160742140Y-101565059D01*
X160685528Y-101701732D01*
X160685527Y-101701733D01*
X160603338Y-101824738D01*
X160498738Y-101929338D01*
X160498735Y-101929340D01*
X160375732Y-102011528D01*
X160239059Y-102068140D01*
X160152004Y-102085456D01*
X160093969Y-102097000D01*
X159946031Y-102097000D01*
X159887996Y-102085456D01*
X159800941Y-102068140D01*
X159664268Y-102011528D01*
X159541265Y-101929340D01*
X159541262Y-101929338D01*
X159436662Y-101824738D01*
X159354473Y-101701733D01*
X159354472Y-101701732D01*
X159297860Y-101565059D01*
X159269000Y-101419967D01*
X159269000Y-101272033D01*
X159297860Y-101126941D01*
X159354472Y-100990268D01*
X159436660Y-100867265D01*
X159436662Y-100867262D01*
X159541262Y-100762662D01*
X159664267Y-100680473D01*
X159664268Y-100680472D01*
X159800941Y-100623860D01*
X159887996Y-100606544D01*
X159946031Y-100595000D01*
X160093969Y-100595000D01*
X160152004Y-100606544D01*
X160152004Y-100606544D01*
G37*
G36*
X152532004Y-100606544D02*
X152619059Y-100623860D01*
X152755732Y-100680472D01*
X152755733Y-100680473D01*
X152878738Y-100762662D01*
X152983338Y-100867262D01*
X152983340Y-100867265D01*
X153065528Y-100990268D01*
X153122140Y-101126941D01*
X153151000Y-101272033D01*
X153151000Y-101419967D01*
X153122140Y-101565059D01*
X153065528Y-101701732D01*
X153065527Y-101701733D01*
X152983338Y-101824738D01*
X152878738Y-101929338D01*
X152878735Y-101929340D01*
X152755732Y-102011528D01*
X152619059Y-102068140D01*
X152532004Y-102085456D01*
X152473969Y-102097000D01*
X152326031Y-102097000D01*
X152267996Y-102085456D01*
X152180941Y-102068140D01*
X152044268Y-102011528D01*
X151921265Y-101929340D01*
X151921262Y-101929338D01*
X151816662Y-101824738D01*
X151734473Y-101701733D01*
X151734472Y-101701732D01*
X151677860Y-101565059D01*
X151649000Y-101419967D01*
X151649000Y-101272033D01*
X151677860Y-101126941D01*
X151734472Y-100990268D01*
X151816660Y-100867265D01*
X151816662Y-100867262D01*
X151921262Y-100762662D01*
X152044267Y-100680473D01*
X152044268Y-100680472D01*
X152180941Y-100623860D01*
X152267996Y-100606544D01*
X152326031Y-100595000D01*
X152473969Y-100595000D01*
X152532004Y-100606544D01*
X152532004Y-100606544D01*
G37*
G36*
X155072004Y-100606544D02*
X155159059Y-100623860D01*
X155295732Y-100680472D01*
X155295733Y-100680473D01*
X155418738Y-100762662D01*
X155523338Y-100867262D01*
X155523340Y-100867265D01*
X155605528Y-100990268D01*
X155662140Y-101126941D01*
X155691000Y-101272033D01*
X155691000Y-101419967D01*
X155662140Y-101565059D01*
X155605528Y-101701732D01*
X155605527Y-101701733D01*
X155523338Y-101824738D01*
X155418738Y-101929338D01*
X155418735Y-101929340D01*
X155295732Y-102011528D01*
X155159059Y-102068140D01*
X155072004Y-102085456D01*
X155013969Y-102097000D01*
X154866031Y-102097000D01*
X154807996Y-102085456D01*
X154720941Y-102068140D01*
X154584268Y-102011528D01*
X154461265Y-101929340D01*
X154461262Y-101929338D01*
X154356662Y-101824738D01*
X154274473Y-101701733D01*
X154274472Y-101701732D01*
X154217860Y-101565059D01*
X154189000Y-101419967D01*
X154189000Y-101272033D01*
X154217860Y-101126941D01*
X154274472Y-100990268D01*
X154356660Y-100867265D01*
X154356662Y-100867262D01*
X154461262Y-100762662D01*
X154584267Y-100680473D01*
X154584268Y-100680472D01*
X154720941Y-100623860D01*
X154807996Y-100606544D01*
X154866031Y-100595000D01*
X155013969Y-100595000D01*
X155072004Y-100606544D01*
X155072004Y-100606544D01*
G37*
G36*
X157612004Y-100606544D02*
X157699059Y-100623860D01*
X157835732Y-100680472D01*
X157835733Y-100680473D01*
X157958738Y-100762662D01*
X158063338Y-100867262D01*
X158063340Y-100867265D01*
X158145528Y-100990268D01*
X158202140Y-101126941D01*
X158231000Y-101272033D01*
X158231000Y-101419967D01*
X158202140Y-101565059D01*
X158145528Y-101701732D01*
X158145527Y-101701733D01*
X158063338Y-101824738D01*
X157958738Y-101929338D01*
X157958735Y-101929340D01*
X157835732Y-102011528D01*
X157699059Y-102068140D01*
X157612004Y-102085456D01*
X157553969Y-102097000D01*
X157406031Y-102097000D01*
X157347996Y-102085456D01*
X157260941Y-102068140D01*
X157124268Y-102011528D01*
X157001265Y-101929340D01*
X157001262Y-101929338D01*
X156896662Y-101824738D01*
X156814473Y-101701733D01*
X156814472Y-101701732D01*
X156757860Y-101565059D01*
X156729000Y-101419967D01*
X156729000Y-101272033D01*
X156757860Y-101126941D01*
X156814472Y-100990268D01*
X156896660Y-100867265D01*
X156896662Y-100867262D01*
X157001262Y-100762662D01*
X157124267Y-100680473D01*
X157124268Y-100680472D01*
X157260941Y-100623860D01*
X157347996Y-100606544D01*
X157406031Y-100595000D01*
X157553969Y-100595000D01*
X157612004Y-100606544D01*
X157612004Y-100606544D01*
G37*
G36*
X142191928Y-80752710D02*
X142191931Y-80752711D01*
X142191932Y-80752711D01*
X142389950Y-80812779D01*
X142389952Y-80812780D01*
X142389955Y-80812781D01*
X142572445Y-80910323D01*
X142732402Y-81041598D01*
X142863677Y-81201555D01*
X142961219Y-81384045D01*
X143021290Y-81582072D01*
X143041572Y-81788000D01*
X143021290Y-81993928D01*
X142961219Y-82191955D01*
X142863677Y-82374445D01*
X142732402Y-82534402D01*
X142572445Y-82665677D01*
X142389955Y-82763219D01*
X142389952Y-82763220D01*
X142389950Y-82763221D01*
X142191932Y-82823289D01*
X142191931Y-82823289D01*
X142191928Y-82823290D01*
X142037601Y-82838490D01*
X141934399Y-82838490D01*
X141780072Y-82823290D01*
X141780069Y-82823289D01*
X141780068Y-82823289D01*
X141582050Y-82763221D01*
X141582048Y-82763220D01*
X141582045Y-82763219D01*
X141399555Y-82665677D01*
X141239598Y-82534402D01*
X141108323Y-82374445D01*
X141010781Y-82191955D01*
X140950710Y-81993928D01*
X140930428Y-81788000D01*
X140950710Y-81582072D01*
X141010781Y-81384045D01*
X141108323Y-81201555D01*
X141239598Y-81041598D01*
X141399555Y-80910323D01*
X141582045Y-80812781D01*
X141582048Y-80812780D01*
X141582050Y-80812779D01*
X141780068Y-80752711D01*
X141780069Y-80752711D01*
X141780072Y-80752710D01*
X141934399Y-80737510D01*
X142037601Y-80737510D01*
X142191928Y-80752710D01*
X142191928Y-80752710D01*
G37*
G36*
X139651928Y-80752710D02*
X139651931Y-80752711D01*
X139651932Y-80752711D01*
X139849950Y-80812779D01*
X139849952Y-80812780D01*
X139849955Y-80812781D01*
X140032445Y-80910323D01*
X140192402Y-81041598D01*
X140323677Y-81201555D01*
X140421219Y-81384045D01*
X140481290Y-81582072D01*
X140501572Y-81788000D01*
X140481290Y-81993928D01*
X140421219Y-82191955D01*
X140323677Y-82374445D01*
X140192402Y-82534402D01*
X140032445Y-82665677D01*
X139849955Y-82763219D01*
X139849952Y-82763220D01*
X139849950Y-82763221D01*
X139651932Y-82823289D01*
X139651931Y-82823289D01*
X139651928Y-82823290D01*
X139497601Y-82838490D01*
X139394399Y-82838490D01*
X139240072Y-82823290D01*
X139240069Y-82823289D01*
X139240068Y-82823289D01*
X139042050Y-82763221D01*
X139042048Y-82763220D01*
X139042045Y-82763219D01*
X138859555Y-82665677D01*
X138699598Y-82534402D01*
X138568323Y-82374445D01*
X138470781Y-82191955D01*
X138410710Y-81993928D01*
X138390428Y-81788000D01*
X138410710Y-81582072D01*
X138470781Y-81384045D01*
X138568323Y-81201555D01*
X138699598Y-81041598D01*
X138859555Y-80910323D01*
X139042045Y-80812781D01*
X139042048Y-80812780D01*
X139042050Y-80812779D01*
X139240068Y-80752711D01*
X139240069Y-80752711D01*
X139240072Y-80752710D01*
X139394399Y-80737510D01*
X139497601Y-80737510D01*
X139651928Y-80752710D01*
X139651928Y-80752710D01*
G37*
G36*
X145576490Y-82838490D02*
X143475510Y-82838490D01*
X143475510Y-80737510D01*
X145576490Y-80737510D01*
X145576490Y-82838490D01*
X145576490Y-82838490D01*
G37*
G36*
X144701305Y-78670096D02*
X144810680Y-78715400D01*
X144909118Y-78781175D01*
X144992825Y-78864882D01*
X145058600Y-78963320D01*
X145103904Y-79072695D01*
X145127000Y-79188806D01*
X145127000Y-79307194D01*
X145103904Y-79423305D01*
X145058600Y-79532680D01*
X144992825Y-79631118D01*
X144909118Y-79714825D01*
X144810680Y-79780600D01*
X144701305Y-79825904D01*
X144585194Y-79849000D01*
X144466806Y-79849000D01*
X144350695Y-79825904D01*
X144241320Y-79780600D01*
X144142882Y-79714825D01*
X144059175Y-79631118D01*
X143993400Y-79532680D01*
X143948096Y-79423305D01*
X143925000Y-79307194D01*
X143925000Y-79188806D01*
X143948096Y-79072695D01*
X143993400Y-78963320D01*
X144059175Y-78864882D01*
X144142882Y-78781175D01*
X144241320Y-78715400D01*
X144350695Y-78670096D01*
X144466806Y-78647000D01*
X144585194Y-78647000D01*
X144701305Y-78670096D01*
X144701305Y-78670096D01*
G37*
G36*
X142161305Y-78670096D02*
X142270680Y-78715400D01*
X142369118Y-78781175D01*
X142452825Y-78864882D01*
X142518600Y-78963320D01*
X142563904Y-79072695D01*
X142587000Y-79188806D01*
X142587000Y-79307194D01*
X142563904Y-79423305D01*
X142518600Y-79532680D01*
X142452825Y-79631118D01*
X142369118Y-79714825D01*
X142270680Y-79780600D01*
X142161305Y-79825904D01*
X142045194Y-79849000D01*
X141926806Y-79849000D01*
X141810695Y-79825904D01*
X141701320Y-79780600D01*
X141602882Y-79714825D01*
X141519175Y-79631118D01*
X141453400Y-79532680D01*
X141408096Y-79423305D01*
X141385000Y-79307194D01*
X141385000Y-79188806D01*
X141408096Y-79072695D01*
X141453400Y-78963320D01*
X141519175Y-78864882D01*
X141602882Y-78781175D01*
X141701320Y-78715400D01*
X141810695Y-78670096D01*
X141926806Y-78647000D01*
X142045194Y-78647000D01*
X142161305Y-78670096D01*
X142161305Y-78670096D01*
G37*
G36*
X139621305Y-78670096D02*
X139730680Y-78715400D01*
X139829118Y-78781175D01*
X139912825Y-78864882D01*
X139978600Y-78963320D01*
X140023904Y-79072695D01*
X140047000Y-79188806D01*
X140047000Y-79307194D01*
X140023904Y-79423305D01*
X139978600Y-79532680D01*
X139912825Y-79631118D01*
X139829118Y-79714825D01*
X139730680Y-79780600D01*
X139621305Y-79825904D01*
X139505194Y-79849000D01*
X139386806Y-79849000D01*
X139270695Y-79825904D01*
X139161320Y-79780600D01*
X139062882Y-79714825D01*
X138979175Y-79631118D01*
X138913400Y-79532680D01*
X138868096Y-79423305D01*
X138845000Y-79307194D01*
X138845000Y-79188806D01*
X138868096Y-79072695D01*
X138913400Y-78963320D01*
X138979175Y-78864882D01*
X139062882Y-78781175D01*
X139161320Y-78715400D01*
X139270695Y-78670096D01*
X139386806Y-78647000D01*
X139505194Y-78647000D01*
X139621305Y-78670096D01*
X139621305Y-78670096D01*
G37*
M02*
