M48
METRIC,TZ
T1C0.700
T2C0.800
T3C1.016
T4C1.097
%
G90
G05
T1
X154940Y-101346
X157480Y-101346
X157480Y-108966
X145288Y-124460
X152908Y-124460
X160020Y-101346
X160020Y-108966
X145288Y-121920
X152908Y-121920
X154940Y-108966
X152400Y-101346
X152400Y-108966
T2
X167894Y-108966
X167894Y-111506
X167894Y-114046
X167894Y-116586
X175514Y-108966
X175514Y-111506
X175514Y-114046
X175514Y-116586
T3
X139954Y-103886
X139954Y-106426
X139954Y-108966
X139954Y-111506
X139954Y-114046
X139954Y-116586
X139954Y-119126
X139954Y-121666
X162814Y-103886
X162814Y-106426
X162814Y-108966
X162814Y-111506
X162814Y-114046
X162814Y-116586
X162814Y-119126
X162814Y-121666
T4
X153670Y-136652
X156210Y-136652
X160274Y-136652
X162814Y-136652
X146558Y-136652
X149098Y-136652
X139446Y-81788
X141986Y-81788
X144526Y-81788
X139954Y-136652
X142494Y-136652
X170942Y-136652
X173482Y-136652
T0
M30
