G04 #@! TF.GenerationSoftware,KiCad,Pcbnew,5.0.2-bee76a0~70~ubuntu18.04.1*
G04 #@! TF.CreationDate,2019-04-08T15:23:50+01:00*
G04 #@! TF.ProjectId,Bump Stop,42756d70-2053-4746-9f70-2e6b69636164,rev?*
G04 #@! TF.SameCoordinates,Original*
G04 #@! TF.FileFunction,Legend,Top*
G04 #@! TF.FilePolarity,Positive*
%FSLAX46Y46*%
G04 Gerber Fmt 4.6, Leading zero omitted, Abs format (unit mm)*
G04 Created by KiCad (PCBNEW 5.0.2-bee76a0~70~ubuntu18.04.1) date Mon Apr  8 15:23:50 2019*
%MOMM*%
%LPD*%
G01*
G04 APERTURE LIST*
%ADD10C,0.300000*%
%ADD11C,0.100000*%
%ADD12C,0.200000*%
%ADD13C,0.150000*%
%ADD14C,0.120000*%
G04 APERTURE END LIST*
D10*
X148182571Y-88832571D02*
X148468285Y-89832571D01*
X148754000Y-89118285D01*
X149039714Y-89832571D01*
X149325428Y-88832571D01*
X149754000Y-88832571D02*
X150039714Y-89832571D01*
X150325428Y-89118285D01*
X150611142Y-89832571D01*
X150896857Y-88832571D01*
X151325428Y-88832571D02*
X151611142Y-89832571D01*
X151896857Y-89118285D01*
X152182571Y-89832571D01*
X152468285Y-88832571D01*
X153039714Y-89689714D02*
X153111142Y-89761142D01*
X153039714Y-89832571D01*
X152968285Y-89761142D01*
X153039714Y-89689714D01*
X153039714Y-89832571D01*
X154396857Y-89832571D02*
X154396857Y-89046857D01*
X154325428Y-88904000D01*
X154182571Y-88832571D01*
X153896857Y-88832571D01*
X153754000Y-88904000D01*
X154396857Y-89761142D02*
X154254000Y-89832571D01*
X153896857Y-89832571D01*
X153754000Y-89761142D01*
X153682571Y-89618285D01*
X153682571Y-89475428D01*
X153754000Y-89332571D01*
X153896857Y-89261142D01*
X154254000Y-89261142D01*
X154396857Y-89189714D01*
X155039714Y-89761142D02*
X155182571Y-89832571D01*
X155468285Y-89832571D01*
X155611142Y-89761142D01*
X155682571Y-89618285D01*
X155682571Y-89546857D01*
X155611142Y-89404000D01*
X155468285Y-89332571D01*
X155254000Y-89332571D01*
X155111142Y-89261142D01*
X155039714Y-89118285D01*
X155039714Y-89046857D01*
X155111142Y-88904000D01*
X155254000Y-88832571D01*
X155468285Y-88832571D01*
X155611142Y-88904000D01*
X156111142Y-88832571D02*
X156682571Y-88832571D01*
X156325428Y-88332571D02*
X156325428Y-89618285D01*
X156396857Y-89761142D01*
X156539714Y-89832571D01*
X156682571Y-89832571D01*
X157182571Y-89832571D02*
X157182571Y-88832571D01*
X157182571Y-89118285D02*
X157254000Y-88975428D01*
X157325428Y-88904000D01*
X157468285Y-88832571D01*
X157611142Y-88832571D01*
X158325428Y-89832571D02*
X158182571Y-89761142D01*
X158111142Y-89689714D01*
X158039714Y-89546857D01*
X158039714Y-89118285D01*
X158111142Y-88975428D01*
X158182571Y-88904000D01*
X158325428Y-88832571D01*
X158539714Y-88832571D01*
X158682571Y-88904000D01*
X158754000Y-88975428D01*
X158825428Y-89118285D01*
X158825428Y-89546857D01*
X158754000Y-89689714D01*
X158682571Y-89761142D01*
X158539714Y-89832571D01*
X158325428Y-89832571D01*
X159468285Y-89832571D02*
X159468285Y-88832571D01*
X159468285Y-88975428D02*
X159539714Y-88904000D01*
X159682571Y-88832571D01*
X159896857Y-88832571D01*
X160039714Y-88904000D01*
X160111142Y-89046857D01*
X160111142Y-89832571D01*
X160111142Y-89046857D02*
X160182571Y-88904000D01*
X160325428Y-88832571D01*
X160539714Y-88832571D01*
X160682571Y-88904000D01*
X160754000Y-89046857D01*
X160754000Y-89832571D01*
X162039714Y-89761142D02*
X161896857Y-89832571D01*
X161611142Y-89832571D01*
X161468285Y-89761142D01*
X161396857Y-89618285D01*
X161396857Y-89046857D01*
X161468285Y-88904000D01*
X161611142Y-88832571D01*
X161896857Y-88832571D01*
X162039714Y-88904000D01*
X162111142Y-89046857D01*
X162111142Y-89189714D01*
X161396857Y-89332571D01*
X163396857Y-89761142D02*
X163254000Y-89832571D01*
X162968285Y-89832571D01*
X162825428Y-89761142D01*
X162754000Y-89689714D01*
X162682571Y-89546857D01*
X162682571Y-89118285D01*
X162754000Y-88975428D01*
X162825428Y-88904000D01*
X162968285Y-88832571D01*
X163254000Y-88832571D01*
X163396857Y-88904000D01*
X164039714Y-89832571D02*
X164039714Y-88332571D01*
X164682571Y-89832571D02*
X164682571Y-89046857D01*
X164611142Y-88904000D01*
X164468285Y-88832571D01*
X164254000Y-88832571D01*
X164111142Y-88904000D01*
X164039714Y-88975428D01*
X165396857Y-89689714D02*
X165468285Y-89761142D01*
X165396857Y-89832571D01*
X165325428Y-89761142D01*
X165396857Y-89689714D01*
X165396857Y-89832571D01*
X166111142Y-89832571D02*
X166111142Y-88832571D01*
X166111142Y-88332571D02*
X166039714Y-88404000D01*
X166111142Y-88475428D01*
X166182571Y-88404000D01*
X166111142Y-88332571D01*
X166111142Y-88475428D01*
X166825428Y-88832571D02*
X166825428Y-89832571D01*
X166825428Y-88975428D02*
X166896857Y-88904000D01*
X167039714Y-88832571D01*
X167254000Y-88832571D01*
X167396857Y-88904000D01*
X167468285Y-89046857D01*
X167468285Y-89832571D01*
X167968285Y-88832571D02*
X168539714Y-88832571D01*
X168182571Y-89832571D02*
X168182571Y-88546857D01*
X168254000Y-88404000D01*
X168396857Y-88332571D01*
X168539714Y-88332571D01*
X169254000Y-89832571D02*
X169111142Y-89761142D01*
X169039714Y-89689714D01*
X168968285Y-89546857D01*
X168968285Y-89118285D01*
X169039714Y-88975428D01*
X169111142Y-88904000D01*
X169254000Y-88832571D01*
X169468285Y-88832571D01*
X169611142Y-88904000D01*
X169682571Y-88975428D01*
X169754000Y-89118285D01*
X169754000Y-89546857D01*
X169682571Y-89689714D01*
X169611142Y-89761142D01*
X169468285Y-89832571D01*
X169254000Y-89832571D01*
X172382571Y-123884285D02*
X170882571Y-123884285D01*
X171954000Y-123384285D01*
X170882571Y-122884285D01*
X172382571Y-122884285D01*
X172311142Y-122241428D02*
X172382571Y-122027142D01*
X172382571Y-121670000D01*
X172311142Y-121527142D01*
X172239714Y-121455714D01*
X172096857Y-121384285D01*
X171954000Y-121384285D01*
X171811142Y-121455714D01*
X171739714Y-121527142D01*
X171668285Y-121670000D01*
X171596857Y-121955714D01*
X171525428Y-122098571D01*
X171454000Y-122170000D01*
X171311142Y-122241428D01*
X171168285Y-122241428D01*
X171025428Y-122170000D01*
X170954000Y-122098571D01*
X170882571Y-121955714D01*
X170882571Y-121598571D01*
X170954000Y-121384285D01*
X171596857Y-120241428D02*
X171668285Y-120027142D01*
X171739714Y-119955714D01*
X171882571Y-119884285D01*
X172096857Y-119884285D01*
X172239714Y-119955714D01*
X172311142Y-120027142D01*
X172382571Y-120170000D01*
X172382571Y-120741428D01*
X170882571Y-120741428D01*
X170882571Y-120241428D01*
X170954000Y-120098571D01*
X171025428Y-120027142D01*
X171168285Y-119955714D01*
X171311142Y-119955714D01*
X171454000Y-120027142D01*
X171525428Y-120098571D01*
X171596857Y-120241428D01*
X171596857Y-120741428D01*
X172128571Y-104886000D02*
X172128571Y-105600285D01*
X170628571Y-105600285D01*
X172057142Y-104457428D02*
X172128571Y-104243142D01*
X172128571Y-103886000D01*
X172057142Y-103743142D01*
X171985714Y-103671714D01*
X171842857Y-103600285D01*
X171700000Y-103600285D01*
X171557142Y-103671714D01*
X171485714Y-103743142D01*
X171414285Y-103886000D01*
X171342857Y-104171714D01*
X171271428Y-104314571D01*
X171200000Y-104386000D01*
X171057142Y-104457428D01*
X170914285Y-104457428D01*
X170771428Y-104386000D01*
X170700000Y-104314571D01*
X170628571Y-104171714D01*
X170628571Y-103814571D01*
X170700000Y-103600285D01*
X171342857Y-102457428D02*
X171414285Y-102243142D01*
X171485714Y-102171714D01*
X171628571Y-102100285D01*
X171842857Y-102100285D01*
X171985714Y-102171714D01*
X172057142Y-102243142D01*
X172128571Y-102386000D01*
X172128571Y-102957428D01*
X170628571Y-102957428D01*
X170628571Y-102457428D01*
X170700000Y-102314571D01*
X170771428Y-102243142D01*
X170914285Y-102171714D01*
X171057142Y-102171714D01*
X171200000Y-102243142D01*
X171271428Y-102314571D01*
X171342857Y-102457428D01*
X171342857Y-102957428D01*
D11*
X175220380Y-105648000D02*
X175220380Y-105362285D01*
X175268000Y-105219428D01*
X175363238Y-105076571D01*
X175553714Y-105005142D01*
X175887047Y-105005142D01*
X176077523Y-105076571D01*
X176172761Y-105219428D01*
X176220380Y-105362285D01*
X176220380Y-105648000D01*
X176172761Y-105790857D01*
X176077523Y-105933714D01*
X175887047Y-106005142D01*
X175553714Y-106005142D01*
X175363238Y-105933714D01*
X175268000Y-105790857D01*
X175220380Y-105648000D01*
X175553714Y-104576571D02*
X175553714Y-104005142D01*
X176220380Y-104362285D02*
X175363238Y-104362285D01*
X175268000Y-104290857D01*
X175220380Y-104148000D01*
X175220380Y-104005142D01*
X175553714Y-103719428D02*
X175553714Y-103148000D01*
X176220380Y-103505142D02*
X175363238Y-103505142D01*
X175268000Y-103433714D01*
X175220380Y-103290857D01*
X175220380Y-103148000D01*
X166330380Y-105469428D02*
X166330380Y-105183714D01*
X166378000Y-105040857D01*
X166473238Y-104898000D01*
X166663714Y-104826571D01*
X166997047Y-104826571D01*
X167187523Y-104898000D01*
X167282761Y-105040857D01*
X167330380Y-105183714D01*
X167330380Y-105469428D01*
X167282761Y-105612285D01*
X167187523Y-105755142D01*
X166997047Y-105826571D01*
X166663714Y-105826571D01*
X166473238Y-105755142D01*
X166378000Y-105612285D01*
X166330380Y-105469428D01*
X166663714Y-104183714D02*
X167330380Y-104183714D01*
X166758952Y-104183714D02*
X166711333Y-104112285D01*
X166663714Y-103969428D01*
X166663714Y-103755142D01*
X166711333Y-103612285D01*
X166806571Y-103540857D01*
X167330380Y-103540857D01*
D12*
X157750857Y-79794380D02*
X157750857Y-80603904D01*
X157798476Y-80699142D01*
X157846095Y-80746761D01*
X157941333Y-80794380D01*
X158131809Y-80794380D01*
X158227047Y-80746761D01*
X158274666Y-80699142D01*
X158322285Y-80603904D01*
X158322285Y-79794380D01*
X158798476Y-80794380D02*
X158798476Y-79794380D01*
X159369904Y-80794380D02*
X158941333Y-80222952D01*
X159369904Y-79794380D02*
X158798476Y-80365809D01*
X161131809Y-80794380D02*
X160798476Y-80318190D01*
X160560380Y-80794380D02*
X160560380Y-79794380D01*
X160941333Y-79794380D01*
X161036571Y-79842000D01*
X161084190Y-79889619D01*
X161131809Y-79984857D01*
X161131809Y-80127714D01*
X161084190Y-80222952D01*
X161036571Y-80270571D01*
X160941333Y-80318190D01*
X160560380Y-80318190D01*
X161512761Y-79889619D02*
X161560380Y-79842000D01*
X161655619Y-79794380D01*
X161893714Y-79794380D01*
X161988952Y-79842000D01*
X162036571Y-79889619D01*
X162084190Y-79984857D01*
X162084190Y-80080095D01*
X162036571Y-80222952D01*
X161465142Y-80794380D01*
X162084190Y-80794380D01*
X163608000Y-80270571D02*
X163750857Y-80318190D01*
X163798476Y-80365809D01*
X163846095Y-80461047D01*
X163846095Y-80603904D01*
X163798476Y-80699142D01*
X163750857Y-80746761D01*
X163655619Y-80794380D01*
X163274666Y-80794380D01*
X163274666Y-79794380D01*
X163608000Y-79794380D01*
X163703238Y-79842000D01*
X163750857Y-79889619D01*
X163798476Y-79984857D01*
X163798476Y-80080095D01*
X163750857Y-80175333D01*
X163703238Y-80222952D01*
X163608000Y-80270571D01*
X163274666Y-80270571D01*
X164703238Y-80127714D02*
X164703238Y-80794380D01*
X164274666Y-80127714D02*
X164274666Y-80651523D01*
X164322285Y-80746761D01*
X164417523Y-80794380D01*
X164560380Y-80794380D01*
X164655619Y-80746761D01*
X164703238Y-80699142D01*
X165179428Y-80794380D02*
X165179428Y-80127714D01*
X165179428Y-79794380D02*
X165131809Y-79842000D01*
X165179428Y-79889619D01*
X165227047Y-79842000D01*
X165179428Y-79794380D01*
X165179428Y-79889619D01*
X165798476Y-80794380D02*
X165703238Y-80746761D01*
X165655619Y-80651523D01*
X165655619Y-79794380D01*
X166608000Y-80794380D02*
X166608000Y-79794380D01*
X166608000Y-80746761D02*
X166512761Y-80794380D01*
X166322285Y-80794380D01*
X166227047Y-80746761D01*
X166179428Y-80699142D01*
X166131809Y-80603904D01*
X166131809Y-80318190D01*
X166179428Y-80222952D01*
X166227047Y-80175333D01*
X166322285Y-80127714D01*
X166512761Y-80127714D01*
X166608000Y-80175333D01*
X167465142Y-80746761D02*
X167369904Y-80794380D01*
X167179428Y-80794380D01*
X167084190Y-80746761D01*
X167036571Y-80651523D01*
X167036571Y-80270571D01*
X167084190Y-80175333D01*
X167179428Y-80127714D01*
X167369904Y-80127714D01*
X167465142Y-80175333D01*
X167512761Y-80270571D01*
X167512761Y-80365809D01*
X167036571Y-80461047D01*
X167941333Y-80794380D02*
X167941333Y-80127714D01*
X167941333Y-80318190D02*
X167988952Y-80222952D01*
X168036571Y-80175333D01*
X168131809Y-80127714D01*
X168227047Y-80127714D01*
X168512761Y-80746761D02*
X168608000Y-80794380D01*
X168798476Y-80794380D01*
X168893714Y-80746761D01*
X168941333Y-80651523D01*
X168941333Y-80603904D01*
X168893714Y-80508666D01*
X168798476Y-80461047D01*
X168655619Y-80461047D01*
X168560380Y-80413428D01*
X168512761Y-80318190D01*
X168512761Y-80270571D01*
X168560380Y-80175333D01*
X168655619Y-80127714D01*
X168798476Y-80127714D01*
X168893714Y-80175333D01*
X170084190Y-79889619D02*
X170131809Y-79842000D01*
X170227047Y-79794380D01*
X170465142Y-79794380D01*
X170560380Y-79842000D01*
X170608000Y-79889619D01*
X170655619Y-79984857D01*
X170655619Y-80080095D01*
X170608000Y-80222952D01*
X170036571Y-80794380D01*
X170655619Y-80794380D01*
X171274666Y-79794380D02*
X171369904Y-79794380D01*
X171465142Y-79842000D01*
X171512761Y-79889619D01*
X171560380Y-79984857D01*
X171608000Y-80175333D01*
X171608000Y-80413428D01*
X171560380Y-80603904D01*
X171512761Y-80699142D01*
X171465142Y-80746761D01*
X171369904Y-80794380D01*
X171274666Y-80794380D01*
X171179428Y-80746761D01*
X171131809Y-80699142D01*
X171084190Y-80603904D01*
X171036571Y-80413428D01*
X171036571Y-80175333D01*
X171084190Y-79984857D01*
X171131809Y-79889619D01*
X171179428Y-79842000D01*
X171274666Y-79794380D01*
X172560380Y-80794380D02*
X171988952Y-80794380D01*
X172274666Y-80794380D02*
X172274666Y-79794380D01*
X172179428Y-79937238D01*
X172084190Y-80032476D01*
X171988952Y-80080095D01*
X173036571Y-80794380D02*
X173227047Y-80794380D01*
X173322285Y-80746761D01*
X173369904Y-80699142D01*
X173465142Y-80556285D01*
X173512761Y-80365809D01*
X173512761Y-79984857D01*
X173465142Y-79889619D01*
X173417523Y-79842000D01*
X173322285Y-79794380D01*
X173131809Y-79794380D01*
X173036571Y-79842000D01*
X172988952Y-79889619D01*
X172941333Y-79984857D01*
X172941333Y-80222952D01*
X172988952Y-80318190D01*
X173036571Y-80365809D01*
X173131809Y-80413428D01*
X173322285Y-80413428D01*
X173417523Y-80365809D01*
X173465142Y-80318190D01*
X173512761Y-80222952D01*
X157441333Y-82494380D02*
X157441333Y-81494380D01*
X157679428Y-81494380D01*
X157822285Y-81542000D01*
X157917523Y-81637238D01*
X157965142Y-81732476D01*
X158012761Y-81922952D01*
X158012761Y-82065809D01*
X157965142Y-82256285D01*
X157917523Y-82351523D01*
X157822285Y-82446761D01*
X157679428Y-82494380D01*
X157441333Y-82494380D01*
X158441333Y-82494380D02*
X158441333Y-81827714D01*
X158441333Y-82018190D02*
X158488952Y-81922952D01*
X158536571Y-81875333D01*
X158631809Y-81827714D01*
X158727047Y-81827714D01*
X159060380Y-82494380D02*
X159060380Y-81827714D01*
X159060380Y-81494380D02*
X159012761Y-81542000D01*
X159060380Y-81589619D01*
X159108000Y-81542000D01*
X159060380Y-81494380D01*
X159060380Y-81589619D01*
X159441333Y-81827714D02*
X159679428Y-82494380D01*
X159917523Y-81827714D01*
X160298476Y-82494380D02*
X160298476Y-81827714D01*
X160298476Y-81494380D02*
X160250857Y-81542000D01*
X160298476Y-81589619D01*
X160346095Y-81542000D01*
X160298476Y-81494380D01*
X160298476Y-81589619D01*
X160774666Y-81827714D02*
X160774666Y-82494380D01*
X160774666Y-81922952D02*
X160822285Y-81875333D01*
X160917523Y-81827714D01*
X161060380Y-81827714D01*
X161155619Y-81875333D01*
X161203238Y-81970571D01*
X161203238Y-82494380D01*
X162108000Y-81827714D02*
X162108000Y-82637238D01*
X162060380Y-82732476D01*
X162012761Y-82780095D01*
X161917523Y-82827714D01*
X161774666Y-82827714D01*
X161679428Y-82780095D01*
X162108000Y-82446761D02*
X162012761Y-82494380D01*
X161822285Y-82494380D01*
X161727047Y-82446761D01*
X161679428Y-82399142D01*
X161631809Y-82303904D01*
X161631809Y-82018190D01*
X161679428Y-81922952D01*
X161727047Y-81875333D01*
X161822285Y-81827714D01*
X162012761Y-81827714D01*
X162108000Y-81875333D01*
X163917523Y-82399142D02*
X163869904Y-82446761D01*
X163727047Y-82494380D01*
X163631809Y-82494380D01*
X163488952Y-82446761D01*
X163393714Y-82351523D01*
X163346095Y-82256285D01*
X163298476Y-82065809D01*
X163298476Y-81922952D01*
X163346095Y-81732476D01*
X163393714Y-81637238D01*
X163488952Y-81542000D01*
X163631809Y-81494380D01*
X163727047Y-81494380D01*
X163869904Y-81542000D01*
X163917523Y-81589619D01*
X164488952Y-82494380D02*
X164393714Y-82446761D01*
X164346095Y-82399142D01*
X164298476Y-82303904D01*
X164298476Y-82018190D01*
X164346095Y-81922952D01*
X164393714Y-81875333D01*
X164488952Y-81827714D01*
X164631809Y-81827714D01*
X164727047Y-81875333D01*
X164774666Y-81922952D01*
X164822285Y-82018190D01*
X164822285Y-82303904D01*
X164774666Y-82399142D01*
X164727047Y-82446761D01*
X164631809Y-82494380D01*
X164488952Y-82494380D01*
X165679428Y-81827714D02*
X165679428Y-82494380D01*
X165250857Y-81827714D02*
X165250857Y-82351523D01*
X165298476Y-82446761D01*
X165393714Y-82494380D01*
X165536571Y-82494380D01*
X165631809Y-82446761D01*
X165679428Y-82399142D01*
X166155619Y-82494380D02*
X166155619Y-81827714D01*
X166155619Y-82018190D02*
X166203238Y-81922952D01*
X166250857Y-81875333D01*
X166346095Y-81827714D01*
X166441333Y-81827714D01*
X166727047Y-82446761D02*
X166822285Y-82494380D01*
X167012761Y-82494380D01*
X167108000Y-82446761D01*
X167155619Y-82351523D01*
X167155619Y-82303904D01*
X167108000Y-82208666D01*
X167012761Y-82161047D01*
X166869904Y-82161047D01*
X166774666Y-82113428D01*
X166727047Y-82018190D01*
X166727047Y-81970571D01*
X166774666Y-81875333D01*
X166869904Y-81827714D01*
X167012761Y-81827714D01*
X167108000Y-81875333D01*
X167965142Y-82446761D02*
X167869904Y-82494380D01*
X167679428Y-82494380D01*
X167584190Y-82446761D01*
X167536571Y-82351523D01*
X167536571Y-81970571D01*
X167584190Y-81875333D01*
X167679428Y-81827714D01*
X167869904Y-81827714D01*
X167965142Y-81875333D01*
X168012761Y-81970571D01*
X168012761Y-82065809D01*
X167536571Y-82161047D01*
X169155619Y-82446761D02*
X169298476Y-82494380D01*
X169536571Y-82494380D01*
X169631809Y-82446761D01*
X169679428Y-82399142D01*
X169727047Y-82303904D01*
X169727047Y-82208666D01*
X169679428Y-82113428D01*
X169631809Y-82065809D01*
X169536571Y-82018190D01*
X169346095Y-81970571D01*
X169250857Y-81922952D01*
X169203238Y-81875333D01*
X169155619Y-81780095D01*
X169155619Y-81684857D01*
X169203238Y-81589619D01*
X169250857Y-81542000D01*
X169346095Y-81494380D01*
X169584190Y-81494380D01*
X169727047Y-81542000D01*
X170536571Y-82446761D02*
X170441333Y-82494380D01*
X170250857Y-82494380D01*
X170155619Y-82446761D01*
X170108000Y-82351523D01*
X170108000Y-81970571D01*
X170155619Y-81875333D01*
X170250857Y-81827714D01*
X170441333Y-81827714D01*
X170536571Y-81875333D01*
X170584190Y-81970571D01*
X170584190Y-82065809D01*
X170108000Y-82161047D01*
X171012761Y-81827714D02*
X171012761Y-82494380D01*
X171012761Y-81922952D02*
X171060380Y-81875333D01*
X171155619Y-81827714D01*
X171298476Y-81827714D01*
X171393714Y-81875333D01*
X171441333Y-81970571D01*
X171441333Y-82494380D01*
X171869904Y-82446761D02*
X171965142Y-82494380D01*
X172155619Y-82494380D01*
X172250857Y-82446761D01*
X172298476Y-82351523D01*
X172298476Y-82303904D01*
X172250857Y-82208666D01*
X172155619Y-82161047D01*
X172012761Y-82161047D01*
X171917523Y-82113428D01*
X171869904Y-82018190D01*
X171869904Y-81970571D01*
X171917523Y-81875333D01*
X172012761Y-81827714D01*
X172155619Y-81827714D01*
X172250857Y-81875333D01*
X172869904Y-82494380D02*
X172774666Y-82446761D01*
X172727047Y-82399142D01*
X172679428Y-82303904D01*
X172679428Y-82018190D01*
X172727047Y-81922952D01*
X172774666Y-81875333D01*
X172869904Y-81827714D01*
X173012761Y-81827714D01*
X173108000Y-81875333D01*
X173155619Y-81922952D01*
X173203238Y-82018190D01*
X173203238Y-82303904D01*
X173155619Y-82399142D01*
X173108000Y-82446761D01*
X173012761Y-82494380D01*
X172869904Y-82494380D01*
X173631809Y-82494380D02*
X173631809Y-81827714D01*
X173631809Y-82018190D02*
X173679428Y-81922952D01*
X173727047Y-81875333D01*
X173822285Y-81827714D01*
X173917523Y-81827714D01*
X154203238Y-84575333D02*
X154155619Y-84527714D01*
X154060380Y-84384857D01*
X154012761Y-84289619D01*
X153965142Y-84146761D01*
X153917523Y-83908666D01*
X153917523Y-83718190D01*
X153965142Y-83480095D01*
X154012761Y-83337238D01*
X154060380Y-83242000D01*
X154155619Y-83099142D01*
X154203238Y-83051523D01*
X155012761Y-84146761D02*
X154917523Y-84194380D01*
X154727047Y-84194380D01*
X154631809Y-84146761D01*
X154584190Y-84099142D01*
X154536571Y-84003904D01*
X154536571Y-83718190D01*
X154584190Y-83622952D01*
X154631809Y-83575333D01*
X154727047Y-83527714D01*
X154917523Y-83527714D01*
X155012761Y-83575333D01*
X155346095Y-84575333D02*
X155393714Y-84527714D01*
X155488952Y-84384857D01*
X155536571Y-84289619D01*
X155584190Y-84146761D01*
X155631809Y-83908666D01*
X155631809Y-83718190D01*
X155584190Y-83480095D01*
X155536571Y-83337238D01*
X155488952Y-83242000D01*
X155393714Y-83099142D01*
X155346095Y-83051523D01*
X157298476Y-84194380D02*
X157298476Y-83194380D01*
X157298476Y-84146761D02*
X157203238Y-84194380D01*
X157012761Y-84194380D01*
X156917523Y-84146761D01*
X156869904Y-84099142D01*
X156822285Y-84003904D01*
X156822285Y-83718190D01*
X156869904Y-83622952D01*
X156917523Y-83575333D01*
X157012761Y-83527714D01*
X157203238Y-83527714D01*
X157298476Y-83575333D01*
X158203238Y-84194380D02*
X158203238Y-83670571D01*
X158155619Y-83575333D01*
X158060380Y-83527714D01*
X157869904Y-83527714D01*
X157774666Y-83575333D01*
X158203238Y-84146761D02*
X158108000Y-84194380D01*
X157869904Y-84194380D01*
X157774666Y-84146761D01*
X157727047Y-84051523D01*
X157727047Y-83956285D01*
X157774666Y-83861047D01*
X157869904Y-83813428D01*
X158108000Y-83813428D01*
X158203238Y-83765809D01*
X158679428Y-84194380D02*
X158679428Y-83527714D01*
X158679428Y-83718190D02*
X158727047Y-83622952D01*
X158774666Y-83575333D01*
X158869904Y-83527714D01*
X158965142Y-83527714D01*
X159298476Y-84194380D02*
X159298476Y-83527714D01*
X159298476Y-83718190D02*
X159346095Y-83622952D01*
X159393714Y-83575333D01*
X159488952Y-83527714D01*
X159584190Y-83527714D01*
X160298476Y-84146761D02*
X160203238Y-84194380D01*
X160012761Y-84194380D01*
X159917523Y-84146761D01*
X159869904Y-84051523D01*
X159869904Y-83670571D01*
X159917523Y-83575333D01*
X160012761Y-83527714D01*
X160203238Y-83527714D01*
X160298476Y-83575333D01*
X160346095Y-83670571D01*
X160346095Y-83765809D01*
X159869904Y-83861047D01*
X160774666Y-83527714D02*
X160774666Y-84194380D01*
X160774666Y-83622952D02*
X160822285Y-83575333D01*
X160917523Y-83527714D01*
X161060380Y-83527714D01*
X161155619Y-83575333D01*
X161203238Y-83670571D01*
X161203238Y-84194380D01*
X161679428Y-84099142D02*
X161727047Y-84146761D01*
X161679428Y-84194380D01*
X161631809Y-84146761D01*
X161679428Y-84099142D01*
X161679428Y-84194380D01*
X162155619Y-83527714D02*
X162155619Y-84527714D01*
X162155619Y-83575333D02*
X162250857Y-83527714D01*
X162441333Y-83527714D01*
X162536571Y-83575333D01*
X162584190Y-83622952D01*
X162631809Y-83718190D01*
X162631809Y-84003904D01*
X162584190Y-84099142D01*
X162536571Y-84146761D01*
X162441333Y-84194380D01*
X162250857Y-84194380D01*
X162155619Y-84146761D01*
X163203238Y-84194380D02*
X163108000Y-84146761D01*
X163060380Y-84099142D01*
X163012761Y-84003904D01*
X163012761Y-83718190D01*
X163060380Y-83622952D01*
X163108000Y-83575333D01*
X163203238Y-83527714D01*
X163346095Y-83527714D01*
X163441333Y-83575333D01*
X163488952Y-83622952D01*
X163536571Y-83718190D01*
X163536571Y-84003904D01*
X163488952Y-84099142D01*
X163441333Y-84146761D01*
X163346095Y-84194380D01*
X163203238Y-84194380D01*
X164393714Y-83527714D02*
X164393714Y-84194380D01*
X163965142Y-83527714D02*
X163965142Y-84051523D01*
X164012761Y-84146761D01*
X164108000Y-84194380D01*
X164250857Y-84194380D01*
X164346095Y-84146761D01*
X164393714Y-84099142D01*
X165012761Y-84194380D02*
X164917523Y-84146761D01*
X164869904Y-84051523D01*
X164869904Y-83194380D01*
X165346095Y-84146761D02*
X165441333Y-84194380D01*
X165631809Y-84194380D01*
X165727047Y-84146761D01*
X165774666Y-84051523D01*
X165774666Y-84003904D01*
X165727047Y-83908666D01*
X165631809Y-83861047D01*
X165488952Y-83861047D01*
X165393714Y-83813428D01*
X165346095Y-83718190D01*
X165346095Y-83670571D01*
X165393714Y-83575333D01*
X165488952Y-83527714D01*
X165631809Y-83527714D01*
X165727047Y-83575333D01*
X166346095Y-84194380D02*
X166250857Y-84146761D01*
X166203238Y-84099142D01*
X166155619Y-84003904D01*
X166155619Y-83718190D01*
X166203238Y-83622952D01*
X166250857Y-83575333D01*
X166346095Y-83527714D01*
X166488952Y-83527714D01*
X166584190Y-83575333D01*
X166631809Y-83622952D01*
X166679428Y-83718190D01*
X166679428Y-84003904D01*
X166631809Y-84099142D01*
X166584190Y-84146761D01*
X166488952Y-84194380D01*
X166346095Y-84194380D01*
X167108000Y-83527714D02*
X167108000Y-84194380D01*
X167108000Y-83622952D02*
X167155619Y-83575333D01*
X167250857Y-83527714D01*
X167393714Y-83527714D01*
X167488952Y-83575333D01*
X167536571Y-83670571D01*
X167536571Y-84194380D01*
X168631809Y-83718190D02*
X168584190Y-83670571D01*
X168488952Y-83622952D01*
X168393714Y-83622952D01*
X168298476Y-83670571D01*
X168250857Y-83718190D01*
X168203238Y-83813428D01*
X168203238Y-83908666D01*
X168250857Y-84003904D01*
X168298476Y-84051523D01*
X168393714Y-84099142D01*
X168488952Y-84099142D01*
X168584190Y-84051523D01*
X168631809Y-84003904D01*
X168631809Y-83622952D02*
X168631809Y-84003904D01*
X168679428Y-84051523D01*
X168727047Y-84051523D01*
X168822285Y-84003904D01*
X168869904Y-83908666D01*
X168869904Y-83670571D01*
X168774666Y-83527714D01*
X168631809Y-83432476D01*
X168441333Y-83384857D01*
X168250857Y-83432476D01*
X168108000Y-83527714D01*
X168012761Y-83670571D01*
X167965142Y-83861047D01*
X168012761Y-84051523D01*
X168108000Y-84194380D01*
X168250857Y-84289619D01*
X168441333Y-84337238D01*
X168631809Y-84289619D01*
X168774666Y-84194380D01*
X169727047Y-83527714D02*
X169727047Y-84337238D01*
X169679428Y-84432476D01*
X169631809Y-84480095D01*
X169536571Y-84527714D01*
X169393714Y-84527714D01*
X169298476Y-84480095D01*
X169727047Y-84146761D02*
X169631809Y-84194380D01*
X169441333Y-84194380D01*
X169346095Y-84146761D01*
X169298476Y-84099142D01*
X169250857Y-84003904D01*
X169250857Y-83718190D01*
X169298476Y-83622952D01*
X169346095Y-83575333D01*
X169441333Y-83527714D01*
X169631809Y-83527714D01*
X169727047Y-83575333D01*
X170203238Y-84194380D02*
X170203238Y-83527714D01*
X170203238Y-83622952D02*
X170250857Y-83575333D01*
X170346095Y-83527714D01*
X170488952Y-83527714D01*
X170584190Y-83575333D01*
X170631809Y-83670571D01*
X170631809Y-84194380D01*
X170631809Y-83670571D02*
X170679428Y-83575333D01*
X170774666Y-83527714D01*
X170917523Y-83527714D01*
X171012761Y-83575333D01*
X171060380Y-83670571D01*
X171060380Y-84194380D01*
X171965142Y-84194380D02*
X171965142Y-83670571D01*
X171917523Y-83575333D01*
X171822285Y-83527714D01*
X171631809Y-83527714D01*
X171536571Y-83575333D01*
X171965142Y-84146761D02*
X171869904Y-84194380D01*
X171631809Y-84194380D01*
X171536571Y-84146761D01*
X171488952Y-84051523D01*
X171488952Y-83956285D01*
X171536571Y-83861047D01*
X171631809Y-83813428D01*
X171869904Y-83813428D01*
X171965142Y-83765809D01*
X172441333Y-84194380D02*
X172441333Y-83527714D01*
X172441333Y-83194380D02*
X172393714Y-83242000D01*
X172441333Y-83289619D01*
X172488952Y-83242000D01*
X172441333Y-83194380D01*
X172441333Y-83289619D01*
X173060380Y-84194380D02*
X172965142Y-84146761D01*
X172917523Y-84051523D01*
X172917523Y-83194380D01*
X173441333Y-84099142D02*
X173488952Y-84146761D01*
X173441333Y-84194380D01*
X173393714Y-84146761D01*
X173441333Y-84099142D01*
X173441333Y-84194380D01*
X174346095Y-84146761D02*
X174250857Y-84194380D01*
X174060380Y-84194380D01*
X173965142Y-84146761D01*
X173917523Y-84099142D01*
X173869904Y-84003904D01*
X173869904Y-83718190D01*
X173917523Y-83622952D01*
X173965142Y-83575333D01*
X174060380Y-83527714D01*
X174250857Y-83527714D01*
X174346095Y-83575333D01*
X174917523Y-84194380D02*
X174822285Y-84146761D01*
X174774666Y-84099142D01*
X174727047Y-84003904D01*
X174727047Y-83718190D01*
X174774666Y-83622952D01*
X174822285Y-83575333D01*
X174917523Y-83527714D01*
X175060380Y-83527714D01*
X175155619Y-83575333D01*
X175203238Y-83622952D01*
X175250857Y-83718190D01*
X175250857Y-84003904D01*
X175203238Y-84099142D01*
X175155619Y-84146761D01*
X175060380Y-84194380D01*
X174917523Y-84194380D01*
X175679428Y-84194380D02*
X175679428Y-83527714D01*
X175679428Y-83622952D02*
X175727047Y-83575333D01*
X175822285Y-83527714D01*
X175965142Y-83527714D01*
X176060380Y-83575333D01*
X176108000Y-83670571D01*
X176108000Y-84194380D01*
X176108000Y-83670571D02*
X176155619Y-83575333D01*
X176250857Y-83527714D01*
X176393714Y-83527714D01*
X176488952Y-83575333D01*
X176536571Y-83670571D01*
X176536571Y-84194380D01*
D13*
G04 #@! TO.C,U1*
X164714000Y-101476000D02*
X164714000Y-101476000D01*
X163554000Y-101476000D02*
X164714000Y-101476000D01*
X162564000Y-100476000D02*
G75*
G03X163564000Y-101476000I1000000J0D01*
G01*
X162564000Y-94476000D02*
X162564000Y-100476000D01*
X138054000Y-127556000D02*
G75*
G03X140054000Y-129556000I2000000J0D01*
G01*
X162714000Y-129556000D02*
G75*
G03X164714000Y-127556000I0J2000000D01*
G01*
X146484000Y-94476000D02*
X138054001Y-94476000D01*
X146484000Y-95476000D02*
X146484000Y-94476000D01*
X154704000Y-95476000D02*
X146484000Y-95476000D01*
X154704000Y-94476000D02*
X154704000Y-95476000D01*
X162564000Y-94476000D02*
X154704000Y-94476000D01*
X164714000Y-127556000D02*
X164714000Y-101476000D01*
X140054000Y-129556000D02*
X162714000Y-129556000D01*
X138054000Y-94476000D02*
X138054000Y-127556000D01*
G04 #@! TO.C,J1*
X137886440Y-84886800D02*
X146085560Y-84886800D01*
X137886440Y-84488020D02*
X146085560Y-84488020D01*
X137886440Y-79187040D02*
X146085560Y-79187040D01*
X146085560Y-78689200D02*
X137886440Y-78689200D01*
X140685520Y-79187040D02*
X140685520Y-78689200D01*
X145884900Y-78689200D02*
X145884900Y-79187040D01*
X138084560Y-79187040D02*
X138084560Y-78689200D01*
X143283940Y-78689200D02*
X143283940Y-79187040D01*
X137886440Y-78689200D02*
X137886440Y-84886800D01*
X146083020Y-84886800D02*
X146083020Y-78689200D01*
G04 #@! TO.C,J2*
X175011080Y-139252960D02*
X169412920Y-139252960D01*
X169611040Y-139750800D02*
X169611040Y-139252960D01*
X174812960Y-139252960D02*
X174812960Y-139750800D01*
X172212000Y-139750800D02*
X172212000Y-139252960D01*
X169412920Y-133951980D02*
X175011080Y-133951980D01*
X169412920Y-139750800D02*
X175011080Y-139750800D01*
X175011080Y-139750800D02*
X175011080Y-133553200D01*
X175011080Y-133553200D02*
X169412920Y-133553200D01*
X169412920Y-133553200D02*
X169412920Y-139750800D01*
G04 #@! TO.C,J3*
X144023080Y-139252960D02*
X138424920Y-139252960D01*
X138623040Y-139750800D02*
X138623040Y-139252960D01*
X143824960Y-139252960D02*
X143824960Y-139750800D01*
X141224000Y-139750800D02*
X141224000Y-139252960D01*
X138424920Y-133951980D02*
X144023080Y-133951980D01*
X138424920Y-139750800D02*
X144023080Y-139750800D01*
X144023080Y-139750800D02*
X144023080Y-133553200D01*
X144023080Y-133553200D02*
X138424920Y-133553200D01*
X138424920Y-133553200D02*
X138424920Y-139750800D01*
G04 #@! TO.C,J4*
X150627080Y-139252960D02*
X145028920Y-139252960D01*
X145227040Y-139750800D02*
X145227040Y-139252960D01*
X150428960Y-139252960D02*
X150428960Y-139750800D01*
X147828000Y-139750800D02*
X147828000Y-139252960D01*
X145028920Y-133951980D02*
X150627080Y-133951980D01*
X145028920Y-139750800D02*
X150627080Y-139750800D01*
X150627080Y-139750800D02*
X150627080Y-133553200D01*
X150627080Y-133553200D02*
X145028920Y-133553200D01*
X145028920Y-133553200D02*
X145028920Y-139750800D01*
G04 #@! TO.C,J5*
X157739080Y-139252960D02*
X152140920Y-139252960D01*
X152339040Y-139750800D02*
X152339040Y-139252960D01*
X157540960Y-139252960D02*
X157540960Y-139750800D01*
X154940000Y-139750800D02*
X154940000Y-139252960D01*
X152140920Y-133951980D02*
X157739080Y-133951980D01*
X152140920Y-139750800D02*
X157739080Y-139750800D01*
X157739080Y-139750800D02*
X157739080Y-133553200D01*
X157739080Y-133553200D02*
X152140920Y-133553200D01*
X152140920Y-133553200D02*
X152140920Y-139750800D01*
G04 #@! TO.C,J6*
X164343080Y-139252960D02*
X158744920Y-139252960D01*
X158943040Y-139750800D02*
X158943040Y-139252960D01*
X164144960Y-139252960D02*
X164144960Y-139750800D01*
X161544000Y-139750800D02*
X161544000Y-139252960D01*
X158744920Y-133951980D02*
X164343080Y-133951980D01*
X158744920Y-139750800D02*
X164343080Y-139750800D01*
X164343080Y-139750800D02*
X164343080Y-133553200D01*
X164343080Y-133553200D02*
X158744920Y-133553200D01*
X158744920Y-133553200D02*
X158744920Y-139750800D01*
D14*
G04 #@! TO.C,SW1*
X166494000Y-106286000D02*
X166494000Y-107556000D01*
X166494000Y-106286000D02*
X169034000Y-106286000D01*
X166694000Y-106486000D02*
X176714000Y-106486000D01*
X176714000Y-106486000D02*
X176714000Y-119066000D01*
X176714000Y-119066000D02*
X166694000Y-119066000D01*
X166694000Y-119066000D02*
X166694000Y-106486000D01*
X169674000Y-108331000D02*
X169674000Y-109601000D01*
X169674000Y-109601000D02*
X173734000Y-109601000D01*
X173734000Y-109601000D02*
X173734000Y-108331000D01*
X173734000Y-108331000D02*
X169674000Y-108331000D01*
X171704000Y-108331000D02*
X171704000Y-109601000D01*
X169674000Y-110871000D02*
X169674000Y-112141000D01*
X169674000Y-112141000D02*
X173734000Y-112141000D01*
X173734000Y-112141000D02*
X173734000Y-110871000D01*
X173734000Y-110871000D02*
X169674000Y-110871000D01*
X171704000Y-110871000D02*
X171704000Y-112141000D01*
X169674000Y-113411000D02*
X169674000Y-114681000D01*
X169674000Y-114681000D02*
X173734000Y-114681000D01*
X173734000Y-114681000D02*
X173734000Y-113411000D01*
X173734000Y-113411000D02*
X169674000Y-113411000D01*
X171704000Y-113411000D02*
X171704000Y-114681000D01*
X169674000Y-115951000D02*
X169674000Y-117221000D01*
X169674000Y-117221000D02*
X173734000Y-117221000D01*
X173734000Y-117221000D02*
X173734000Y-115951000D01*
X173734000Y-115951000D02*
X169674000Y-115951000D01*
X171704000Y-115951000D02*
X171704000Y-117221000D01*
G04 #@! TO.C,R1*
X160880000Y-103296000D02*
X159160000Y-103296000D01*
X159160000Y-103296000D02*
X159160000Y-107016000D01*
X159160000Y-107016000D02*
X160880000Y-107016000D01*
X160880000Y-107016000D02*
X160880000Y-103296000D01*
X160020000Y-102226000D02*
X160020000Y-103296000D01*
X160020000Y-108086000D02*
X160020000Y-107016000D01*
G04 #@! TO.C,R2*
X158340000Y-103296000D02*
X156620000Y-103296000D01*
X156620000Y-103296000D02*
X156620000Y-107016000D01*
X156620000Y-107016000D02*
X158340000Y-107016000D01*
X158340000Y-107016000D02*
X158340000Y-103296000D01*
X157480000Y-102226000D02*
X157480000Y-103296000D01*
X157480000Y-108086000D02*
X157480000Y-107016000D01*
G04 #@! TO.C,R3*
X147238000Y-121060000D02*
X147238000Y-122780000D01*
X147238000Y-122780000D02*
X150958000Y-122780000D01*
X150958000Y-122780000D02*
X150958000Y-121060000D01*
X150958000Y-121060000D02*
X147238000Y-121060000D01*
X146168000Y-121920000D02*
X147238000Y-121920000D01*
X152028000Y-121920000D02*
X150958000Y-121920000D01*
G04 #@! TO.C,R4*
X147238000Y-123600000D02*
X147238000Y-125320000D01*
X147238000Y-125320000D02*
X150958000Y-125320000D01*
X150958000Y-125320000D02*
X150958000Y-123600000D01*
X150958000Y-123600000D02*
X147238000Y-123600000D01*
X146168000Y-124460000D02*
X147238000Y-124460000D01*
X152028000Y-124460000D02*
X150958000Y-124460000D01*
G04 #@! TO.C,R5*
X155800000Y-103296000D02*
X154080000Y-103296000D01*
X154080000Y-103296000D02*
X154080000Y-107016000D01*
X154080000Y-107016000D02*
X155800000Y-107016000D01*
X155800000Y-107016000D02*
X155800000Y-103296000D01*
X154940000Y-102226000D02*
X154940000Y-103296000D01*
X154940000Y-108086000D02*
X154940000Y-107016000D01*
G04 #@! TO.C,R6*
X153260000Y-103296000D02*
X151540000Y-103296000D01*
X151540000Y-103296000D02*
X151540000Y-107016000D01*
X151540000Y-107016000D02*
X153260000Y-107016000D01*
X153260000Y-107016000D02*
X153260000Y-103296000D01*
X152400000Y-102226000D02*
X152400000Y-103296000D01*
X152400000Y-108086000D02*
X152400000Y-107016000D01*
G04 #@! TO.C,U1*
D13*
X150622095Y-92928380D02*
X150622095Y-93737904D01*
X150669714Y-93833142D01*
X150717333Y-93880761D01*
X150812571Y-93928380D01*
X151003047Y-93928380D01*
X151098285Y-93880761D01*
X151145904Y-93833142D01*
X151193523Y-93737904D01*
X151193523Y-92928380D01*
X152193523Y-93928380D02*
X151622095Y-93928380D01*
X151907809Y-93928380D02*
X151907809Y-92928380D01*
X151812571Y-93071238D01*
X151717333Y-93166476D01*
X151622095Y-93214095D01*
X139756095Y-98004380D02*
X139994190Y-99004380D01*
X140184666Y-98290095D01*
X140375142Y-99004380D01*
X140613238Y-98004380D01*
X141375142Y-98956761D02*
X141279904Y-99004380D01*
X141089428Y-99004380D01*
X140994190Y-98956761D01*
X140946571Y-98861523D01*
X140946571Y-98480571D01*
X140994190Y-98385333D01*
X141089428Y-98337714D01*
X141279904Y-98337714D01*
X141375142Y-98385333D01*
X141422761Y-98480571D01*
X141422761Y-98575809D01*
X140946571Y-98671047D01*
X141851333Y-99004380D02*
X141851333Y-98004380D01*
X142184666Y-98718666D01*
X142518000Y-98004380D01*
X142518000Y-99004380D01*
X143137047Y-99004380D02*
X143041809Y-98956761D01*
X142994190Y-98909142D01*
X142946571Y-98813904D01*
X142946571Y-98528190D01*
X142994190Y-98432952D01*
X143041809Y-98385333D01*
X143137047Y-98337714D01*
X143279904Y-98337714D01*
X143375142Y-98385333D01*
X143422761Y-98432952D01*
X143470380Y-98528190D01*
X143470380Y-98813904D01*
X143422761Y-98909142D01*
X143375142Y-98956761D01*
X143279904Y-99004380D01*
X143137047Y-99004380D01*
X143851333Y-98956761D02*
X143946571Y-99004380D01*
X144137047Y-99004380D01*
X144232285Y-98956761D01*
X144279904Y-98861523D01*
X144279904Y-98813904D01*
X144232285Y-98718666D01*
X144137047Y-98671047D01*
X143994190Y-98671047D01*
X143898952Y-98623428D01*
X143851333Y-98528190D01*
X143851333Y-98480571D01*
X143898952Y-98385333D01*
X143994190Y-98337714D01*
X144137047Y-98337714D01*
X144232285Y-98385333D01*
X144470380Y-99099619D02*
X145232285Y-99099619D01*
X145470380Y-99004380D02*
X145470380Y-98337714D01*
X145470380Y-98432952D02*
X145518000Y-98385333D01*
X145613238Y-98337714D01*
X145756095Y-98337714D01*
X145851333Y-98385333D01*
X145898952Y-98480571D01*
X145898952Y-99004380D01*
X145898952Y-98480571D02*
X145946571Y-98385333D01*
X146041809Y-98337714D01*
X146184666Y-98337714D01*
X146279904Y-98385333D01*
X146327523Y-98480571D01*
X146327523Y-99004380D01*
X146803714Y-99004380D02*
X146803714Y-98337714D01*
X146803714Y-98004380D02*
X146756095Y-98052000D01*
X146803714Y-98099619D01*
X146851333Y-98052000D01*
X146803714Y-98004380D01*
X146803714Y-98099619D01*
X147279904Y-98337714D02*
X147279904Y-99004380D01*
X147279904Y-98432952D02*
X147327523Y-98385333D01*
X147422761Y-98337714D01*
X147565619Y-98337714D01*
X147660857Y-98385333D01*
X147708476Y-98480571D01*
X147708476Y-99004380D01*
X148184666Y-99004380D02*
X148184666Y-98337714D01*
X148184666Y-98004380D02*
X148137047Y-98052000D01*
X148184666Y-98099619D01*
X148232285Y-98052000D01*
X148184666Y-98004380D01*
X148184666Y-98099619D01*
G04 #@! TO.C,J1*
X141652666Y-85741260D02*
X141652666Y-86455546D01*
X141605047Y-86598403D01*
X141509809Y-86693641D01*
X141366952Y-86741260D01*
X141271714Y-86741260D01*
X142652666Y-86741260D02*
X142081238Y-86741260D01*
X142366952Y-86741260D02*
X142366952Y-85741260D01*
X142271714Y-85884118D01*
X142176476Y-85979356D01*
X142081238Y-86026975D01*
X146931142Y-79700380D02*
X146454952Y-79700380D01*
X146454952Y-78700380D01*
X147264476Y-79176571D02*
X147597809Y-79176571D01*
X147740666Y-79700380D02*
X147264476Y-79700380D01*
X147264476Y-78700380D01*
X147740666Y-78700380D01*
X148169238Y-79700380D02*
X148169238Y-78700380D01*
X148407333Y-78700380D01*
X148550190Y-78748000D01*
X148645428Y-78843238D01*
X148693047Y-78938476D01*
X148740666Y-79128952D01*
X148740666Y-79271809D01*
X148693047Y-79462285D01*
X148645428Y-79557523D01*
X148550190Y-79652761D01*
X148407333Y-79700380D01*
X148169238Y-79700380D01*
G04 #@! TO.C,J2*
X171878666Y-131603500D02*
X171878666Y-132317786D01*
X171831047Y-132460643D01*
X171735809Y-132555881D01*
X171592952Y-132603500D01*
X171497714Y-132603500D01*
X172307238Y-131698739D02*
X172354857Y-131651120D01*
X172450095Y-131603500D01*
X172688190Y-131603500D01*
X172783428Y-131651120D01*
X172831047Y-131698739D01*
X172878666Y-131793977D01*
X172878666Y-131889215D01*
X172831047Y-132032072D01*
X172259619Y-132603500D01*
X172878666Y-132603500D01*
X170759619Y-141605260D02*
X170426285Y-141129070D01*
X170188190Y-141605260D02*
X170188190Y-140605260D01*
X170569142Y-140605260D01*
X170664380Y-140652880D01*
X170712000Y-140700499D01*
X170759619Y-140795737D01*
X170759619Y-140938594D01*
X170712000Y-141033832D01*
X170664380Y-141081451D01*
X170569142Y-141129070D01*
X170188190Y-141129070D01*
X171188190Y-141081451D02*
X171521523Y-141081451D01*
X171664380Y-141605260D02*
X171188190Y-141605260D01*
X171188190Y-140605260D01*
X171664380Y-140605260D01*
X172045333Y-141557641D02*
X172188190Y-141605260D01*
X172426285Y-141605260D01*
X172521523Y-141557641D01*
X172569142Y-141510022D01*
X172616761Y-141414784D01*
X172616761Y-141319546D01*
X172569142Y-141224308D01*
X172521523Y-141176689D01*
X172426285Y-141129070D01*
X172235809Y-141081451D01*
X172140571Y-141033832D01*
X172092952Y-140986213D01*
X172045333Y-140890975D01*
X172045333Y-140795737D01*
X172092952Y-140700499D01*
X172140571Y-140652880D01*
X172235809Y-140605260D01*
X172473904Y-140605260D01*
X172616761Y-140652880D01*
X173045333Y-141081451D02*
X173378666Y-141081451D01*
X173521523Y-141605260D02*
X173045333Y-141605260D01*
X173045333Y-140605260D01*
X173521523Y-140605260D01*
X173807238Y-140605260D02*
X174378666Y-140605260D01*
X174092952Y-141605260D02*
X174092952Y-140605260D01*
G04 #@! TO.C,J3*
X140890666Y-131603500D02*
X140890666Y-132317786D01*
X140843047Y-132460643D01*
X140747809Y-132555881D01*
X140604952Y-132603500D01*
X140509714Y-132603500D01*
X141271619Y-131603500D02*
X141890666Y-131603500D01*
X141557333Y-131984453D01*
X141700190Y-131984453D01*
X141795428Y-132032072D01*
X141843047Y-132079691D01*
X141890666Y-132174929D01*
X141890666Y-132413024D01*
X141843047Y-132508262D01*
X141795428Y-132555881D01*
X141700190Y-132603500D01*
X141414476Y-132603500D01*
X141319238Y-132555881D01*
X141271619Y-132508262D01*
X139104952Y-141605260D02*
X139104952Y-140605260D01*
X139485904Y-140605260D01*
X139581142Y-140652880D01*
X139628761Y-140700499D01*
X139676380Y-140795737D01*
X139676380Y-140938594D01*
X139628761Y-141033832D01*
X139581142Y-141081451D01*
X139485904Y-141129070D01*
X139104952Y-141129070D01*
X140057333Y-141319546D02*
X140533523Y-141319546D01*
X139962095Y-141605260D02*
X140295428Y-140605260D01*
X140628761Y-141605260D01*
X140914476Y-141557641D02*
X141057333Y-141605260D01*
X141295428Y-141605260D01*
X141390666Y-141557641D01*
X141438285Y-141510022D01*
X141485904Y-141414784D01*
X141485904Y-141319546D01*
X141438285Y-141224308D01*
X141390666Y-141176689D01*
X141295428Y-141129070D01*
X141104952Y-141081451D01*
X141009714Y-141033832D01*
X140962095Y-140986213D01*
X140914476Y-140890975D01*
X140914476Y-140795737D01*
X140962095Y-140700499D01*
X141009714Y-140652880D01*
X141104952Y-140605260D01*
X141343047Y-140605260D01*
X141485904Y-140652880D01*
X141866857Y-141557641D02*
X142009714Y-141605260D01*
X142247809Y-141605260D01*
X142343047Y-141557641D01*
X142390666Y-141510022D01*
X142438285Y-141414784D01*
X142438285Y-141319546D01*
X142390666Y-141224308D01*
X142343047Y-141176689D01*
X142247809Y-141129070D01*
X142057333Y-141081451D01*
X141962095Y-141033832D01*
X141914476Y-140986213D01*
X141866857Y-140890975D01*
X141866857Y-140795737D01*
X141914476Y-140700499D01*
X141962095Y-140652880D01*
X142057333Y-140605260D01*
X142295428Y-140605260D01*
X142438285Y-140652880D01*
X143390666Y-141605260D02*
X142819238Y-141605260D01*
X143104952Y-141605260D02*
X143104952Y-140605260D01*
X143009714Y-140748118D01*
X142914476Y-140843356D01*
X142819238Y-140890975D01*
G04 #@! TO.C,J4*
X147494666Y-131603500D02*
X147494666Y-132317786D01*
X147447047Y-132460643D01*
X147351809Y-132555881D01*
X147208952Y-132603500D01*
X147113714Y-132603500D01*
X148399428Y-131936834D02*
X148399428Y-132603500D01*
X148161333Y-131555881D02*
X147923238Y-132270167D01*
X148542285Y-132270167D01*
X145708952Y-141605260D02*
X145708952Y-140605260D01*
X146089904Y-140605260D01*
X146185142Y-140652880D01*
X146232761Y-140700499D01*
X146280380Y-140795737D01*
X146280380Y-140938594D01*
X146232761Y-141033832D01*
X146185142Y-141081451D01*
X146089904Y-141129070D01*
X145708952Y-141129070D01*
X146661333Y-141319546D02*
X147137523Y-141319546D01*
X146566095Y-141605260D02*
X146899428Y-140605260D01*
X147232761Y-141605260D01*
X147518476Y-141557641D02*
X147661333Y-141605260D01*
X147899428Y-141605260D01*
X147994666Y-141557641D01*
X148042285Y-141510022D01*
X148089904Y-141414784D01*
X148089904Y-141319546D01*
X148042285Y-141224308D01*
X147994666Y-141176689D01*
X147899428Y-141129070D01*
X147708952Y-141081451D01*
X147613714Y-141033832D01*
X147566095Y-140986213D01*
X147518476Y-140890975D01*
X147518476Y-140795737D01*
X147566095Y-140700499D01*
X147613714Y-140652880D01*
X147708952Y-140605260D01*
X147947047Y-140605260D01*
X148089904Y-140652880D01*
X148470857Y-141557641D02*
X148613714Y-141605260D01*
X148851809Y-141605260D01*
X148947047Y-141557641D01*
X148994666Y-141510022D01*
X149042285Y-141414784D01*
X149042285Y-141319546D01*
X148994666Y-141224308D01*
X148947047Y-141176689D01*
X148851809Y-141129070D01*
X148661333Y-141081451D01*
X148566095Y-141033832D01*
X148518476Y-140986213D01*
X148470857Y-140890975D01*
X148470857Y-140795737D01*
X148518476Y-140700499D01*
X148566095Y-140652880D01*
X148661333Y-140605260D01*
X148899428Y-140605260D01*
X149042285Y-140652880D01*
X149423238Y-140700499D02*
X149470857Y-140652880D01*
X149566095Y-140605260D01*
X149804190Y-140605260D01*
X149899428Y-140652880D01*
X149947047Y-140700499D01*
X149994666Y-140795737D01*
X149994666Y-140890975D01*
X149947047Y-141033832D01*
X149375619Y-141605260D01*
X149994666Y-141605260D01*
G04 #@! TO.C,J5*
X154606666Y-131603500D02*
X154606666Y-132317786D01*
X154559047Y-132460643D01*
X154463809Y-132555881D01*
X154320952Y-132603500D01*
X154225714Y-132603500D01*
X155559047Y-131603500D02*
X155082857Y-131603500D01*
X155035238Y-132079691D01*
X155082857Y-132032072D01*
X155178095Y-131984453D01*
X155416190Y-131984453D01*
X155511428Y-132032072D01*
X155559047Y-132079691D01*
X155606666Y-132174929D01*
X155606666Y-132413024D01*
X155559047Y-132508262D01*
X155511428Y-132555881D01*
X155416190Y-132603500D01*
X155178095Y-132603500D01*
X155082857Y-132555881D01*
X155035238Y-132508262D01*
X153535238Y-141081451D02*
X153201904Y-141081451D01*
X153201904Y-141605260D02*
X153201904Y-140605260D01*
X153678095Y-140605260D01*
X154011428Y-141319546D02*
X154487619Y-141319546D01*
X153916190Y-141605260D02*
X154249523Y-140605260D01*
X154582857Y-141605260D01*
X154916190Y-141605260D02*
X154916190Y-140605260D01*
X155868571Y-141605260D02*
X155392380Y-141605260D01*
X155392380Y-140605260D01*
X156725714Y-141605260D02*
X156154285Y-141605260D01*
X156440000Y-141605260D02*
X156440000Y-140605260D01*
X156344761Y-140748118D01*
X156249523Y-140843356D01*
X156154285Y-140890975D01*
G04 #@! TO.C,J6*
X161210666Y-131603500D02*
X161210666Y-132317786D01*
X161163047Y-132460643D01*
X161067809Y-132555881D01*
X160924952Y-132603500D01*
X160829714Y-132603500D01*
X162115428Y-131603500D02*
X161924952Y-131603500D01*
X161829714Y-131651120D01*
X161782095Y-131698739D01*
X161686857Y-131841596D01*
X161639238Y-132032072D01*
X161639238Y-132413024D01*
X161686857Y-132508262D01*
X161734476Y-132555881D01*
X161829714Y-132603500D01*
X162020190Y-132603500D01*
X162115428Y-132555881D01*
X162163047Y-132508262D01*
X162210666Y-132413024D01*
X162210666Y-132174929D01*
X162163047Y-132079691D01*
X162115428Y-132032072D01*
X162020190Y-131984453D01*
X161829714Y-131984453D01*
X161734476Y-132032072D01*
X161686857Y-132079691D01*
X161639238Y-132174929D01*
X160139238Y-141081451D02*
X159805904Y-141081451D01*
X159805904Y-141605260D02*
X159805904Y-140605260D01*
X160282095Y-140605260D01*
X160615428Y-141319546D02*
X161091619Y-141319546D01*
X160520190Y-141605260D02*
X160853523Y-140605260D01*
X161186857Y-141605260D01*
X161520190Y-141605260D02*
X161520190Y-140605260D01*
X162472571Y-141605260D02*
X161996380Y-141605260D01*
X161996380Y-140605260D01*
X162758285Y-140700499D02*
X162805904Y-140652880D01*
X162901142Y-140605260D01*
X163139238Y-140605260D01*
X163234476Y-140652880D01*
X163282095Y-140700499D01*
X163329714Y-140795737D01*
X163329714Y-140890975D01*
X163282095Y-141033832D01*
X162710666Y-141605260D01*
X163329714Y-141605260D01*
G04 #@! TO.C,SW1*
X170370666Y-113180761D02*
X170513523Y-113228380D01*
X170751619Y-113228380D01*
X170846857Y-113180761D01*
X170894476Y-113133142D01*
X170942095Y-113037904D01*
X170942095Y-112942666D01*
X170894476Y-112847428D01*
X170846857Y-112799809D01*
X170751619Y-112752190D01*
X170561142Y-112704571D01*
X170465904Y-112656952D01*
X170418285Y-112609333D01*
X170370666Y-112514095D01*
X170370666Y-112418857D01*
X170418285Y-112323619D01*
X170465904Y-112276000D01*
X170561142Y-112228380D01*
X170799238Y-112228380D01*
X170942095Y-112276000D01*
X171275428Y-112228380D02*
X171513523Y-113228380D01*
X171704000Y-112514095D01*
X171894476Y-113228380D01*
X172132571Y-112228380D01*
X173037333Y-113228380D02*
X172465904Y-113228380D01*
X172751619Y-113228380D02*
X172751619Y-112228380D01*
X172656380Y-112371238D01*
X172561142Y-112466476D01*
X172465904Y-112514095D01*
X177712666Y-115918857D02*
X177712666Y-115442666D01*
X177998380Y-116014095D02*
X176998380Y-115680761D01*
X177998380Y-115347428D01*
X177998380Y-115014095D02*
X176998380Y-115014095D01*
X176998380Y-114776000D01*
X177046000Y-114633142D01*
X177141238Y-114537904D01*
X177236476Y-114490285D01*
X177426952Y-114442666D01*
X177569809Y-114442666D01*
X177760285Y-114490285D01*
X177855523Y-114537904D01*
X177950761Y-114633142D01*
X177998380Y-114776000D01*
X177998380Y-115014095D01*
X177998380Y-114014095D02*
X176998380Y-114014095D01*
X176998380Y-113776000D01*
X177046000Y-113633142D01*
X177141238Y-113537904D01*
X177236476Y-113490285D01*
X177426952Y-113442666D01*
X177569809Y-113442666D01*
X177760285Y-113490285D01*
X177855523Y-113537904D01*
X177950761Y-113633142D01*
X177998380Y-113776000D01*
X177998380Y-114014095D01*
X177998380Y-112442666D02*
X177522190Y-112776000D01*
X177998380Y-113014095D02*
X176998380Y-113014095D01*
X176998380Y-112633142D01*
X177046000Y-112537904D01*
X177093619Y-112490285D01*
X177188857Y-112442666D01*
X177331714Y-112442666D01*
X177426952Y-112490285D01*
X177474571Y-112537904D01*
X177522190Y-112633142D01*
X177522190Y-113014095D01*
X177474571Y-112014095D02*
X177474571Y-111680761D01*
X177998380Y-111537904D02*
X177998380Y-112014095D01*
X176998380Y-112014095D01*
X176998380Y-111537904D01*
X177950761Y-111156952D02*
X177998380Y-111014095D01*
X177998380Y-110776000D01*
X177950761Y-110680761D01*
X177903142Y-110633142D01*
X177807904Y-110585523D01*
X177712666Y-110585523D01*
X177617428Y-110633142D01*
X177569809Y-110680761D01*
X177522190Y-110776000D01*
X177474571Y-110966476D01*
X177426952Y-111061714D01*
X177379333Y-111109333D01*
X177284095Y-111156952D01*
X177188857Y-111156952D01*
X177093619Y-111109333D01*
X177046000Y-111061714D01*
X176998380Y-110966476D01*
X176998380Y-110728380D01*
X177046000Y-110585523D01*
X177950761Y-110204571D02*
X177998380Y-110061714D01*
X177998380Y-109823619D01*
X177950761Y-109728380D01*
X177903142Y-109680761D01*
X177807904Y-109633142D01*
X177712666Y-109633142D01*
X177617428Y-109680761D01*
X177569809Y-109728380D01*
X177522190Y-109823619D01*
X177474571Y-110014095D01*
X177426952Y-110109333D01*
X177379333Y-110156952D01*
X177284095Y-110204571D01*
X177188857Y-110204571D01*
X177093619Y-110156952D01*
X177046000Y-110109333D01*
X176998380Y-110014095D01*
X176998380Y-109776000D01*
X177046000Y-109633142D01*
G04 #@! TO.C,R1*
X160472380Y-99226666D02*
X159996190Y-99560000D01*
X160472380Y-99798095D02*
X159472380Y-99798095D01*
X159472380Y-99417142D01*
X159520000Y-99321904D01*
X159567619Y-99274285D01*
X159662857Y-99226666D01*
X159805714Y-99226666D01*
X159900952Y-99274285D01*
X159948571Y-99321904D01*
X159996190Y-99417142D01*
X159996190Y-99798095D01*
X160472380Y-98274285D02*
X160472380Y-98845714D01*
X160472380Y-98560000D02*
X159472380Y-98560000D01*
X159615238Y-98655238D01*
X159710476Y-98750476D01*
X159758095Y-98845714D01*
X160472380Y-105846476D02*
X160472380Y-106417904D01*
X160472380Y-106132190D02*
X159472380Y-106132190D01*
X159615238Y-106227428D01*
X159710476Y-106322666D01*
X159758095Y-106417904D01*
X159472380Y-105227428D02*
X159472380Y-105132190D01*
X159520000Y-105036952D01*
X159567619Y-104989333D01*
X159662857Y-104941714D01*
X159853333Y-104894095D01*
X160091428Y-104894095D01*
X160281904Y-104941714D01*
X160377142Y-104989333D01*
X160424761Y-105036952D01*
X160472380Y-105132190D01*
X160472380Y-105227428D01*
X160424761Y-105322666D01*
X160377142Y-105370285D01*
X160281904Y-105417904D01*
X160091428Y-105465523D01*
X159853333Y-105465523D01*
X159662857Y-105417904D01*
X159567619Y-105370285D01*
X159520000Y-105322666D01*
X159472380Y-105227428D01*
X160472380Y-104465523D02*
X159472380Y-104465523D01*
X160472380Y-103894095D02*
X159900952Y-104322666D01*
X159472380Y-103894095D02*
X160043809Y-104465523D01*
G04 #@! TO.C,R2*
X157932380Y-99226666D02*
X157456190Y-99560000D01*
X157932380Y-99798095D02*
X156932380Y-99798095D01*
X156932380Y-99417142D01*
X156980000Y-99321904D01*
X157027619Y-99274285D01*
X157122857Y-99226666D01*
X157265714Y-99226666D01*
X157360952Y-99274285D01*
X157408571Y-99321904D01*
X157456190Y-99417142D01*
X157456190Y-99798095D01*
X157027619Y-98845714D02*
X156980000Y-98798095D01*
X156932380Y-98702857D01*
X156932380Y-98464761D01*
X156980000Y-98369523D01*
X157027619Y-98321904D01*
X157122857Y-98274285D01*
X157218095Y-98274285D01*
X157360952Y-98321904D01*
X157932380Y-98893333D01*
X157932380Y-98274285D01*
X157932380Y-105846476D02*
X157932380Y-106417904D01*
X157932380Y-106132190D02*
X156932380Y-106132190D01*
X157075238Y-106227428D01*
X157170476Y-106322666D01*
X157218095Y-106417904D01*
X156932380Y-105227428D02*
X156932380Y-105132190D01*
X156980000Y-105036952D01*
X157027619Y-104989333D01*
X157122857Y-104941714D01*
X157313333Y-104894095D01*
X157551428Y-104894095D01*
X157741904Y-104941714D01*
X157837142Y-104989333D01*
X157884761Y-105036952D01*
X157932380Y-105132190D01*
X157932380Y-105227428D01*
X157884761Y-105322666D01*
X157837142Y-105370285D01*
X157741904Y-105417904D01*
X157551428Y-105465523D01*
X157313333Y-105465523D01*
X157122857Y-105417904D01*
X157027619Y-105370285D01*
X156980000Y-105322666D01*
X156932380Y-105227428D01*
X157932380Y-104465523D02*
X156932380Y-104465523D01*
X157932380Y-103894095D02*
X157360952Y-104322666D01*
X156932380Y-103894095D02*
X157503809Y-104465523D01*
G04 #@! TO.C,R3*
X148931333Y-120512380D02*
X148598000Y-120036190D01*
X148359904Y-120512380D02*
X148359904Y-119512380D01*
X148740857Y-119512380D01*
X148836095Y-119560000D01*
X148883714Y-119607619D01*
X148931333Y-119702857D01*
X148931333Y-119845714D01*
X148883714Y-119940952D01*
X148836095Y-119988571D01*
X148740857Y-120036190D01*
X148359904Y-120036190D01*
X149264666Y-119512380D02*
X149883714Y-119512380D01*
X149550380Y-119893333D01*
X149693238Y-119893333D01*
X149788476Y-119940952D01*
X149836095Y-119988571D01*
X149883714Y-120083809D01*
X149883714Y-120321904D01*
X149836095Y-120417142D01*
X149788476Y-120464761D01*
X149693238Y-120512380D01*
X149407523Y-120512380D01*
X149312285Y-120464761D01*
X149264666Y-120417142D01*
X148407523Y-122372380D02*
X147836095Y-122372380D01*
X148121809Y-122372380D02*
X148121809Y-121372380D01*
X148026571Y-121515238D01*
X147931333Y-121610476D01*
X147836095Y-121658095D01*
X149026571Y-121372380D02*
X149121809Y-121372380D01*
X149217047Y-121420000D01*
X149264666Y-121467619D01*
X149312285Y-121562857D01*
X149359904Y-121753333D01*
X149359904Y-121991428D01*
X149312285Y-122181904D01*
X149264666Y-122277142D01*
X149217047Y-122324761D01*
X149121809Y-122372380D01*
X149026571Y-122372380D01*
X148931333Y-122324761D01*
X148883714Y-122277142D01*
X148836095Y-122181904D01*
X148788476Y-121991428D01*
X148788476Y-121753333D01*
X148836095Y-121562857D01*
X148883714Y-121467619D01*
X148931333Y-121420000D01*
X149026571Y-121372380D01*
X149788476Y-122372380D02*
X149788476Y-121372380D01*
X150359904Y-122372380D02*
X149931333Y-121800952D01*
X150359904Y-121372380D02*
X149788476Y-121943809D01*
G04 #@! TO.C,R4*
X148931333Y-126944380D02*
X148598000Y-126468190D01*
X148359904Y-126944380D02*
X148359904Y-125944380D01*
X148740857Y-125944380D01*
X148836095Y-125992000D01*
X148883714Y-126039619D01*
X148931333Y-126134857D01*
X148931333Y-126277714D01*
X148883714Y-126372952D01*
X148836095Y-126420571D01*
X148740857Y-126468190D01*
X148359904Y-126468190D01*
X149788476Y-126277714D02*
X149788476Y-126944380D01*
X149550380Y-125896761D02*
X149312285Y-126611047D01*
X149931333Y-126611047D01*
X148502761Y-124912380D02*
X147931333Y-124912380D01*
X148217047Y-124912380D02*
X148217047Y-123912380D01*
X148121809Y-124055238D01*
X148026571Y-124150476D01*
X147931333Y-124198095D01*
X149121809Y-123912380D02*
X149217047Y-123912380D01*
X149312285Y-123960000D01*
X149359904Y-124007619D01*
X149407523Y-124102857D01*
X149455142Y-124293333D01*
X149455142Y-124531428D01*
X149407523Y-124721904D01*
X149359904Y-124817142D01*
X149312285Y-124864761D01*
X149217047Y-124912380D01*
X149121809Y-124912380D01*
X149026571Y-124864761D01*
X148978952Y-124817142D01*
X148931333Y-124721904D01*
X148883714Y-124531428D01*
X148883714Y-124293333D01*
X148931333Y-124102857D01*
X148978952Y-124007619D01*
X149026571Y-123960000D01*
X149121809Y-123912380D01*
X149883714Y-124912380D02*
X149883714Y-123912380D01*
X149978952Y-124531428D02*
X150264666Y-124912380D01*
X150264666Y-124245714D02*
X149883714Y-124626666D01*
G04 #@! TO.C,R5*
X155392380Y-99226666D02*
X154916190Y-99560000D01*
X155392380Y-99798095D02*
X154392380Y-99798095D01*
X154392380Y-99417142D01*
X154440000Y-99321904D01*
X154487619Y-99274285D01*
X154582857Y-99226666D01*
X154725714Y-99226666D01*
X154820952Y-99274285D01*
X154868571Y-99321904D01*
X154916190Y-99417142D01*
X154916190Y-99798095D01*
X154392380Y-98321904D02*
X154392380Y-98798095D01*
X154868571Y-98845714D01*
X154820952Y-98798095D01*
X154773333Y-98702857D01*
X154773333Y-98464761D01*
X154820952Y-98369523D01*
X154868571Y-98321904D01*
X154963809Y-98274285D01*
X155201904Y-98274285D01*
X155297142Y-98321904D01*
X155344761Y-98369523D01*
X155392380Y-98464761D01*
X155392380Y-98702857D01*
X155344761Y-98798095D01*
X155297142Y-98845714D01*
X155392380Y-105751238D02*
X155392380Y-106322666D01*
X155392380Y-106036952D02*
X154392380Y-106036952D01*
X154535238Y-106132190D01*
X154630476Y-106227428D01*
X154678095Y-106322666D01*
X154392380Y-105132190D02*
X154392380Y-105036952D01*
X154440000Y-104941714D01*
X154487619Y-104894095D01*
X154582857Y-104846476D01*
X154773333Y-104798857D01*
X155011428Y-104798857D01*
X155201904Y-104846476D01*
X155297142Y-104894095D01*
X155344761Y-104941714D01*
X155392380Y-105036952D01*
X155392380Y-105132190D01*
X155344761Y-105227428D01*
X155297142Y-105275047D01*
X155201904Y-105322666D01*
X155011428Y-105370285D01*
X154773333Y-105370285D01*
X154582857Y-105322666D01*
X154487619Y-105275047D01*
X154440000Y-105227428D01*
X154392380Y-105132190D01*
X155392380Y-104370285D02*
X154392380Y-104370285D01*
X155011428Y-104275047D02*
X155392380Y-103989333D01*
X154725714Y-103989333D02*
X155106666Y-104370285D01*
G04 #@! TO.C,R6*
X152852380Y-99226666D02*
X152376190Y-99560000D01*
X152852380Y-99798095D02*
X151852380Y-99798095D01*
X151852380Y-99417142D01*
X151900000Y-99321904D01*
X151947619Y-99274285D01*
X152042857Y-99226666D01*
X152185714Y-99226666D01*
X152280952Y-99274285D01*
X152328571Y-99321904D01*
X152376190Y-99417142D01*
X152376190Y-99798095D01*
X151852380Y-98369523D02*
X151852380Y-98560000D01*
X151900000Y-98655238D01*
X151947619Y-98702857D01*
X152090476Y-98798095D01*
X152280952Y-98845714D01*
X152661904Y-98845714D01*
X152757142Y-98798095D01*
X152804761Y-98750476D01*
X152852380Y-98655238D01*
X152852380Y-98464761D01*
X152804761Y-98369523D01*
X152757142Y-98321904D01*
X152661904Y-98274285D01*
X152423809Y-98274285D01*
X152328571Y-98321904D01*
X152280952Y-98369523D01*
X152233333Y-98464761D01*
X152233333Y-98655238D01*
X152280952Y-98750476D01*
X152328571Y-98798095D01*
X152423809Y-98845714D01*
X152852380Y-105751238D02*
X152852380Y-106322666D01*
X152852380Y-106036952D02*
X151852380Y-106036952D01*
X151995238Y-106132190D01*
X152090476Y-106227428D01*
X152138095Y-106322666D01*
X151852380Y-105132190D02*
X151852380Y-105036952D01*
X151900000Y-104941714D01*
X151947619Y-104894095D01*
X152042857Y-104846476D01*
X152233333Y-104798857D01*
X152471428Y-104798857D01*
X152661904Y-104846476D01*
X152757142Y-104894095D01*
X152804761Y-104941714D01*
X152852380Y-105036952D01*
X152852380Y-105132190D01*
X152804761Y-105227428D01*
X152757142Y-105275047D01*
X152661904Y-105322666D01*
X152471428Y-105370285D01*
X152233333Y-105370285D01*
X152042857Y-105322666D01*
X151947619Y-105275047D01*
X151900000Y-105227428D01*
X151852380Y-105132190D01*
X152852380Y-104370285D02*
X151852380Y-104370285D01*
X152471428Y-104275047D02*
X152852380Y-103989333D01*
X152185714Y-103989333D02*
X152566666Y-104370285D01*
G04 #@! TO.C,*
G04 #@! TD*
M02*
