G04 #@! TF.GenerationSoftware,KiCad,Pcbnew,5.0.2-bee76a0~70~ubuntu18.04.1*
G04 #@! TF.CreationDate,2019-04-08T15:23:50+01:00*
G04 #@! TF.ProjectId,Bump Stop,42756d70-2053-4746-9f70-2e6b69636164,rev?*
G04 #@! TF.SameCoordinates,Original*
G04 #@! TF.FileFunction,Copper,L2,Bot*
G04 #@! TF.FilePolarity,Positive*
%FSLAX46Y46*%
G04 Gerber Fmt 4.6, Leading zero omitted, Abs format (unit mm)*
G04 Created by KiCad (PCBNEW 5.0.2-bee76a0~70~ubuntu18.04.1) date Mon Apr  8 15:23:50 2019*
%MOMM*%
%LPD*%
G01*
G04 APERTURE LIST*
G04 #@! TA.AperFunction,EtchedComponent*
%ADD10C,0.254000*%
G04 #@! TD*
G04 #@! TA.AperFunction,ComponentPad*
%ADD11C,1.800000*%
G04 #@! TD*
G04 #@! TA.AperFunction,ComponentPad*
%ADD12O,1.998980X1.998980*%
G04 #@! TD*
G04 #@! TA.AperFunction,ComponentPad*
%ADD13R,1.998980X1.998980*%
G04 #@! TD*
G04 #@! TA.AperFunction,ComponentPad*
%ADD14R,1.600000X1.600000*%
G04 #@! TD*
G04 #@! TA.AperFunction,ComponentPad*
%ADD15O,1.600000X1.600000*%
G04 #@! TD*
G04 #@! TA.AperFunction,ComponentPad*
%ADD16C,1.400000*%
G04 #@! TD*
G04 #@! TA.AperFunction,ComponentPad*
%ADD17O,1.400000X1.400000*%
G04 #@! TD*
G04 #@! TA.AperFunction,Conductor*
%ADD18C,0.254000*%
G04 #@! TD*
G04 APERTURE END LIST*
D10*
G04 #@! TO.C,*
X171752260Y-96997520D02*
X172118020Y-97878900D01*
X171897040Y-96921320D02*
X171752260Y-96997520D01*
X172021500Y-96814640D02*
X171897040Y-96921320D01*
X172120560Y-96687640D02*
X172021500Y-96814640D01*
X172191680Y-96540320D02*
X172120560Y-96687640D01*
X172232320Y-96382840D02*
X172191680Y-96540320D01*
X172239940Y-96222820D02*
X172232320Y-96382840D01*
X172214540Y-96062800D02*
X172239940Y-96222820D01*
X172156120Y-95910400D02*
X172214540Y-96062800D01*
X172069760Y-95773240D02*
X172156120Y-95910400D01*
X171955460Y-95656400D02*
X172069760Y-95773240D01*
X171820840Y-95564960D02*
X171955460Y-95656400D01*
X171668440Y-95504000D02*
X171820840Y-95564960D01*
X171508420Y-95476060D02*
X171668440Y-95504000D01*
X171348400Y-95481140D02*
X171508420Y-95476060D01*
X171188380Y-95519240D02*
X171348400Y-95481140D01*
X171041060Y-95587820D02*
X171188380Y-95519240D01*
X170911520Y-95684340D02*
X171041060Y-95587820D01*
X170804840Y-95808800D02*
X170911520Y-95684340D01*
X170723560Y-95951040D02*
X170804840Y-95808800D01*
X170675300Y-96105980D02*
X170723560Y-95951040D01*
X170657520Y-96266000D02*
X170675300Y-96105980D01*
X170672760Y-96418400D02*
X170657520Y-96266000D01*
X170718480Y-96568260D02*
X170672760Y-96418400D01*
X170792140Y-96705420D02*
X170718480Y-96568260D01*
X170891200Y-96824800D02*
X170792140Y-96705420D01*
X171010580Y-96923860D02*
X170891200Y-96824800D01*
X171147740Y-96997520D02*
X171010580Y-96923860D01*
X170781980Y-97878900D02*
X171147740Y-96997520D01*
X170525440Y-97746820D02*
X170781980Y-97878900D01*
X169887900Y-98264980D02*
X170525440Y-97746820D01*
X169451020Y-97828100D02*
X169887900Y-98264980D01*
X169969180Y-97190560D02*
X169451020Y-97828100D01*
X169837100Y-96934020D02*
X169969180Y-97190560D01*
X169750740Y-96657160D02*
X169837100Y-96934020D01*
X168930320Y-96573340D02*
X169750740Y-96657160D01*
X168930320Y-95958660D02*
X168930320Y-96573340D01*
X169750740Y-95874840D02*
X168930320Y-95958660D01*
X169837100Y-95597980D02*
X169750740Y-95874840D01*
X169969180Y-95341440D02*
X169837100Y-95597980D01*
X169451020Y-94703900D02*
X169969180Y-95341440D01*
X169887900Y-94267020D02*
X169451020Y-94703900D01*
X170525440Y-94785180D02*
X169887900Y-94267020D01*
X170781980Y-94653100D02*
X170525440Y-94785180D01*
X171058840Y-94566740D02*
X170781980Y-94653100D01*
X171142660Y-93746320D02*
X171058840Y-94566740D01*
X171757340Y-93746320D02*
X171142660Y-93746320D01*
X171841160Y-94566740D02*
X171757340Y-93746320D01*
X172118020Y-94653100D02*
X171841160Y-94566740D01*
X172374560Y-94785180D02*
X172118020Y-94653100D01*
X173012100Y-94267020D02*
X172374560Y-94785180D01*
X173448980Y-94703900D02*
X173012100Y-94267020D01*
X172930820Y-95341440D02*
X173448980Y-94703900D01*
X173062900Y-95597980D02*
X172930820Y-95341440D01*
X173149260Y-95874840D02*
X173062900Y-95597980D01*
X173969680Y-95958660D02*
X173149260Y-95874840D01*
X173969680Y-96573340D02*
X173969680Y-95958660D01*
X173149260Y-96657160D02*
X173969680Y-96573340D01*
X173062900Y-96934020D02*
X173149260Y-96657160D01*
X172930820Y-97190560D02*
X173062900Y-96934020D01*
X173448980Y-97828100D02*
X172930820Y-97190560D01*
X173012100Y-98264980D02*
X173448980Y-97828100D01*
X172374560Y-97746820D02*
X173012100Y-98264980D01*
X172118020Y-97878900D02*
X172374560Y-97746820D01*
G04 #@! TD*
D11*
G04 #@! TO.P,U1,8*
G04 #@! TO.N,Net-(U1-Pad8)*
X139954000Y-121666000D03*
G04 #@! TO.P,U1,9*
G04 #@! TO.N,Net-(J2-Pad1)*
X162814000Y-121666000D03*
G04 #@! TO.P,U1,7*
G04 #@! TO.N,Net-(U1-Pad7)*
X139954000Y-119126000D03*
G04 #@! TO.P,U1,10*
G04 #@! TO.N,Net-(U1-Pad10)*
X162814000Y-119126000D03*
G04 #@! TO.P,U1,6*
G04 #@! TO.N,Net-(U1-Pad6)*
X139954000Y-116586000D03*
G04 #@! TO.P,U1,11*
G04 #@! TO.N,Net-(R6-Pad2)*
X162814000Y-116586000D03*
G04 #@! TO.P,U1,5*
G04 #@! TO.N,Net-(J3-Pad2)*
X139954000Y-114046000D03*
G04 #@! TO.P,U1,12*
G04 #@! TO.N,Net-(R5-Pad2)*
X162814000Y-114046000D03*
G04 #@! TO.P,U1,4*
G04 #@! TO.N,Net-(J5-Pad2)*
X139954000Y-111506000D03*
G04 #@! TO.P,U1,13*
G04 #@! TO.N,Net-(R2-Pad2)*
X162814000Y-111506000D03*
G04 #@! TO.P,U1,3*
G04 #@! TO.N,Net-(J1-Pad2)*
X139954000Y-108966000D03*
G04 #@! TO.P,U1,14*
G04 #@! TO.N,Net-(R1-Pad2)*
X162814000Y-108966000D03*
G04 #@! TO.P,U1,2*
G04 #@! TO.N,GND*
X139954000Y-106426000D03*
G04 #@! TO.P,U1,15*
G04 #@! TO.N,Net-(U1-Pad15)*
X162814000Y-106426000D03*
G04 #@! TO.P,U1,1*
G04 #@! TO.N,+5V*
X139954000Y-103886000D03*
G04 #@! TO.P,U1,16*
G04 #@! TO.N,+3V3*
X162814000Y-103886000D03*
G04 #@! TD*
D12*
G04 #@! TO.P,J1,3*
G04 #@! TO.N,+5V*
X139446000Y-81788000D03*
D13*
G04 #@! TO.P,J1,1*
G04 #@! TO.N,GND*
X144526000Y-81788000D03*
D12*
G04 #@! TO.P,J1,2*
G04 #@! TO.N,Net-(J1-Pad2)*
X141986000Y-81788000D03*
G04 #@! TD*
G04 #@! TO.P,J2,2*
G04 #@! TO.N,GND*
X173482000Y-136652000D03*
D13*
G04 #@! TO.P,J2,1*
G04 #@! TO.N,Net-(J2-Pad1)*
X170942000Y-136652000D03*
G04 #@! TD*
D12*
G04 #@! TO.P,J3,2*
G04 #@! TO.N,Net-(J3-Pad2)*
X142494000Y-136652000D03*
D13*
G04 #@! TO.P,J3,1*
G04 #@! TO.N,GND*
X139954000Y-136652000D03*
G04 #@! TD*
D12*
G04 #@! TO.P,J4,2*
G04 #@! TO.N,Net-(J3-Pad2)*
X149098000Y-136652000D03*
D13*
G04 #@! TO.P,J4,1*
G04 #@! TO.N,GND*
X146558000Y-136652000D03*
G04 #@! TD*
D12*
G04 #@! TO.P,J5,2*
G04 #@! TO.N,Net-(J5-Pad2)*
X156210000Y-136652000D03*
D13*
G04 #@! TO.P,J5,1*
G04 #@! TO.N,GND*
X153670000Y-136652000D03*
G04 #@! TD*
D12*
G04 #@! TO.P,J6,2*
G04 #@! TO.N,Net-(J5-Pad2)*
X162814000Y-136652000D03*
D13*
G04 #@! TO.P,J6,1*
G04 #@! TO.N,GND*
X160274000Y-136652000D03*
G04 #@! TD*
D14*
G04 #@! TO.P,SW1,1*
G04 #@! TO.N,Net-(R1-Pad2)*
X167894000Y-108966000D03*
D15*
G04 #@! TO.P,SW1,5*
G04 #@! TO.N,GND*
X175514000Y-116586000D03*
G04 #@! TO.P,SW1,2*
G04 #@! TO.N,Net-(R2-Pad2)*
X167894000Y-111506000D03*
G04 #@! TO.P,SW1,6*
G04 #@! TO.N,GND*
X175514000Y-114046000D03*
G04 #@! TO.P,SW1,3*
G04 #@! TO.N,Net-(R5-Pad2)*
X167894000Y-114046000D03*
G04 #@! TO.P,SW1,7*
G04 #@! TO.N,GND*
X175514000Y-111506000D03*
G04 #@! TO.P,SW1,4*
G04 #@! TO.N,Net-(R6-Pad2)*
X167894000Y-116586000D03*
G04 #@! TO.P,SW1,8*
G04 #@! TO.N,GND*
X175514000Y-108966000D03*
G04 #@! TD*
D16*
G04 #@! TO.P,R1,1*
G04 #@! TO.N,+3V3*
X160020000Y-101346000D03*
D17*
G04 #@! TO.P,R1,2*
G04 #@! TO.N,Net-(R1-Pad2)*
X160020000Y-108966000D03*
G04 #@! TD*
D16*
G04 #@! TO.P,R2,1*
G04 #@! TO.N,+3V3*
X157480000Y-101346000D03*
D17*
G04 #@! TO.P,R2,2*
G04 #@! TO.N,Net-(R2-Pad2)*
X157480000Y-108966000D03*
G04 #@! TD*
D16*
G04 #@! TO.P,R3,1*
G04 #@! TO.N,+3V3*
X145288000Y-121920000D03*
D17*
G04 #@! TO.P,R3,2*
G04 #@! TO.N,Net-(J3-Pad2)*
X152908000Y-121920000D03*
G04 #@! TD*
D16*
G04 #@! TO.P,R4,1*
G04 #@! TO.N,+3V3*
X145288000Y-124460000D03*
D17*
G04 #@! TO.P,R4,2*
G04 #@! TO.N,Net-(J5-Pad2)*
X152908000Y-124460000D03*
G04 #@! TD*
D16*
G04 #@! TO.P,R5,1*
G04 #@! TO.N,+3V3*
X154940000Y-101346000D03*
D17*
G04 #@! TO.P,R5,2*
G04 #@! TO.N,Net-(R5-Pad2)*
X154940000Y-108966000D03*
G04 #@! TD*
D16*
G04 #@! TO.P,R6,1*
G04 #@! TO.N,+3V3*
X152400000Y-101346000D03*
D17*
G04 #@! TO.P,R6,2*
G04 #@! TO.N,Net-(R6-Pad2)*
X152400000Y-108966000D03*
G04 #@! TD*
D18*
G04 #@! TO.N,GND*
G36*
X178106001Y-142800000D02*
X137870000Y-142800000D01*
X137870000Y-136937750D01*
X138319510Y-136937750D01*
X138319510Y-137777800D01*
X138416183Y-138011189D01*
X138594812Y-138189817D01*
X138828201Y-138286490D01*
X139183666Y-138286490D01*
X138949405Y-138520751D01*
X138769000Y-138956289D01*
X138769000Y-139427711D01*
X138949405Y-139863249D01*
X139282751Y-140196595D01*
X139718289Y-140377000D01*
X140189711Y-140377000D01*
X140625249Y-140196595D01*
X140958595Y-139863249D01*
X141139000Y-139427711D01*
X141139000Y-138956289D01*
X140958595Y-138520751D01*
X140724334Y-138286490D01*
X141079799Y-138286490D01*
X141313188Y-138189817D01*
X141491817Y-138011189D01*
X141512270Y-137961812D01*
X141839506Y-138180465D01*
X141822751Y-138187405D01*
X141489405Y-138520751D01*
X141309000Y-138956289D01*
X141309000Y-139427711D01*
X141489405Y-139863249D01*
X141822751Y-140196595D01*
X142258289Y-140377000D01*
X142729711Y-140377000D01*
X143165249Y-140196595D01*
X143498595Y-139863249D01*
X143679000Y-139427711D01*
X143679000Y-138956289D01*
X143498595Y-138520751D01*
X143165249Y-138187405D01*
X143148494Y-138180465D01*
X143672401Y-137830401D01*
X144033655Y-137289746D01*
X144103671Y-136937750D01*
X144923510Y-136937750D01*
X144923510Y-137777800D01*
X145020183Y-138011189D01*
X145198812Y-138189817D01*
X145432201Y-138286490D01*
X145787666Y-138286490D01*
X145553405Y-138520751D01*
X145373000Y-138956289D01*
X145373000Y-139427711D01*
X145553405Y-139863249D01*
X145886751Y-140196595D01*
X146322289Y-140377000D01*
X146793711Y-140377000D01*
X147229249Y-140196595D01*
X147562595Y-139863249D01*
X147743000Y-139427711D01*
X147743000Y-138956289D01*
X147562595Y-138520751D01*
X147328334Y-138286490D01*
X147683799Y-138286490D01*
X147917188Y-138189817D01*
X148095817Y-138011189D01*
X148116270Y-137961812D01*
X148443506Y-138180465D01*
X148426751Y-138187405D01*
X148093405Y-138520751D01*
X147913000Y-138956289D01*
X147913000Y-139427711D01*
X148093405Y-139863249D01*
X148426751Y-140196595D01*
X148862289Y-140377000D01*
X149333711Y-140377000D01*
X149769249Y-140196595D01*
X150102595Y-139863249D01*
X150283000Y-139427711D01*
X150283000Y-138956289D01*
X150102595Y-138520751D01*
X149769249Y-138187405D01*
X149752494Y-138180465D01*
X150276401Y-137830401D01*
X150637655Y-137289746D01*
X150707671Y-136937750D01*
X152035510Y-136937750D01*
X152035510Y-137777800D01*
X152132183Y-138011189D01*
X152310812Y-138189817D01*
X152544201Y-138286490D01*
X152899666Y-138286490D01*
X152665405Y-138520751D01*
X152485000Y-138956289D01*
X152485000Y-139427711D01*
X152665405Y-139863249D01*
X152998751Y-140196595D01*
X153434289Y-140377000D01*
X153905711Y-140377000D01*
X154341249Y-140196595D01*
X154674595Y-139863249D01*
X154855000Y-139427711D01*
X154855000Y-138956289D01*
X154674595Y-138520751D01*
X154440334Y-138286490D01*
X154795799Y-138286490D01*
X155029188Y-138189817D01*
X155207817Y-138011189D01*
X155228270Y-137961812D01*
X155555506Y-138180465D01*
X155538751Y-138187405D01*
X155205405Y-138520751D01*
X155025000Y-138956289D01*
X155025000Y-139427711D01*
X155205405Y-139863249D01*
X155538751Y-140196595D01*
X155974289Y-140377000D01*
X156445711Y-140377000D01*
X156881249Y-140196595D01*
X157214595Y-139863249D01*
X157395000Y-139427711D01*
X157395000Y-138956289D01*
X157214595Y-138520751D01*
X156881249Y-138187405D01*
X156864494Y-138180465D01*
X157388401Y-137830401D01*
X157749655Y-137289746D01*
X157819671Y-136937750D01*
X158639510Y-136937750D01*
X158639510Y-137777800D01*
X158736183Y-138011189D01*
X158914812Y-138189817D01*
X159148201Y-138286490D01*
X159503666Y-138286490D01*
X159269405Y-138520751D01*
X159089000Y-138956289D01*
X159089000Y-139427711D01*
X159269405Y-139863249D01*
X159602751Y-140196595D01*
X160038289Y-140377000D01*
X160509711Y-140377000D01*
X160945249Y-140196595D01*
X161278595Y-139863249D01*
X161459000Y-139427711D01*
X161459000Y-138956289D01*
X161278595Y-138520751D01*
X161044334Y-138286490D01*
X161399799Y-138286490D01*
X161633188Y-138189817D01*
X161811817Y-138011189D01*
X161832270Y-137961812D01*
X162159506Y-138180465D01*
X162142751Y-138187405D01*
X161809405Y-138520751D01*
X161629000Y-138956289D01*
X161629000Y-139427711D01*
X161809405Y-139863249D01*
X162142751Y-140196595D01*
X162578289Y-140377000D01*
X163049711Y-140377000D01*
X163485249Y-140196595D01*
X163818595Y-139863249D01*
X163999000Y-139427711D01*
X163999000Y-138956289D01*
X163818595Y-138520751D01*
X163485249Y-138187405D01*
X163468494Y-138180465D01*
X163992401Y-137830401D01*
X164353655Y-137289746D01*
X164480511Y-136652000D01*
X164353655Y-136014254D01*
X164111946Y-135652510D01*
X169295070Y-135652510D01*
X169295070Y-137651490D01*
X169344353Y-137899255D01*
X169484701Y-138109299D01*
X169694745Y-138249647D01*
X169942510Y-138298930D01*
X170159226Y-138298930D01*
X169937405Y-138520751D01*
X169757000Y-138956289D01*
X169757000Y-139427711D01*
X169937405Y-139863249D01*
X170270751Y-140196595D01*
X170706289Y-140377000D01*
X171177711Y-140377000D01*
X171613249Y-140196595D01*
X171946595Y-139863249D01*
X172127000Y-139427711D01*
X172127000Y-138956289D01*
X171946595Y-138520751D01*
X171724774Y-138298930D01*
X171941490Y-138298930D01*
X172189255Y-138249647D01*
X172399299Y-138109299D01*
X172502942Y-137954187D01*
X172522274Y-137975068D01*
X172901811Y-138149687D01*
X172810751Y-138187405D01*
X172477405Y-138520751D01*
X172297000Y-138956289D01*
X172297000Y-139427711D01*
X172477405Y-139863249D01*
X172810751Y-140196595D01*
X173246289Y-140377000D01*
X173717711Y-140377000D01*
X174153249Y-140196595D01*
X174486595Y-139863249D01*
X174667000Y-139427711D01*
X174667000Y-138956289D01*
X174486595Y-138520751D01*
X174153249Y-138187405D01*
X174062189Y-138149687D01*
X174441726Y-137975068D01*
X174874987Y-137507084D01*
X175071619Y-137032354D01*
X174952265Y-136779000D01*
X173609000Y-136779000D01*
X173609000Y-136799000D01*
X173355000Y-136799000D01*
X173355000Y-136779000D01*
X173335000Y-136779000D01*
X173335000Y-136525000D01*
X173355000Y-136525000D01*
X173355000Y-135181193D01*
X173609000Y-135181193D01*
X173609000Y-136525000D01*
X174952265Y-136525000D01*
X175071619Y-136271646D01*
X174874987Y-135796916D01*
X174441726Y-135328932D01*
X173862355Y-135062373D01*
X173609000Y-135181193D01*
X173355000Y-135181193D01*
X173101645Y-135062373D01*
X172522274Y-135328932D01*
X172502942Y-135349813D01*
X172399299Y-135194701D01*
X172189255Y-135054353D01*
X171941490Y-135005070D01*
X169942510Y-135005070D01*
X169694745Y-135054353D01*
X169484701Y-135194701D01*
X169344353Y-135404745D01*
X169295070Y-135652510D01*
X164111946Y-135652510D01*
X163992401Y-135473599D01*
X163451746Y-135112345D01*
X162974980Y-135017510D01*
X162653020Y-135017510D01*
X162176254Y-135112345D01*
X161832270Y-135342188D01*
X161811817Y-135292811D01*
X161633188Y-135114183D01*
X161399799Y-135017510D01*
X160559750Y-135017510D01*
X160401000Y-135176260D01*
X160401000Y-136525000D01*
X160421000Y-136525000D01*
X160421000Y-136779000D01*
X160401000Y-136779000D01*
X160401000Y-136799000D01*
X160147000Y-136799000D01*
X160147000Y-136779000D01*
X158798260Y-136779000D01*
X158639510Y-136937750D01*
X157819671Y-136937750D01*
X157876511Y-136652000D01*
X157749655Y-136014254D01*
X157423548Y-135526200D01*
X158639510Y-135526200D01*
X158639510Y-136366250D01*
X158798260Y-136525000D01*
X160147000Y-136525000D01*
X160147000Y-135176260D01*
X159988250Y-135017510D01*
X159148201Y-135017510D01*
X158914812Y-135114183D01*
X158736183Y-135292811D01*
X158639510Y-135526200D01*
X157423548Y-135526200D01*
X157388401Y-135473599D01*
X156847746Y-135112345D01*
X156370980Y-135017510D01*
X156049020Y-135017510D01*
X155572254Y-135112345D01*
X155228270Y-135342188D01*
X155207817Y-135292811D01*
X155029188Y-135114183D01*
X154795799Y-135017510D01*
X153955750Y-135017510D01*
X153797000Y-135176260D01*
X153797000Y-136525000D01*
X153817000Y-136525000D01*
X153817000Y-136779000D01*
X153797000Y-136779000D01*
X153797000Y-136799000D01*
X153543000Y-136799000D01*
X153543000Y-136779000D01*
X152194260Y-136779000D01*
X152035510Y-136937750D01*
X150707671Y-136937750D01*
X150764511Y-136652000D01*
X150637655Y-136014254D01*
X150311548Y-135526200D01*
X152035510Y-135526200D01*
X152035510Y-136366250D01*
X152194260Y-136525000D01*
X153543000Y-136525000D01*
X153543000Y-135176260D01*
X153384250Y-135017510D01*
X152544201Y-135017510D01*
X152310812Y-135114183D01*
X152132183Y-135292811D01*
X152035510Y-135526200D01*
X150311548Y-135526200D01*
X150276401Y-135473599D01*
X149735746Y-135112345D01*
X149258980Y-135017510D01*
X148937020Y-135017510D01*
X148460254Y-135112345D01*
X148116270Y-135342188D01*
X148095817Y-135292811D01*
X147917188Y-135114183D01*
X147683799Y-135017510D01*
X146843750Y-135017510D01*
X146685000Y-135176260D01*
X146685000Y-136525000D01*
X146705000Y-136525000D01*
X146705000Y-136779000D01*
X146685000Y-136779000D01*
X146685000Y-136799000D01*
X146431000Y-136799000D01*
X146431000Y-136779000D01*
X145082260Y-136779000D01*
X144923510Y-136937750D01*
X144103671Y-136937750D01*
X144160511Y-136652000D01*
X144033655Y-136014254D01*
X143707548Y-135526200D01*
X144923510Y-135526200D01*
X144923510Y-136366250D01*
X145082260Y-136525000D01*
X146431000Y-136525000D01*
X146431000Y-135176260D01*
X146272250Y-135017510D01*
X145432201Y-135017510D01*
X145198812Y-135114183D01*
X145020183Y-135292811D01*
X144923510Y-135526200D01*
X143707548Y-135526200D01*
X143672401Y-135473599D01*
X143131746Y-135112345D01*
X142654980Y-135017510D01*
X142333020Y-135017510D01*
X141856254Y-135112345D01*
X141512270Y-135342188D01*
X141491817Y-135292811D01*
X141313188Y-135114183D01*
X141079799Y-135017510D01*
X140239750Y-135017510D01*
X140081000Y-135176260D01*
X140081000Y-136525000D01*
X140101000Y-136525000D01*
X140101000Y-136779000D01*
X140081000Y-136779000D01*
X140081000Y-136799000D01*
X139827000Y-136799000D01*
X139827000Y-136779000D01*
X138478260Y-136779000D01*
X138319510Y-136937750D01*
X137870000Y-136937750D01*
X137870000Y-135526200D01*
X138319510Y-135526200D01*
X138319510Y-136366250D01*
X138478260Y-136525000D01*
X139827000Y-136525000D01*
X139827000Y-135176260D01*
X139668250Y-135017510D01*
X138828201Y-135017510D01*
X138594812Y-135114183D01*
X138416183Y-135292811D01*
X138319510Y-135526200D01*
X137870000Y-135526200D01*
X137870000Y-108660670D01*
X138419000Y-108660670D01*
X138419000Y-109271330D01*
X138652690Y-109835507D01*
X139053183Y-110236000D01*
X138652690Y-110636493D01*
X138419000Y-111200670D01*
X138419000Y-111811330D01*
X138652690Y-112375507D01*
X139053183Y-112776000D01*
X138652690Y-113176493D01*
X138419000Y-113740670D01*
X138419000Y-114351330D01*
X138652690Y-114915507D01*
X139053183Y-115316000D01*
X138652690Y-115716493D01*
X138419000Y-116280670D01*
X138419000Y-116891330D01*
X138652690Y-117455507D01*
X139053183Y-117856000D01*
X138652690Y-118256493D01*
X138419000Y-118820670D01*
X138419000Y-119431330D01*
X138652690Y-119995507D01*
X139053183Y-120396000D01*
X138652690Y-120796493D01*
X138419000Y-121360670D01*
X138419000Y-121971330D01*
X138652690Y-122535507D01*
X139084493Y-122967310D01*
X139648670Y-123201000D01*
X140259330Y-123201000D01*
X140823507Y-122967310D01*
X141255310Y-122535507D01*
X141489000Y-121971330D01*
X141489000Y-121654452D01*
X143953000Y-121654452D01*
X143953000Y-122185548D01*
X144156242Y-122676217D01*
X144531783Y-123051758D01*
X144865528Y-123190000D01*
X144531783Y-123328242D01*
X144156242Y-123703783D01*
X143953000Y-124194452D01*
X143953000Y-124725548D01*
X144156242Y-125216217D01*
X144531783Y-125591758D01*
X145022452Y-125795000D01*
X145553548Y-125795000D01*
X146044217Y-125591758D01*
X146419758Y-125216217D01*
X146623000Y-124725548D01*
X146623000Y-124194452D01*
X146419758Y-123703783D01*
X146044217Y-123328242D01*
X145710472Y-123190000D01*
X146044217Y-123051758D01*
X146419758Y-122676217D01*
X146623000Y-122185548D01*
X146623000Y-121920000D01*
X151546846Y-121920000D01*
X151650458Y-122440891D01*
X151945519Y-122882481D01*
X152387109Y-123177542D01*
X152449739Y-123190000D01*
X152387109Y-123202458D01*
X151945519Y-123497519D01*
X151650458Y-123939109D01*
X151546846Y-124460000D01*
X151650458Y-124980891D01*
X151945519Y-125422481D01*
X152387109Y-125717542D01*
X152776515Y-125795000D01*
X153039485Y-125795000D01*
X153428891Y-125717542D01*
X153870481Y-125422481D01*
X154165542Y-124980891D01*
X154269154Y-124460000D01*
X154165542Y-123939109D01*
X153870481Y-123497519D01*
X153428891Y-123202458D01*
X153366261Y-123190000D01*
X153428891Y-123177542D01*
X153870481Y-122882481D01*
X154165542Y-122440891D01*
X154269154Y-121920000D01*
X154165542Y-121399109D01*
X153870481Y-120957519D01*
X153428891Y-120662458D01*
X153039485Y-120585000D01*
X152776515Y-120585000D01*
X152387109Y-120662458D01*
X151945519Y-120957519D01*
X151650458Y-121399109D01*
X151546846Y-121920000D01*
X146623000Y-121920000D01*
X146623000Y-121654452D01*
X146419758Y-121163783D01*
X146044217Y-120788242D01*
X145553548Y-120585000D01*
X145022452Y-120585000D01*
X144531783Y-120788242D01*
X144156242Y-121163783D01*
X143953000Y-121654452D01*
X141489000Y-121654452D01*
X141489000Y-121360670D01*
X141255310Y-120796493D01*
X140854817Y-120396000D01*
X141255310Y-119995507D01*
X141489000Y-119431330D01*
X141489000Y-118820670D01*
X141255310Y-118256493D01*
X140854817Y-117856000D01*
X141255310Y-117455507D01*
X141489000Y-116891330D01*
X141489000Y-116280670D01*
X141255310Y-115716493D01*
X140854817Y-115316000D01*
X141255310Y-114915507D01*
X141489000Y-114351330D01*
X141489000Y-113740670D01*
X141255310Y-113176493D01*
X140854817Y-112776000D01*
X141255310Y-112375507D01*
X141489000Y-111811330D01*
X141489000Y-111200670D01*
X141255310Y-110636493D01*
X140854817Y-110236000D01*
X141255310Y-109835507D01*
X141489000Y-109271330D01*
X141489000Y-108966000D01*
X151038846Y-108966000D01*
X151142458Y-109486891D01*
X151437519Y-109928481D01*
X151879109Y-110223542D01*
X152268515Y-110301000D01*
X152531485Y-110301000D01*
X152920891Y-110223542D01*
X153362481Y-109928481D01*
X153657542Y-109486891D01*
X153670000Y-109424261D01*
X153682458Y-109486891D01*
X153977519Y-109928481D01*
X154419109Y-110223542D01*
X154808515Y-110301000D01*
X155071485Y-110301000D01*
X155460891Y-110223542D01*
X155902481Y-109928481D01*
X156197542Y-109486891D01*
X156210000Y-109424261D01*
X156222458Y-109486891D01*
X156517519Y-109928481D01*
X156959109Y-110223542D01*
X157348515Y-110301000D01*
X157611485Y-110301000D01*
X158000891Y-110223542D01*
X158442481Y-109928481D01*
X158737542Y-109486891D01*
X158750000Y-109424261D01*
X158762458Y-109486891D01*
X159057519Y-109928481D01*
X159499109Y-110223542D01*
X159888515Y-110301000D01*
X160151485Y-110301000D01*
X160540891Y-110223542D01*
X160982481Y-109928481D01*
X161277542Y-109486891D01*
X161306982Y-109338885D01*
X161512690Y-109835507D01*
X161913183Y-110236000D01*
X161512690Y-110636493D01*
X161279000Y-111200670D01*
X161279000Y-111811330D01*
X161512690Y-112375507D01*
X161913183Y-112776000D01*
X161512690Y-113176493D01*
X161279000Y-113740670D01*
X161279000Y-114351330D01*
X161512690Y-114915507D01*
X161913183Y-115316000D01*
X161512690Y-115716493D01*
X161279000Y-116280670D01*
X161279000Y-116891330D01*
X161512690Y-117455507D01*
X161913183Y-117856000D01*
X161512690Y-118256493D01*
X161279000Y-118820670D01*
X161279000Y-119431330D01*
X161512690Y-119995507D01*
X161913183Y-120396000D01*
X161512690Y-120796493D01*
X161279000Y-121360670D01*
X161279000Y-121971330D01*
X161512690Y-122535507D01*
X161944493Y-122967310D01*
X162508670Y-123201000D01*
X163119330Y-123201000D01*
X163683507Y-122967310D01*
X164115310Y-122535507D01*
X164349000Y-121971330D01*
X164349000Y-121360670D01*
X164115310Y-120796493D01*
X163714817Y-120396000D01*
X164115310Y-119995507D01*
X164349000Y-119431330D01*
X164349000Y-118820670D01*
X164115310Y-118256493D01*
X163714817Y-117856000D01*
X164115310Y-117455507D01*
X164349000Y-116891330D01*
X164349000Y-116280670D01*
X164115310Y-115716493D01*
X163714817Y-115316000D01*
X164115310Y-114915507D01*
X164349000Y-114351330D01*
X164349000Y-113740670D01*
X164115310Y-113176493D01*
X163714817Y-112776000D01*
X164115310Y-112375507D01*
X164349000Y-111811330D01*
X164349000Y-111506000D01*
X166430887Y-111506000D01*
X166542260Y-112065909D01*
X166859423Y-112540577D01*
X167211758Y-112776000D01*
X166859423Y-113011423D01*
X166542260Y-113486091D01*
X166430887Y-114046000D01*
X166542260Y-114605909D01*
X166859423Y-115080577D01*
X167211758Y-115316000D01*
X166859423Y-115551423D01*
X166542260Y-116026091D01*
X166430887Y-116586000D01*
X166542260Y-117145909D01*
X166859423Y-117620577D01*
X167334091Y-117937740D01*
X167752667Y-118021000D01*
X168035333Y-118021000D01*
X168453909Y-117937740D01*
X168928577Y-117620577D01*
X169245740Y-117145909D01*
X169287684Y-116935039D01*
X174122096Y-116935039D01*
X174282959Y-117323423D01*
X174658866Y-117738389D01*
X175164959Y-117977914D01*
X175387000Y-117856629D01*
X175387000Y-116713000D01*
X175641000Y-116713000D01*
X175641000Y-117856629D01*
X175863041Y-117977914D01*
X176369134Y-117738389D01*
X176745041Y-117323423D01*
X176905904Y-116935039D01*
X176783915Y-116713000D01*
X175641000Y-116713000D01*
X175387000Y-116713000D01*
X174244085Y-116713000D01*
X174122096Y-116935039D01*
X169287684Y-116935039D01*
X169357113Y-116586000D01*
X169245740Y-116026091D01*
X168928577Y-115551423D01*
X168576242Y-115316000D01*
X168928577Y-115080577D01*
X169245740Y-114605909D01*
X169287684Y-114395039D01*
X174122096Y-114395039D01*
X174282959Y-114783423D01*
X174658866Y-115198389D01*
X174907367Y-115316000D01*
X174658866Y-115433611D01*
X174282959Y-115848577D01*
X174122096Y-116236961D01*
X174244085Y-116459000D01*
X175387000Y-116459000D01*
X175387000Y-114173000D01*
X175641000Y-114173000D01*
X175641000Y-116459000D01*
X176783915Y-116459000D01*
X176905904Y-116236961D01*
X176745041Y-115848577D01*
X176369134Y-115433611D01*
X176120633Y-115316000D01*
X176369134Y-115198389D01*
X176745041Y-114783423D01*
X176905904Y-114395039D01*
X176783915Y-114173000D01*
X175641000Y-114173000D01*
X175387000Y-114173000D01*
X174244085Y-114173000D01*
X174122096Y-114395039D01*
X169287684Y-114395039D01*
X169357113Y-114046000D01*
X169245740Y-113486091D01*
X168928577Y-113011423D01*
X168576242Y-112776000D01*
X168928577Y-112540577D01*
X169245740Y-112065909D01*
X169287684Y-111855039D01*
X174122096Y-111855039D01*
X174282959Y-112243423D01*
X174658866Y-112658389D01*
X174907367Y-112776000D01*
X174658866Y-112893611D01*
X174282959Y-113308577D01*
X174122096Y-113696961D01*
X174244085Y-113919000D01*
X175387000Y-113919000D01*
X175387000Y-111633000D01*
X175641000Y-111633000D01*
X175641000Y-113919000D01*
X176783915Y-113919000D01*
X176905904Y-113696961D01*
X176745041Y-113308577D01*
X176369134Y-112893611D01*
X176120633Y-112776000D01*
X176369134Y-112658389D01*
X176745041Y-112243423D01*
X176905904Y-111855039D01*
X176783915Y-111633000D01*
X175641000Y-111633000D01*
X175387000Y-111633000D01*
X174244085Y-111633000D01*
X174122096Y-111855039D01*
X169287684Y-111855039D01*
X169357113Y-111506000D01*
X169245740Y-110946091D01*
X168928577Y-110471423D01*
X168807894Y-110390785D01*
X168941765Y-110364157D01*
X169151809Y-110223809D01*
X169292157Y-110013765D01*
X169341440Y-109766000D01*
X169341440Y-109315039D01*
X174122096Y-109315039D01*
X174282959Y-109703423D01*
X174658866Y-110118389D01*
X174907367Y-110236000D01*
X174658866Y-110353611D01*
X174282959Y-110768577D01*
X174122096Y-111156961D01*
X174244085Y-111379000D01*
X175387000Y-111379000D01*
X175387000Y-109093000D01*
X175641000Y-109093000D01*
X175641000Y-111379000D01*
X176783915Y-111379000D01*
X176905904Y-111156961D01*
X176745041Y-110768577D01*
X176369134Y-110353611D01*
X176120633Y-110236000D01*
X176369134Y-110118389D01*
X176745041Y-109703423D01*
X176905904Y-109315039D01*
X176783915Y-109093000D01*
X175641000Y-109093000D01*
X175387000Y-109093000D01*
X174244085Y-109093000D01*
X174122096Y-109315039D01*
X169341440Y-109315039D01*
X169341440Y-108616961D01*
X174122096Y-108616961D01*
X174244085Y-108839000D01*
X175387000Y-108839000D01*
X175387000Y-107695371D01*
X175641000Y-107695371D01*
X175641000Y-108839000D01*
X176783915Y-108839000D01*
X176905904Y-108616961D01*
X176745041Y-108228577D01*
X176369134Y-107813611D01*
X175863041Y-107574086D01*
X175641000Y-107695371D01*
X175387000Y-107695371D01*
X175164959Y-107574086D01*
X174658866Y-107813611D01*
X174282959Y-108228577D01*
X174122096Y-108616961D01*
X169341440Y-108616961D01*
X169341440Y-108166000D01*
X169292157Y-107918235D01*
X169151809Y-107708191D01*
X168941765Y-107567843D01*
X168694000Y-107518560D01*
X167094000Y-107518560D01*
X166846235Y-107567843D01*
X166636191Y-107708191D01*
X166495843Y-107918235D01*
X166446560Y-108166000D01*
X166446560Y-109766000D01*
X166495843Y-110013765D01*
X166636191Y-110223809D01*
X166846235Y-110364157D01*
X166980106Y-110390785D01*
X166859423Y-110471423D01*
X166542260Y-110946091D01*
X166430887Y-111506000D01*
X164349000Y-111506000D01*
X164349000Y-111200670D01*
X164115310Y-110636493D01*
X163714817Y-110236000D01*
X164115310Y-109835507D01*
X164349000Y-109271330D01*
X164349000Y-108660670D01*
X164115310Y-108096493D01*
X163714817Y-107696000D01*
X164115310Y-107295507D01*
X164349000Y-106731330D01*
X164349000Y-106120670D01*
X164115310Y-105556493D01*
X163714817Y-105156000D01*
X164115310Y-104755507D01*
X164349000Y-104191330D01*
X164349000Y-103580670D01*
X164115310Y-103016493D01*
X163683507Y-102584690D01*
X163119330Y-102351000D01*
X162508670Y-102351000D01*
X161944493Y-102584690D01*
X161512690Y-103016493D01*
X161279000Y-103580670D01*
X161279000Y-104191330D01*
X161512690Y-104755507D01*
X161913183Y-105156000D01*
X161512690Y-105556493D01*
X161279000Y-106120670D01*
X161279000Y-106731330D01*
X161512690Y-107295507D01*
X161913183Y-107696000D01*
X161512690Y-108096493D01*
X161306982Y-108593115D01*
X161277542Y-108445109D01*
X160982481Y-108003519D01*
X160540891Y-107708458D01*
X160151485Y-107631000D01*
X159888515Y-107631000D01*
X159499109Y-107708458D01*
X159057519Y-108003519D01*
X158762458Y-108445109D01*
X158750000Y-108507739D01*
X158737542Y-108445109D01*
X158442481Y-108003519D01*
X158000891Y-107708458D01*
X157611485Y-107631000D01*
X157348515Y-107631000D01*
X156959109Y-107708458D01*
X156517519Y-108003519D01*
X156222458Y-108445109D01*
X156210000Y-108507739D01*
X156197542Y-108445109D01*
X155902481Y-108003519D01*
X155460891Y-107708458D01*
X155071485Y-107631000D01*
X154808515Y-107631000D01*
X154419109Y-107708458D01*
X153977519Y-108003519D01*
X153682458Y-108445109D01*
X153670000Y-108507739D01*
X153657542Y-108445109D01*
X153362481Y-108003519D01*
X152920891Y-107708458D01*
X152531485Y-107631000D01*
X152268515Y-107631000D01*
X151879109Y-107708458D01*
X151437519Y-108003519D01*
X151142458Y-108445109D01*
X151038846Y-108966000D01*
X141489000Y-108966000D01*
X141489000Y-108660670D01*
X141255310Y-108096493D01*
X140823507Y-107664690D01*
X140803885Y-107656562D01*
X140854554Y-107506159D01*
X139954000Y-106605605D01*
X139053446Y-107506159D01*
X139104115Y-107656562D01*
X139084493Y-107664690D01*
X138652690Y-108096493D01*
X138419000Y-108660670D01*
X137870000Y-108660670D01*
X137870000Y-106185336D01*
X138407542Y-106185336D01*
X138433161Y-106795460D01*
X138617357Y-107240148D01*
X138873841Y-107326554D01*
X139774395Y-106426000D01*
X140133605Y-106426000D01*
X141034159Y-107326554D01*
X141290643Y-107240148D01*
X141500458Y-106666664D01*
X141474839Y-106056540D01*
X141290643Y-105611852D01*
X141034159Y-105525446D01*
X140133605Y-106426000D01*
X139774395Y-106426000D01*
X138873841Y-105525446D01*
X138617357Y-105611852D01*
X138407542Y-106185336D01*
X137870000Y-106185336D01*
X137870000Y-103580670D01*
X138419000Y-103580670D01*
X138419000Y-104191330D01*
X138652690Y-104755507D01*
X139084493Y-105187310D01*
X139104115Y-105195438D01*
X139053446Y-105345841D01*
X139954000Y-106246395D01*
X140854554Y-105345841D01*
X140803885Y-105195438D01*
X140823507Y-105187310D01*
X141255310Y-104755507D01*
X141489000Y-104191330D01*
X141489000Y-103580670D01*
X141255310Y-103016493D01*
X140823507Y-102584690D01*
X140259330Y-102351000D01*
X139648670Y-102351000D01*
X139084493Y-102584690D01*
X138652690Y-103016493D01*
X138419000Y-103580670D01*
X137870000Y-103580670D01*
X137870000Y-101080452D01*
X151065000Y-101080452D01*
X151065000Y-101611548D01*
X151268242Y-102102217D01*
X151643783Y-102477758D01*
X152134452Y-102681000D01*
X152665548Y-102681000D01*
X153156217Y-102477758D01*
X153531758Y-102102217D01*
X153670000Y-101768472D01*
X153808242Y-102102217D01*
X154183783Y-102477758D01*
X154674452Y-102681000D01*
X155205548Y-102681000D01*
X155696217Y-102477758D01*
X156071758Y-102102217D01*
X156210000Y-101768472D01*
X156348242Y-102102217D01*
X156723783Y-102477758D01*
X157214452Y-102681000D01*
X157745548Y-102681000D01*
X158236217Y-102477758D01*
X158611758Y-102102217D01*
X158750000Y-101768472D01*
X158888242Y-102102217D01*
X159263783Y-102477758D01*
X159754452Y-102681000D01*
X160285548Y-102681000D01*
X160776217Y-102477758D01*
X161151758Y-102102217D01*
X161355000Y-101611548D01*
X161355000Y-101080452D01*
X161151758Y-100589783D01*
X160776217Y-100214242D01*
X160285548Y-100011000D01*
X159754452Y-100011000D01*
X159263783Y-100214242D01*
X158888242Y-100589783D01*
X158750000Y-100923528D01*
X158611758Y-100589783D01*
X158236217Y-100214242D01*
X157745548Y-100011000D01*
X157214452Y-100011000D01*
X156723783Y-100214242D01*
X156348242Y-100589783D01*
X156210000Y-100923528D01*
X156071758Y-100589783D01*
X155696217Y-100214242D01*
X155205548Y-100011000D01*
X154674452Y-100011000D01*
X154183783Y-100214242D01*
X153808242Y-100589783D01*
X153670000Y-100923528D01*
X153531758Y-100589783D01*
X153156217Y-100214242D01*
X152665548Y-100011000D01*
X152134452Y-100011000D01*
X151643783Y-100214242D01*
X151268242Y-100589783D01*
X151065000Y-101080452D01*
X137870000Y-101080452D01*
X137870000Y-96037625D01*
X168157416Y-96037625D01*
X168168320Y-96073105D01*
X168168320Y-96458895D01*
X168157416Y-96494375D01*
X168168320Y-96609374D01*
X168168320Y-96648388D01*
X168175389Y-96683926D01*
X168186031Y-96796162D01*
X168204736Y-96831466D01*
X168212532Y-96870657D01*
X168275171Y-96964403D01*
X168327957Y-97064029D01*
X168358752Y-97089490D01*
X168380950Y-97122711D01*
X168474694Y-97185349D01*
X168561589Y-97257192D01*
X168599782Y-97268930D01*
X168633004Y-97291128D01*
X168743585Y-97313124D01*
X168778213Y-97323766D01*
X168817016Y-97327730D01*
X168862820Y-97336841D01*
X168837231Y-97375138D01*
X168812360Y-97405739D01*
X168795634Y-97437393D01*
X168733233Y-97530783D01*
X168725353Y-97570398D01*
X168706483Y-97606109D01*
X168696006Y-97717938D01*
X168674093Y-97828100D01*
X168681973Y-97867714D01*
X168678205Y-97907929D01*
X168711321Y-98015257D01*
X168733233Y-98125417D01*
X168755672Y-98159000D01*
X168767581Y-98197596D01*
X168839248Y-98284080D01*
X168859138Y-98313848D01*
X168887023Y-98341733D01*
X168961005Y-98431011D01*
X168993440Y-98448150D01*
X169267850Y-98722560D01*
X169284989Y-98754995D01*
X169374267Y-98828977D01*
X169402152Y-98856862D01*
X169431920Y-98876753D01*
X169518404Y-98948419D01*
X169556999Y-98960327D01*
X169590582Y-98982767D01*
X169700747Y-99004680D01*
X169808071Y-99037795D01*
X169848283Y-99034028D01*
X169887900Y-99041908D01*
X169998069Y-99019994D01*
X170109891Y-99009517D01*
X170145601Y-98990647D01*
X170185218Y-98982767D01*
X170278610Y-98920365D01*
X170310261Y-98903640D01*
X170340861Y-98878770D01*
X170437271Y-98814351D01*
X170457653Y-98783848D01*
X170644330Y-98632126D01*
X170717754Y-98653168D01*
X170749819Y-98649510D01*
X170781468Y-98655827D01*
X170899448Y-98632440D01*
X171018943Y-98618808D01*
X171047166Y-98603158D01*
X171078824Y-98596883D01*
X171178877Y-98530125D01*
X171284057Y-98471803D01*
X171304142Y-98446545D01*
X171330989Y-98428632D01*
X171397875Y-98328672D01*
X171450000Y-98263123D01*
X171502125Y-98328672D01*
X171569011Y-98428632D01*
X171595858Y-98446545D01*
X171615943Y-98471803D01*
X171721121Y-98530124D01*
X171821175Y-98596883D01*
X171852833Y-98603158D01*
X171881056Y-98618808D01*
X172000552Y-98632440D01*
X172118532Y-98655827D01*
X172150180Y-98649510D01*
X172182244Y-98653168D01*
X172255669Y-98632125D01*
X172442348Y-98783849D01*
X172462729Y-98814351D01*
X172559132Y-98878765D01*
X172589738Y-98903640D01*
X172621398Y-98920370D01*
X172714783Y-98982767D01*
X172754394Y-98990646D01*
X172790108Y-99009518D01*
X172901948Y-99019996D01*
X173012100Y-99041907D01*
X173051711Y-99034028D01*
X173091929Y-99037796D01*
X173199264Y-99004678D01*
X173309417Y-98982767D01*
X173342999Y-98960328D01*
X173381597Y-98948419D01*
X173468084Y-98876750D01*
X173497848Y-98856862D01*
X173525731Y-98828979D01*
X173615011Y-98754995D01*
X173632150Y-98722560D01*
X173906560Y-98448150D01*
X173938995Y-98431011D01*
X174012979Y-98341731D01*
X174040862Y-98313848D01*
X174060750Y-98284083D01*
X174132419Y-98197597D01*
X174144328Y-98159000D01*
X174166767Y-98125418D01*
X174188679Y-98015260D01*
X174221796Y-97907929D01*
X174218028Y-97867714D01*
X174225908Y-97828100D01*
X174203996Y-97717941D01*
X174193518Y-97606108D01*
X174174647Y-97570394D01*
X174166767Y-97530782D01*
X174104368Y-97437395D01*
X174087640Y-97405738D01*
X174062767Y-97375134D01*
X174037180Y-97336841D01*
X174082984Y-97327730D01*
X174121787Y-97323766D01*
X174156415Y-97313124D01*
X174266996Y-97291128D01*
X174300218Y-97268930D01*
X174338412Y-97257192D01*
X174425304Y-97185350D01*
X174519051Y-97122711D01*
X174541251Y-97089487D01*
X174572043Y-97064028D01*
X174624826Y-96964408D01*
X174687468Y-96870657D01*
X174695264Y-96831466D01*
X174713969Y-96796162D01*
X174724611Y-96683926D01*
X174731680Y-96648388D01*
X174731680Y-96609374D01*
X174742584Y-96494375D01*
X174731680Y-96458895D01*
X174731680Y-96073105D01*
X174742584Y-96037625D01*
X174731680Y-95922626D01*
X174731680Y-95883612D01*
X174724611Y-95848074D01*
X174713969Y-95735838D01*
X174695264Y-95700534D01*
X174687468Y-95661343D01*
X174624826Y-95567592D01*
X174572043Y-95467972D01*
X174541251Y-95442513D01*
X174519051Y-95409289D01*
X174425303Y-95346648D01*
X174338412Y-95274808D01*
X174300219Y-95263071D01*
X174266997Y-95240872D01*
X174156414Y-95218876D01*
X174121787Y-95208234D01*
X174082985Y-95204270D01*
X174037180Y-95195159D01*
X174062767Y-95156866D01*
X174087640Y-95126262D01*
X174104368Y-95094605D01*
X174166767Y-95001218D01*
X174174647Y-94961606D01*
X174193518Y-94925892D01*
X174203996Y-94814059D01*
X174225908Y-94703900D01*
X174218028Y-94664286D01*
X174221796Y-94624071D01*
X174188679Y-94516740D01*
X174166767Y-94406582D01*
X174144328Y-94373000D01*
X174132419Y-94334403D01*
X174060750Y-94247917D01*
X174040862Y-94218152D01*
X174012979Y-94190269D01*
X173938995Y-94100989D01*
X173906560Y-94083850D01*
X173632150Y-93809440D01*
X173615011Y-93777005D01*
X173525731Y-93703021D01*
X173497848Y-93675138D01*
X173468084Y-93655250D01*
X173381597Y-93583581D01*
X173342999Y-93571672D01*
X173309417Y-93549233D01*
X173199264Y-93527322D01*
X173091929Y-93494204D01*
X173051711Y-93497972D01*
X173012100Y-93490093D01*
X172901948Y-93512004D01*
X172790108Y-93522482D01*
X172754394Y-93541354D01*
X172714783Y-93549233D01*
X172621398Y-93611630D01*
X172589738Y-93628360D01*
X172559132Y-93653235D01*
X172520841Y-93678820D01*
X172511730Y-93633015D01*
X172507766Y-93594213D01*
X172497124Y-93559587D01*
X172475128Y-93449003D01*
X172452929Y-93415780D01*
X172441192Y-93377589D01*
X172369352Y-93290698D01*
X172306711Y-93196949D01*
X172273489Y-93174750D01*
X172248029Y-93143957D01*
X172148406Y-93091173D01*
X172054657Y-93028532D01*
X172015466Y-93020736D01*
X171980162Y-93002031D01*
X171867926Y-92991389D01*
X171832388Y-92984320D01*
X171793374Y-92984320D01*
X171678375Y-92973416D01*
X171642895Y-92984320D01*
X171257105Y-92984320D01*
X171221625Y-92973416D01*
X171106626Y-92984320D01*
X171067612Y-92984320D01*
X171032074Y-92991389D01*
X170919838Y-93002031D01*
X170884534Y-93020736D01*
X170845343Y-93028532D01*
X170751592Y-93091174D01*
X170651972Y-93143957D01*
X170626513Y-93174749D01*
X170593289Y-93196949D01*
X170530648Y-93290697D01*
X170458808Y-93377588D01*
X170447071Y-93415781D01*
X170424872Y-93449003D01*
X170402876Y-93559586D01*
X170392234Y-93594213D01*
X170388270Y-93633015D01*
X170379159Y-93678820D01*
X170340861Y-93653230D01*
X170310261Y-93628360D01*
X170278610Y-93611635D01*
X170185218Y-93549233D01*
X170145601Y-93541353D01*
X170109891Y-93522483D01*
X169998069Y-93512006D01*
X169887900Y-93490092D01*
X169848283Y-93497972D01*
X169808071Y-93494205D01*
X169700747Y-93527320D01*
X169590582Y-93549233D01*
X169556999Y-93571673D01*
X169518404Y-93583581D01*
X169431920Y-93655247D01*
X169402152Y-93675138D01*
X169374267Y-93703023D01*
X169284989Y-93777005D01*
X169267850Y-93809440D01*
X168993440Y-94083850D01*
X168961005Y-94100989D01*
X168887023Y-94190267D01*
X168859138Y-94218152D01*
X168839248Y-94247920D01*
X168767581Y-94334404D01*
X168755672Y-94373000D01*
X168733233Y-94406583D01*
X168711321Y-94516743D01*
X168678205Y-94624071D01*
X168681973Y-94664286D01*
X168674093Y-94703900D01*
X168696006Y-94814062D01*
X168706483Y-94925891D01*
X168725353Y-94961602D01*
X168733233Y-95001217D01*
X168795634Y-95094607D01*
X168812360Y-95126261D01*
X168837231Y-95156862D01*
X168862820Y-95195159D01*
X168817015Y-95204270D01*
X168778213Y-95208234D01*
X168743587Y-95218876D01*
X168633003Y-95240872D01*
X168599780Y-95263071D01*
X168561589Y-95274808D01*
X168474698Y-95346648D01*
X168380949Y-95409289D01*
X168358751Y-95442511D01*
X168327957Y-95467971D01*
X168275171Y-95567597D01*
X168212532Y-95661344D01*
X168204737Y-95700533D01*
X168186031Y-95735838D01*
X168175389Y-95848076D01*
X168168320Y-95883613D01*
X168168320Y-95922626D01*
X168157416Y-96037625D01*
X137870000Y-96037625D01*
X137870000Y-82243028D01*
X137906345Y-82425746D01*
X138267599Y-82966401D01*
X138808254Y-83327655D01*
X139285020Y-83422490D01*
X139606980Y-83422490D01*
X140083746Y-83327655D01*
X140624401Y-82966401D01*
X140716000Y-82829313D01*
X140807599Y-82966401D01*
X141348254Y-83327655D01*
X141825020Y-83422490D01*
X142146980Y-83422490D01*
X142623746Y-83327655D01*
X142967730Y-83097812D01*
X142988183Y-83147189D01*
X143166812Y-83325817D01*
X143400201Y-83422490D01*
X144240250Y-83422490D01*
X144399000Y-83263740D01*
X144399000Y-81915000D01*
X144653000Y-81915000D01*
X144653000Y-83263740D01*
X144811750Y-83422490D01*
X145651799Y-83422490D01*
X145885188Y-83325817D01*
X146063817Y-83147189D01*
X146160490Y-82913800D01*
X146160490Y-82073750D01*
X146001740Y-81915000D01*
X144653000Y-81915000D01*
X144399000Y-81915000D01*
X144379000Y-81915000D01*
X144379000Y-81661000D01*
X144399000Y-81661000D01*
X144399000Y-81641000D01*
X144653000Y-81641000D01*
X144653000Y-81661000D01*
X146001740Y-81661000D01*
X146160490Y-81502250D01*
X146160490Y-80662200D01*
X146063817Y-80428811D01*
X145885188Y-80250183D01*
X145651799Y-80153510D01*
X145296334Y-80153510D01*
X145530595Y-79919249D01*
X145711000Y-79483711D01*
X145711000Y-79012289D01*
X145530595Y-78576751D01*
X145197249Y-78243405D01*
X144761711Y-78063000D01*
X144290289Y-78063000D01*
X143854751Y-78243405D01*
X143521405Y-78576751D01*
X143341000Y-79012289D01*
X143341000Y-79483711D01*
X143521405Y-79919249D01*
X143755666Y-80153510D01*
X143400201Y-80153510D01*
X143166812Y-80250183D01*
X142988183Y-80428811D01*
X142967730Y-80478188D01*
X142640494Y-80259535D01*
X142657249Y-80252595D01*
X142990595Y-79919249D01*
X143171000Y-79483711D01*
X143171000Y-79012289D01*
X142990595Y-78576751D01*
X142657249Y-78243405D01*
X142221711Y-78063000D01*
X141750289Y-78063000D01*
X141314751Y-78243405D01*
X140981405Y-78576751D01*
X140801000Y-79012289D01*
X140801000Y-79483711D01*
X140981405Y-79919249D01*
X141314751Y-80252595D01*
X141331506Y-80259535D01*
X140807599Y-80609599D01*
X140716000Y-80746687D01*
X140624401Y-80609599D01*
X140100494Y-80259535D01*
X140117249Y-80252595D01*
X140450595Y-79919249D01*
X140631000Y-79483711D01*
X140631000Y-79012289D01*
X140450595Y-78576751D01*
X140117249Y-78243405D01*
X139681711Y-78063000D01*
X139210289Y-78063000D01*
X138774751Y-78243405D01*
X138441405Y-78576751D01*
X138261000Y-79012289D01*
X138261000Y-79483711D01*
X138441405Y-79919249D01*
X138774751Y-80252595D01*
X138791506Y-80259535D01*
X138267599Y-80609599D01*
X137906345Y-81150254D01*
X137870000Y-81332972D01*
X137870000Y-77926000D01*
X178106000Y-77926000D01*
X178106001Y-142800000D01*
X178106001Y-142800000D01*
G37*
X178106001Y-142800000D02*
X137870000Y-142800000D01*
X137870000Y-136937750D01*
X138319510Y-136937750D01*
X138319510Y-137777800D01*
X138416183Y-138011189D01*
X138594812Y-138189817D01*
X138828201Y-138286490D01*
X139183666Y-138286490D01*
X138949405Y-138520751D01*
X138769000Y-138956289D01*
X138769000Y-139427711D01*
X138949405Y-139863249D01*
X139282751Y-140196595D01*
X139718289Y-140377000D01*
X140189711Y-140377000D01*
X140625249Y-140196595D01*
X140958595Y-139863249D01*
X141139000Y-139427711D01*
X141139000Y-138956289D01*
X140958595Y-138520751D01*
X140724334Y-138286490D01*
X141079799Y-138286490D01*
X141313188Y-138189817D01*
X141491817Y-138011189D01*
X141512270Y-137961812D01*
X141839506Y-138180465D01*
X141822751Y-138187405D01*
X141489405Y-138520751D01*
X141309000Y-138956289D01*
X141309000Y-139427711D01*
X141489405Y-139863249D01*
X141822751Y-140196595D01*
X142258289Y-140377000D01*
X142729711Y-140377000D01*
X143165249Y-140196595D01*
X143498595Y-139863249D01*
X143679000Y-139427711D01*
X143679000Y-138956289D01*
X143498595Y-138520751D01*
X143165249Y-138187405D01*
X143148494Y-138180465D01*
X143672401Y-137830401D01*
X144033655Y-137289746D01*
X144103671Y-136937750D01*
X144923510Y-136937750D01*
X144923510Y-137777800D01*
X145020183Y-138011189D01*
X145198812Y-138189817D01*
X145432201Y-138286490D01*
X145787666Y-138286490D01*
X145553405Y-138520751D01*
X145373000Y-138956289D01*
X145373000Y-139427711D01*
X145553405Y-139863249D01*
X145886751Y-140196595D01*
X146322289Y-140377000D01*
X146793711Y-140377000D01*
X147229249Y-140196595D01*
X147562595Y-139863249D01*
X147743000Y-139427711D01*
X147743000Y-138956289D01*
X147562595Y-138520751D01*
X147328334Y-138286490D01*
X147683799Y-138286490D01*
X147917188Y-138189817D01*
X148095817Y-138011189D01*
X148116270Y-137961812D01*
X148443506Y-138180465D01*
X148426751Y-138187405D01*
X148093405Y-138520751D01*
X147913000Y-138956289D01*
X147913000Y-139427711D01*
X148093405Y-139863249D01*
X148426751Y-140196595D01*
X148862289Y-140377000D01*
X149333711Y-140377000D01*
X149769249Y-140196595D01*
X150102595Y-139863249D01*
X150283000Y-139427711D01*
X150283000Y-138956289D01*
X150102595Y-138520751D01*
X149769249Y-138187405D01*
X149752494Y-138180465D01*
X150276401Y-137830401D01*
X150637655Y-137289746D01*
X150707671Y-136937750D01*
X152035510Y-136937750D01*
X152035510Y-137777800D01*
X152132183Y-138011189D01*
X152310812Y-138189817D01*
X152544201Y-138286490D01*
X152899666Y-138286490D01*
X152665405Y-138520751D01*
X152485000Y-138956289D01*
X152485000Y-139427711D01*
X152665405Y-139863249D01*
X152998751Y-140196595D01*
X153434289Y-140377000D01*
X153905711Y-140377000D01*
X154341249Y-140196595D01*
X154674595Y-139863249D01*
X154855000Y-139427711D01*
X154855000Y-138956289D01*
X154674595Y-138520751D01*
X154440334Y-138286490D01*
X154795799Y-138286490D01*
X155029188Y-138189817D01*
X155207817Y-138011189D01*
X155228270Y-137961812D01*
X155555506Y-138180465D01*
X155538751Y-138187405D01*
X155205405Y-138520751D01*
X155025000Y-138956289D01*
X155025000Y-139427711D01*
X155205405Y-139863249D01*
X155538751Y-140196595D01*
X155974289Y-140377000D01*
X156445711Y-140377000D01*
X156881249Y-140196595D01*
X157214595Y-139863249D01*
X157395000Y-139427711D01*
X157395000Y-138956289D01*
X157214595Y-138520751D01*
X156881249Y-138187405D01*
X156864494Y-138180465D01*
X157388401Y-137830401D01*
X157749655Y-137289746D01*
X157819671Y-136937750D01*
X158639510Y-136937750D01*
X158639510Y-137777800D01*
X158736183Y-138011189D01*
X158914812Y-138189817D01*
X159148201Y-138286490D01*
X159503666Y-138286490D01*
X159269405Y-138520751D01*
X159089000Y-138956289D01*
X159089000Y-139427711D01*
X159269405Y-139863249D01*
X159602751Y-140196595D01*
X160038289Y-140377000D01*
X160509711Y-140377000D01*
X160945249Y-140196595D01*
X161278595Y-139863249D01*
X161459000Y-139427711D01*
X161459000Y-138956289D01*
X161278595Y-138520751D01*
X161044334Y-138286490D01*
X161399799Y-138286490D01*
X161633188Y-138189817D01*
X161811817Y-138011189D01*
X161832270Y-137961812D01*
X162159506Y-138180465D01*
X162142751Y-138187405D01*
X161809405Y-138520751D01*
X161629000Y-138956289D01*
X161629000Y-139427711D01*
X161809405Y-139863249D01*
X162142751Y-140196595D01*
X162578289Y-140377000D01*
X163049711Y-140377000D01*
X163485249Y-140196595D01*
X163818595Y-139863249D01*
X163999000Y-139427711D01*
X163999000Y-138956289D01*
X163818595Y-138520751D01*
X163485249Y-138187405D01*
X163468494Y-138180465D01*
X163992401Y-137830401D01*
X164353655Y-137289746D01*
X164480511Y-136652000D01*
X164353655Y-136014254D01*
X164111946Y-135652510D01*
X169295070Y-135652510D01*
X169295070Y-137651490D01*
X169344353Y-137899255D01*
X169484701Y-138109299D01*
X169694745Y-138249647D01*
X169942510Y-138298930D01*
X170159226Y-138298930D01*
X169937405Y-138520751D01*
X169757000Y-138956289D01*
X169757000Y-139427711D01*
X169937405Y-139863249D01*
X170270751Y-140196595D01*
X170706289Y-140377000D01*
X171177711Y-140377000D01*
X171613249Y-140196595D01*
X171946595Y-139863249D01*
X172127000Y-139427711D01*
X172127000Y-138956289D01*
X171946595Y-138520751D01*
X171724774Y-138298930D01*
X171941490Y-138298930D01*
X172189255Y-138249647D01*
X172399299Y-138109299D01*
X172502942Y-137954187D01*
X172522274Y-137975068D01*
X172901811Y-138149687D01*
X172810751Y-138187405D01*
X172477405Y-138520751D01*
X172297000Y-138956289D01*
X172297000Y-139427711D01*
X172477405Y-139863249D01*
X172810751Y-140196595D01*
X173246289Y-140377000D01*
X173717711Y-140377000D01*
X174153249Y-140196595D01*
X174486595Y-139863249D01*
X174667000Y-139427711D01*
X174667000Y-138956289D01*
X174486595Y-138520751D01*
X174153249Y-138187405D01*
X174062189Y-138149687D01*
X174441726Y-137975068D01*
X174874987Y-137507084D01*
X175071619Y-137032354D01*
X174952265Y-136779000D01*
X173609000Y-136779000D01*
X173609000Y-136799000D01*
X173355000Y-136799000D01*
X173355000Y-136779000D01*
X173335000Y-136779000D01*
X173335000Y-136525000D01*
X173355000Y-136525000D01*
X173355000Y-135181193D01*
X173609000Y-135181193D01*
X173609000Y-136525000D01*
X174952265Y-136525000D01*
X175071619Y-136271646D01*
X174874987Y-135796916D01*
X174441726Y-135328932D01*
X173862355Y-135062373D01*
X173609000Y-135181193D01*
X173355000Y-135181193D01*
X173101645Y-135062373D01*
X172522274Y-135328932D01*
X172502942Y-135349813D01*
X172399299Y-135194701D01*
X172189255Y-135054353D01*
X171941490Y-135005070D01*
X169942510Y-135005070D01*
X169694745Y-135054353D01*
X169484701Y-135194701D01*
X169344353Y-135404745D01*
X169295070Y-135652510D01*
X164111946Y-135652510D01*
X163992401Y-135473599D01*
X163451746Y-135112345D01*
X162974980Y-135017510D01*
X162653020Y-135017510D01*
X162176254Y-135112345D01*
X161832270Y-135342188D01*
X161811817Y-135292811D01*
X161633188Y-135114183D01*
X161399799Y-135017510D01*
X160559750Y-135017510D01*
X160401000Y-135176260D01*
X160401000Y-136525000D01*
X160421000Y-136525000D01*
X160421000Y-136779000D01*
X160401000Y-136779000D01*
X160401000Y-136799000D01*
X160147000Y-136799000D01*
X160147000Y-136779000D01*
X158798260Y-136779000D01*
X158639510Y-136937750D01*
X157819671Y-136937750D01*
X157876511Y-136652000D01*
X157749655Y-136014254D01*
X157423548Y-135526200D01*
X158639510Y-135526200D01*
X158639510Y-136366250D01*
X158798260Y-136525000D01*
X160147000Y-136525000D01*
X160147000Y-135176260D01*
X159988250Y-135017510D01*
X159148201Y-135017510D01*
X158914812Y-135114183D01*
X158736183Y-135292811D01*
X158639510Y-135526200D01*
X157423548Y-135526200D01*
X157388401Y-135473599D01*
X156847746Y-135112345D01*
X156370980Y-135017510D01*
X156049020Y-135017510D01*
X155572254Y-135112345D01*
X155228270Y-135342188D01*
X155207817Y-135292811D01*
X155029188Y-135114183D01*
X154795799Y-135017510D01*
X153955750Y-135017510D01*
X153797000Y-135176260D01*
X153797000Y-136525000D01*
X153817000Y-136525000D01*
X153817000Y-136779000D01*
X153797000Y-136779000D01*
X153797000Y-136799000D01*
X153543000Y-136799000D01*
X153543000Y-136779000D01*
X152194260Y-136779000D01*
X152035510Y-136937750D01*
X150707671Y-136937750D01*
X150764511Y-136652000D01*
X150637655Y-136014254D01*
X150311548Y-135526200D01*
X152035510Y-135526200D01*
X152035510Y-136366250D01*
X152194260Y-136525000D01*
X153543000Y-136525000D01*
X153543000Y-135176260D01*
X153384250Y-135017510D01*
X152544201Y-135017510D01*
X152310812Y-135114183D01*
X152132183Y-135292811D01*
X152035510Y-135526200D01*
X150311548Y-135526200D01*
X150276401Y-135473599D01*
X149735746Y-135112345D01*
X149258980Y-135017510D01*
X148937020Y-135017510D01*
X148460254Y-135112345D01*
X148116270Y-135342188D01*
X148095817Y-135292811D01*
X147917188Y-135114183D01*
X147683799Y-135017510D01*
X146843750Y-135017510D01*
X146685000Y-135176260D01*
X146685000Y-136525000D01*
X146705000Y-136525000D01*
X146705000Y-136779000D01*
X146685000Y-136779000D01*
X146685000Y-136799000D01*
X146431000Y-136799000D01*
X146431000Y-136779000D01*
X145082260Y-136779000D01*
X144923510Y-136937750D01*
X144103671Y-136937750D01*
X144160511Y-136652000D01*
X144033655Y-136014254D01*
X143707548Y-135526200D01*
X144923510Y-135526200D01*
X144923510Y-136366250D01*
X145082260Y-136525000D01*
X146431000Y-136525000D01*
X146431000Y-135176260D01*
X146272250Y-135017510D01*
X145432201Y-135017510D01*
X145198812Y-135114183D01*
X145020183Y-135292811D01*
X144923510Y-135526200D01*
X143707548Y-135526200D01*
X143672401Y-135473599D01*
X143131746Y-135112345D01*
X142654980Y-135017510D01*
X142333020Y-135017510D01*
X141856254Y-135112345D01*
X141512270Y-135342188D01*
X141491817Y-135292811D01*
X141313188Y-135114183D01*
X141079799Y-135017510D01*
X140239750Y-135017510D01*
X140081000Y-135176260D01*
X140081000Y-136525000D01*
X140101000Y-136525000D01*
X140101000Y-136779000D01*
X140081000Y-136779000D01*
X140081000Y-136799000D01*
X139827000Y-136799000D01*
X139827000Y-136779000D01*
X138478260Y-136779000D01*
X138319510Y-136937750D01*
X137870000Y-136937750D01*
X137870000Y-135526200D01*
X138319510Y-135526200D01*
X138319510Y-136366250D01*
X138478260Y-136525000D01*
X139827000Y-136525000D01*
X139827000Y-135176260D01*
X139668250Y-135017510D01*
X138828201Y-135017510D01*
X138594812Y-135114183D01*
X138416183Y-135292811D01*
X138319510Y-135526200D01*
X137870000Y-135526200D01*
X137870000Y-108660670D01*
X138419000Y-108660670D01*
X138419000Y-109271330D01*
X138652690Y-109835507D01*
X139053183Y-110236000D01*
X138652690Y-110636493D01*
X138419000Y-111200670D01*
X138419000Y-111811330D01*
X138652690Y-112375507D01*
X139053183Y-112776000D01*
X138652690Y-113176493D01*
X138419000Y-113740670D01*
X138419000Y-114351330D01*
X138652690Y-114915507D01*
X139053183Y-115316000D01*
X138652690Y-115716493D01*
X138419000Y-116280670D01*
X138419000Y-116891330D01*
X138652690Y-117455507D01*
X139053183Y-117856000D01*
X138652690Y-118256493D01*
X138419000Y-118820670D01*
X138419000Y-119431330D01*
X138652690Y-119995507D01*
X139053183Y-120396000D01*
X138652690Y-120796493D01*
X138419000Y-121360670D01*
X138419000Y-121971330D01*
X138652690Y-122535507D01*
X139084493Y-122967310D01*
X139648670Y-123201000D01*
X140259330Y-123201000D01*
X140823507Y-122967310D01*
X141255310Y-122535507D01*
X141489000Y-121971330D01*
X141489000Y-121654452D01*
X143953000Y-121654452D01*
X143953000Y-122185548D01*
X144156242Y-122676217D01*
X144531783Y-123051758D01*
X144865528Y-123190000D01*
X144531783Y-123328242D01*
X144156242Y-123703783D01*
X143953000Y-124194452D01*
X143953000Y-124725548D01*
X144156242Y-125216217D01*
X144531783Y-125591758D01*
X145022452Y-125795000D01*
X145553548Y-125795000D01*
X146044217Y-125591758D01*
X146419758Y-125216217D01*
X146623000Y-124725548D01*
X146623000Y-124194452D01*
X146419758Y-123703783D01*
X146044217Y-123328242D01*
X145710472Y-123190000D01*
X146044217Y-123051758D01*
X146419758Y-122676217D01*
X146623000Y-122185548D01*
X146623000Y-121920000D01*
X151546846Y-121920000D01*
X151650458Y-122440891D01*
X151945519Y-122882481D01*
X152387109Y-123177542D01*
X152449739Y-123190000D01*
X152387109Y-123202458D01*
X151945519Y-123497519D01*
X151650458Y-123939109D01*
X151546846Y-124460000D01*
X151650458Y-124980891D01*
X151945519Y-125422481D01*
X152387109Y-125717542D01*
X152776515Y-125795000D01*
X153039485Y-125795000D01*
X153428891Y-125717542D01*
X153870481Y-125422481D01*
X154165542Y-124980891D01*
X154269154Y-124460000D01*
X154165542Y-123939109D01*
X153870481Y-123497519D01*
X153428891Y-123202458D01*
X153366261Y-123190000D01*
X153428891Y-123177542D01*
X153870481Y-122882481D01*
X154165542Y-122440891D01*
X154269154Y-121920000D01*
X154165542Y-121399109D01*
X153870481Y-120957519D01*
X153428891Y-120662458D01*
X153039485Y-120585000D01*
X152776515Y-120585000D01*
X152387109Y-120662458D01*
X151945519Y-120957519D01*
X151650458Y-121399109D01*
X151546846Y-121920000D01*
X146623000Y-121920000D01*
X146623000Y-121654452D01*
X146419758Y-121163783D01*
X146044217Y-120788242D01*
X145553548Y-120585000D01*
X145022452Y-120585000D01*
X144531783Y-120788242D01*
X144156242Y-121163783D01*
X143953000Y-121654452D01*
X141489000Y-121654452D01*
X141489000Y-121360670D01*
X141255310Y-120796493D01*
X140854817Y-120396000D01*
X141255310Y-119995507D01*
X141489000Y-119431330D01*
X141489000Y-118820670D01*
X141255310Y-118256493D01*
X140854817Y-117856000D01*
X141255310Y-117455507D01*
X141489000Y-116891330D01*
X141489000Y-116280670D01*
X141255310Y-115716493D01*
X140854817Y-115316000D01*
X141255310Y-114915507D01*
X141489000Y-114351330D01*
X141489000Y-113740670D01*
X141255310Y-113176493D01*
X140854817Y-112776000D01*
X141255310Y-112375507D01*
X141489000Y-111811330D01*
X141489000Y-111200670D01*
X141255310Y-110636493D01*
X140854817Y-110236000D01*
X141255310Y-109835507D01*
X141489000Y-109271330D01*
X141489000Y-108966000D01*
X151038846Y-108966000D01*
X151142458Y-109486891D01*
X151437519Y-109928481D01*
X151879109Y-110223542D01*
X152268515Y-110301000D01*
X152531485Y-110301000D01*
X152920891Y-110223542D01*
X153362481Y-109928481D01*
X153657542Y-109486891D01*
X153670000Y-109424261D01*
X153682458Y-109486891D01*
X153977519Y-109928481D01*
X154419109Y-110223542D01*
X154808515Y-110301000D01*
X155071485Y-110301000D01*
X155460891Y-110223542D01*
X155902481Y-109928481D01*
X156197542Y-109486891D01*
X156210000Y-109424261D01*
X156222458Y-109486891D01*
X156517519Y-109928481D01*
X156959109Y-110223542D01*
X157348515Y-110301000D01*
X157611485Y-110301000D01*
X158000891Y-110223542D01*
X158442481Y-109928481D01*
X158737542Y-109486891D01*
X158750000Y-109424261D01*
X158762458Y-109486891D01*
X159057519Y-109928481D01*
X159499109Y-110223542D01*
X159888515Y-110301000D01*
X160151485Y-110301000D01*
X160540891Y-110223542D01*
X160982481Y-109928481D01*
X161277542Y-109486891D01*
X161306982Y-109338885D01*
X161512690Y-109835507D01*
X161913183Y-110236000D01*
X161512690Y-110636493D01*
X161279000Y-111200670D01*
X161279000Y-111811330D01*
X161512690Y-112375507D01*
X161913183Y-112776000D01*
X161512690Y-113176493D01*
X161279000Y-113740670D01*
X161279000Y-114351330D01*
X161512690Y-114915507D01*
X161913183Y-115316000D01*
X161512690Y-115716493D01*
X161279000Y-116280670D01*
X161279000Y-116891330D01*
X161512690Y-117455507D01*
X161913183Y-117856000D01*
X161512690Y-118256493D01*
X161279000Y-118820670D01*
X161279000Y-119431330D01*
X161512690Y-119995507D01*
X161913183Y-120396000D01*
X161512690Y-120796493D01*
X161279000Y-121360670D01*
X161279000Y-121971330D01*
X161512690Y-122535507D01*
X161944493Y-122967310D01*
X162508670Y-123201000D01*
X163119330Y-123201000D01*
X163683507Y-122967310D01*
X164115310Y-122535507D01*
X164349000Y-121971330D01*
X164349000Y-121360670D01*
X164115310Y-120796493D01*
X163714817Y-120396000D01*
X164115310Y-119995507D01*
X164349000Y-119431330D01*
X164349000Y-118820670D01*
X164115310Y-118256493D01*
X163714817Y-117856000D01*
X164115310Y-117455507D01*
X164349000Y-116891330D01*
X164349000Y-116280670D01*
X164115310Y-115716493D01*
X163714817Y-115316000D01*
X164115310Y-114915507D01*
X164349000Y-114351330D01*
X164349000Y-113740670D01*
X164115310Y-113176493D01*
X163714817Y-112776000D01*
X164115310Y-112375507D01*
X164349000Y-111811330D01*
X164349000Y-111506000D01*
X166430887Y-111506000D01*
X166542260Y-112065909D01*
X166859423Y-112540577D01*
X167211758Y-112776000D01*
X166859423Y-113011423D01*
X166542260Y-113486091D01*
X166430887Y-114046000D01*
X166542260Y-114605909D01*
X166859423Y-115080577D01*
X167211758Y-115316000D01*
X166859423Y-115551423D01*
X166542260Y-116026091D01*
X166430887Y-116586000D01*
X166542260Y-117145909D01*
X166859423Y-117620577D01*
X167334091Y-117937740D01*
X167752667Y-118021000D01*
X168035333Y-118021000D01*
X168453909Y-117937740D01*
X168928577Y-117620577D01*
X169245740Y-117145909D01*
X169287684Y-116935039D01*
X174122096Y-116935039D01*
X174282959Y-117323423D01*
X174658866Y-117738389D01*
X175164959Y-117977914D01*
X175387000Y-117856629D01*
X175387000Y-116713000D01*
X175641000Y-116713000D01*
X175641000Y-117856629D01*
X175863041Y-117977914D01*
X176369134Y-117738389D01*
X176745041Y-117323423D01*
X176905904Y-116935039D01*
X176783915Y-116713000D01*
X175641000Y-116713000D01*
X175387000Y-116713000D01*
X174244085Y-116713000D01*
X174122096Y-116935039D01*
X169287684Y-116935039D01*
X169357113Y-116586000D01*
X169245740Y-116026091D01*
X168928577Y-115551423D01*
X168576242Y-115316000D01*
X168928577Y-115080577D01*
X169245740Y-114605909D01*
X169287684Y-114395039D01*
X174122096Y-114395039D01*
X174282959Y-114783423D01*
X174658866Y-115198389D01*
X174907367Y-115316000D01*
X174658866Y-115433611D01*
X174282959Y-115848577D01*
X174122096Y-116236961D01*
X174244085Y-116459000D01*
X175387000Y-116459000D01*
X175387000Y-114173000D01*
X175641000Y-114173000D01*
X175641000Y-116459000D01*
X176783915Y-116459000D01*
X176905904Y-116236961D01*
X176745041Y-115848577D01*
X176369134Y-115433611D01*
X176120633Y-115316000D01*
X176369134Y-115198389D01*
X176745041Y-114783423D01*
X176905904Y-114395039D01*
X176783915Y-114173000D01*
X175641000Y-114173000D01*
X175387000Y-114173000D01*
X174244085Y-114173000D01*
X174122096Y-114395039D01*
X169287684Y-114395039D01*
X169357113Y-114046000D01*
X169245740Y-113486091D01*
X168928577Y-113011423D01*
X168576242Y-112776000D01*
X168928577Y-112540577D01*
X169245740Y-112065909D01*
X169287684Y-111855039D01*
X174122096Y-111855039D01*
X174282959Y-112243423D01*
X174658866Y-112658389D01*
X174907367Y-112776000D01*
X174658866Y-112893611D01*
X174282959Y-113308577D01*
X174122096Y-113696961D01*
X174244085Y-113919000D01*
X175387000Y-113919000D01*
X175387000Y-111633000D01*
X175641000Y-111633000D01*
X175641000Y-113919000D01*
X176783915Y-113919000D01*
X176905904Y-113696961D01*
X176745041Y-113308577D01*
X176369134Y-112893611D01*
X176120633Y-112776000D01*
X176369134Y-112658389D01*
X176745041Y-112243423D01*
X176905904Y-111855039D01*
X176783915Y-111633000D01*
X175641000Y-111633000D01*
X175387000Y-111633000D01*
X174244085Y-111633000D01*
X174122096Y-111855039D01*
X169287684Y-111855039D01*
X169357113Y-111506000D01*
X169245740Y-110946091D01*
X168928577Y-110471423D01*
X168807894Y-110390785D01*
X168941765Y-110364157D01*
X169151809Y-110223809D01*
X169292157Y-110013765D01*
X169341440Y-109766000D01*
X169341440Y-109315039D01*
X174122096Y-109315039D01*
X174282959Y-109703423D01*
X174658866Y-110118389D01*
X174907367Y-110236000D01*
X174658866Y-110353611D01*
X174282959Y-110768577D01*
X174122096Y-111156961D01*
X174244085Y-111379000D01*
X175387000Y-111379000D01*
X175387000Y-109093000D01*
X175641000Y-109093000D01*
X175641000Y-111379000D01*
X176783915Y-111379000D01*
X176905904Y-111156961D01*
X176745041Y-110768577D01*
X176369134Y-110353611D01*
X176120633Y-110236000D01*
X176369134Y-110118389D01*
X176745041Y-109703423D01*
X176905904Y-109315039D01*
X176783915Y-109093000D01*
X175641000Y-109093000D01*
X175387000Y-109093000D01*
X174244085Y-109093000D01*
X174122096Y-109315039D01*
X169341440Y-109315039D01*
X169341440Y-108616961D01*
X174122096Y-108616961D01*
X174244085Y-108839000D01*
X175387000Y-108839000D01*
X175387000Y-107695371D01*
X175641000Y-107695371D01*
X175641000Y-108839000D01*
X176783915Y-108839000D01*
X176905904Y-108616961D01*
X176745041Y-108228577D01*
X176369134Y-107813611D01*
X175863041Y-107574086D01*
X175641000Y-107695371D01*
X175387000Y-107695371D01*
X175164959Y-107574086D01*
X174658866Y-107813611D01*
X174282959Y-108228577D01*
X174122096Y-108616961D01*
X169341440Y-108616961D01*
X169341440Y-108166000D01*
X169292157Y-107918235D01*
X169151809Y-107708191D01*
X168941765Y-107567843D01*
X168694000Y-107518560D01*
X167094000Y-107518560D01*
X166846235Y-107567843D01*
X166636191Y-107708191D01*
X166495843Y-107918235D01*
X166446560Y-108166000D01*
X166446560Y-109766000D01*
X166495843Y-110013765D01*
X166636191Y-110223809D01*
X166846235Y-110364157D01*
X166980106Y-110390785D01*
X166859423Y-110471423D01*
X166542260Y-110946091D01*
X166430887Y-111506000D01*
X164349000Y-111506000D01*
X164349000Y-111200670D01*
X164115310Y-110636493D01*
X163714817Y-110236000D01*
X164115310Y-109835507D01*
X164349000Y-109271330D01*
X164349000Y-108660670D01*
X164115310Y-108096493D01*
X163714817Y-107696000D01*
X164115310Y-107295507D01*
X164349000Y-106731330D01*
X164349000Y-106120670D01*
X164115310Y-105556493D01*
X163714817Y-105156000D01*
X164115310Y-104755507D01*
X164349000Y-104191330D01*
X164349000Y-103580670D01*
X164115310Y-103016493D01*
X163683507Y-102584690D01*
X163119330Y-102351000D01*
X162508670Y-102351000D01*
X161944493Y-102584690D01*
X161512690Y-103016493D01*
X161279000Y-103580670D01*
X161279000Y-104191330D01*
X161512690Y-104755507D01*
X161913183Y-105156000D01*
X161512690Y-105556493D01*
X161279000Y-106120670D01*
X161279000Y-106731330D01*
X161512690Y-107295507D01*
X161913183Y-107696000D01*
X161512690Y-108096493D01*
X161306982Y-108593115D01*
X161277542Y-108445109D01*
X160982481Y-108003519D01*
X160540891Y-107708458D01*
X160151485Y-107631000D01*
X159888515Y-107631000D01*
X159499109Y-107708458D01*
X159057519Y-108003519D01*
X158762458Y-108445109D01*
X158750000Y-108507739D01*
X158737542Y-108445109D01*
X158442481Y-108003519D01*
X158000891Y-107708458D01*
X157611485Y-107631000D01*
X157348515Y-107631000D01*
X156959109Y-107708458D01*
X156517519Y-108003519D01*
X156222458Y-108445109D01*
X156210000Y-108507739D01*
X156197542Y-108445109D01*
X155902481Y-108003519D01*
X155460891Y-107708458D01*
X155071485Y-107631000D01*
X154808515Y-107631000D01*
X154419109Y-107708458D01*
X153977519Y-108003519D01*
X153682458Y-108445109D01*
X153670000Y-108507739D01*
X153657542Y-108445109D01*
X153362481Y-108003519D01*
X152920891Y-107708458D01*
X152531485Y-107631000D01*
X152268515Y-107631000D01*
X151879109Y-107708458D01*
X151437519Y-108003519D01*
X151142458Y-108445109D01*
X151038846Y-108966000D01*
X141489000Y-108966000D01*
X141489000Y-108660670D01*
X141255310Y-108096493D01*
X140823507Y-107664690D01*
X140803885Y-107656562D01*
X140854554Y-107506159D01*
X139954000Y-106605605D01*
X139053446Y-107506159D01*
X139104115Y-107656562D01*
X139084493Y-107664690D01*
X138652690Y-108096493D01*
X138419000Y-108660670D01*
X137870000Y-108660670D01*
X137870000Y-106185336D01*
X138407542Y-106185336D01*
X138433161Y-106795460D01*
X138617357Y-107240148D01*
X138873841Y-107326554D01*
X139774395Y-106426000D01*
X140133605Y-106426000D01*
X141034159Y-107326554D01*
X141290643Y-107240148D01*
X141500458Y-106666664D01*
X141474839Y-106056540D01*
X141290643Y-105611852D01*
X141034159Y-105525446D01*
X140133605Y-106426000D01*
X139774395Y-106426000D01*
X138873841Y-105525446D01*
X138617357Y-105611852D01*
X138407542Y-106185336D01*
X137870000Y-106185336D01*
X137870000Y-103580670D01*
X138419000Y-103580670D01*
X138419000Y-104191330D01*
X138652690Y-104755507D01*
X139084493Y-105187310D01*
X139104115Y-105195438D01*
X139053446Y-105345841D01*
X139954000Y-106246395D01*
X140854554Y-105345841D01*
X140803885Y-105195438D01*
X140823507Y-105187310D01*
X141255310Y-104755507D01*
X141489000Y-104191330D01*
X141489000Y-103580670D01*
X141255310Y-103016493D01*
X140823507Y-102584690D01*
X140259330Y-102351000D01*
X139648670Y-102351000D01*
X139084493Y-102584690D01*
X138652690Y-103016493D01*
X138419000Y-103580670D01*
X137870000Y-103580670D01*
X137870000Y-101080452D01*
X151065000Y-101080452D01*
X151065000Y-101611548D01*
X151268242Y-102102217D01*
X151643783Y-102477758D01*
X152134452Y-102681000D01*
X152665548Y-102681000D01*
X153156217Y-102477758D01*
X153531758Y-102102217D01*
X153670000Y-101768472D01*
X153808242Y-102102217D01*
X154183783Y-102477758D01*
X154674452Y-102681000D01*
X155205548Y-102681000D01*
X155696217Y-102477758D01*
X156071758Y-102102217D01*
X156210000Y-101768472D01*
X156348242Y-102102217D01*
X156723783Y-102477758D01*
X157214452Y-102681000D01*
X157745548Y-102681000D01*
X158236217Y-102477758D01*
X158611758Y-102102217D01*
X158750000Y-101768472D01*
X158888242Y-102102217D01*
X159263783Y-102477758D01*
X159754452Y-102681000D01*
X160285548Y-102681000D01*
X160776217Y-102477758D01*
X161151758Y-102102217D01*
X161355000Y-101611548D01*
X161355000Y-101080452D01*
X161151758Y-100589783D01*
X160776217Y-100214242D01*
X160285548Y-100011000D01*
X159754452Y-100011000D01*
X159263783Y-100214242D01*
X158888242Y-100589783D01*
X158750000Y-100923528D01*
X158611758Y-100589783D01*
X158236217Y-100214242D01*
X157745548Y-100011000D01*
X157214452Y-100011000D01*
X156723783Y-100214242D01*
X156348242Y-100589783D01*
X156210000Y-100923528D01*
X156071758Y-100589783D01*
X155696217Y-100214242D01*
X155205548Y-100011000D01*
X154674452Y-100011000D01*
X154183783Y-100214242D01*
X153808242Y-100589783D01*
X153670000Y-100923528D01*
X153531758Y-100589783D01*
X153156217Y-100214242D01*
X152665548Y-100011000D01*
X152134452Y-100011000D01*
X151643783Y-100214242D01*
X151268242Y-100589783D01*
X151065000Y-101080452D01*
X137870000Y-101080452D01*
X137870000Y-96037625D01*
X168157416Y-96037625D01*
X168168320Y-96073105D01*
X168168320Y-96458895D01*
X168157416Y-96494375D01*
X168168320Y-96609374D01*
X168168320Y-96648388D01*
X168175389Y-96683926D01*
X168186031Y-96796162D01*
X168204736Y-96831466D01*
X168212532Y-96870657D01*
X168275171Y-96964403D01*
X168327957Y-97064029D01*
X168358752Y-97089490D01*
X168380950Y-97122711D01*
X168474694Y-97185349D01*
X168561589Y-97257192D01*
X168599782Y-97268930D01*
X168633004Y-97291128D01*
X168743585Y-97313124D01*
X168778213Y-97323766D01*
X168817016Y-97327730D01*
X168862820Y-97336841D01*
X168837231Y-97375138D01*
X168812360Y-97405739D01*
X168795634Y-97437393D01*
X168733233Y-97530783D01*
X168725353Y-97570398D01*
X168706483Y-97606109D01*
X168696006Y-97717938D01*
X168674093Y-97828100D01*
X168681973Y-97867714D01*
X168678205Y-97907929D01*
X168711321Y-98015257D01*
X168733233Y-98125417D01*
X168755672Y-98159000D01*
X168767581Y-98197596D01*
X168839248Y-98284080D01*
X168859138Y-98313848D01*
X168887023Y-98341733D01*
X168961005Y-98431011D01*
X168993440Y-98448150D01*
X169267850Y-98722560D01*
X169284989Y-98754995D01*
X169374267Y-98828977D01*
X169402152Y-98856862D01*
X169431920Y-98876753D01*
X169518404Y-98948419D01*
X169556999Y-98960327D01*
X169590582Y-98982767D01*
X169700747Y-99004680D01*
X169808071Y-99037795D01*
X169848283Y-99034028D01*
X169887900Y-99041908D01*
X169998069Y-99019994D01*
X170109891Y-99009517D01*
X170145601Y-98990647D01*
X170185218Y-98982767D01*
X170278610Y-98920365D01*
X170310261Y-98903640D01*
X170340861Y-98878770D01*
X170437271Y-98814351D01*
X170457653Y-98783848D01*
X170644330Y-98632126D01*
X170717754Y-98653168D01*
X170749819Y-98649510D01*
X170781468Y-98655827D01*
X170899448Y-98632440D01*
X171018943Y-98618808D01*
X171047166Y-98603158D01*
X171078824Y-98596883D01*
X171178877Y-98530125D01*
X171284057Y-98471803D01*
X171304142Y-98446545D01*
X171330989Y-98428632D01*
X171397875Y-98328672D01*
X171450000Y-98263123D01*
X171502125Y-98328672D01*
X171569011Y-98428632D01*
X171595858Y-98446545D01*
X171615943Y-98471803D01*
X171721121Y-98530124D01*
X171821175Y-98596883D01*
X171852833Y-98603158D01*
X171881056Y-98618808D01*
X172000552Y-98632440D01*
X172118532Y-98655827D01*
X172150180Y-98649510D01*
X172182244Y-98653168D01*
X172255669Y-98632125D01*
X172442348Y-98783849D01*
X172462729Y-98814351D01*
X172559132Y-98878765D01*
X172589738Y-98903640D01*
X172621398Y-98920370D01*
X172714783Y-98982767D01*
X172754394Y-98990646D01*
X172790108Y-99009518D01*
X172901948Y-99019996D01*
X173012100Y-99041907D01*
X173051711Y-99034028D01*
X173091929Y-99037796D01*
X173199264Y-99004678D01*
X173309417Y-98982767D01*
X173342999Y-98960328D01*
X173381597Y-98948419D01*
X173468084Y-98876750D01*
X173497848Y-98856862D01*
X173525731Y-98828979D01*
X173615011Y-98754995D01*
X173632150Y-98722560D01*
X173906560Y-98448150D01*
X173938995Y-98431011D01*
X174012979Y-98341731D01*
X174040862Y-98313848D01*
X174060750Y-98284083D01*
X174132419Y-98197597D01*
X174144328Y-98159000D01*
X174166767Y-98125418D01*
X174188679Y-98015260D01*
X174221796Y-97907929D01*
X174218028Y-97867714D01*
X174225908Y-97828100D01*
X174203996Y-97717941D01*
X174193518Y-97606108D01*
X174174647Y-97570394D01*
X174166767Y-97530782D01*
X174104368Y-97437395D01*
X174087640Y-97405738D01*
X174062767Y-97375134D01*
X174037180Y-97336841D01*
X174082984Y-97327730D01*
X174121787Y-97323766D01*
X174156415Y-97313124D01*
X174266996Y-97291128D01*
X174300218Y-97268930D01*
X174338412Y-97257192D01*
X174425304Y-97185350D01*
X174519051Y-97122711D01*
X174541251Y-97089487D01*
X174572043Y-97064028D01*
X174624826Y-96964408D01*
X174687468Y-96870657D01*
X174695264Y-96831466D01*
X174713969Y-96796162D01*
X174724611Y-96683926D01*
X174731680Y-96648388D01*
X174731680Y-96609374D01*
X174742584Y-96494375D01*
X174731680Y-96458895D01*
X174731680Y-96073105D01*
X174742584Y-96037625D01*
X174731680Y-95922626D01*
X174731680Y-95883612D01*
X174724611Y-95848074D01*
X174713969Y-95735838D01*
X174695264Y-95700534D01*
X174687468Y-95661343D01*
X174624826Y-95567592D01*
X174572043Y-95467972D01*
X174541251Y-95442513D01*
X174519051Y-95409289D01*
X174425303Y-95346648D01*
X174338412Y-95274808D01*
X174300219Y-95263071D01*
X174266997Y-95240872D01*
X174156414Y-95218876D01*
X174121787Y-95208234D01*
X174082985Y-95204270D01*
X174037180Y-95195159D01*
X174062767Y-95156866D01*
X174087640Y-95126262D01*
X174104368Y-95094605D01*
X174166767Y-95001218D01*
X174174647Y-94961606D01*
X174193518Y-94925892D01*
X174203996Y-94814059D01*
X174225908Y-94703900D01*
X174218028Y-94664286D01*
X174221796Y-94624071D01*
X174188679Y-94516740D01*
X174166767Y-94406582D01*
X174144328Y-94373000D01*
X174132419Y-94334403D01*
X174060750Y-94247917D01*
X174040862Y-94218152D01*
X174012979Y-94190269D01*
X173938995Y-94100989D01*
X173906560Y-94083850D01*
X173632150Y-93809440D01*
X173615011Y-93777005D01*
X173525731Y-93703021D01*
X173497848Y-93675138D01*
X173468084Y-93655250D01*
X173381597Y-93583581D01*
X173342999Y-93571672D01*
X173309417Y-93549233D01*
X173199264Y-93527322D01*
X173091929Y-93494204D01*
X173051711Y-93497972D01*
X173012100Y-93490093D01*
X172901948Y-93512004D01*
X172790108Y-93522482D01*
X172754394Y-93541354D01*
X172714783Y-93549233D01*
X172621398Y-93611630D01*
X172589738Y-93628360D01*
X172559132Y-93653235D01*
X172520841Y-93678820D01*
X172511730Y-93633015D01*
X172507766Y-93594213D01*
X172497124Y-93559587D01*
X172475128Y-93449003D01*
X172452929Y-93415780D01*
X172441192Y-93377589D01*
X172369352Y-93290698D01*
X172306711Y-93196949D01*
X172273489Y-93174750D01*
X172248029Y-93143957D01*
X172148406Y-93091173D01*
X172054657Y-93028532D01*
X172015466Y-93020736D01*
X171980162Y-93002031D01*
X171867926Y-92991389D01*
X171832388Y-92984320D01*
X171793374Y-92984320D01*
X171678375Y-92973416D01*
X171642895Y-92984320D01*
X171257105Y-92984320D01*
X171221625Y-92973416D01*
X171106626Y-92984320D01*
X171067612Y-92984320D01*
X171032074Y-92991389D01*
X170919838Y-93002031D01*
X170884534Y-93020736D01*
X170845343Y-93028532D01*
X170751592Y-93091174D01*
X170651972Y-93143957D01*
X170626513Y-93174749D01*
X170593289Y-93196949D01*
X170530648Y-93290697D01*
X170458808Y-93377588D01*
X170447071Y-93415781D01*
X170424872Y-93449003D01*
X170402876Y-93559586D01*
X170392234Y-93594213D01*
X170388270Y-93633015D01*
X170379159Y-93678820D01*
X170340861Y-93653230D01*
X170310261Y-93628360D01*
X170278610Y-93611635D01*
X170185218Y-93549233D01*
X170145601Y-93541353D01*
X170109891Y-93522483D01*
X169998069Y-93512006D01*
X169887900Y-93490092D01*
X169848283Y-93497972D01*
X169808071Y-93494205D01*
X169700747Y-93527320D01*
X169590582Y-93549233D01*
X169556999Y-93571673D01*
X169518404Y-93583581D01*
X169431920Y-93655247D01*
X169402152Y-93675138D01*
X169374267Y-93703023D01*
X169284989Y-93777005D01*
X169267850Y-93809440D01*
X168993440Y-94083850D01*
X168961005Y-94100989D01*
X168887023Y-94190267D01*
X168859138Y-94218152D01*
X168839248Y-94247920D01*
X168767581Y-94334404D01*
X168755672Y-94373000D01*
X168733233Y-94406583D01*
X168711321Y-94516743D01*
X168678205Y-94624071D01*
X168681973Y-94664286D01*
X168674093Y-94703900D01*
X168696006Y-94814062D01*
X168706483Y-94925891D01*
X168725353Y-94961602D01*
X168733233Y-95001217D01*
X168795634Y-95094607D01*
X168812360Y-95126261D01*
X168837231Y-95156862D01*
X168862820Y-95195159D01*
X168817015Y-95204270D01*
X168778213Y-95208234D01*
X168743587Y-95218876D01*
X168633003Y-95240872D01*
X168599780Y-95263071D01*
X168561589Y-95274808D01*
X168474698Y-95346648D01*
X168380949Y-95409289D01*
X168358751Y-95442511D01*
X168327957Y-95467971D01*
X168275171Y-95567597D01*
X168212532Y-95661344D01*
X168204737Y-95700533D01*
X168186031Y-95735838D01*
X168175389Y-95848076D01*
X168168320Y-95883613D01*
X168168320Y-95922626D01*
X168157416Y-96037625D01*
X137870000Y-96037625D01*
X137870000Y-82243028D01*
X137906345Y-82425746D01*
X138267599Y-82966401D01*
X138808254Y-83327655D01*
X139285020Y-83422490D01*
X139606980Y-83422490D01*
X140083746Y-83327655D01*
X140624401Y-82966401D01*
X140716000Y-82829313D01*
X140807599Y-82966401D01*
X141348254Y-83327655D01*
X141825020Y-83422490D01*
X142146980Y-83422490D01*
X142623746Y-83327655D01*
X142967730Y-83097812D01*
X142988183Y-83147189D01*
X143166812Y-83325817D01*
X143400201Y-83422490D01*
X144240250Y-83422490D01*
X144399000Y-83263740D01*
X144399000Y-81915000D01*
X144653000Y-81915000D01*
X144653000Y-83263740D01*
X144811750Y-83422490D01*
X145651799Y-83422490D01*
X145885188Y-83325817D01*
X146063817Y-83147189D01*
X146160490Y-82913800D01*
X146160490Y-82073750D01*
X146001740Y-81915000D01*
X144653000Y-81915000D01*
X144399000Y-81915000D01*
X144379000Y-81915000D01*
X144379000Y-81661000D01*
X144399000Y-81661000D01*
X144399000Y-81641000D01*
X144653000Y-81641000D01*
X144653000Y-81661000D01*
X146001740Y-81661000D01*
X146160490Y-81502250D01*
X146160490Y-80662200D01*
X146063817Y-80428811D01*
X145885188Y-80250183D01*
X145651799Y-80153510D01*
X145296334Y-80153510D01*
X145530595Y-79919249D01*
X145711000Y-79483711D01*
X145711000Y-79012289D01*
X145530595Y-78576751D01*
X145197249Y-78243405D01*
X144761711Y-78063000D01*
X144290289Y-78063000D01*
X143854751Y-78243405D01*
X143521405Y-78576751D01*
X143341000Y-79012289D01*
X143341000Y-79483711D01*
X143521405Y-79919249D01*
X143755666Y-80153510D01*
X143400201Y-80153510D01*
X143166812Y-80250183D01*
X142988183Y-80428811D01*
X142967730Y-80478188D01*
X142640494Y-80259535D01*
X142657249Y-80252595D01*
X142990595Y-79919249D01*
X143171000Y-79483711D01*
X143171000Y-79012289D01*
X142990595Y-78576751D01*
X142657249Y-78243405D01*
X142221711Y-78063000D01*
X141750289Y-78063000D01*
X141314751Y-78243405D01*
X140981405Y-78576751D01*
X140801000Y-79012289D01*
X140801000Y-79483711D01*
X140981405Y-79919249D01*
X141314751Y-80252595D01*
X141331506Y-80259535D01*
X140807599Y-80609599D01*
X140716000Y-80746687D01*
X140624401Y-80609599D01*
X140100494Y-80259535D01*
X140117249Y-80252595D01*
X140450595Y-79919249D01*
X140631000Y-79483711D01*
X140631000Y-79012289D01*
X140450595Y-78576751D01*
X140117249Y-78243405D01*
X139681711Y-78063000D01*
X139210289Y-78063000D01*
X138774751Y-78243405D01*
X138441405Y-78576751D01*
X138261000Y-79012289D01*
X138261000Y-79483711D01*
X138441405Y-79919249D01*
X138774751Y-80252595D01*
X138791506Y-80259535D01*
X138267599Y-80609599D01*
X137906345Y-81150254D01*
X137870000Y-81332972D01*
X137870000Y-77926000D01*
X178106000Y-77926000D01*
X178106001Y-142800000D01*
G04 #@! TD*
M02*
