G04 #@! TF.GenerationSoftware,KiCad,Pcbnew,5.0.2-bee76a0~70~ubuntu18.04.1*
G04 #@! TF.CreationDate,2019-09-20T23:32:28+01:00*
G04 #@! TF.ProjectId,Shock Sensor,53686f63-6b20-4536-956e-736f722e6b69,rev?*
G04 #@! TF.SameCoordinates,Original*
G04 #@! TF.FileFunction,Copper,L2,Bot*
G04 #@! TF.FilePolarity,Positive*
%FSLAX46Y46*%
G04 Gerber Fmt 4.6, Leading zero omitted, Abs format (unit mm)*
G04 Created by KiCad (PCBNEW 5.0.2-bee76a0~70~ubuntu18.04.1) date Fri 20 Sep 2019 23:32:28 BST*
%MOMM*%
%LPD*%
G01*
G04 APERTURE LIST*
G04 #@! TA.AperFunction,ComponentPad*
%ADD10C,1.800000*%
G04 #@! TD*
G04 #@! TA.AperFunction,ComponentPad*
%ADD11C,1.879600*%
G04 #@! TD*
G04 #@! TA.AperFunction,ComponentPad*
%ADD12O,1.600000X1.600000*%
G04 #@! TD*
G04 #@! TA.AperFunction,ComponentPad*
%ADD13R,1.600000X1.600000*%
G04 #@! TD*
G04 #@! TA.AperFunction,ComponentPad*
%ADD14C,1.524000*%
G04 #@! TD*
G04 #@! TA.AperFunction,ComponentPad*
%ADD15C,3.302000*%
G04 #@! TD*
G04 #@! TA.AperFunction,ComponentPad*
%ADD16C,4.064000*%
G04 #@! TD*
G04 #@! TA.AperFunction,Conductor*
%ADD17C,0.250000*%
G04 #@! TD*
G04 #@! TA.AperFunction,Conductor*
%ADD18C,0.254000*%
G04 #@! TD*
G04 APERTURE END LIST*
D10*
G04 #@! TO.P,U1,16*
G04 #@! TO.N,+3V3*
X132023001Y-99125025D03*
G04 #@! TO.P,U1,1*
G04 #@! TO.N,+5V*
X132023001Y-121985025D03*
G04 #@! TO.P,U1,15*
G04 #@! TO.N,Net-(RN1-Pad2)*
X134563001Y-99125025D03*
G04 #@! TO.P,U1,2*
G04 #@! TO.N,GND*
X134563001Y-121985025D03*
G04 #@! TO.P,U1,14*
G04 #@! TO.N,Net-(RN1-Pad3)*
X137103001Y-99125025D03*
G04 #@! TO.P,U1,3*
G04 #@! TO.N,Net-(S1-PadB)*
X137103001Y-121985025D03*
G04 #@! TO.P,U1,13*
G04 #@! TO.N,Net-(RN1-Pad4)*
X139643001Y-99125025D03*
G04 #@! TO.P,U1,4*
G04 #@! TO.N,Net-(S1-PadA)*
X139643001Y-121985025D03*
G04 #@! TO.P,U1,12*
G04 #@! TO.N,Net-(RN1-Pad5)*
X142183001Y-99125025D03*
G04 #@! TO.P,U1,5*
G04 #@! TO.N,Net-(J2-Pad4)*
X142183001Y-121985025D03*
G04 #@! TO.P,U1,11*
G04 #@! TO.N,Net-(RN1-Pad6)*
X144723001Y-99125025D03*
G04 #@! TO.P,U1,6*
G04 #@! TO.N,Net-(J2-Pad3)*
X144723001Y-121985025D03*
G04 #@! TO.P,U1,10*
G04 #@! TO.N,Net-(U1-Pad10)*
X147263001Y-99125025D03*
G04 #@! TO.P,U1,7*
G04 #@! TO.N,Net-(J1-Pad2)*
X147263001Y-121985025D03*
G04 #@! TO.P,U1,9*
G04 #@! TO.N,Net-(J3-Pad2)*
X149803001Y-99125025D03*
G04 #@! TO.P,U1,8*
G04 #@! TO.N,Net-(U1-Pad8)*
X149803001Y-121985025D03*
G04 #@! TD*
D11*
G04 #@! TO.P,J1,1*
G04 #@! TO.N,GND*
X139700000Y-127508000D03*
G04 #@! TO.P,J1,2*
G04 #@! TO.N,Net-(J1-Pad2)*
X137160000Y-127508000D03*
G04 #@! TO.P,J1,3*
G04 #@! TO.N,+5V*
X134620000Y-127508000D03*
G04 #@! TD*
G04 #@! TO.P,J3,1*
G04 #@! TO.N,GND*
X162560000Y-96520000D03*
G04 #@! TO.P,J3,2*
G04 #@! TO.N,Net-(J3-Pad2)*
X160020000Y-96520000D03*
G04 #@! TD*
D12*
G04 #@! TO.P,RN1,9*
G04 #@! TO.N,Net-(RN1-Pad9)*
X152400000Y-105156000D03*
G04 #@! TO.P,RN1,8*
G04 #@! TO.N,Net-(RN1-Pad8)*
X149860000Y-105156000D03*
G04 #@! TO.P,RN1,7*
G04 #@! TO.N,Net-(RN1-Pad7)*
X147320000Y-105156000D03*
G04 #@! TO.P,RN1,6*
G04 #@! TO.N,Net-(RN1-Pad6)*
X144780000Y-105156000D03*
G04 #@! TO.P,RN1,5*
G04 #@! TO.N,Net-(RN1-Pad5)*
X142240000Y-105156000D03*
G04 #@! TO.P,RN1,4*
G04 #@! TO.N,Net-(RN1-Pad4)*
X139700000Y-105156000D03*
G04 #@! TO.P,RN1,3*
G04 #@! TO.N,Net-(RN1-Pad3)*
X137160000Y-105156000D03*
G04 #@! TO.P,RN1,2*
G04 #@! TO.N,Net-(RN1-Pad2)*
X134620000Y-105156000D03*
D13*
G04 #@! TO.P,RN1,1*
G04 #@! TO.N,+3V3*
X132080000Y-105156000D03*
G04 #@! TD*
D12*
G04 #@! TO.P,Address,8*
G04 #@! TO.N,Net-(RN1-Pad2)*
X118872000Y-109728000D03*
G04 #@! TO.P,Address,4*
G04 #@! TO.N,GND*
X111252000Y-117348000D03*
G04 #@! TO.P,Address,7*
G04 #@! TO.N,Net-(RN1-Pad3)*
X118872000Y-112268000D03*
G04 #@! TO.P,Address,3*
G04 #@! TO.N,GND*
X111252000Y-114808000D03*
G04 #@! TO.P,Address,6*
G04 #@! TO.N,Net-(RN1-Pad4)*
X118872000Y-114808000D03*
G04 #@! TO.P,Address,2*
G04 #@! TO.N,GND*
X111252000Y-112268000D03*
G04 #@! TO.P,Address,5*
G04 #@! TO.N,Net-(RN1-Pad5)*
X118872000Y-117348000D03*
D13*
G04 #@! TO.P,Address,1*
G04 #@! TO.N,GND*
X111252000Y-109728000D03*
G04 #@! TD*
D14*
G04 #@! TO.P,S1,A*
G04 #@! TO.N,Net-(S1-PadA)*
X179197000Y-111252000D03*
G04 #@! TO.P,S1,B*
G04 #@! TO.N,Net-(S1-PadB)*
X179197000Y-106172000D03*
G04 #@! TO.P,S1,C*
G04 #@! TO.N,GND*
X179197000Y-108712000D03*
D15*
G04 #@! TO.P,S1,P$3*
G04 #@! TO.N,N/C*
X171704000Y-102108000D03*
G04 #@! TO.P,S1,P$4*
X171704000Y-115316000D03*
D14*
G04 #@! TO.P,S1,SW+*
G04 #@! TO.N,GND*
X164719000Y-106172000D03*
G04 #@! TO.P,S1,SW-*
G04 #@! TO.N,Net-(RN1-Pad6)*
X164719000Y-111252000D03*
G04 #@! TD*
D11*
G04 #@! TO.P,J2,1*
G04 #@! TO.N,+5V*
X179324000Y-121920000D03*
G04 #@! TO.P,J2,2*
G04 #@! TO.N,GND*
X176784000Y-121920000D03*
G04 #@! TO.P,J2,3*
G04 #@! TO.N,Net-(J2-Pad3)*
X174244000Y-121920000D03*
G04 #@! TO.P,J2,4*
G04 #@! TO.N,Net-(J2-Pad4)*
X171704000Y-121920000D03*
G04 #@! TO.P,J2,5*
G04 #@! TO.N,Net-(J2-Pad5)*
X169164000Y-121920000D03*
G04 #@! TO.P,J2,6*
G04 #@! TO.N,Net-(J2-Pad6)*
X166624000Y-121920000D03*
G04 #@! TO.P,J2,7*
G04 #@! TO.N,Net-(J2-Pad7)*
X164084000Y-121920000D03*
G04 #@! TO.P,J2,8*
G04 #@! TO.N,Net-(J2-Pad8)*
X161544000Y-121920000D03*
G04 #@! TD*
D16*
G04 #@! TO.P,REF\002A\002A,1*
G04 #@! TO.N,N/C*
X107696000Y-127000000D03*
G04 #@! TD*
G04 #@! TO.P,REF\002A\002A,1*
G04 #@! TO.N,N/C*
X177800000Y-98044000D03*
G04 #@! TD*
D17*
G04 #@! TO.N,Net-(S1-PadA)*
X179197000Y-111252000D02*
X179197000Y-112903000D01*
X179197000Y-112903000D02*
X173228000Y-118872000D01*
X140716000Y-118872000D02*
X139643001Y-119944999D01*
X139643001Y-119944999D02*
X139643001Y-121985025D01*
X173228000Y-118872000D02*
X140716000Y-118872000D01*
G04 #@! TO.N,Net-(S1-PadB)*
X179197000Y-106172000D02*
X174752000Y-106172000D01*
X174752000Y-106172000D02*
X163068000Y-117856000D01*
X137103001Y-119436999D02*
X137103001Y-121985025D01*
X138684000Y-117856000D02*
X137103001Y-119436999D01*
X163068000Y-117856000D02*
X138684000Y-117856000D01*
G04 #@! TD*
D18*
G04 #@! TO.N,GND*
G36*
X182170001Y-130862000D02*
X103834000Y-130862000D01*
X103834000Y-126469501D01*
X105029000Y-126469501D01*
X105029000Y-127530499D01*
X105435026Y-128510734D01*
X106185266Y-129260974D01*
X107165501Y-129667000D01*
X108226499Y-129667000D01*
X109206734Y-129260974D01*
X109956974Y-128510734D01*
X110363000Y-127530499D01*
X110363000Y-127194753D01*
X133045200Y-127194753D01*
X133045200Y-127821247D01*
X133284949Y-128400052D01*
X133727948Y-128843051D01*
X134306753Y-129082800D01*
X134933247Y-129082800D01*
X135512052Y-128843051D01*
X135890000Y-128465103D01*
X136267948Y-128843051D01*
X136846753Y-129082800D01*
X137473247Y-129082800D01*
X138052052Y-128843051D01*
X138278135Y-128616968D01*
X138770637Y-128616968D01*
X138861923Y-128877580D01*
X139449833Y-129094045D01*
X140075828Y-129069049D01*
X140538077Y-128877580D01*
X140629363Y-128616968D01*
X139700000Y-127687605D01*
X138770637Y-128616968D01*
X138278135Y-128616968D01*
X138492317Y-128402786D01*
X138591032Y-128437363D01*
X139520395Y-127508000D01*
X139879605Y-127508000D01*
X140808968Y-128437363D01*
X141069580Y-128346077D01*
X141286045Y-127758167D01*
X141261049Y-127132172D01*
X141069580Y-126669923D01*
X140808968Y-126578637D01*
X139879605Y-127508000D01*
X139520395Y-127508000D01*
X138591032Y-126578637D01*
X138492317Y-126613214D01*
X138278135Y-126399032D01*
X138770637Y-126399032D01*
X139700000Y-127328395D01*
X140629363Y-126399032D01*
X140538077Y-126138420D01*
X139950167Y-125921955D01*
X139324172Y-125946951D01*
X138861923Y-126138420D01*
X138770637Y-126399032D01*
X138278135Y-126399032D01*
X138052052Y-126172949D01*
X137473247Y-125933200D01*
X136846753Y-125933200D01*
X136267948Y-126172949D01*
X135890000Y-126550897D01*
X135512052Y-126172949D01*
X134933247Y-125933200D01*
X134306753Y-125933200D01*
X133727948Y-126172949D01*
X133284949Y-126615948D01*
X133045200Y-127194753D01*
X110363000Y-127194753D01*
X110363000Y-126469501D01*
X109956974Y-125489266D01*
X109206734Y-124739026D01*
X108226499Y-124333000D01*
X107165501Y-124333000D01*
X106185266Y-124739026D01*
X105435026Y-125489266D01*
X105029000Y-126469501D01*
X103834000Y-126469501D01*
X103834000Y-121679695D01*
X130488001Y-121679695D01*
X130488001Y-122290355D01*
X130721691Y-122854532D01*
X131153494Y-123286335D01*
X131717671Y-123520025D01*
X132328331Y-123520025D01*
X132892508Y-123286335D01*
X133113659Y-123065184D01*
X133662447Y-123065184D01*
X133748853Y-123321668D01*
X134322337Y-123531483D01*
X134932461Y-123505864D01*
X135377149Y-123321668D01*
X135463555Y-123065184D01*
X134563001Y-122164630D01*
X133662447Y-123065184D01*
X133113659Y-123065184D01*
X133324311Y-122854532D01*
X133332439Y-122834910D01*
X133482842Y-122885579D01*
X134383396Y-121985025D01*
X134742606Y-121985025D01*
X135643160Y-122885579D01*
X135793563Y-122834910D01*
X135801691Y-122854532D01*
X136233494Y-123286335D01*
X136797671Y-123520025D01*
X137408331Y-123520025D01*
X137972508Y-123286335D01*
X138373001Y-122885842D01*
X138773494Y-123286335D01*
X139337671Y-123520025D01*
X139948331Y-123520025D01*
X140512508Y-123286335D01*
X140913001Y-122885842D01*
X141313494Y-123286335D01*
X141877671Y-123520025D01*
X142488331Y-123520025D01*
X143052508Y-123286335D01*
X143453001Y-122885842D01*
X143853494Y-123286335D01*
X144417671Y-123520025D01*
X145028331Y-123520025D01*
X145592508Y-123286335D01*
X145993001Y-122885842D01*
X146393494Y-123286335D01*
X146957671Y-123520025D01*
X147568331Y-123520025D01*
X148132508Y-123286335D01*
X148533001Y-122885842D01*
X148933494Y-123286335D01*
X149497671Y-123520025D01*
X150108331Y-123520025D01*
X150672508Y-123286335D01*
X151104311Y-122854532D01*
X151338001Y-122290355D01*
X151338001Y-121679695D01*
X151307788Y-121606753D01*
X159969200Y-121606753D01*
X159969200Y-122233247D01*
X160208949Y-122812052D01*
X160651948Y-123255051D01*
X161230753Y-123494800D01*
X161857247Y-123494800D01*
X162436052Y-123255051D01*
X162814000Y-122877103D01*
X163191948Y-123255051D01*
X163770753Y-123494800D01*
X164397247Y-123494800D01*
X164976052Y-123255051D01*
X165354000Y-122877103D01*
X165731948Y-123255051D01*
X166310753Y-123494800D01*
X166937247Y-123494800D01*
X167516052Y-123255051D01*
X167894000Y-122877103D01*
X168271948Y-123255051D01*
X168850753Y-123494800D01*
X169477247Y-123494800D01*
X170056052Y-123255051D01*
X170434000Y-122877103D01*
X170811948Y-123255051D01*
X171390753Y-123494800D01*
X172017247Y-123494800D01*
X172596052Y-123255051D01*
X172974000Y-122877103D01*
X173351948Y-123255051D01*
X173930753Y-123494800D01*
X174557247Y-123494800D01*
X175136052Y-123255051D01*
X175362135Y-123028968D01*
X175854637Y-123028968D01*
X175945923Y-123289580D01*
X176533833Y-123506045D01*
X177159828Y-123481049D01*
X177622077Y-123289580D01*
X177713363Y-123028968D01*
X176784000Y-122099605D01*
X175854637Y-123028968D01*
X175362135Y-123028968D01*
X175576317Y-122814786D01*
X175675032Y-122849363D01*
X176604395Y-121920000D01*
X176963605Y-121920000D01*
X177892968Y-122849363D01*
X177991683Y-122814786D01*
X178431948Y-123255051D01*
X179010753Y-123494800D01*
X179637247Y-123494800D01*
X180216052Y-123255051D01*
X180659051Y-122812052D01*
X180898800Y-122233247D01*
X180898800Y-121606753D01*
X180659051Y-121027948D01*
X180216052Y-120584949D01*
X179637247Y-120345200D01*
X179010753Y-120345200D01*
X178431948Y-120584949D01*
X177991683Y-121025214D01*
X177892968Y-120990637D01*
X176963605Y-121920000D01*
X176604395Y-121920000D01*
X175675032Y-120990637D01*
X175576317Y-121025214D01*
X175362135Y-120811032D01*
X175854637Y-120811032D01*
X176784000Y-121740395D01*
X177713363Y-120811032D01*
X177622077Y-120550420D01*
X177034167Y-120333955D01*
X176408172Y-120358951D01*
X175945923Y-120550420D01*
X175854637Y-120811032D01*
X175362135Y-120811032D01*
X175136052Y-120584949D01*
X174557247Y-120345200D01*
X173930753Y-120345200D01*
X173351948Y-120584949D01*
X172974000Y-120962897D01*
X172596052Y-120584949D01*
X172017247Y-120345200D01*
X171390753Y-120345200D01*
X170811948Y-120584949D01*
X170434000Y-120962897D01*
X170056052Y-120584949D01*
X169477247Y-120345200D01*
X168850753Y-120345200D01*
X168271948Y-120584949D01*
X167894000Y-120962897D01*
X167516052Y-120584949D01*
X166937247Y-120345200D01*
X166310753Y-120345200D01*
X165731948Y-120584949D01*
X165354000Y-120962897D01*
X164976052Y-120584949D01*
X164397247Y-120345200D01*
X163770753Y-120345200D01*
X163191948Y-120584949D01*
X162814000Y-120962897D01*
X162436052Y-120584949D01*
X161857247Y-120345200D01*
X161230753Y-120345200D01*
X160651948Y-120584949D01*
X160208949Y-121027948D01*
X159969200Y-121606753D01*
X151307788Y-121606753D01*
X151104311Y-121115518D01*
X150672508Y-120683715D01*
X150108331Y-120450025D01*
X149497671Y-120450025D01*
X148933494Y-120683715D01*
X148533001Y-121084208D01*
X148132508Y-120683715D01*
X147568331Y-120450025D01*
X146957671Y-120450025D01*
X146393494Y-120683715D01*
X145993001Y-121084208D01*
X145592508Y-120683715D01*
X145028331Y-120450025D01*
X144417671Y-120450025D01*
X143853494Y-120683715D01*
X143453001Y-121084208D01*
X143052508Y-120683715D01*
X142488331Y-120450025D01*
X141877671Y-120450025D01*
X141313494Y-120683715D01*
X140913001Y-121084208D01*
X140512508Y-120683715D01*
X140403001Y-120638356D01*
X140403001Y-120259800D01*
X141030802Y-119632000D01*
X173153153Y-119632000D01*
X173228000Y-119646888D01*
X173302847Y-119632000D01*
X173302852Y-119632000D01*
X173524537Y-119587904D01*
X173775929Y-119419929D01*
X173818331Y-119356470D01*
X179681473Y-113493329D01*
X179744929Y-113450929D01*
X179844055Y-113302577D01*
X179912904Y-113199538D01*
X179946627Y-113030000D01*
X179957000Y-112977852D01*
X179957000Y-112977848D01*
X179971888Y-112903000D01*
X179957000Y-112828152D01*
X179957000Y-112449300D01*
X179988337Y-112436320D01*
X180381320Y-112043337D01*
X180594000Y-111529881D01*
X180594000Y-110974119D01*
X180381320Y-110460663D01*
X179988337Y-110067680D01*
X179797353Y-109988572D01*
X179928143Y-109934397D01*
X179997608Y-109692213D01*
X179197000Y-108891605D01*
X178396392Y-109692213D01*
X178465857Y-109934397D01*
X178606393Y-109984535D01*
X178405663Y-110067680D01*
X178012680Y-110460663D01*
X177800000Y-110974119D01*
X177800000Y-111529881D01*
X178012680Y-112043337D01*
X178405663Y-112436320D01*
X178437001Y-112449300D01*
X178437001Y-112588197D01*
X172913199Y-118112000D01*
X163886801Y-118112000D01*
X167137515Y-114861286D01*
X169418000Y-114861286D01*
X169418000Y-115770714D01*
X169766023Y-116610915D01*
X170409085Y-117253977D01*
X171249286Y-117602000D01*
X172158714Y-117602000D01*
X172998915Y-117253977D01*
X173641977Y-116610915D01*
X173990000Y-115770714D01*
X173990000Y-114861286D01*
X173641977Y-114021085D01*
X172998915Y-113378023D01*
X172158714Y-113030000D01*
X171249286Y-113030000D01*
X170409085Y-113378023D01*
X169766023Y-114021085D01*
X169418000Y-114861286D01*
X167137515Y-114861286D01*
X173494499Y-108504302D01*
X177787856Y-108504302D01*
X177815638Y-109059368D01*
X177974603Y-109443143D01*
X178216787Y-109512608D01*
X179017395Y-108712000D01*
X179376605Y-108712000D01*
X180177213Y-109512608D01*
X180419397Y-109443143D01*
X180606144Y-108919698D01*
X180578362Y-108364632D01*
X180419397Y-107980857D01*
X180177213Y-107911392D01*
X179376605Y-108712000D01*
X179017395Y-108712000D01*
X178216787Y-107911392D01*
X177974603Y-107980857D01*
X177787856Y-108504302D01*
X173494499Y-108504302D01*
X175066802Y-106932000D01*
X177999700Y-106932000D01*
X178012680Y-106963337D01*
X178405663Y-107356320D01*
X178596647Y-107435428D01*
X178465857Y-107489603D01*
X178396392Y-107731787D01*
X179197000Y-108532395D01*
X179997608Y-107731787D01*
X179928143Y-107489603D01*
X179787607Y-107439465D01*
X179988337Y-107356320D01*
X180381320Y-106963337D01*
X180594000Y-106449881D01*
X180594000Y-105894119D01*
X180381320Y-105380663D01*
X179988337Y-104987680D01*
X179474881Y-104775000D01*
X178919119Y-104775000D01*
X178405663Y-104987680D01*
X178012680Y-105380663D01*
X177999700Y-105412000D01*
X174826846Y-105412000D01*
X174751999Y-105397112D01*
X174677152Y-105412000D01*
X174677148Y-105412000D01*
X174455463Y-105456096D01*
X174204071Y-105624071D01*
X174161671Y-105687527D01*
X162753199Y-117096000D01*
X138758846Y-117096000D01*
X138683999Y-117081112D01*
X138609152Y-117096000D01*
X138609148Y-117096000D01*
X138387463Y-117140096D01*
X138136071Y-117308071D01*
X138093671Y-117371527D01*
X136618531Y-118846668D01*
X136555072Y-118889070D01*
X136387097Y-119140463D01*
X136343001Y-119362148D01*
X136343001Y-119362152D01*
X136328113Y-119436999D01*
X136343001Y-119511846D01*
X136343001Y-120638355D01*
X136233494Y-120683715D01*
X135801691Y-121115518D01*
X135793563Y-121135140D01*
X135643160Y-121084471D01*
X134742606Y-121985025D01*
X134383396Y-121985025D01*
X133482842Y-121084471D01*
X133332439Y-121135140D01*
X133324311Y-121115518D01*
X133113659Y-120904866D01*
X133662447Y-120904866D01*
X134563001Y-121805420D01*
X135463555Y-120904866D01*
X135377149Y-120648382D01*
X134803665Y-120438567D01*
X134193541Y-120464186D01*
X133748853Y-120648382D01*
X133662447Y-120904866D01*
X133113659Y-120904866D01*
X132892508Y-120683715D01*
X132328331Y-120450025D01*
X131717671Y-120450025D01*
X131153494Y-120683715D01*
X130721691Y-121115518D01*
X130488001Y-121679695D01*
X103834000Y-121679695D01*
X103834000Y-117697039D01*
X109860096Y-117697039D01*
X110020959Y-118085423D01*
X110396866Y-118500389D01*
X110902959Y-118739914D01*
X111125000Y-118618629D01*
X111125000Y-117475000D01*
X111379000Y-117475000D01*
X111379000Y-118618629D01*
X111601041Y-118739914D01*
X112107134Y-118500389D01*
X112483041Y-118085423D01*
X112643904Y-117697039D01*
X112521915Y-117475000D01*
X111379000Y-117475000D01*
X111125000Y-117475000D01*
X109982085Y-117475000D01*
X109860096Y-117697039D01*
X103834000Y-117697039D01*
X103834000Y-115157039D01*
X109860096Y-115157039D01*
X110020959Y-115545423D01*
X110396866Y-115960389D01*
X110645367Y-116078000D01*
X110396866Y-116195611D01*
X110020959Y-116610577D01*
X109860096Y-116998961D01*
X109982085Y-117221000D01*
X111125000Y-117221000D01*
X111125000Y-114935000D01*
X111379000Y-114935000D01*
X111379000Y-117221000D01*
X112521915Y-117221000D01*
X112643904Y-116998961D01*
X112483041Y-116610577D01*
X112107134Y-116195611D01*
X111858633Y-116078000D01*
X112107134Y-115960389D01*
X112483041Y-115545423D01*
X112643904Y-115157039D01*
X112521915Y-114935000D01*
X111379000Y-114935000D01*
X111125000Y-114935000D01*
X109982085Y-114935000D01*
X109860096Y-115157039D01*
X103834000Y-115157039D01*
X103834000Y-112617039D01*
X109860096Y-112617039D01*
X110020959Y-113005423D01*
X110396866Y-113420389D01*
X110645367Y-113538000D01*
X110396866Y-113655611D01*
X110020959Y-114070577D01*
X109860096Y-114458961D01*
X109982085Y-114681000D01*
X111125000Y-114681000D01*
X111125000Y-112395000D01*
X111379000Y-112395000D01*
X111379000Y-114681000D01*
X112521915Y-114681000D01*
X112643904Y-114458961D01*
X112483041Y-114070577D01*
X112107134Y-113655611D01*
X111858633Y-113538000D01*
X112107134Y-113420389D01*
X112483041Y-113005423D01*
X112643904Y-112617039D01*
X112521915Y-112395000D01*
X111379000Y-112395000D01*
X111125000Y-112395000D01*
X109982085Y-112395000D01*
X109860096Y-112617039D01*
X103834000Y-112617039D01*
X103834000Y-110013750D01*
X109817000Y-110013750D01*
X109817000Y-110654310D01*
X109913673Y-110887699D01*
X110092302Y-111066327D01*
X110325691Y-111163000D01*
X110353938Y-111163000D01*
X110020959Y-111530577D01*
X109860096Y-111918961D01*
X109982085Y-112141000D01*
X111125000Y-112141000D01*
X111125000Y-109855000D01*
X111379000Y-109855000D01*
X111379000Y-112141000D01*
X112521915Y-112141000D01*
X112643904Y-111918961D01*
X112483041Y-111530577D01*
X112150062Y-111163000D01*
X112178309Y-111163000D01*
X112411698Y-111066327D01*
X112590327Y-110887699D01*
X112687000Y-110654310D01*
X112687000Y-110013750D01*
X112528250Y-109855000D01*
X111379000Y-109855000D01*
X111125000Y-109855000D01*
X109975750Y-109855000D01*
X109817000Y-110013750D01*
X103834000Y-110013750D01*
X103834000Y-109728000D01*
X117408887Y-109728000D01*
X117520260Y-110287909D01*
X117837423Y-110762577D01*
X118189758Y-110998000D01*
X117837423Y-111233423D01*
X117520260Y-111708091D01*
X117408887Y-112268000D01*
X117520260Y-112827909D01*
X117837423Y-113302577D01*
X118189758Y-113538000D01*
X117837423Y-113773423D01*
X117520260Y-114248091D01*
X117408887Y-114808000D01*
X117520260Y-115367909D01*
X117837423Y-115842577D01*
X118189758Y-116078000D01*
X117837423Y-116313423D01*
X117520260Y-116788091D01*
X117408887Y-117348000D01*
X117520260Y-117907909D01*
X117837423Y-118382577D01*
X118312091Y-118699740D01*
X118730667Y-118783000D01*
X119013333Y-118783000D01*
X119431909Y-118699740D01*
X119906577Y-118382577D01*
X120223740Y-117907909D01*
X120335113Y-117348000D01*
X120223740Y-116788091D01*
X119906577Y-116313423D01*
X119554242Y-116078000D01*
X119906577Y-115842577D01*
X120223740Y-115367909D01*
X120335113Y-114808000D01*
X120223740Y-114248091D01*
X119906577Y-113773423D01*
X119554242Y-113538000D01*
X119906577Y-113302577D01*
X120223740Y-112827909D01*
X120335113Y-112268000D01*
X120223740Y-111708091D01*
X119906577Y-111233423D01*
X119554242Y-110998000D01*
X119589982Y-110974119D01*
X163322000Y-110974119D01*
X163322000Y-111529881D01*
X163534680Y-112043337D01*
X163927663Y-112436320D01*
X164441119Y-112649000D01*
X164996881Y-112649000D01*
X165510337Y-112436320D01*
X165903320Y-112043337D01*
X166116000Y-111529881D01*
X166116000Y-110974119D01*
X165903320Y-110460663D01*
X165510337Y-110067680D01*
X164996881Y-109855000D01*
X164441119Y-109855000D01*
X163927663Y-110067680D01*
X163534680Y-110460663D01*
X163322000Y-110974119D01*
X119589982Y-110974119D01*
X119906577Y-110762577D01*
X120223740Y-110287909D01*
X120335113Y-109728000D01*
X120223740Y-109168091D01*
X119906577Y-108693423D01*
X119431909Y-108376260D01*
X119013333Y-108293000D01*
X118730667Y-108293000D01*
X118312091Y-108376260D01*
X117837423Y-108693423D01*
X117520260Y-109168091D01*
X117408887Y-109728000D01*
X103834000Y-109728000D01*
X103834000Y-108801690D01*
X109817000Y-108801690D01*
X109817000Y-109442250D01*
X109975750Y-109601000D01*
X111125000Y-109601000D01*
X111125000Y-108451750D01*
X111379000Y-108451750D01*
X111379000Y-109601000D01*
X112528250Y-109601000D01*
X112687000Y-109442250D01*
X112687000Y-108801690D01*
X112590327Y-108568301D01*
X112411698Y-108389673D01*
X112178309Y-108293000D01*
X111537750Y-108293000D01*
X111379000Y-108451750D01*
X111125000Y-108451750D01*
X110966250Y-108293000D01*
X110325691Y-108293000D01*
X110092302Y-108389673D01*
X109913673Y-108568301D01*
X109817000Y-108801690D01*
X103834000Y-108801690D01*
X103834000Y-107152213D01*
X163918392Y-107152213D01*
X163987857Y-107394397D01*
X164511302Y-107581144D01*
X165066368Y-107553362D01*
X165450143Y-107394397D01*
X165519608Y-107152213D01*
X164719000Y-106351605D01*
X163918392Y-107152213D01*
X103834000Y-107152213D01*
X103834000Y-104356000D01*
X130632560Y-104356000D01*
X130632560Y-105956000D01*
X130681843Y-106203765D01*
X130822191Y-106413809D01*
X131032235Y-106554157D01*
X131280000Y-106603440D01*
X132880000Y-106603440D01*
X133127765Y-106554157D01*
X133337809Y-106413809D01*
X133478157Y-106203765D01*
X133504785Y-106069894D01*
X133585423Y-106190577D01*
X134060091Y-106507740D01*
X134478667Y-106591000D01*
X134761333Y-106591000D01*
X135179909Y-106507740D01*
X135654577Y-106190577D01*
X135890000Y-105838242D01*
X136125423Y-106190577D01*
X136600091Y-106507740D01*
X137018667Y-106591000D01*
X137301333Y-106591000D01*
X137719909Y-106507740D01*
X138194577Y-106190577D01*
X138430000Y-105838242D01*
X138665423Y-106190577D01*
X139140091Y-106507740D01*
X139558667Y-106591000D01*
X139841333Y-106591000D01*
X140259909Y-106507740D01*
X140734577Y-106190577D01*
X140970000Y-105838242D01*
X141205423Y-106190577D01*
X141680091Y-106507740D01*
X142098667Y-106591000D01*
X142381333Y-106591000D01*
X142799909Y-106507740D01*
X143274577Y-106190577D01*
X143510000Y-105838242D01*
X143745423Y-106190577D01*
X144220091Y-106507740D01*
X144638667Y-106591000D01*
X144921333Y-106591000D01*
X145339909Y-106507740D01*
X145814577Y-106190577D01*
X146050000Y-105838242D01*
X146285423Y-106190577D01*
X146760091Y-106507740D01*
X147178667Y-106591000D01*
X147461333Y-106591000D01*
X147879909Y-106507740D01*
X148354577Y-106190577D01*
X148590000Y-105838242D01*
X148825423Y-106190577D01*
X149300091Y-106507740D01*
X149718667Y-106591000D01*
X150001333Y-106591000D01*
X150419909Y-106507740D01*
X150894577Y-106190577D01*
X151130000Y-105838242D01*
X151365423Y-106190577D01*
X151840091Y-106507740D01*
X152258667Y-106591000D01*
X152541333Y-106591000D01*
X152959909Y-106507740D01*
X153434577Y-106190577D01*
X153585769Y-105964302D01*
X163309856Y-105964302D01*
X163337638Y-106519368D01*
X163496603Y-106903143D01*
X163738787Y-106972608D01*
X164539395Y-106172000D01*
X164898605Y-106172000D01*
X165699213Y-106972608D01*
X165941397Y-106903143D01*
X166128144Y-106379698D01*
X166100362Y-105824632D01*
X165941397Y-105440857D01*
X165699213Y-105371392D01*
X164898605Y-106172000D01*
X164539395Y-106172000D01*
X163738787Y-105371392D01*
X163496603Y-105440857D01*
X163309856Y-105964302D01*
X153585769Y-105964302D01*
X153751740Y-105715909D01*
X153855994Y-105191787D01*
X163918392Y-105191787D01*
X164719000Y-105992395D01*
X165519608Y-105191787D01*
X165450143Y-104949603D01*
X164926698Y-104762856D01*
X164371632Y-104790638D01*
X163987857Y-104949603D01*
X163918392Y-105191787D01*
X153855994Y-105191787D01*
X153863113Y-105156000D01*
X153751740Y-104596091D01*
X153434577Y-104121423D01*
X152959909Y-103804260D01*
X152541333Y-103721000D01*
X152258667Y-103721000D01*
X151840091Y-103804260D01*
X151365423Y-104121423D01*
X151130000Y-104473758D01*
X150894577Y-104121423D01*
X150419909Y-103804260D01*
X150001333Y-103721000D01*
X149718667Y-103721000D01*
X149300091Y-103804260D01*
X148825423Y-104121423D01*
X148590000Y-104473758D01*
X148354577Y-104121423D01*
X147879909Y-103804260D01*
X147461333Y-103721000D01*
X147178667Y-103721000D01*
X146760091Y-103804260D01*
X146285423Y-104121423D01*
X146050000Y-104473758D01*
X145814577Y-104121423D01*
X145339909Y-103804260D01*
X144921333Y-103721000D01*
X144638667Y-103721000D01*
X144220091Y-103804260D01*
X143745423Y-104121423D01*
X143510000Y-104473758D01*
X143274577Y-104121423D01*
X142799909Y-103804260D01*
X142381333Y-103721000D01*
X142098667Y-103721000D01*
X141680091Y-103804260D01*
X141205423Y-104121423D01*
X140970000Y-104473758D01*
X140734577Y-104121423D01*
X140259909Y-103804260D01*
X139841333Y-103721000D01*
X139558667Y-103721000D01*
X139140091Y-103804260D01*
X138665423Y-104121423D01*
X138430000Y-104473758D01*
X138194577Y-104121423D01*
X137719909Y-103804260D01*
X137301333Y-103721000D01*
X137018667Y-103721000D01*
X136600091Y-103804260D01*
X136125423Y-104121423D01*
X135890000Y-104473758D01*
X135654577Y-104121423D01*
X135179909Y-103804260D01*
X134761333Y-103721000D01*
X134478667Y-103721000D01*
X134060091Y-103804260D01*
X133585423Y-104121423D01*
X133504785Y-104242106D01*
X133478157Y-104108235D01*
X133337809Y-103898191D01*
X133127765Y-103757843D01*
X132880000Y-103708560D01*
X131280000Y-103708560D01*
X131032235Y-103757843D01*
X130822191Y-103898191D01*
X130681843Y-104108235D01*
X130632560Y-104356000D01*
X103834000Y-104356000D01*
X103834000Y-101653286D01*
X169418000Y-101653286D01*
X169418000Y-102562714D01*
X169766023Y-103402915D01*
X170409085Y-104045977D01*
X171249286Y-104394000D01*
X172158714Y-104394000D01*
X172998915Y-104045977D01*
X173641977Y-103402915D01*
X173990000Y-102562714D01*
X173990000Y-101653286D01*
X173641977Y-100813085D01*
X172998915Y-100170023D01*
X172158714Y-99822000D01*
X171249286Y-99822000D01*
X170409085Y-100170023D01*
X169766023Y-100813085D01*
X169418000Y-101653286D01*
X103834000Y-101653286D01*
X103834000Y-98819695D01*
X130488001Y-98819695D01*
X130488001Y-99430355D01*
X130721691Y-99994532D01*
X131153494Y-100426335D01*
X131717671Y-100660025D01*
X132328331Y-100660025D01*
X132892508Y-100426335D01*
X133293001Y-100025842D01*
X133693494Y-100426335D01*
X134257671Y-100660025D01*
X134868331Y-100660025D01*
X135432508Y-100426335D01*
X135833001Y-100025842D01*
X136233494Y-100426335D01*
X136797671Y-100660025D01*
X137408331Y-100660025D01*
X137972508Y-100426335D01*
X138373001Y-100025842D01*
X138773494Y-100426335D01*
X139337671Y-100660025D01*
X139948331Y-100660025D01*
X140512508Y-100426335D01*
X140913001Y-100025842D01*
X141313494Y-100426335D01*
X141877671Y-100660025D01*
X142488331Y-100660025D01*
X143052508Y-100426335D01*
X143453001Y-100025842D01*
X143853494Y-100426335D01*
X144417671Y-100660025D01*
X145028331Y-100660025D01*
X145592508Y-100426335D01*
X145993001Y-100025842D01*
X146393494Y-100426335D01*
X146957671Y-100660025D01*
X147568331Y-100660025D01*
X148132508Y-100426335D01*
X148533001Y-100025842D01*
X148933494Y-100426335D01*
X149497671Y-100660025D01*
X150108331Y-100660025D01*
X150672508Y-100426335D01*
X151104311Y-99994532D01*
X151338001Y-99430355D01*
X151338001Y-98819695D01*
X151104311Y-98255518D01*
X150672508Y-97823715D01*
X150108331Y-97590025D01*
X149497671Y-97590025D01*
X148933494Y-97823715D01*
X148533001Y-98224208D01*
X148132508Y-97823715D01*
X147568331Y-97590025D01*
X146957671Y-97590025D01*
X146393494Y-97823715D01*
X145993001Y-98224208D01*
X145592508Y-97823715D01*
X145028331Y-97590025D01*
X144417671Y-97590025D01*
X143853494Y-97823715D01*
X143453001Y-98224208D01*
X143052508Y-97823715D01*
X142488331Y-97590025D01*
X141877671Y-97590025D01*
X141313494Y-97823715D01*
X140913001Y-98224208D01*
X140512508Y-97823715D01*
X139948331Y-97590025D01*
X139337671Y-97590025D01*
X138773494Y-97823715D01*
X138373001Y-98224208D01*
X137972508Y-97823715D01*
X137408331Y-97590025D01*
X136797671Y-97590025D01*
X136233494Y-97823715D01*
X135833001Y-98224208D01*
X135432508Y-97823715D01*
X134868331Y-97590025D01*
X134257671Y-97590025D01*
X133693494Y-97823715D01*
X133293001Y-98224208D01*
X132892508Y-97823715D01*
X132328331Y-97590025D01*
X131717671Y-97590025D01*
X131153494Y-97823715D01*
X130721691Y-98255518D01*
X130488001Y-98819695D01*
X103834000Y-98819695D01*
X103834000Y-96206753D01*
X158445200Y-96206753D01*
X158445200Y-96833247D01*
X158684949Y-97412052D01*
X159127948Y-97855051D01*
X159706753Y-98094800D01*
X160333247Y-98094800D01*
X160912052Y-97855051D01*
X161138135Y-97628968D01*
X161630637Y-97628968D01*
X161721923Y-97889580D01*
X162309833Y-98106045D01*
X162935828Y-98081049D01*
X163398077Y-97889580D01*
X163489363Y-97628968D01*
X163373896Y-97513501D01*
X175133000Y-97513501D01*
X175133000Y-98574499D01*
X175539026Y-99554734D01*
X176289266Y-100304974D01*
X177269501Y-100711000D01*
X178330499Y-100711000D01*
X179310734Y-100304974D01*
X180060974Y-99554734D01*
X180467000Y-98574499D01*
X180467000Y-97513501D01*
X180060974Y-96533266D01*
X179310734Y-95783026D01*
X178330499Y-95377000D01*
X177269501Y-95377000D01*
X176289266Y-95783026D01*
X175539026Y-96533266D01*
X175133000Y-97513501D01*
X163373896Y-97513501D01*
X162560000Y-96699605D01*
X161630637Y-97628968D01*
X161138135Y-97628968D01*
X161352317Y-97414786D01*
X161451032Y-97449363D01*
X162380395Y-96520000D01*
X162739605Y-96520000D01*
X163668968Y-97449363D01*
X163929580Y-97358077D01*
X164146045Y-96770167D01*
X164121049Y-96144172D01*
X163929580Y-95681923D01*
X163668968Y-95590637D01*
X162739605Y-96520000D01*
X162380395Y-96520000D01*
X161451032Y-95590637D01*
X161352317Y-95625214D01*
X161138135Y-95411032D01*
X161630637Y-95411032D01*
X162560000Y-96340395D01*
X163489363Y-95411032D01*
X163398077Y-95150420D01*
X162810167Y-94933955D01*
X162184172Y-94958951D01*
X161721923Y-95150420D01*
X161630637Y-95411032D01*
X161138135Y-95411032D01*
X160912052Y-95184949D01*
X160333247Y-94945200D01*
X159706753Y-94945200D01*
X159127948Y-95184949D01*
X158684949Y-95627948D01*
X158445200Y-96206753D01*
X103834000Y-96206753D01*
X103834000Y-94182000D01*
X182170000Y-94182000D01*
X182170001Y-130862000D01*
X182170001Y-130862000D01*
G37*
X182170001Y-130862000D02*
X103834000Y-130862000D01*
X103834000Y-126469501D01*
X105029000Y-126469501D01*
X105029000Y-127530499D01*
X105435026Y-128510734D01*
X106185266Y-129260974D01*
X107165501Y-129667000D01*
X108226499Y-129667000D01*
X109206734Y-129260974D01*
X109956974Y-128510734D01*
X110363000Y-127530499D01*
X110363000Y-127194753D01*
X133045200Y-127194753D01*
X133045200Y-127821247D01*
X133284949Y-128400052D01*
X133727948Y-128843051D01*
X134306753Y-129082800D01*
X134933247Y-129082800D01*
X135512052Y-128843051D01*
X135890000Y-128465103D01*
X136267948Y-128843051D01*
X136846753Y-129082800D01*
X137473247Y-129082800D01*
X138052052Y-128843051D01*
X138278135Y-128616968D01*
X138770637Y-128616968D01*
X138861923Y-128877580D01*
X139449833Y-129094045D01*
X140075828Y-129069049D01*
X140538077Y-128877580D01*
X140629363Y-128616968D01*
X139700000Y-127687605D01*
X138770637Y-128616968D01*
X138278135Y-128616968D01*
X138492317Y-128402786D01*
X138591032Y-128437363D01*
X139520395Y-127508000D01*
X139879605Y-127508000D01*
X140808968Y-128437363D01*
X141069580Y-128346077D01*
X141286045Y-127758167D01*
X141261049Y-127132172D01*
X141069580Y-126669923D01*
X140808968Y-126578637D01*
X139879605Y-127508000D01*
X139520395Y-127508000D01*
X138591032Y-126578637D01*
X138492317Y-126613214D01*
X138278135Y-126399032D01*
X138770637Y-126399032D01*
X139700000Y-127328395D01*
X140629363Y-126399032D01*
X140538077Y-126138420D01*
X139950167Y-125921955D01*
X139324172Y-125946951D01*
X138861923Y-126138420D01*
X138770637Y-126399032D01*
X138278135Y-126399032D01*
X138052052Y-126172949D01*
X137473247Y-125933200D01*
X136846753Y-125933200D01*
X136267948Y-126172949D01*
X135890000Y-126550897D01*
X135512052Y-126172949D01*
X134933247Y-125933200D01*
X134306753Y-125933200D01*
X133727948Y-126172949D01*
X133284949Y-126615948D01*
X133045200Y-127194753D01*
X110363000Y-127194753D01*
X110363000Y-126469501D01*
X109956974Y-125489266D01*
X109206734Y-124739026D01*
X108226499Y-124333000D01*
X107165501Y-124333000D01*
X106185266Y-124739026D01*
X105435026Y-125489266D01*
X105029000Y-126469501D01*
X103834000Y-126469501D01*
X103834000Y-121679695D01*
X130488001Y-121679695D01*
X130488001Y-122290355D01*
X130721691Y-122854532D01*
X131153494Y-123286335D01*
X131717671Y-123520025D01*
X132328331Y-123520025D01*
X132892508Y-123286335D01*
X133113659Y-123065184D01*
X133662447Y-123065184D01*
X133748853Y-123321668D01*
X134322337Y-123531483D01*
X134932461Y-123505864D01*
X135377149Y-123321668D01*
X135463555Y-123065184D01*
X134563001Y-122164630D01*
X133662447Y-123065184D01*
X133113659Y-123065184D01*
X133324311Y-122854532D01*
X133332439Y-122834910D01*
X133482842Y-122885579D01*
X134383396Y-121985025D01*
X134742606Y-121985025D01*
X135643160Y-122885579D01*
X135793563Y-122834910D01*
X135801691Y-122854532D01*
X136233494Y-123286335D01*
X136797671Y-123520025D01*
X137408331Y-123520025D01*
X137972508Y-123286335D01*
X138373001Y-122885842D01*
X138773494Y-123286335D01*
X139337671Y-123520025D01*
X139948331Y-123520025D01*
X140512508Y-123286335D01*
X140913001Y-122885842D01*
X141313494Y-123286335D01*
X141877671Y-123520025D01*
X142488331Y-123520025D01*
X143052508Y-123286335D01*
X143453001Y-122885842D01*
X143853494Y-123286335D01*
X144417671Y-123520025D01*
X145028331Y-123520025D01*
X145592508Y-123286335D01*
X145993001Y-122885842D01*
X146393494Y-123286335D01*
X146957671Y-123520025D01*
X147568331Y-123520025D01*
X148132508Y-123286335D01*
X148533001Y-122885842D01*
X148933494Y-123286335D01*
X149497671Y-123520025D01*
X150108331Y-123520025D01*
X150672508Y-123286335D01*
X151104311Y-122854532D01*
X151338001Y-122290355D01*
X151338001Y-121679695D01*
X151307788Y-121606753D01*
X159969200Y-121606753D01*
X159969200Y-122233247D01*
X160208949Y-122812052D01*
X160651948Y-123255051D01*
X161230753Y-123494800D01*
X161857247Y-123494800D01*
X162436052Y-123255051D01*
X162814000Y-122877103D01*
X163191948Y-123255051D01*
X163770753Y-123494800D01*
X164397247Y-123494800D01*
X164976052Y-123255051D01*
X165354000Y-122877103D01*
X165731948Y-123255051D01*
X166310753Y-123494800D01*
X166937247Y-123494800D01*
X167516052Y-123255051D01*
X167894000Y-122877103D01*
X168271948Y-123255051D01*
X168850753Y-123494800D01*
X169477247Y-123494800D01*
X170056052Y-123255051D01*
X170434000Y-122877103D01*
X170811948Y-123255051D01*
X171390753Y-123494800D01*
X172017247Y-123494800D01*
X172596052Y-123255051D01*
X172974000Y-122877103D01*
X173351948Y-123255051D01*
X173930753Y-123494800D01*
X174557247Y-123494800D01*
X175136052Y-123255051D01*
X175362135Y-123028968D01*
X175854637Y-123028968D01*
X175945923Y-123289580D01*
X176533833Y-123506045D01*
X177159828Y-123481049D01*
X177622077Y-123289580D01*
X177713363Y-123028968D01*
X176784000Y-122099605D01*
X175854637Y-123028968D01*
X175362135Y-123028968D01*
X175576317Y-122814786D01*
X175675032Y-122849363D01*
X176604395Y-121920000D01*
X176963605Y-121920000D01*
X177892968Y-122849363D01*
X177991683Y-122814786D01*
X178431948Y-123255051D01*
X179010753Y-123494800D01*
X179637247Y-123494800D01*
X180216052Y-123255051D01*
X180659051Y-122812052D01*
X180898800Y-122233247D01*
X180898800Y-121606753D01*
X180659051Y-121027948D01*
X180216052Y-120584949D01*
X179637247Y-120345200D01*
X179010753Y-120345200D01*
X178431948Y-120584949D01*
X177991683Y-121025214D01*
X177892968Y-120990637D01*
X176963605Y-121920000D01*
X176604395Y-121920000D01*
X175675032Y-120990637D01*
X175576317Y-121025214D01*
X175362135Y-120811032D01*
X175854637Y-120811032D01*
X176784000Y-121740395D01*
X177713363Y-120811032D01*
X177622077Y-120550420D01*
X177034167Y-120333955D01*
X176408172Y-120358951D01*
X175945923Y-120550420D01*
X175854637Y-120811032D01*
X175362135Y-120811032D01*
X175136052Y-120584949D01*
X174557247Y-120345200D01*
X173930753Y-120345200D01*
X173351948Y-120584949D01*
X172974000Y-120962897D01*
X172596052Y-120584949D01*
X172017247Y-120345200D01*
X171390753Y-120345200D01*
X170811948Y-120584949D01*
X170434000Y-120962897D01*
X170056052Y-120584949D01*
X169477247Y-120345200D01*
X168850753Y-120345200D01*
X168271948Y-120584949D01*
X167894000Y-120962897D01*
X167516052Y-120584949D01*
X166937247Y-120345200D01*
X166310753Y-120345200D01*
X165731948Y-120584949D01*
X165354000Y-120962897D01*
X164976052Y-120584949D01*
X164397247Y-120345200D01*
X163770753Y-120345200D01*
X163191948Y-120584949D01*
X162814000Y-120962897D01*
X162436052Y-120584949D01*
X161857247Y-120345200D01*
X161230753Y-120345200D01*
X160651948Y-120584949D01*
X160208949Y-121027948D01*
X159969200Y-121606753D01*
X151307788Y-121606753D01*
X151104311Y-121115518D01*
X150672508Y-120683715D01*
X150108331Y-120450025D01*
X149497671Y-120450025D01*
X148933494Y-120683715D01*
X148533001Y-121084208D01*
X148132508Y-120683715D01*
X147568331Y-120450025D01*
X146957671Y-120450025D01*
X146393494Y-120683715D01*
X145993001Y-121084208D01*
X145592508Y-120683715D01*
X145028331Y-120450025D01*
X144417671Y-120450025D01*
X143853494Y-120683715D01*
X143453001Y-121084208D01*
X143052508Y-120683715D01*
X142488331Y-120450025D01*
X141877671Y-120450025D01*
X141313494Y-120683715D01*
X140913001Y-121084208D01*
X140512508Y-120683715D01*
X140403001Y-120638356D01*
X140403001Y-120259800D01*
X141030802Y-119632000D01*
X173153153Y-119632000D01*
X173228000Y-119646888D01*
X173302847Y-119632000D01*
X173302852Y-119632000D01*
X173524537Y-119587904D01*
X173775929Y-119419929D01*
X173818331Y-119356470D01*
X179681473Y-113493329D01*
X179744929Y-113450929D01*
X179844055Y-113302577D01*
X179912904Y-113199538D01*
X179946627Y-113030000D01*
X179957000Y-112977852D01*
X179957000Y-112977848D01*
X179971888Y-112903000D01*
X179957000Y-112828152D01*
X179957000Y-112449300D01*
X179988337Y-112436320D01*
X180381320Y-112043337D01*
X180594000Y-111529881D01*
X180594000Y-110974119D01*
X180381320Y-110460663D01*
X179988337Y-110067680D01*
X179797353Y-109988572D01*
X179928143Y-109934397D01*
X179997608Y-109692213D01*
X179197000Y-108891605D01*
X178396392Y-109692213D01*
X178465857Y-109934397D01*
X178606393Y-109984535D01*
X178405663Y-110067680D01*
X178012680Y-110460663D01*
X177800000Y-110974119D01*
X177800000Y-111529881D01*
X178012680Y-112043337D01*
X178405663Y-112436320D01*
X178437001Y-112449300D01*
X178437001Y-112588197D01*
X172913199Y-118112000D01*
X163886801Y-118112000D01*
X167137515Y-114861286D01*
X169418000Y-114861286D01*
X169418000Y-115770714D01*
X169766023Y-116610915D01*
X170409085Y-117253977D01*
X171249286Y-117602000D01*
X172158714Y-117602000D01*
X172998915Y-117253977D01*
X173641977Y-116610915D01*
X173990000Y-115770714D01*
X173990000Y-114861286D01*
X173641977Y-114021085D01*
X172998915Y-113378023D01*
X172158714Y-113030000D01*
X171249286Y-113030000D01*
X170409085Y-113378023D01*
X169766023Y-114021085D01*
X169418000Y-114861286D01*
X167137515Y-114861286D01*
X173494499Y-108504302D01*
X177787856Y-108504302D01*
X177815638Y-109059368D01*
X177974603Y-109443143D01*
X178216787Y-109512608D01*
X179017395Y-108712000D01*
X179376605Y-108712000D01*
X180177213Y-109512608D01*
X180419397Y-109443143D01*
X180606144Y-108919698D01*
X180578362Y-108364632D01*
X180419397Y-107980857D01*
X180177213Y-107911392D01*
X179376605Y-108712000D01*
X179017395Y-108712000D01*
X178216787Y-107911392D01*
X177974603Y-107980857D01*
X177787856Y-108504302D01*
X173494499Y-108504302D01*
X175066802Y-106932000D01*
X177999700Y-106932000D01*
X178012680Y-106963337D01*
X178405663Y-107356320D01*
X178596647Y-107435428D01*
X178465857Y-107489603D01*
X178396392Y-107731787D01*
X179197000Y-108532395D01*
X179997608Y-107731787D01*
X179928143Y-107489603D01*
X179787607Y-107439465D01*
X179988337Y-107356320D01*
X180381320Y-106963337D01*
X180594000Y-106449881D01*
X180594000Y-105894119D01*
X180381320Y-105380663D01*
X179988337Y-104987680D01*
X179474881Y-104775000D01*
X178919119Y-104775000D01*
X178405663Y-104987680D01*
X178012680Y-105380663D01*
X177999700Y-105412000D01*
X174826846Y-105412000D01*
X174751999Y-105397112D01*
X174677152Y-105412000D01*
X174677148Y-105412000D01*
X174455463Y-105456096D01*
X174204071Y-105624071D01*
X174161671Y-105687527D01*
X162753199Y-117096000D01*
X138758846Y-117096000D01*
X138683999Y-117081112D01*
X138609152Y-117096000D01*
X138609148Y-117096000D01*
X138387463Y-117140096D01*
X138136071Y-117308071D01*
X138093671Y-117371527D01*
X136618531Y-118846668D01*
X136555072Y-118889070D01*
X136387097Y-119140463D01*
X136343001Y-119362148D01*
X136343001Y-119362152D01*
X136328113Y-119436999D01*
X136343001Y-119511846D01*
X136343001Y-120638355D01*
X136233494Y-120683715D01*
X135801691Y-121115518D01*
X135793563Y-121135140D01*
X135643160Y-121084471D01*
X134742606Y-121985025D01*
X134383396Y-121985025D01*
X133482842Y-121084471D01*
X133332439Y-121135140D01*
X133324311Y-121115518D01*
X133113659Y-120904866D01*
X133662447Y-120904866D01*
X134563001Y-121805420D01*
X135463555Y-120904866D01*
X135377149Y-120648382D01*
X134803665Y-120438567D01*
X134193541Y-120464186D01*
X133748853Y-120648382D01*
X133662447Y-120904866D01*
X133113659Y-120904866D01*
X132892508Y-120683715D01*
X132328331Y-120450025D01*
X131717671Y-120450025D01*
X131153494Y-120683715D01*
X130721691Y-121115518D01*
X130488001Y-121679695D01*
X103834000Y-121679695D01*
X103834000Y-117697039D01*
X109860096Y-117697039D01*
X110020959Y-118085423D01*
X110396866Y-118500389D01*
X110902959Y-118739914D01*
X111125000Y-118618629D01*
X111125000Y-117475000D01*
X111379000Y-117475000D01*
X111379000Y-118618629D01*
X111601041Y-118739914D01*
X112107134Y-118500389D01*
X112483041Y-118085423D01*
X112643904Y-117697039D01*
X112521915Y-117475000D01*
X111379000Y-117475000D01*
X111125000Y-117475000D01*
X109982085Y-117475000D01*
X109860096Y-117697039D01*
X103834000Y-117697039D01*
X103834000Y-115157039D01*
X109860096Y-115157039D01*
X110020959Y-115545423D01*
X110396866Y-115960389D01*
X110645367Y-116078000D01*
X110396866Y-116195611D01*
X110020959Y-116610577D01*
X109860096Y-116998961D01*
X109982085Y-117221000D01*
X111125000Y-117221000D01*
X111125000Y-114935000D01*
X111379000Y-114935000D01*
X111379000Y-117221000D01*
X112521915Y-117221000D01*
X112643904Y-116998961D01*
X112483041Y-116610577D01*
X112107134Y-116195611D01*
X111858633Y-116078000D01*
X112107134Y-115960389D01*
X112483041Y-115545423D01*
X112643904Y-115157039D01*
X112521915Y-114935000D01*
X111379000Y-114935000D01*
X111125000Y-114935000D01*
X109982085Y-114935000D01*
X109860096Y-115157039D01*
X103834000Y-115157039D01*
X103834000Y-112617039D01*
X109860096Y-112617039D01*
X110020959Y-113005423D01*
X110396866Y-113420389D01*
X110645367Y-113538000D01*
X110396866Y-113655611D01*
X110020959Y-114070577D01*
X109860096Y-114458961D01*
X109982085Y-114681000D01*
X111125000Y-114681000D01*
X111125000Y-112395000D01*
X111379000Y-112395000D01*
X111379000Y-114681000D01*
X112521915Y-114681000D01*
X112643904Y-114458961D01*
X112483041Y-114070577D01*
X112107134Y-113655611D01*
X111858633Y-113538000D01*
X112107134Y-113420389D01*
X112483041Y-113005423D01*
X112643904Y-112617039D01*
X112521915Y-112395000D01*
X111379000Y-112395000D01*
X111125000Y-112395000D01*
X109982085Y-112395000D01*
X109860096Y-112617039D01*
X103834000Y-112617039D01*
X103834000Y-110013750D01*
X109817000Y-110013750D01*
X109817000Y-110654310D01*
X109913673Y-110887699D01*
X110092302Y-111066327D01*
X110325691Y-111163000D01*
X110353938Y-111163000D01*
X110020959Y-111530577D01*
X109860096Y-111918961D01*
X109982085Y-112141000D01*
X111125000Y-112141000D01*
X111125000Y-109855000D01*
X111379000Y-109855000D01*
X111379000Y-112141000D01*
X112521915Y-112141000D01*
X112643904Y-111918961D01*
X112483041Y-111530577D01*
X112150062Y-111163000D01*
X112178309Y-111163000D01*
X112411698Y-111066327D01*
X112590327Y-110887699D01*
X112687000Y-110654310D01*
X112687000Y-110013750D01*
X112528250Y-109855000D01*
X111379000Y-109855000D01*
X111125000Y-109855000D01*
X109975750Y-109855000D01*
X109817000Y-110013750D01*
X103834000Y-110013750D01*
X103834000Y-109728000D01*
X117408887Y-109728000D01*
X117520260Y-110287909D01*
X117837423Y-110762577D01*
X118189758Y-110998000D01*
X117837423Y-111233423D01*
X117520260Y-111708091D01*
X117408887Y-112268000D01*
X117520260Y-112827909D01*
X117837423Y-113302577D01*
X118189758Y-113538000D01*
X117837423Y-113773423D01*
X117520260Y-114248091D01*
X117408887Y-114808000D01*
X117520260Y-115367909D01*
X117837423Y-115842577D01*
X118189758Y-116078000D01*
X117837423Y-116313423D01*
X117520260Y-116788091D01*
X117408887Y-117348000D01*
X117520260Y-117907909D01*
X117837423Y-118382577D01*
X118312091Y-118699740D01*
X118730667Y-118783000D01*
X119013333Y-118783000D01*
X119431909Y-118699740D01*
X119906577Y-118382577D01*
X120223740Y-117907909D01*
X120335113Y-117348000D01*
X120223740Y-116788091D01*
X119906577Y-116313423D01*
X119554242Y-116078000D01*
X119906577Y-115842577D01*
X120223740Y-115367909D01*
X120335113Y-114808000D01*
X120223740Y-114248091D01*
X119906577Y-113773423D01*
X119554242Y-113538000D01*
X119906577Y-113302577D01*
X120223740Y-112827909D01*
X120335113Y-112268000D01*
X120223740Y-111708091D01*
X119906577Y-111233423D01*
X119554242Y-110998000D01*
X119589982Y-110974119D01*
X163322000Y-110974119D01*
X163322000Y-111529881D01*
X163534680Y-112043337D01*
X163927663Y-112436320D01*
X164441119Y-112649000D01*
X164996881Y-112649000D01*
X165510337Y-112436320D01*
X165903320Y-112043337D01*
X166116000Y-111529881D01*
X166116000Y-110974119D01*
X165903320Y-110460663D01*
X165510337Y-110067680D01*
X164996881Y-109855000D01*
X164441119Y-109855000D01*
X163927663Y-110067680D01*
X163534680Y-110460663D01*
X163322000Y-110974119D01*
X119589982Y-110974119D01*
X119906577Y-110762577D01*
X120223740Y-110287909D01*
X120335113Y-109728000D01*
X120223740Y-109168091D01*
X119906577Y-108693423D01*
X119431909Y-108376260D01*
X119013333Y-108293000D01*
X118730667Y-108293000D01*
X118312091Y-108376260D01*
X117837423Y-108693423D01*
X117520260Y-109168091D01*
X117408887Y-109728000D01*
X103834000Y-109728000D01*
X103834000Y-108801690D01*
X109817000Y-108801690D01*
X109817000Y-109442250D01*
X109975750Y-109601000D01*
X111125000Y-109601000D01*
X111125000Y-108451750D01*
X111379000Y-108451750D01*
X111379000Y-109601000D01*
X112528250Y-109601000D01*
X112687000Y-109442250D01*
X112687000Y-108801690D01*
X112590327Y-108568301D01*
X112411698Y-108389673D01*
X112178309Y-108293000D01*
X111537750Y-108293000D01*
X111379000Y-108451750D01*
X111125000Y-108451750D01*
X110966250Y-108293000D01*
X110325691Y-108293000D01*
X110092302Y-108389673D01*
X109913673Y-108568301D01*
X109817000Y-108801690D01*
X103834000Y-108801690D01*
X103834000Y-107152213D01*
X163918392Y-107152213D01*
X163987857Y-107394397D01*
X164511302Y-107581144D01*
X165066368Y-107553362D01*
X165450143Y-107394397D01*
X165519608Y-107152213D01*
X164719000Y-106351605D01*
X163918392Y-107152213D01*
X103834000Y-107152213D01*
X103834000Y-104356000D01*
X130632560Y-104356000D01*
X130632560Y-105956000D01*
X130681843Y-106203765D01*
X130822191Y-106413809D01*
X131032235Y-106554157D01*
X131280000Y-106603440D01*
X132880000Y-106603440D01*
X133127765Y-106554157D01*
X133337809Y-106413809D01*
X133478157Y-106203765D01*
X133504785Y-106069894D01*
X133585423Y-106190577D01*
X134060091Y-106507740D01*
X134478667Y-106591000D01*
X134761333Y-106591000D01*
X135179909Y-106507740D01*
X135654577Y-106190577D01*
X135890000Y-105838242D01*
X136125423Y-106190577D01*
X136600091Y-106507740D01*
X137018667Y-106591000D01*
X137301333Y-106591000D01*
X137719909Y-106507740D01*
X138194577Y-106190577D01*
X138430000Y-105838242D01*
X138665423Y-106190577D01*
X139140091Y-106507740D01*
X139558667Y-106591000D01*
X139841333Y-106591000D01*
X140259909Y-106507740D01*
X140734577Y-106190577D01*
X140970000Y-105838242D01*
X141205423Y-106190577D01*
X141680091Y-106507740D01*
X142098667Y-106591000D01*
X142381333Y-106591000D01*
X142799909Y-106507740D01*
X143274577Y-106190577D01*
X143510000Y-105838242D01*
X143745423Y-106190577D01*
X144220091Y-106507740D01*
X144638667Y-106591000D01*
X144921333Y-106591000D01*
X145339909Y-106507740D01*
X145814577Y-106190577D01*
X146050000Y-105838242D01*
X146285423Y-106190577D01*
X146760091Y-106507740D01*
X147178667Y-106591000D01*
X147461333Y-106591000D01*
X147879909Y-106507740D01*
X148354577Y-106190577D01*
X148590000Y-105838242D01*
X148825423Y-106190577D01*
X149300091Y-106507740D01*
X149718667Y-106591000D01*
X150001333Y-106591000D01*
X150419909Y-106507740D01*
X150894577Y-106190577D01*
X151130000Y-105838242D01*
X151365423Y-106190577D01*
X151840091Y-106507740D01*
X152258667Y-106591000D01*
X152541333Y-106591000D01*
X152959909Y-106507740D01*
X153434577Y-106190577D01*
X153585769Y-105964302D01*
X163309856Y-105964302D01*
X163337638Y-106519368D01*
X163496603Y-106903143D01*
X163738787Y-106972608D01*
X164539395Y-106172000D01*
X164898605Y-106172000D01*
X165699213Y-106972608D01*
X165941397Y-106903143D01*
X166128144Y-106379698D01*
X166100362Y-105824632D01*
X165941397Y-105440857D01*
X165699213Y-105371392D01*
X164898605Y-106172000D01*
X164539395Y-106172000D01*
X163738787Y-105371392D01*
X163496603Y-105440857D01*
X163309856Y-105964302D01*
X153585769Y-105964302D01*
X153751740Y-105715909D01*
X153855994Y-105191787D01*
X163918392Y-105191787D01*
X164719000Y-105992395D01*
X165519608Y-105191787D01*
X165450143Y-104949603D01*
X164926698Y-104762856D01*
X164371632Y-104790638D01*
X163987857Y-104949603D01*
X163918392Y-105191787D01*
X153855994Y-105191787D01*
X153863113Y-105156000D01*
X153751740Y-104596091D01*
X153434577Y-104121423D01*
X152959909Y-103804260D01*
X152541333Y-103721000D01*
X152258667Y-103721000D01*
X151840091Y-103804260D01*
X151365423Y-104121423D01*
X151130000Y-104473758D01*
X150894577Y-104121423D01*
X150419909Y-103804260D01*
X150001333Y-103721000D01*
X149718667Y-103721000D01*
X149300091Y-103804260D01*
X148825423Y-104121423D01*
X148590000Y-104473758D01*
X148354577Y-104121423D01*
X147879909Y-103804260D01*
X147461333Y-103721000D01*
X147178667Y-103721000D01*
X146760091Y-103804260D01*
X146285423Y-104121423D01*
X146050000Y-104473758D01*
X145814577Y-104121423D01*
X145339909Y-103804260D01*
X144921333Y-103721000D01*
X144638667Y-103721000D01*
X144220091Y-103804260D01*
X143745423Y-104121423D01*
X143510000Y-104473758D01*
X143274577Y-104121423D01*
X142799909Y-103804260D01*
X142381333Y-103721000D01*
X142098667Y-103721000D01*
X141680091Y-103804260D01*
X141205423Y-104121423D01*
X140970000Y-104473758D01*
X140734577Y-104121423D01*
X140259909Y-103804260D01*
X139841333Y-103721000D01*
X139558667Y-103721000D01*
X139140091Y-103804260D01*
X138665423Y-104121423D01*
X138430000Y-104473758D01*
X138194577Y-104121423D01*
X137719909Y-103804260D01*
X137301333Y-103721000D01*
X137018667Y-103721000D01*
X136600091Y-103804260D01*
X136125423Y-104121423D01*
X135890000Y-104473758D01*
X135654577Y-104121423D01*
X135179909Y-103804260D01*
X134761333Y-103721000D01*
X134478667Y-103721000D01*
X134060091Y-103804260D01*
X133585423Y-104121423D01*
X133504785Y-104242106D01*
X133478157Y-104108235D01*
X133337809Y-103898191D01*
X133127765Y-103757843D01*
X132880000Y-103708560D01*
X131280000Y-103708560D01*
X131032235Y-103757843D01*
X130822191Y-103898191D01*
X130681843Y-104108235D01*
X130632560Y-104356000D01*
X103834000Y-104356000D01*
X103834000Y-101653286D01*
X169418000Y-101653286D01*
X169418000Y-102562714D01*
X169766023Y-103402915D01*
X170409085Y-104045977D01*
X171249286Y-104394000D01*
X172158714Y-104394000D01*
X172998915Y-104045977D01*
X173641977Y-103402915D01*
X173990000Y-102562714D01*
X173990000Y-101653286D01*
X173641977Y-100813085D01*
X172998915Y-100170023D01*
X172158714Y-99822000D01*
X171249286Y-99822000D01*
X170409085Y-100170023D01*
X169766023Y-100813085D01*
X169418000Y-101653286D01*
X103834000Y-101653286D01*
X103834000Y-98819695D01*
X130488001Y-98819695D01*
X130488001Y-99430355D01*
X130721691Y-99994532D01*
X131153494Y-100426335D01*
X131717671Y-100660025D01*
X132328331Y-100660025D01*
X132892508Y-100426335D01*
X133293001Y-100025842D01*
X133693494Y-100426335D01*
X134257671Y-100660025D01*
X134868331Y-100660025D01*
X135432508Y-100426335D01*
X135833001Y-100025842D01*
X136233494Y-100426335D01*
X136797671Y-100660025D01*
X137408331Y-100660025D01*
X137972508Y-100426335D01*
X138373001Y-100025842D01*
X138773494Y-100426335D01*
X139337671Y-100660025D01*
X139948331Y-100660025D01*
X140512508Y-100426335D01*
X140913001Y-100025842D01*
X141313494Y-100426335D01*
X141877671Y-100660025D01*
X142488331Y-100660025D01*
X143052508Y-100426335D01*
X143453001Y-100025842D01*
X143853494Y-100426335D01*
X144417671Y-100660025D01*
X145028331Y-100660025D01*
X145592508Y-100426335D01*
X145993001Y-100025842D01*
X146393494Y-100426335D01*
X146957671Y-100660025D01*
X147568331Y-100660025D01*
X148132508Y-100426335D01*
X148533001Y-100025842D01*
X148933494Y-100426335D01*
X149497671Y-100660025D01*
X150108331Y-100660025D01*
X150672508Y-100426335D01*
X151104311Y-99994532D01*
X151338001Y-99430355D01*
X151338001Y-98819695D01*
X151104311Y-98255518D01*
X150672508Y-97823715D01*
X150108331Y-97590025D01*
X149497671Y-97590025D01*
X148933494Y-97823715D01*
X148533001Y-98224208D01*
X148132508Y-97823715D01*
X147568331Y-97590025D01*
X146957671Y-97590025D01*
X146393494Y-97823715D01*
X145993001Y-98224208D01*
X145592508Y-97823715D01*
X145028331Y-97590025D01*
X144417671Y-97590025D01*
X143853494Y-97823715D01*
X143453001Y-98224208D01*
X143052508Y-97823715D01*
X142488331Y-97590025D01*
X141877671Y-97590025D01*
X141313494Y-97823715D01*
X140913001Y-98224208D01*
X140512508Y-97823715D01*
X139948331Y-97590025D01*
X139337671Y-97590025D01*
X138773494Y-97823715D01*
X138373001Y-98224208D01*
X137972508Y-97823715D01*
X137408331Y-97590025D01*
X136797671Y-97590025D01*
X136233494Y-97823715D01*
X135833001Y-98224208D01*
X135432508Y-97823715D01*
X134868331Y-97590025D01*
X134257671Y-97590025D01*
X133693494Y-97823715D01*
X133293001Y-98224208D01*
X132892508Y-97823715D01*
X132328331Y-97590025D01*
X131717671Y-97590025D01*
X131153494Y-97823715D01*
X130721691Y-98255518D01*
X130488001Y-98819695D01*
X103834000Y-98819695D01*
X103834000Y-96206753D01*
X158445200Y-96206753D01*
X158445200Y-96833247D01*
X158684949Y-97412052D01*
X159127948Y-97855051D01*
X159706753Y-98094800D01*
X160333247Y-98094800D01*
X160912052Y-97855051D01*
X161138135Y-97628968D01*
X161630637Y-97628968D01*
X161721923Y-97889580D01*
X162309833Y-98106045D01*
X162935828Y-98081049D01*
X163398077Y-97889580D01*
X163489363Y-97628968D01*
X163373896Y-97513501D01*
X175133000Y-97513501D01*
X175133000Y-98574499D01*
X175539026Y-99554734D01*
X176289266Y-100304974D01*
X177269501Y-100711000D01*
X178330499Y-100711000D01*
X179310734Y-100304974D01*
X180060974Y-99554734D01*
X180467000Y-98574499D01*
X180467000Y-97513501D01*
X180060974Y-96533266D01*
X179310734Y-95783026D01*
X178330499Y-95377000D01*
X177269501Y-95377000D01*
X176289266Y-95783026D01*
X175539026Y-96533266D01*
X175133000Y-97513501D01*
X163373896Y-97513501D01*
X162560000Y-96699605D01*
X161630637Y-97628968D01*
X161138135Y-97628968D01*
X161352317Y-97414786D01*
X161451032Y-97449363D01*
X162380395Y-96520000D01*
X162739605Y-96520000D01*
X163668968Y-97449363D01*
X163929580Y-97358077D01*
X164146045Y-96770167D01*
X164121049Y-96144172D01*
X163929580Y-95681923D01*
X163668968Y-95590637D01*
X162739605Y-96520000D01*
X162380395Y-96520000D01*
X161451032Y-95590637D01*
X161352317Y-95625214D01*
X161138135Y-95411032D01*
X161630637Y-95411032D01*
X162560000Y-96340395D01*
X163489363Y-95411032D01*
X163398077Y-95150420D01*
X162810167Y-94933955D01*
X162184172Y-94958951D01*
X161721923Y-95150420D01*
X161630637Y-95411032D01*
X161138135Y-95411032D01*
X160912052Y-95184949D01*
X160333247Y-94945200D01*
X159706753Y-94945200D01*
X159127948Y-95184949D01*
X158684949Y-95627948D01*
X158445200Y-96206753D01*
X103834000Y-96206753D01*
X103834000Y-94182000D01*
X182170000Y-94182000D01*
X182170001Y-130862000D01*
G04 #@! TD*
M02*
