G04 #@! TF.GenerationSoftware,KiCad,Pcbnew,5.0.2-bee76a0~70~ubuntu18.04.1*
G04 #@! TF.CreationDate,2019-09-20T23:32:28+01:00*
G04 #@! TF.ProjectId,Shock Sensor,53686f63-6b20-4536-956e-736f722e6b69,rev?*
G04 #@! TF.SameCoordinates,Original*
G04 #@! TF.FileFunction,Legend,Top*
G04 #@! TF.FilePolarity,Positive*
%FSLAX46Y46*%
G04 Gerber Fmt 4.6, Leading zero omitted, Abs format (unit mm)*
G04 Created by KiCad (PCBNEW 5.0.2-bee76a0~70~ubuntu18.04.1) date Fri 20 Sep 2019 23:32:28 BST*
%MOMM*%
%LPD*%
G01*
G04 APERTURE LIST*
%ADD10C,0.100000*%
%ADD11C,0.300000*%
%ADD12C,0.150000*%
%ADD13C,0.203200*%
%ADD14C,0.120000*%
%ADD15C,0.127000*%
G04 APERTURE END LIST*
D10*
X110918666Y-120122190D02*
X111013904Y-120122190D01*
X111061523Y-120146000D01*
X111109142Y-120193619D01*
X111132952Y-120288857D01*
X111132952Y-120455523D01*
X111109142Y-120550761D01*
X111061523Y-120598380D01*
X111013904Y-120622190D01*
X110918666Y-120622190D01*
X110871047Y-120598380D01*
X110823428Y-120550761D01*
X110799619Y-120455523D01*
X110799619Y-120288857D01*
X110823428Y-120193619D01*
X110871047Y-120146000D01*
X110918666Y-120122190D01*
X111275809Y-120288857D02*
X111466285Y-120288857D01*
X111347238Y-120622190D02*
X111347238Y-120193619D01*
X111371047Y-120146000D01*
X111418666Y-120122190D01*
X111466285Y-120122190D01*
X111561523Y-120288857D02*
X111752000Y-120288857D01*
X111632952Y-120622190D02*
X111632952Y-120193619D01*
X111656761Y-120146000D01*
X111704380Y-120122190D01*
X111752000Y-120122190D01*
X118598190Y-120122190D02*
X118693428Y-120122190D01*
X118741047Y-120146000D01*
X118788666Y-120193619D01*
X118812476Y-120288857D01*
X118812476Y-120455523D01*
X118788666Y-120550761D01*
X118741047Y-120598380D01*
X118693428Y-120622190D01*
X118598190Y-120622190D01*
X118550571Y-120598380D01*
X118502952Y-120550761D01*
X118479142Y-120455523D01*
X118479142Y-120288857D01*
X118502952Y-120193619D01*
X118550571Y-120146000D01*
X118598190Y-120122190D01*
X119026761Y-120288857D02*
X119026761Y-120622190D01*
X119026761Y-120336476D02*
X119050571Y-120312666D01*
X119098190Y-120288857D01*
X119169619Y-120288857D01*
X119217238Y-120312666D01*
X119241047Y-120360285D01*
X119241047Y-120622190D01*
X113825857Y-122259285D02*
X113825857Y-121509285D01*
X114075857Y-122045000D01*
X114325857Y-121509285D01*
X114325857Y-122259285D01*
X114647285Y-122223571D02*
X114754428Y-122259285D01*
X114933000Y-122259285D01*
X115004428Y-122223571D01*
X115040142Y-122187857D01*
X115075857Y-122116428D01*
X115075857Y-122045000D01*
X115040142Y-121973571D01*
X115004428Y-121937857D01*
X114933000Y-121902142D01*
X114790142Y-121866428D01*
X114718714Y-121830714D01*
X114683000Y-121795000D01*
X114647285Y-121723571D01*
X114647285Y-121652142D01*
X114683000Y-121580714D01*
X114718714Y-121545000D01*
X114790142Y-121509285D01*
X114968714Y-121509285D01*
X115075857Y-121545000D01*
X115647285Y-121866428D02*
X115754428Y-121902142D01*
X115790142Y-121937857D01*
X115825857Y-122009285D01*
X115825857Y-122116428D01*
X115790142Y-122187857D01*
X115754428Y-122223571D01*
X115683000Y-122259285D01*
X115397285Y-122259285D01*
X115397285Y-121509285D01*
X115647285Y-121509285D01*
X115718714Y-121545000D01*
X115754428Y-121580714D01*
X115790142Y-121652142D01*
X115790142Y-121723571D01*
X115754428Y-121795000D01*
X115718714Y-121830714D01*
X115647285Y-121866428D01*
X115397285Y-121866428D01*
X114308000Y-106003285D02*
X113950857Y-106003285D01*
X113950857Y-105253285D01*
X114522285Y-105967571D02*
X114629428Y-106003285D01*
X114808000Y-106003285D01*
X114879428Y-105967571D01*
X114915142Y-105931857D01*
X114950857Y-105860428D01*
X114950857Y-105789000D01*
X114915142Y-105717571D01*
X114879428Y-105681857D01*
X114808000Y-105646142D01*
X114665142Y-105610428D01*
X114593714Y-105574714D01*
X114558000Y-105539000D01*
X114522285Y-105467571D01*
X114522285Y-105396142D01*
X114558000Y-105324714D01*
X114593714Y-105289000D01*
X114665142Y-105253285D01*
X114843714Y-105253285D01*
X114950857Y-105289000D01*
X115522285Y-105610428D02*
X115629428Y-105646142D01*
X115665142Y-105681857D01*
X115700857Y-105753285D01*
X115700857Y-105860428D01*
X115665142Y-105931857D01*
X115629428Y-105967571D01*
X115558000Y-106003285D01*
X115272285Y-106003285D01*
X115272285Y-105253285D01*
X115522285Y-105253285D01*
X115593714Y-105289000D01*
X115629428Y-105324714D01*
X115665142Y-105396142D01*
X115665142Y-105467571D01*
X115629428Y-105539000D01*
X115593714Y-105574714D01*
X115522285Y-105610428D01*
X115272285Y-105610428D01*
X139128571Y-129673000D02*
X139057142Y-129637285D01*
X138950000Y-129637285D01*
X138842857Y-129673000D01*
X138771428Y-129744428D01*
X138735714Y-129815857D01*
X138700000Y-129958714D01*
X138700000Y-130065857D01*
X138735714Y-130208714D01*
X138771428Y-130280142D01*
X138842857Y-130351571D01*
X138950000Y-130387285D01*
X139021428Y-130387285D01*
X139128571Y-130351571D01*
X139164285Y-130315857D01*
X139164285Y-130065857D01*
X139021428Y-130065857D01*
X139485714Y-130387285D02*
X139485714Y-129637285D01*
X139914285Y-130387285D01*
X139914285Y-129637285D01*
X140271428Y-130387285D02*
X140271428Y-129637285D01*
X140450000Y-129637285D01*
X140557142Y-129673000D01*
X140628571Y-129744428D01*
X140664285Y-129815857D01*
X140700000Y-129958714D01*
X140700000Y-130065857D01*
X140664285Y-130208714D01*
X140628571Y-130280142D01*
X140557142Y-130351571D01*
X140450000Y-130387285D01*
X140271428Y-130387285D01*
X136392142Y-130351571D02*
X136499285Y-130387285D01*
X136677857Y-130387285D01*
X136749285Y-130351571D01*
X136785000Y-130315857D01*
X136820714Y-130244428D01*
X136820714Y-130173000D01*
X136785000Y-130101571D01*
X136749285Y-130065857D01*
X136677857Y-130030142D01*
X136535000Y-129994428D01*
X136463571Y-129958714D01*
X136427857Y-129923000D01*
X136392142Y-129851571D01*
X136392142Y-129780142D01*
X136427857Y-129708714D01*
X136463571Y-129673000D01*
X136535000Y-129637285D01*
X136713571Y-129637285D01*
X136820714Y-129673000D01*
X137142142Y-130387285D02*
X137142142Y-129637285D01*
X137892142Y-129673000D02*
X137820714Y-129637285D01*
X137713571Y-129637285D01*
X137606428Y-129673000D01*
X137535000Y-129744428D01*
X137499285Y-129815857D01*
X137463571Y-129958714D01*
X137463571Y-130065857D01*
X137499285Y-130208714D01*
X137535000Y-130280142D01*
X137606428Y-130351571D01*
X137713571Y-130387285D01*
X137785000Y-130387285D01*
X137892142Y-130351571D01*
X137927857Y-130315857D01*
X137927857Y-130065857D01*
X137785000Y-130065857D01*
X134477142Y-129637285D02*
X134120000Y-129637285D01*
X134084285Y-129994428D01*
X134120000Y-129958714D01*
X134191428Y-129923000D01*
X134370000Y-129923000D01*
X134441428Y-129958714D01*
X134477142Y-129994428D01*
X134512857Y-130065857D01*
X134512857Y-130244428D01*
X134477142Y-130315857D01*
X134441428Y-130351571D01*
X134370000Y-130387285D01*
X134191428Y-130387285D01*
X134120000Y-130351571D01*
X134084285Y-130315857D01*
X134727142Y-129637285D02*
X134977142Y-130387285D01*
X135227142Y-129637285D01*
D11*
X105002571Y-96198571D02*
X105288285Y-97198571D01*
X105574000Y-96484285D01*
X105859714Y-97198571D01*
X106145428Y-96198571D01*
X106574000Y-96198571D02*
X106859714Y-97198571D01*
X107145428Y-96484285D01*
X107431142Y-97198571D01*
X107716857Y-96198571D01*
X108145428Y-96198571D02*
X108431142Y-97198571D01*
X108716857Y-96484285D01*
X109002571Y-97198571D01*
X109288285Y-96198571D01*
X109859714Y-97055714D02*
X109931142Y-97127142D01*
X109859714Y-97198571D01*
X109788285Y-97127142D01*
X109859714Y-97055714D01*
X109859714Y-97198571D01*
X111216857Y-97198571D02*
X111216857Y-96412857D01*
X111145428Y-96270000D01*
X111002571Y-96198571D01*
X110716857Y-96198571D01*
X110574000Y-96270000D01*
X111216857Y-97127142D02*
X111074000Y-97198571D01*
X110716857Y-97198571D01*
X110574000Y-97127142D01*
X110502571Y-96984285D01*
X110502571Y-96841428D01*
X110574000Y-96698571D01*
X110716857Y-96627142D01*
X111074000Y-96627142D01*
X111216857Y-96555714D01*
X111859714Y-97127142D02*
X112002571Y-97198571D01*
X112288285Y-97198571D01*
X112431142Y-97127142D01*
X112502571Y-96984285D01*
X112502571Y-96912857D01*
X112431142Y-96770000D01*
X112288285Y-96698571D01*
X112074000Y-96698571D01*
X111931142Y-96627142D01*
X111859714Y-96484285D01*
X111859714Y-96412857D01*
X111931142Y-96270000D01*
X112074000Y-96198571D01*
X112288285Y-96198571D01*
X112431142Y-96270000D01*
X112931142Y-96198571D02*
X113502571Y-96198571D01*
X113145428Y-95698571D02*
X113145428Y-96984285D01*
X113216857Y-97127142D01*
X113359714Y-97198571D01*
X113502571Y-97198571D01*
X114002571Y-97198571D02*
X114002571Y-96198571D01*
X114002571Y-96484285D02*
X114074000Y-96341428D01*
X114145428Y-96270000D01*
X114288285Y-96198571D01*
X114431142Y-96198571D01*
X115145428Y-97198571D02*
X115002571Y-97127142D01*
X114931142Y-97055714D01*
X114859714Y-96912857D01*
X114859714Y-96484285D01*
X114931142Y-96341428D01*
X115002571Y-96270000D01*
X115145428Y-96198571D01*
X115359714Y-96198571D01*
X115502571Y-96270000D01*
X115574000Y-96341428D01*
X115645428Y-96484285D01*
X115645428Y-96912857D01*
X115574000Y-97055714D01*
X115502571Y-97127142D01*
X115359714Y-97198571D01*
X115145428Y-97198571D01*
X116288285Y-97198571D02*
X116288285Y-96198571D01*
X116288285Y-96341428D02*
X116359714Y-96270000D01*
X116502571Y-96198571D01*
X116716857Y-96198571D01*
X116859714Y-96270000D01*
X116931142Y-96412857D01*
X116931142Y-97198571D01*
X116931142Y-96412857D02*
X117002571Y-96270000D01*
X117145428Y-96198571D01*
X117359714Y-96198571D01*
X117502571Y-96270000D01*
X117574000Y-96412857D01*
X117574000Y-97198571D01*
X118859714Y-97127142D02*
X118716857Y-97198571D01*
X118431142Y-97198571D01*
X118288285Y-97127142D01*
X118216857Y-96984285D01*
X118216857Y-96412857D01*
X118288285Y-96270000D01*
X118431142Y-96198571D01*
X118716857Y-96198571D01*
X118859714Y-96270000D01*
X118931142Y-96412857D01*
X118931142Y-96555714D01*
X118216857Y-96698571D01*
X120216857Y-97127142D02*
X120074000Y-97198571D01*
X119788285Y-97198571D01*
X119645428Y-97127142D01*
X119574000Y-97055714D01*
X119502571Y-96912857D01*
X119502571Y-96484285D01*
X119574000Y-96341428D01*
X119645428Y-96270000D01*
X119788285Y-96198571D01*
X120074000Y-96198571D01*
X120216857Y-96270000D01*
X120859714Y-97198571D02*
X120859714Y-95698571D01*
X121502571Y-97198571D02*
X121502571Y-96412857D01*
X121431142Y-96270000D01*
X121288285Y-96198571D01*
X121074000Y-96198571D01*
X120931142Y-96270000D01*
X120859714Y-96341428D01*
X122216857Y-97055714D02*
X122288285Y-97127142D01*
X122216857Y-97198571D01*
X122145428Y-97127142D01*
X122216857Y-97055714D01*
X122216857Y-97198571D01*
X122931142Y-97198571D02*
X122931142Y-96198571D01*
X122931142Y-95698571D02*
X122859714Y-95770000D01*
X122931142Y-95841428D01*
X123002571Y-95770000D01*
X122931142Y-95698571D01*
X122931142Y-95841428D01*
X123645428Y-96198571D02*
X123645428Y-97198571D01*
X123645428Y-96341428D02*
X123716857Y-96270000D01*
X123859714Y-96198571D01*
X124074000Y-96198571D01*
X124216857Y-96270000D01*
X124288285Y-96412857D01*
X124288285Y-97198571D01*
X124788285Y-96198571D02*
X125359714Y-96198571D01*
X125002571Y-97198571D02*
X125002571Y-95912857D01*
X125074000Y-95770000D01*
X125216857Y-95698571D01*
X125359714Y-95698571D01*
X126074000Y-97198571D02*
X125931142Y-97127142D01*
X125859714Y-97055714D01*
X125788285Y-96912857D01*
X125788285Y-96484285D01*
X125859714Y-96341428D01*
X125931142Y-96270000D01*
X126074000Y-96198571D01*
X126288285Y-96198571D01*
X126431142Y-96270000D01*
X126502571Y-96341428D01*
X126574000Y-96484285D01*
X126574000Y-96912857D01*
X126502571Y-97055714D01*
X126431142Y-97127142D01*
X126288285Y-97198571D01*
X126074000Y-97198571D01*
D10*
X107391142Y-99456285D02*
X107391142Y-100063428D01*
X107426857Y-100134857D01*
X107462571Y-100170571D01*
X107534000Y-100206285D01*
X107676857Y-100206285D01*
X107748285Y-100170571D01*
X107784000Y-100134857D01*
X107819714Y-100063428D01*
X107819714Y-99456285D01*
X108176857Y-100206285D02*
X108176857Y-99456285D01*
X108605428Y-100206285D02*
X108284000Y-99777714D01*
X108605428Y-99456285D02*
X108176857Y-99884857D01*
X109926857Y-100206285D02*
X109676857Y-99849142D01*
X109498285Y-100206285D02*
X109498285Y-99456285D01*
X109784000Y-99456285D01*
X109855428Y-99492000D01*
X109891142Y-99527714D01*
X109926857Y-99599142D01*
X109926857Y-99706285D01*
X109891142Y-99777714D01*
X109855428Y-99813428D01*
X109784000Y-99849142D01*
X109498285Y-99849142D01*
X110212571Y-99527714D02*
X110248285Y-99492000D01*
X110319714Y-99456285D01*
X110498285Y-99456285D01*
X110569714Y-99492000D01*
X110605428Y-99527714D01*
X110641142Y-99599142D01*
X110641142Y-99670571D01*
X110605428Y-99777714D01*
X110176857Y-100206285D01*
X110641142Y-100206285D01*
X111784000Y-99813428D02*
X111891142Y-99849142D01*
X111926857Y-99884857D01*
X111962571Y-99956285D01*
X111962571Y-100063428D01*
X111926857Y-100134857D01*
X111891142Y-100170571D01*
X111819714Y-100206285D01*
X111534000Y-100206285D01*
X111534000Y-99456285D01*
X111784000Y-99456285D01*
X111855428Y-99492000D01*
X111891142Y-99527714D01*
X111926857Y-99599142D01*
X111926857Y-99670571D01*
X111891142Y-99742000D01*
X111855428Y-99777714D01*
X111784000Y-99813428D01*
X111534000Y-99813428D01*
X112605428Y-99706285D02*
X112605428Y-100206285D01*
X112284000Y-99706285D02*
X112284000Y-100099142D01*
X112319714Y-100170571D01*
X112391142Y-100206285D01*
X112498285Y-100206285D01*
X112569714Y-100170571D01*
X112605428Y-100134857D01*
X112962571Y-100206285D02*
X112962571Y-99706285D01*
X112962571Y-99456285D02*
X112926857Y-99492000D01*
X112962571Y-99527714D01*
X112998285Y-99492000D01*
X112962571Y-99456285D01*
X112962571Y-99527714D01*
X113426857Y-100206285D02*
X113355428Y-100170571D01*
X113319714Y-100099142D01*
X113319714Y-99456285D01*
X114034000Y-100206285D02*
X114034000Y-99456285D01*
X114034000Y-100170571D02*
X113962571Y-100206285D01*
X113819714Y-100206285D01*
X113748285Y-100170571D01*
X113712571Y-100134857D01*
X113676857Y-100063428D01*
X113676857Y-99849142D01*
X113712571Y-99777714D01*
X113748285Y-99742000D01*
X113819714Y-99706285D01*
X113962571Y-99706285D01*
X114034000Y-99742000D01*
X114676857Y-100170571D02*
X114605428Y-100206285D01*
X114462571Y-100206285D01*
X114391142Y-100170571D01*
X114355428Y-100099142D01*
X114355428Y-99813428D01*
X114391142Y-99742000D01*
X114462571Y-99706285D01*
X114605428Y-99706285D01*
X114676857Y-99742000D01*
X114712571Y-99813428D01*
X114712571Y-99884857D01*
X114355428Y-99956285D01*
X115034000Y-100206285D02*
X115034000Y-99706285D01*
X115034000Y-99849142D02*
X115069714Y-99777714D01*
X115105428Y-99742000D01*
X115176857Y-99706285D01*
X115248285Y-99706285D01*
X115462571Y-100170571D02*
X115534000Y-100206285D01*
X115676857Y-100206285D01*
X115748285Y-100170571D01*
X115784000Y-100099142D01*
X115784000Y-100063428D01*
X115748285Y-99992000D01*
X115676857Y-99956285D01*
X115569714Y-99956285D01*
X115498285Y-99920571D01*
X115462571Y-99849142D01*
X115462571Y-99813428D01*
X115498285Y-99742000D01*
X115569714Y-99706285D01*
X115676857Y-99706285D01*
X115748285Y-99742000D01*
X116641142Y-99527714D02*
X116676857Y-99492000D01*
X116748285Y-99456285D01*
X116926857Y-99456285D01*
X116998285Y-99492000D01*
X117034000Y-99527714D01*
X117069714Y-99599142D01*
X117069714Y-99670571D01*
X117034000Y-99777714D01*
X116605428Y-100206285D01*
X117069714Y-100206285D01*
X117534000Y-99456285D02*
X117605428Y-99456285D01*
X117676857Y-99492000D01*
X117712571Y-99527714D01*
X117748285Y-99599142D01*
X117784000Y-99742000D01*
X117784000Y-99920571D01*
X117748285Y-100063428D01*
X117712571Y-100134857D01*
X117676857Y-100170571D01*
X117605428Y-100206285D01*
X117534000Y-100206285D01*
X117462571Y-100170571D01*
X117426857Y-100134857D01*
X117391142Y-100063428D01*
X117355428Y-99920571D01*
X117355428Y-99742000D01*
X117391142Y-99599142D01*
X117426857Y-99527714D01*
X117462571Y-99492000D01*
X117534000Y-99456285D01*
X118498285Y-100206285D02*
X118069714Y-100206285D01*
X118284000Y-100206285D02*
X118284000Y-99456285D01*
X118212571Y-99563428D01*
X118141142Y-99634857D01*
X118069714Y-99670571D01*
X118855428Y-100206285D02*
X118998285Y-100206285D01*
X119069714Y-100170571D01*
X119105428Y-100134857D01*
X119176857Y-100027714D01*
X119212571Y-99884857D01*
X119212571Y-99599142D01*
X119176857Y-99527714D01*
X119141142Y-99492000D01*
X119069714Y-99456285D01*
X118926857Y-99456285D01*
X118855428Y-99492000D01*
X118819714Y-99527714D01*
X118784000Y-99599142D01*
X118784000Y-99777714D01*
X118819714Y-99849142D01*
X118855428Y-99884857D01*
X118926857Y-99920571D01*
X119069714Y-99920571D01*
X119141142Y-99884857D01*
X119176857Y-99849142D01*
X119212571Y-99777714D01*
X105212571Y-101431285D02*
X105212571Y-100681285D01*
X105391142Y-100681285D01*
X105498285Y-100717000D01*
X105569714Y-100788428D01*
X105605428Y-100859857D01*
X105641142Y-101002714D01*
X105641142Y-101109857D01*
X105605428Y-101252714D01*
X105569714Y-101324142D01*
X105498285Y-101395571D01*
X105391142Y-101431285D01*
X105212571Y-101431285D01*
X105962571Y-101431285D02*
X105962571Y-100931285D01*
X105962571Y-101074142D02*
X105998285Y-101002714D01*
X106034000Y-100967000D01*
X106105428Y-100931285D01*
X106176857Y-100931285D01*
X106426857Y-101431285D02*
X106426857Y-100931285D01*
X106426857Y-100681285D02*
X106391142Y-100717000D01*
X106426857Y-100752714D01*
X106462571Y-100717000D01*
X106426857Y-100681285D01*
X106426857Y-100752714D01*
X106712571Y-100931285D02*
X106891142Y-101431285D01*
X107069714Y-100931285D01*
X107355428Y-101431285D02*
X107355428Y-100931285D01*
X107355428Y-100681285D02*
X107319714Y-100717000D01*
X107355428Y-100752714D01*
X107391142Y-100717000D01*
X107355428Y-100681285D01*
X107355428Y-100752714D01*
X107712571Y-100931285D02*
X107712571Y-101431285D01*
X107712571Y-101002714D02*
X107748285Y-100967000D01*
X107819714Y-100931285D01*
X107926857Y-100931285D01*
X107998285Y-100967000D01*
X108034000Y-101038428D01*
X108034000Y-101431285D01*
X108712571Y-100931285D02*
X108712571Y-101538428D01*
X108676857Y-101609857D01*
X108641142Y-101645571D01*
X108569714Y-101681285D01*
X108462571Y-101681285D01*
X108391142Y-101645571D01*
X108712571Y-101395571D02*
X108641142Y-101431285D01*
X108498285Y-101431285D01*
X108426857Y-101395571D01*
X108391142Y-101359857D01*
X108355428Y-101288428D01*
X108355428Y-101074142D01*
X108391142Y-101002714D01*
X108426857Y-100967000D01*
X108498285Y-100931285D01*
X108641142Y-100931285D01*
X108712571Y-100967000D01*
X110069714Y-101359857D02*
X110034000Y-101395571D01*
X109926857Y-101431285D01*
X109855428Y-101431285D01*
X109748285Y-101395571D01*
X109676857Y-101324142D01*
X109641142Y-101252714D01*
X109605428Y-101109857D01*
X109605428Y-101002714D01*
X109641142Y-100859857D01*
X109676857Y-100788428D01*
X109748285Y-100717000D01*
X109855428Y-100681285D01*
X109926857Y-100681285D01*
X110034000Y-100717000D01*
X110069714Y-100752714D01*
X110498285Y-101431285D02*
X110426857Y-101395571D01*
X110391142Y-101359857D01*
X110355428Y-101288428D01*
X110355428Y-101074142D01*
X110391142Y-101002714D01*
X110426857Y-100967000D01*
X110498285Y-100931285D01*
X110605428Y-100931285D01*
X110676857Y-100967000D01*
X110712571Y-101002714D01*
X110748285Y-101074142D01*
X110748285Y-101288428D01*
X110712571Y-101359857D01*
X110676857Y-101395571D01*
X110605428Y-101431285D01*
X110498285Y-101431285D01*
X111391142Y-100931285D02*
X111391142Y-101431285D01*
X111069714Y-100931285D02*
X111069714Y-101324142D01*
X111105428Y-101395571D01*
X111176857Y-101431285D01*
X111284000Y-101431285D01*
X111355428Y-101395571D01*
X111391142Y-101359857D01*
X111748285Y-101431285D02*
X111748285Y-100931285D01*
X111748285Y-101074142D02*
X111784000Y-101002714D01*
X111819714Y-100967000D01*
X111891142Y-100931285D01*
X111962571Y-100931285D01*
X112176857Y-101395571D02*
X112248285Y-101431285D01*
X112391142Y-101431285D01*
X112462571Y-101395571D01*
X112498285Y-101324142D01*
X112498285Y-101288428D01*
X112462571Y-101217000D01*
X112391142Y-101181285D01*
X112284000Y-101181285D01*
X112212571Y-101145571D01*
X112176857Y-101074142D01*
X112176857Y-101038428D01*
X112212571Y-100967000D01*
X112284000Y-100931285D01*
X112391142Y-100931285D01*
X112462571Y-100967000D01*
X113105428Y-101395571D02*
X113034000Y-101431285D01*
X112891142Y-101431285D01*
X112819714Y-101395571D01*
X112784000Y-101324142D01*
X112784000Y-101038428D01*
X112819714Y-100967000D01*
X112891142Y-100931285D01*
X113034000Y-100931285D01*
X113105428Y-100967000D01*
X113141142Y-101038428D01*
X113141142Y-101109857D01*
X112784000Y-101181285D01*
X113998285Y-101395571D02*
X114105428Y-101431285D01*
X114284000Y-101431285D01*
X114355428Y-101395571D01*
X114391142Y-101359857D01*
X114426857Y-101288428D01*
X114426857Y-101217000D01*
X114391142Y-101145571D01*
X114355428Y-101109857D01*
X114284000Y-101074142D01*
X114141142Y-101038428D01*
X114069714Y-101002714D01*
X114034000Y-100967000D01*
X113998285Y-100895571D01*
X113998285Y-100824142D01*
X114034000Y-100752714D01*
X114069714Y-100717000D01*
X114141142Y-100681285D01*
X114319714Y-100681285D01*
X114426857Y-100717000D01*
X114748285Y-101431285D02*
X114748285Y-100681285D01*
X115069714Y-101431285D02*
X115069714Y-101038428D01*
X115034000Y-100967000D01*
X114962571Y-100931285D01*
X114855428Y-100931285D01*
X114784000Y-100967000D01*
X114748285Y-101002714D01*
X115534000Y-101431285D02*
X115462571Y-101395571D01*
X115426857Y-101359857D01*
X115391142Y-101288428D01*
X115391142Y-101074142D01*
X115426857Y-101002714D01*
X115462571Y-100967000D01*
X115534000Y-100931285D01*
X115641142Y-100931285D01*
X115712571Y-100967000D01*
X115748285Y-101002714D01*
X115784000Y-101074142D01*
X115784000Y-101288428D01*
X115748285Y-101359857D01*
X115712571Y-101395571D01*
X115641142Y-101431285D01*
X115534000Y-101431285D01*
X116426857Y-101395571D02*
X116355428Y-101431285D01*
X116212571Y-101431285D01*
X116141142Y-101395571D01*
X116105428Y-101359857D01*
X116069714Y-101288428D01*
X116069714Y-101074142D01*
X116105428Y-101002714D01*
X116141142Y-100967000D01*
X116212571Y-100931285D01*
X116355428Y-100931285D01*
X116426857Y-100967000D01*
X116748285Y-101431285D02*
X116748285Y-100681285D01*
X116819714Y-101145571D02*
X117034000Y-101431285D01*
X117034000Y-100931285D02*
X116748285Y-101217000D01*
X117891142Y-101395571D02*
X117998285Y-101431285D01*
X118176857Y-101431285D01*
X118248285Y-101395571D01*
X118284000Y-101359857D01*
X118319714Y-101288428D01*
X118319714Y-101217000D01*
X118284000Y-101145571D01*
X118248285Y-101109857D01*
X118176857Y-101074142D01*
X118034000Y-101038428D01*
X117962571Y-101002714D01*
X117926857Y-100967000D01*
X117891142Y-100895571D01*
X117891142Y-100824142D01*
X117926857Y-100752714D01*
X117962571Y-100717000D01*
X118034000Y-100681285D01*
X118212571Y-100681285D01*
X118319714Y-100717000D01*
X118926857Y-101395571D02*
X118855428Y-101431285D01*
X118712571Y-101431285D01*
X118641142Y-101395571D01*
X118605428Y-101324142D01*
X118605428Y-101038428D01*
X118641142Y-100967000D01*
X118712571Y-100931285D01*
X118855428Y-100931285D01*
X118926857Y-100967000D01*
X118962571Y-101038428D01*
X118962571Y-101109857D01*
X118605428Y-101181285D01*
X119284000Y-100931285D02*
X119284000Y-101431285D01*
X119284000Y-101002714D02*
X119319714Y-100967000D01*
X119391142Y-100931285D01*
X119498285Y-100931285D01*
X119569714Y-100967000D01*
X119605428Y-101038428D01*
X119605428Y-101431285D01*
X119926857Y-101395571D02*
X119998285Y-101431285D01*
X120141142Y-101431285D01*
X120212571Y-101395571D01*
X120248285Y-101324142D01*
X120248285Y-101288428D01*
X120212571Y-101217000D01*
X120141142Y-101181285D01*
X120034000Y-101181285D01*
X119962571Y-101145571D01*
X119926857Y-101074142D01*
X119926857Y-101038428D01*
X119962571Y-100967000D01*
X120034000Y-100931285D01*
X120141142Y-100931285D01*
X120212571Y-100967000D01*
X120676857Y-101431285D02*
X120605428Y-101395571D01*
X120569714Y-101359857D01*
X120534000Y-101288428D01*
X120534000Y-101074142D01*
X120569714Y-101002714D01*
X120605428Y-100967000D01*
X120676857Y-100931285D01*
X120784000Y-100931285D01*
X120855428Y-100967000D01*
X120891142Y-101002714D01*
X120926857Y-101074142D01*
X120926857Y-101288428D01*
X120891142Y-101359857D01*
X120855428Y-101395571D01*
X120784000Y-101431285D01*
X120676857Y-101431285D01*
X121248285Y-101431285D02*
X121248285Y-100931285D01*
X121248285Y-101074142D02*
X121284000Y-101002714D01*
X121319714Y-100967000D01*
X121391142Y-100931285D01*
X121462571Y-100931285D01*
X105016142Y-102942000D02*
X104980428Y-102906285D01*
X104909000Y-102799142D01*
X104873285Y-102727714D01*
X104837571Y-102620571D01*
X104801857Y-102442000D01*
X104801857Y-102299142D01*
X104837571Y-102120571D01*
X104873285Y-102013428D01*
X104909000Y-101942000D01*
X104980428Y-101834857D01*
X105016142Y-101799142D01*
X105623285Y-102620571D02*
X105551857Y-102656285D01*
X105409000Y-102656285D01*
X105337571Y-102620571D01*
X105301857Y-102584857D01*
X105266142Y-102513428D01*
X105266142Y-102299142D01*
X105301857Y-102227714D01*
X105337571Y-102192000D01*
X105409000Y-102156285D01*
X105551857Y-102156285D01*
X105623285Y-102192000D01*
X105873285Y-102942000D02*
X105909000Y-102906285D01*
X105980428Y-102799142D01*
X106016142Y-102727714D01*
X106051857Y-102620571D01*
X106087571Y-102442000D01*
X106087571Y-102299142D01*
X106051857Y-102120571D01*
X106016142Y-102013428D01*
X105980428Y-101942000D01*
X105909000Y-101834857D01*
X105873285Y-101799142D01*
X107337571Y-102656285D02*
X107337571Y-101906285D01*
X107337571Y-102620571D02*
X107266142Y-102656285D01*
X107123285Y-102656285D01*
X107051857Y-102620571D01*
X107016142Y-102584857D01*
X106980428Y-102513428D01*
X106980428Y-102299142D01*
X107016142Y-102227714D01*
X107051857Y-102192000D01*
X107123285Y-102156285D01*
X107266142Y-102156285D01*
X107337571Y-102192000D01*
X108016142Y-102656285D02*
X108016142Y-102263428D01*
X107980428Y-102192000D01*
X107909000Y-102156285D01*
X107766142Y-102156285D01*
X107694714Y-102192000D01*
X108016142Y-102620571D02*
X107944714Y-102656285D01*
X107766142Y-102656285D01*
X107694714Y-102620571D01*
X107659000Y-102549142D01*
X107659000Y-102477714D01*
X107694714Y-102406285D01*
X107766142Y-102370571D01*
X107944714Y-102370571D01*
X108016142Y-102334857D01*
X108373285Y-102656285D02*
X108373285Y-102156285D01*
X108373285Y-102299142D02*
X108409000Y-102227714D01*
X108444714Y-102192000D01*
X108516142Y-102156285D01*
X108587571Y-102156285D01*
X108837571Y-102656285D02*
X108837571Y-102156285D01*
X108837571Y-102299142D02*
X108873285Y-102227714D01*
X108909000Y-102192000D01*
X108980428Y-102156285D01*
X109051857Y-102156285D01*
X109587571Y-102620571D02*
X109516142Y-102656285D01*
X109373285Y-102656285D01*
X109301857Y-102620571D01*
X109266142Y-102549142D01*
X109266142Y-102263428D01*
X109301857Y-102192000D01*
X109373285Y-102156285D01*
X109516142Y-102156285D01*
X109587571Y-102192000D01*
X109623285Y-102263428D01*
X109623285Y-102334857D01*
X109266142Y-102406285D01*
X109944714Y-102156285D02*
X109944714Y-102656285D01*
X109944714Y-102227714D02*
X109980428Y-102192000D01*
X110051857Y-102156285D01*
X110159000Y-102156285D01*
X110230428Y-102192000D01*
X110266142Y-102263428D01*
X110266142Y-102656285D01*
X110623285Y-102584857D02*
X110659000Y-102620571D01*
X110623285Y-102656285D01*
X110587571Y-102620571D01*
X110623285Y-102584857D01*
X110623285Y-102656285D01*
X110980428Y-102156285D02*
X110980428Y-102906285D01*
X110980428Y-102192000D02*
X111051857Y-102156285D01*
X111194714Y-102156285D01*
X111266142Y-102192000D01*
X111301857Y-102227714D01*
X111337571Y-102299142D01*
X111337571Y-102513428D01*
X111301857Y-102584857D01*
X111266142Y-102620571D01*
X111194714Y-102656285D01*
X111051857Y-102656285D01*
X110980428Y-102620571D01*
X111766142Y-102656285D02*
X111694714Y-102620571D01*
X111659000Y-102584857D01*
X111623285Y-102513428D01*
X111623285Y-102299142D01*
X111659000Y-102227714D01*
X111694714Y-102192000D01*
X111766142Y-102156285D01*
X111873285Y-102156285D01*
X111944714Y-102192000D01*
X111980428Y-102227714D01*
X112016142Y-102299142D01*
X112016142Y-102513428D01*
X111980428Y-102584857D01*
X111944714Y-102620571D01*
X111873285Y-102656285D01*
X111766142Y-102656285D01*
X112659000Y-102156285D02*
X112659000Y-102656285D01*
X112337571Y-102156285D02*
X112337571Y-102549142D01*
X112373285Y-102620571D01*
X112444714Y-102656285D01*
X112551857Y-102656285D01*
X112623285Y-102620571D01*
X112659000Y-102584857D01*
X113123285Y-102656285D02*
X113051857Y-102620571D01*
X113016142Y-102549142D01*
X113016142Y-101906285D01*
X113373285Y-102620571D02*
X113444714Y-102656285D01*
X113587571Y-102656285D01*
X113659000Y-102620571D01*
X113694714Y-102549142D01*
X113694714Y-102513428D01*
X113659000Y-102442000D01*
X113587571Y-102406285D01*
X113480428Y-102406285D01*
X113409000Y-102370571D01*
X113373285Y-102299142D01*
X113373285Y-102263428D01*
X113409000Y-102192000D01*
X113480428Y-102156285D01*
X113587571Y-102156285D01*
X113659000Y-102192000D01*
X114123285Y-102656285D02*
X114051857Y-102620571D01*
X114016142Y-102584857D01*
X113980428Y-102513428D01*
X113980428Y-102299142D01*
X114016142Y-102227714D01*
X114051857Y-102192000D01*
X114123285Y-102156285D01*
X114230428Y-102156285D01*
X114301857Y-102192000D01*
X114337571Y-102227714D01*
X114373285Y-102299142D01*
X114373285Y-102513428D01*
X114337571Y-102584857D01*
X114301857Y-102620571D01*
X114230428Y-102656285D01*
X114123285Y-102656285D01*
X114694714Y-102156285D02*
X114694714Y-102656285D01*
X114694714Y-102227714D02*
X114730428Y-102192000D01*
X114801857Y-102156285D01*
X114909000Y-102156285D01*
X114980428Y-102192000D01*
X115016142Y-102263428D01*
X115016142Y-102656285D01*
X115837571Y-102299142D02*
X115801857Y-102263428D01*
X115730428Y-102227714D01*
X115659000Y-102227714D01*
X115587571Y-102263428D01*
X115551857Y-102299142D01*
X115516142Y-102370571D01*
X115516142Y-102442000D01*
X115551857Y-102513428D01*
X115587571Y-102549142D01*
X115659000Y-102584857D01*
X115730428Y-102584857D01*
X115801857Y-102549142D01*
X115837571Y-102513428D01*
X115837571Y-102227714D02*
X115837571Y-102513428D01*
X115873285Y-102549142D01*
X115909000Y-102549142D01*
X115980428Y-102513428D01*
X116016142Y-102442000D01*
X116016142Y-102263428D01*
X115944714Y-102156285D01*
X115837571Y-102084857D01*
X115694714Y-102049142D01*
X115551857Y-102084857D01*
X115444714Y-102156285D01*
X115373285Y-102263428D01*
X115337571Y-102406285D01*
X115373285Y-102549142D01*
X115444714Y-102656285D01*
X115551857Y-102727714D01*
X115694714Y-102763428D01*
X115837571Y-102727714D01*
X115944714Y-102656285D01*
X116659000Y-102156285D02*
X116659000Y-102763428D01*
X116623285Y-102834857D01*
X116587571Y-102870571D01*
X116516142Y-102906285D01*
X116409000Y-102906285D01*
X116337571Y-102870571D01*
X116659000Y-102620571D02*
X116587571Y-102656285D01*
X116444714Y-102656285D01*
X116373285Y-102620571D01*
X116337571Y-102584857D01*
X116301857Y-102513428D01*
X116301857Y-102299142D01*
X116337571Y-102227714D01*
X116373285Y-102192000D01*
X116444714Y-102156285D01*
X116587571Y-102156285D01*
X116659000Y-102192000D01*
X117016142Y-102656285D02*
X117016142Y-102156285D01*
X117016142Y-102227714D02*
X117051857Y-102192000D01*
X117123285Y-102156285D01*
X117230428Y-102156285D01*
X117301857Y-102192000D01*
X117337571Y-102263428D01*
X117337571Y-102656285D01*
X117337571Y-102263428D02*
X117373285Y-102192000D01*
X117444714Y-102156285D01*
X117551857Y-102156285D01*
X117623285Y-102192000D01*
X117659000Y-102263428D01*
X117659000Y-102656285D01*
X118337571Y-102656285D02*
X118337571Y-102263428D01*
X118301857Y-102192000D01*
X118230428Y-102156285D01*
X118087571Y-102156285D01*
X118016142Y-102192000D01*
X118337571Y-102620571D02*
X118266142Y-102656285D01*
X118087571Y-102656285D01*
X118016142Y-102620571D01*
X117980428Y-102549142D01*
X117980428Y-102477714D01*
X118016142Y-102406285D01*
X118087571Y-102370571D01*
X118266142Y-102370571D01*
X118337571Y-102334857D01*
X118694714Y-102656285D02*
X118694714Y-102156285D01*
X118694714Y-101906285D02*
X118659000Y-101942000D01*
X118694714Y-101977714D01*
X118730428Y-101942000D01*
X118694714Y-101906285D01*
X118694714Y-101977714D01*
X119159000Y-102656285D02*
X119087571Y-102620571D01*
X119051857Y-102549142D01*
X119051857Y-101906285D01*
X119444714Y-102584857D02*
X119480428Y-102620571D01*
X119444714Y-102656285D01*
X119409000Y-102620571D01*
X119444714Y-102584857D01*
X119444714Y-102656285D01*
X120123285Y-102620571D02*
X120051857Y-102656285D01*
X119909000Y-102656285D01*
X119837571Y-102620571D01*
X119801857Y-102584857D01*
X119766142Y-102513428D01*
X119766142Y-102299142D01*
X119801857Y-102227714D01*
X119837571Y-102192000D01*
X119909000Y-102156285D01*
X120051857Y-102156285D01*
X120123285Y-102192000D01*
X120551857Y-102656285D02*
X120480428Y-102620571D01*
X120444714Y-102584857D01*
X120409000Y-102513428D01*
X120409000Y-102299142D01*
X120444714Y-102227714D01*
X120480428Y-102192000D01*
X120551857Y-102156285D01*
X120659000Y-102156285D01*
X120730428Y-102192000D01*
X120766142Y-102227714D01*
X120801857Y-102299142D01*
X120801857Y-102513428D01*
X120766142Y-102584857D01*
X120730428Y-102620571D01*
X120659000Y-102656285D01*
X120551857Y-102656285D01*
X121123285Y-102656285D02*
X121123285Y-102156285D01*
X121123285Y-102227714D02*
X121159000Y-102192000D01*
X121230428Y-102156285D01*
X121337571Y-102156285D01*
X121409000Y-102192000D01*
X121444714Y-102263428D01*
X121444714Y-102656285D01*
X121444714Y-102263428D02*
X121480428Y-102192000D01*
X121551857Y-102156285D01*
X121659000Y-102156285D01*
X121730428Y-102192000D01*
X121766142Y-102263428D01*
X121766142Y-102656285D01*
D12*
G04 #@! TO.C,U1*
X122613001Y-123885025D02*
X155693001Y-123885025D01*
X157693001Y-121885025D02*
X157693001Y-99225025D01*
X155693001Y-97225025D02*
X129613001Y-97225025D01*
X122613001Y-99375025D02*
X122613001Y-107235025D01*
X122613001Y-107235025D02*
X123613001Y-107235025D01*
X123613001Y-107235025D02*
X123613001Y-115455025D01*
X123613001Y-115455025D02*
X122613001Y-115455025D01*
X122613001Y-115455025D02*
X122613001Y-123885024D01*
X157693001Y-99225025D02*
G75*
G03X155693001Y-97225025I-2000000J0D01*
G01*
X155693001Y-123885025D02*
G75*
G03X157693001Y-121885025I0J2000000D01*
G01*
X122613001Y-99375025D02*
X128613001Y-99375025D01*
X128613001Y-99375025D02*
G75*
G03X129613001Y-98375025I0J1000000D01*
G01*
X129613001Y-98385025D02*
X129613001Y-97225025D01*
X129613001Y-97225025D02*
X129613001Y-97225025D01*
D13*
G04 #@! TO.C,J1*
X135890000Y-128143000D02*
X135255000Y-128778000D01*
X135255000Y-128778000D02*
X133985000Y-128778000D01*
X133985000Y-128778000D02*
X133350000Y-128143000D01*
X133350000Y-126873000D02*
X133985000Y-126238000D01*
X133985000Y-126238000D02*
X135255000Y-126238000D01*
X135255000Y-126238000D02*
X135890000Y-126873000D01*
X140335000Y-128778000D02*
X139065000Y-128778000D01*
X139065000Y-128778000D02*
X138430000Y-128143000D01*
X138430000Y-126873000D02*
X139065000Y-126238000D01*
X138430000Y-128143000D02*
X137795000Y-128778000D01*
X137795000Y-128778000D02*
X136525000Y-128778000D01*
X136525000Y-128778000D02*
X135890000Y-128143000D01*
X135890000Y-126873000D02*
X136525000Y-126238000D01*
X136525000Y-126238000D02*
X137795000Y-126238000D01*
X137795000Y-126238000D02*
X138430000Y-126873000D01*
X140970000Y-128143000D02*
X140970000Y-126873000D01*
X140335000Y-128778000D02*
X140970000Y-128143000D01*
X140970000Y-126873000D02*
X140335000Y-126238000D01*
X139065000Y-126238000D02*
X140335000Y-126238000D01*
X133350000Y-128143000D02*
X133350000Y-126873000D01*
G04 #@! TO.C,J3*
X163195000Y-97790000D02*
X161925000Y-97790000D01*
X161925000Y-97790000D02*
X161290000Y-97155000D01*
X161290000Y-95885000D02*
X161925000Y-95250000D01*
X161290000Y-97155000D02*
X160655000Y-97790000D01*
X160655000Y-97790000D02*
X159385000Y-97790000D01*
X159385000Y-97790000D02*
X158750000Y-97155000D01*
X158750000Y-95885000D02*
X159385000Y-95250000D01*
X159385000Y-95250000D02*
X160655000Y-95250000D01*
X160655000Y-95250000D02*
X161290000Y-95885000D01*
X163830000Y-97155000D02*
X163830000Y-95885000D01*
X163195000Y-97790000D02*
X163830000Y-97155000D01*
X163830000Y-95885000D02*
X163195000Y-95250000D01*
X161925000Y-95250000D02*
X163195000Y-95250000D01*
X158750000Y-97155000D02*
X158750000Y-95885000D01*
D14*
G04 #@! TO.C,RN1*
X133350000Y-103756000D02*
X133350000Y-106556000D01*
X153840000Y-103756000D02*
X130640000Y-103756000D01*
X153840000Y-106556000D02*
X153840000Y-103756000D01*
X130640000Y-106556000D02*
X153840000Y-106556000D01*
X130640000Y-103756000D02*
X130640000Y-106556000D01*
G04 #@! TO.C,Address*
X115062000Y-116713000D02*
X115062000Y-117983000D01*
X117092000Y-116713000D02*
X113032000Y-116713000D01*
X117092000Y-117983000D02*
X117092000Y-116713000D01*
X113032000Y-117983000D02*
X117092000Y-117983000D01*
X113032000Y-116713000D02*
X113032000Y-117983000D01*
X115062000Y-114173000D02*
X115062000Y-115443000D01*
X117092000Y-114173000D02*
X113032000Y-114173000D01*
X117092000Y-115443000D02*
X117092000Y-114173000D01*
X113032000Y-115443000D02*
X117092000Y-115443000D01*
X113032000Y-114173000D02*
X113032000Y-115443000D01*
X115062000Y-111633000D02*
X115062000Y-112903000D01*
X117092000Y-111633000D02*
X113032000Y-111633000D01*
X117092000Y-112903000D02*
X117092000Y-111633000D01*
X113032000Y-112903000D02*
X117092000Y-112903000D01*
X113032000Y-111633000D02*
X113032000Y-112903000D01*
X115062000Y-109093000D02*
X115062000Y-110363000D01*
X117092000Y-109093000D02*
X113032000Y-109093000D01*
X117092000Y-110363000D02*
X117092000Y-109093000D01*
X113032000Y-110363000D02*
X117092000Y-110363000D01*
X113032000Y-109093000D02*
X113032000Y-110363000D01*
X110052000Y-119828000D02*
X110052000Y-107248000D01*
X120072000Y-119828000D02*
X110052000Y-119828000D01*
X120072000Y-107248000D02*
X120072000Y-119828000D01*
X110052000Y-107248000D02*
X120072000Y-107248000D01*
X109852000Y-107048000D02*
X112392000Y-107048000D01*
X109852000Y-107048000D02*
X109852000Y-108318000D01*
D13*
G04 #@! TO.C,S1*
X165354000Y-102362000D02*
X169164000Y-102362000D01*
X174244000Y-102362000D02*
X178054000Y-102362000D01*
X178054000Y-102362000D02*
X178054000Y-115062000D01*
X178054000Y-115062000D02*
X174244000Y-115062000D01*
X169164000Y-115062000D02*
X165354000Y-115062000D01*
X165354000Y-115062000D02*
X165354000Y-112522000D01*
X165354000Y-102362000D02*
X165354000Y-104902000D01*
X165354000Y-107442000D02*
X165354000Y-109982000D01*
G04 #@! TO.C,J2*
X164719000Y-123190000D02*
X163449000Y-123190000D01*
X163449000Y-123190000D02*
X162814000Y-122555000D01*
X162814000Y-121285000D02*
X163449000Y-120650000D01*
X167894000Y-122555000D02*
X167259000Y-123190000D01*
X167259000Y-123190000D02*
X165989000Y-123190000D01*
X165989000Y-123190000D02*
X165354000Y-122555000D01*
X165354000Y-121285000D02*
X165989000Y-120650000D01*
X165989000Y-120650000D02*
X167259000Y-120650000D01*
X167259000Y-120650000D02*
X167894000Y-121285000D01*
X164719000Y-123190000D02*
X165354000Y-122555000D01*
X165354000Y-121285000D02*
X164719000Y-120650000D01*
X163449000Y-120650000D02*
X164719000Y-120650000D01*
X172339000Y-123190000D02*
X171069000Y-123190000D01*
X171069000Y-123190000D02*
X170434000Y-122555000D01*
X170434000Y-121285000D02*
X171069000Y-120650000D01*
X170434000Y-122555000D02*
X169799000Y-123190000D01*
X169799000Y-123190000D02*
X168529000Y-123190000D01*
X168529000Y-123190000D02*
X167894000Y-122555000D01*
X167894000Y-121285000D02*
X168529000Y-120650000D01*
X168529000Y-120650000D02*
X169799000Y-120650000D01*
X169799000Y-120650000D02*
X170434000Y-121285000D01*
X175514000Y-122555000D02*
X174879000Y-123190000D01*
X174879000Y-123190000D02*
X173609000Y-123190000D01*
X173609000Y-123190000D02*
X172974000Y-122555000D01*
X172974000Y-121285000D02*
X173609000Y-120650000D01*
X173609000Y-120650000D02*
X174879000Y-120650000D01*
X174879000Y-120650000D02*
X175514000Y-121285000D01*
X172339000Y-123190000D02*
X172974000Y-122555000D01*
X172974000Y-121285000D02*
X172339000Y-120650000D01*
X171069000Y-120650000D02*
X172339000Y-120650000D01*
X179959000Y-123190000D02*
X178689000Y-123190000D01*
X178689000Y-123190000D02*
X178054000Y-122555000D01*
X178054000Y-121285000D02*
X178689000Y-120650000D01*
X178054000Y-122555000D02*
X177419000Y-123190000D01*
X177419000Y-123190000D02*
X176149000Y-123190000D01*
X176149000Y-123190000D02*
X175514000Y-122555000D01*
X175514000Y-121285000D02*
X176149000Y-120650000D01*
X176149000Y-120650000D02*
X177419000Y-120650000D01*
X177419000Y-120650000D02*
X178054000Y-121285000D01*
X180594000Y-122555000D02*
X180594000Y-121285000D01*
X179959000Y-123190000D02*
X180594000Y-122555000D01*
X180594000Y-121285000D02*
X179959000Y-120650000D01*
X178689000Y-120650000D02*
X179959000Y-120650000D01*
X162179000Y-123190000D02*
X160909000Y-123190000D01*
X160909000Y-123190000D02*
X160274000Y-122555000D01*
X160274000Y-122555000D02*
X160274000Y-121285000D01*
X160274000Y-121285000D02*
X160909000Y-120650000D01*
X162179000Y-123190000D02*
X162814000Y-122555000D01*
X162814000Y-121285000D02*
X162179000Y-120650000D01*
X160909000Y-120650000D02*
X162179000Y-120650000D01*
D14*
G04 #@! TO.C,REF\002A\002A*
X109982000Y-127000000D02*
G75*
G03X109982000Y-127000000I-2286000J0D01*
G01*
X180086000Y-98044000D02*
G75*
G03X180086000Y-98044000I-2286000J0D01*
G01*
G04 #@! TO.C,U1*
D12*
X121065381Y-111316929D02*
X121874905Y-111316929D01*
X121970143Y-111269310D01*
X122017762Y-111221691D01*
X122065381Y-111126453D01*
X122065381Y-110935977D01*
X122017762Y-110840739D01*
X121970143Y-110793120D01*
X121874905Y-110745501D01*
X121065381Y-110745501D01*
X122065381Y-109745501D02*
X122065381Y-110316929D01*
X122065381Y-110031215D02*
X121065381Y-110031215D01*
X121208239Y-110126453D01*
X121303477Y-110221691D01*
X121351096Y-110316929D01*
G04 #@! TO.C,J1*
D15*
X141528800Y-127174171D02*
X141528800Y-127609600D01*
X141499771Y-127696685D01*
X141441714Y-127754742D01*
X141354628Y-127783771D01*
X141296571Y-127783771D01*
X142138400Y-127783771D02*
X141790057Y-127783771D01*
X141964228Y-127783771D02*
X141964228Y-127174171D01*
X141906171Y-127261257D01*
X141848114Y-127319314D01*
X141790057Y-127348342D01*
X139308114Y-125878771D02*
X139017828Y-125878771D01*
X139017828Y-125269171D01*
X139511314Y-125559457D02*
X139714514Y-125559457D01*
X139801600Y-125878771D02*
X139511314Y-125878771D01*
X139511314Y-125269171D01*
X139801600Y-125269171D01*
X140062857Y-125878771D02*
X140062857Y-125269171D01*
X140208000Y-125269171D01*
X140295085Y-125298200D01*
X140353142Y-125356257D01*
X140382171Y-125414314D01*
X140411200Y-125530428D01*
X140411200Y-125617514D01*
X140382171Y-125733628D01*
X140353142Y-125791685D01*
X140295085Y-125849742D01*
X140208000Y-125878771D01*
X140062857Y-125878771D01*
G04 #@! TO.C,J3*
X162356800Y-98091171D02*
X162356800Y-98526600D01*
X162327771Y-98613685D01*
X162269714Y-98671742D01*
X162182628Y-98700771D01*
X162124571Y-98700771D01*
X162589028Y-98091171D02*
X162966400Y-98091171D01*
X162763200Y-98323400D01*
X162850285Y-98323400D01*
X162908342Y-98352428D01*
X162937371Y-98381457D01*
X162966400Y-98439514D01*
X162966400Y-98584657D01*
X162937371Y-98642714D01*
X162908342Y-98671742D01*
X162850285Y-98700771D01*
X162676114Y-98700771D01*
X162618057Y-98671742D01*
X162589028Y-98642714D01*
X161674628Y-94890771D02*
X161471428Y-94600485D01*
X161326285Y-94890771D02*
X161326285Y-94281171D01*
X161558514Y-94281171D01*
X161616571Y-94310200D01*
X161645600Y-94339228D01*
X161674628Y-94397285D01*
X161674628Y-94484371D01*
X161645600Y-94542428D01*
X161616571Y-94571457D01*
X161558514Y-94600485D01*
X161326285Y-94600485D01*
X161935885Y-94571457D02*
X162139085Y-94571457D01*
X162226171Y-94890771D02*
X161935885Y-94890771D01*
X161935885Y-94281171D01*
X162226171Y-94281171D01*
X162458400Y-94861742D02*
X162545485Y-94890771D01*
X162690628Y-94890771D01*
X162748685Y-94861742D01*
X162777714Y-94832714D01*
X162806742Y-94774657D01*
X162806742Y-94716600D01*
X162777714Y-94658542D01*
X162748685Y-94629514D01*
X162690628Y-94600485D01*
X162574514Y-94571457D01*
X162516457Y-94542428D01*
X162487428Y-94513400D01*
X162458400Y-94455342D01*
X162458400Y-94397285D01*
X162487428Y-94339228D01*
X162516457Y-94310200D01*
X162574514Y-94281171D01*
X162719657Y-94281171D01*
X162806742Y-94310200D01*
X163068000Y-94571457D02*
X163271200Y-94571457D01*
X163358285Y-94890771D02*
X163068000Y-94890771D01*
X163068000Y-94281171D01*
X163358285Y-94281171D01*
X163532457Y-94281171D02*
X163880800Y-94281171D01*
X163706628Y-94890771D02*
X163706628Y-94281171D01*
G04 #@! TO.C,RN1*
D12*
X131389523Y-103208380D02*
X131056190Y-102732190D01*
X130818095Y-103208380D02*
X130818095Y-102208380D01*
X131199047Y-102208380D01*
X131294285Y-102256000D01*
X131341904Y-102303619D01*
X131389523Y-102398857D01*
X131389523Y-102541714D01*
X131341904Y-102636952D01*
X131294285Y-102684571D01*
X131199047Y-102732190D01*
X130818095Y-102732190D01*
X131818095Y-103208380D02*
X131818095Y-102208380D01*
X132389523Y-103208380D01*
X132389523Y-102208380D01*
X133389523Y-103208380D02*
X132818095Y-103208380D01*
X133103809Y-103208380D02*
X133103809Y-102208380D01*
X133008571Y-102351238D01*
X132913333Y-102446476D01*
X132818095Y-102494095D01*
G04 #@! TO.C,Address*
X121578666Y-115974476D02*
X121578666Y-115498285D01*
X121864380Y-116069714D02*
X120864380Y-115736380D01*
X121864380Y-115403047D01*
X121864380Y-114641142D02*
X120864380Y-114641142D01*
X121816761Y-114641142D02*
X121864380Y-114736380D01*
X121864380Y-114926857D01*
X121816761Y-115022095D01*
X121769142Y-115069714D01*
X121673904Y-115117333D01*
X121388190Y-115117333D01*
X121292952Y-115069714D01*
X121245333Y-115022095D01*
X121197714Y-114926857D01*
X121197714Y-114736380D01*
X121245333Y-114641142D01*
X121864380Y-113736380D02*
X120864380Y-113736380D01*
X121816761Y-113736380D02*
X121864380Y-113831619D01*
X121864380Y-114022095D01*
X121816761Y-114117333D01*
X121769142Y-114164952D01*
X121673904Y-114212571D01*
X121388190Y-114212571D01*
X121292952Y-114164952D01*
X121245333Y-114117333D01*
X121197714Y-114022095D01*
X121197714Y-113831619D01*
X121245333Y-113736380D01*
X121864380Y-113260190D02*
X121197714Y-113260190D01*
X121388190Y-113260190D02*
X121292952Y-113212571D01*
X121245333Y-113164952D01*
X121197714Y-113069714D01*
X121197714Y-112974476D01*
X121816761Y-112260190D02*
X121864380Y-112355428D01*
X121864380Y-112545904D01*
X121816761Y-112641142D01*
X121721523Y-112688761D01*
X121340571Y-112688761D01*
X121245333Y-112641142D01*
X121197714Y-112545904D01*
X121197714Y-112355428D01*
X121245333Y-112260190D01*
X121340571Y-112212571D01*
X121435809Y-112212571D01*
X121531047Y-112688761D01*
X121816761Y-111831619D02*
X121864380Y-111736380D01*
X121864380Y-111545904D01*
X121816761Y-111450666D01*
X121721523Y-111403047D01*
X121673904Y-111403047D01*
X121578666Y-111450666D01*
X121531047Y-111545904D01*
X121531047Y-111688761D01*
X121483428Y-111784000D01*
X121388190Y-111831619D01*
X121340571Y-111831619D01*
X121245333Y-111784000D01*
X121197714Y-111688761D01*
X121197714Y-111545904D01*
X121245333Y-111450666D01*
X121816761Y-111022095D02*
X121864380Y-110926857D01*
X121864380Y-110736380D01*
X121816761Y-110641142D01*
X121721523Y-110593523D01*
X121673904Y-110593523D01*
X121578666Y-110641142D01*
X121531047Y-110736380D01*
X121531047Y-110879238D01*
X121483428Y-110974476D01*
X121388190Y-111022095D01*
X121340571Y-111022095D01*
X121245333Y-110974476D01*
X121197714Y-110879238D01*
X121197714Y-110736380D01*
X121245333Y-110641142D01*
G04 #@! TO.C,S1*
D15*
X175049542Y-101973742D02*
X175136628Y-102002771D01*
X175281771Y-102002771D01*
X175339828Y-101973742D01*
X175368857Y-101944714D01*
X175397885Y-101886657D01*
X175397885Y-101828600D01*
X175368857Y-101770542D01*
X175339828Y-101741514D01*
X175281771Y-101712485D01*
X175165657Y-101683457D01*
X175107600Y-101654428D01*
X175078571Y-101625400D01*
X175049542Y-101567342D01*
X175049542Y-101509285D01*
X175078571Y-101451228D01*
X175107600Y-101422200D01*
X175165657Y-101393171D01*
X175310800Y-101393171D01*
X175397885Y-101422200D01*
X175978457Y-102002771D02*
X175630114Y-102002771D01*
X175804285Y-102002771D02*
X175804285Y-101393171D01*
X175746228Y-101480257D01*
X175688171Y-101538314D01*
X175630114Y-101567342D01*
X167727085Y-108668457D02*
X167930285Y-108668457D01*
X168017371Y-108987771D02*
X167727085Y-108987771D01*
X167727085Y-108378171D01*
X168017371Y-108378171D01*
X168278628Y-108987771D02*
X168278628Y-108378171D01*
X168626971Y-108987771D01*
X168626971Y-108378171D01*
X169265600Y-108929714D02*
X169236571Y-108958742D01*
X169149485Y-108987771D01*
X169091428Y-108987771D01*
X169004342Y-108958742D01*
X168946285Y-108900685D01*
X168917257Y-108842628D01*
X168888228Y-108726514D01*
X168888228Y-108639428D01*
X168917257Y-108523314D01*
X168946285Y-108465257D01*
X169004342Y-108407200D01*
X169091428Y-108378171D01*
X169149485Y-108378171D01*
X169236571Y-108407200D01*
X169265600Y-108436228D01*
X169642971Y-108378171D02*
X169759085Y-108378171D01*
X169817142Y-108407200D01*
X169875200Y-108465257D01*
X169904228Y-108581371D01*
X169904228Y-108784571D01*
X169875200Y-108900685D01*
X169817142Y-108958742D01*
X169759085Y-108987771D01*
X169642971Y-108987771D01*
X169584914Y-108958742D01*
X169526857Y-108900685D01*
X169497828Y-108784571D01*
X169497828Y-108581371D01*
X169526857Y-108465257D01*
X169584914Y-108407200D01*
X169642971Y-108378171D01*
X170165485Y-108987771D02*
X170165485Y-108378171D01*
X170310628Y-108378171D01*
X170397714Y-108407200D01*
X170455771Y-108465257D01*
X170484800Y-108523314D01*
X170513828Y-108639428D01*
X170513828Y-108726514D01*
X170484800Y-108842628D01*
X170455771Y-108900685D01*
X170397714Y-108958742D01*
X170310628Y-108987771D01*
X170165485Y-108987771D01*
X170775085Y-108668457D02*
X170978285Y-108668457D01*
X171065371Y-108987771D02*
X170775085Y-108987771D01*
X170775085Y-108378171D01*
X171065371Y-108378171D01*
X171674971Y-108987771D02*
X171471771Y-108697485D01*
X171326628Y-108987771D02*
X171326628Y-108378171D01*
X171558857Y-108378171D01*
X171616914Y-108407200D01*
X171645942Y-108436228D01*
X171674971Y-108494285D01*
X171674971Y-108581371D01*
X171645942Y-108639428D01*
X171616914Y-108668457D01*
X171558857Y-108697485D01*
X171326628Y-108697485D01*
X171936228Y-108755542D02*
X172400685Y-108755542D01*
X172661942Y-108958742D02*
X172749028Y-108987771D01*
X172894171Y-108987771D01*
X172952228Y-108958742D01*
X172981257Y-108929714D01*
X173010285Y-108871657D01*
X173010285Y-108813600D01*
X172981257Y-108755542D01*
X172952228Y-108726514D01*
X172894171Y-108697485D01*
X172778057Y-108668457D01*
X172720000Y-108639428D01*
X172690971Y-108610400D01*
X172661942Y-108552342D01*
X172661942Y-108494285D01*
X172690971Y-108436228D01*
X172720000Y-108407200D01*
X172778057Y-108378171D01*
X172923200Y-108378171D01*
X173010285Y-108407200D01*
X173213485Y-108378171D02*
X173358628Y-108987771D01*
X173474742Y-108552342D01*
X173590857Y-108987771D01*
X173736000Y-108378171D01*
X173968228Y-108987771D02*
X173968228Y-108378171D01*
X174171428Y-108378171D02*
X174519771Y-108378171D01*
X174345600Y-108987771D02*
X174345600Y-108378171D01*
X175071314Y-108929714D02*
X175042285Y-108958742D01*
X174955200Y-108987771D01*
X174897142Y-108987771D01*
X174810057Y-108958742D01*
X174752000Y-108900685D01*
X174722971Y-108842628D01*
X174693942Y-108726514D01*
X174693942Y-108639428D01*
X174722971Y-108523314D01*
X174752000Y-108465257D01*
X174810057Y-108407200D01*
X174897142Y-108378171D01*
X174955200Y-108378171D01*
X175042285Y-108407200D01*
X175071314Y-108436228D01*
X175332571Y-108987771D02*
X175332571Y-108378171D01*
X175332571Y-108668457D02*
X175680914Y-108668457D01*
X175680914Y-108987771D02*
X175680914Y-108378171D01*
G04 #@! TO.C,J2*
X179120800Y-123491171D02*
X179120800Y-123926600D01*
X179091771Y-124013685D01*
X179033714Y-124071742D01*
X178946628Y-124100771D01*
X178888571Y-124100771D01*
X179382057Y-123549228D02*
X179411085Y-123520200D01*
X179469142Y-123491171D01*
X179614285Y-123491171D01*
X179672342Y-123520200D01*
X179701371Y-123549228D01*
X179730400Y-123607285D01*
X179730400Y-123665342D01*
X179701371Y-123752428D01*
X179353028Y-124100771D01*
X179730400Y-124100771D01*
X169410742Y-119481600D02*
X169701028Y-119481600D01*
X169352685Y-119655771D02*
X169555885Y-119046171D01*
X169759085Y-119655771D01*
X170310628Y-119597714D02*
X170281600Y-119626742D01*
X170194514Y-119655771D01*
X170136457Y-119655771D01*
X170049371Y-119626742D01*
X169991314Y-119568685D01*
X169962285Y-119510628D01*
X169933257Y-119394514D01*
X169933257Y-119307428D01*
X169962285Y-119191314D01*
X169991314Y-119133257D01*
X170049371Y-119075200D01*
X170136457Y-119046171D01*
X170194514Y-119046171D01*
X170281600Y-119075200D01*
X170310628Y-119104228D01*
X170920228Y-119597714D02*
X170891200Y-119626742D01*
X170804114Y-119655771D01*
X170746057Y-119655771D01*
X170658971Y-119626742D01*
X170600914Y-119568685D01*
X170571885Y-119510628D01*
X170542857Y-119394514D01*
X170542857Y-119307428D01*
X170571885Y-119191314D01*
X170600914Y-119133257D01*
X170658971Y-119075200D01*
X170746057Y-119046171D01*
X170804114Y-119046171D01*
X170891200Y-119075200D01*
X170920228Y-119104228D01*
X171181485Y-119336457D02*
X171384685Y-119336457D01*
X171471771Y-119655771D02*
X171181485Y-119655771D01*
X171181485Y-119046171D01*
X171471771Y-119046171D01*
X172023314Y-119655771D02*
X171733028Y-119655771D01*
X171733028Y-119046171D01*
G04 #@! TD*
M02*
