G04 #@! TF.GenerationSoftware,KiCad,Pcbnew,5.0.2-bee76a0~70~ubuntu18.04.1*
G04 #@! TF.CreationDate,2019-09-20T23:32:28+01:00*
G04 #@! TF.ProjectId,Shock Sensor,53686f63-6b20-4536-956e-736f722e6b69,rev?*
G04 #@! TF.SameCoordinates,Original*
G04 #@! TF.FileFunction,Soldermask,Top*
G04 #@! TF.FilePolarity,Negative*
%FSLAX46Y46*%
G04 Gerber Fmt 4.6, Leading zero omitted, Abs format (unit mm)*
G04 Created by KiCad (PCBNEW 5.0.2-bee76a0~70~ubuntu18.04.1) date Fri 20 Sep 2019 23:32:28 BST*
%MOMM*%
%LPD*%
G01*
G04 APERTURE LIST*
%ADD10C,0.100000*%
G04 APERTURE END LIST*
D10*
G36*
X108303589Y-124997048D02*
X108682671Y-125154069D01*
X109019294Y-125378994D01*
X109023838Y-125382030D01*
X109313970Y-125672162D01*
X109313972Y-125672165D01*
X109541931Y-126013329D01*
X109698952Y-126392411D01*
X109779000Y-126794842D01*
X109779000Y-127205158D01*
X109698952Y-127607589D01*
X109541931Y-127986671D01*
X109418195Y-128171854D01*
X109313970Y-128327838D01*
X109023838Y-128617970D01*
X109023835Y-128617972D01*
X108682671Y-128845931D01*
X108303589Y-129002952D01*
X108102373Y-129042976D01*
X107901159Y-129083000D01*
X107490841Y-129083000D01*
X107289627Y-129042976D01*
X107088411Y-129002952D01*
X106709329Y-128845931D01*
X106368165Y-128617972D01*
X106368162Y-128617970D01*
X106078030Y-128327838D01*
X105973805Y-128171854D01*
X105850069Y-127986671D01*
X105693048Y-127607589D01*
X105613000Y-127205158D01*
X105613000Y-126794842D01*
X105693048Y-126392411D01*
X105850069Y-126013329D01*
X106078028Y-125672165D01*
X106078030Y-125672162D01*
X106368162Y-125382030D01*
X106372706Y-125378994D01*
X106709329Y-125154069D01*
X107088411Y-124997048D01*
X107490841Y-124917000D01*
X107901159Y-124917000D01*
X108303589Y-124997048D01*
X108303589Y-124997048D01*
G37*
G36*
X140003765Y-126506620D02*
X140193289Y-126585123D01*
X140363855Y-126699092D01*
X140508908Y-126844145D01*
X140622877Y-127014711D01*
X140701380Y-127204235D01*
X140741400Y-127405430D01*
X140741400Y-127610570D01*
X140701380Y-127811765D01*
X140622877Y-128001289D01*
X140508908Y-128171855D01*
X140363855Y-128316908D01*
X140193289Y-128430877D01*
X140003765Y-128509380D01*
X139802570Y-128549400D01*
X139597430Y-128549400D01*
X139396235Y-128509380D01*
X139206711Y-128430877D01*
X139036145Y-128316908D01*
X138891092Y-128171855D01*
X138777123Y-128001289D01*
X138698620Y-127811765D01*
X138658600Y-127610570D01*
X138658600Y-127405430D01*
X138698620Y-127204235D01*
X138777123Y-127014711D01*
X138891092Y-126844145D01*
X139036145Y-126699092D01*
X139206711Y-126585123D01*
X139396235Y-126506620D01*
X139597430Y-126466600D01*
X139802570Y-126466600D01*
X140003765Y-126506620D01*
X140003765Y-126506620D01*
G37*
G36*
X137463765Y-126506620D02*
X137653289Y-126585123D01*
X137823855Y-126699092D01*
X137968908Y-126844145D01*
X138082877Y-127014711D01*
X138161380Y-127204235D01*
X138201400Y-127405430D01*
X138201400Y-127610570D01*
X138161380Y-127811765D01*
X138082877Y-128001289D01*
X137968908Y-128171855D01*
X137823855Y-128316908D01*
X137653289Y-128430877D01*
X137463765Y-128509380D01*
X137262570Y-128549400D01*
X137057430Y-128549400D01*
X136856235Y-128509380D01*
X136666711Y-128430877D01*
X136496145Y-128316908D01*
X136351092Y-128171855D01*
X136237123Y-128001289D01*
X136158620Y-127811765D01*
X136118600Y-127610570D01*
X136118600Y-127405430D01*
X136158620Y-127204235D01*
X136237123Y-127014711D01*
X136351092Y-126844145D01*
X136496145Y-126699092D01*
X136666711Y-126585123D01*
X136856235Y-126506620D01*
X137057430Y-126466600D01*
X137262570Y-126466600D01*
X137463765Y-126506620D01*
X137463765Y-126506620D01*
G37*
G36*
X134923765Y-126506620D02*
X135113289Y-126585123D01*
X135283855Y-126699092D01*
X135428908Y-126844145D01*
X135542877Y-127014711D01*
X135621380Y-127204235D01*
X135661400Y-127405430D01*
X135661400Y-127610570D01*
X135621380Y-127811765D01*
X135542877Y-128001289D01*
X135428908Y-128171855D01*
X135283855Y-128316908D01*
X135113289Y-128430877D01*
X134923765Y-128509380D01*
X134722570Y-128549400D01*
X134517430Y-128549400D01*
X134316235Y-128509380D01*
X134126711Y-128430877D01*
X133956145Y-128316908D01*
X133811092Y-128171855D01*
X133697123Y-128001289D01*
X133618620Y-127811765D01*
X133578600Y-127610570D01*
X133578600Y-127405430D01*
X133618620Y-127204235D01*
X133697123Y-127014711D01*
X133811092Y-126844145D01*
X133956145Y-126699092D01*
X134126711Y-126585123D01*
X134316235Y-126506620D01*
X134517430Y-126466600D01*
X134722570Y-126466600D01*
X134923765Y-126506620D01*
X134923765Y-126506620D01*
G37*
G36*
X172007765Y-120918620D02*
X172197289Y-120997123D01*
X172367855Y-121111092D01*
X172512908Y-121256145D01*
X172626877Y-121426711D01*
X172705380Y-121616235D01*
X172745400Y-121817430D01*
X172745400Y-122022570D01*
X172705380Y-122223765D01*
X172626877Y-122413289D01*
X172512908Y-122583855D01*
X172367855Y-122728908D01*
X172197289Y-122842877D01*
X172007765Y-122921380D01*
X171806570Y-122961400D01*
X171601430Y-122961400D01*
X171400235Y-122921380D01*
X171210711Y-122842877D01*
X171040145Y-122728908D01*
X170895092Y-122583855D01*
X170781123Y-122413289D01*
X170702620Y-122223765D01*
X170662600Y-122022570D01*
X170662600Y-121817430D01*
X170702620Y-121616235D01*
X170781123Y-121426711D01*
X170895092Y-121256145D01*
X171040145Y-121111092D01*
X171210711Y-120997123D01*
X171400235Y-120918620D01*
X171601430Y-120878600D01*
X171806570Y-120878600D01*
X172007765Y-120918620D01*
X172007765Y-120918620D01*
G37*
G36*
X179627765Y-120918620D02*
X179817289Y-120997123D01*
X179987855Y-121111092D01*
X180132908Y-121256145D01*
X180246877Y-121426711D01*
X180325380Y-121616235D01*
X180365400Y-121817430D01*
X180365400Y-122022570D01*
X180325380Y-122223765D01*
X180246877Y-122413289D01*
X180132908Y-122583855D01*
X179987855Y-122728908D01*
X179817289Y-122842877D01*
X179627765Y-122921380D01*
X179426570Y-122961400D01*
X179221430Y-122961400D01*
X179020235Y-122921380D01*
X178830711Y-122842877D01*
X178660145Y-122728908D01*
X178515092Y-122583855D01*
X178401123Y-122413289D01*
X178322620Y-122223765D01*
X178282600Y-122022570D01*
X178282600Y-121817430D01*
X178322620Y-121616235D01*
X178401123Y-121426711D01*
X178515092Y-121256145D01*
X178660145Y-121111092D01*
X178830711Y-120997123D01*
X179020235Y-120918620D01*
X179221430Y-120878600D01*
X179426570Y-120878600D01*
X179627765Y-120918620D01*
X179627765Y-120918620D01*
G37*
G36*
X177087765Y-120918620D02*
X177277289Y-120997123D01*
X177447855Y-121111092D01*
X177592908Y-121256145D01*
X177706877Y-121426711D01*
X177785380Y-121616235D01*
X177825400Y-121817430D01*
X177825400Y-122022570D01*
X177785380Y-122223765D01*
X177706877Y-122413289D01*
X177592908Y-122583855D01*
X177447855Y-122728908D01*
X177277289Y-122842877D01*
X177087765Y-122921380D01*
X176886570Y-122961400D01*
X176681430Y-122961400D01*
X176480235Y-122921380D01*
X176290711Y-122842877D01*
X176120145Y-122728908D01*
X175975092Y-122583855D01*
X175861123Y-122413289D01*
X175782620Y-122223765D01*
X175742600Y-122022570D01*
X175742600Y-121817430D01*
X175782620Y-121616235D01*
X175861123Y-121426711D01*
X175975092Y-121256145D01*
X176120145Y-121111092D01*
X176290711Y-120997123D01*
X176480235Y-120918620D01*
X176681430Y-120878600D01*
X176886570Y-120878600D01*
X177087765Y-120918620D01*
X177087765Y-120918620D01*
G37*
G36*
X174547765Y-120918620D02*
X174737289Y-120997123D01*
X174907855Y-121111092D01*
X175052908Y-121256145D01*
X175166877Y-121426711D01*
X175245380Y-121616235D01*
X175285400Y-121817430D01*
X175285400Y-122022570D01*
X175245380Y-122223765D01*
X175166877Y-122413289D01*
X175052908Y-122583855D01*
X174907855Y-122728908D01*
X174737289Y-122842877D01*
X174547765Y-122921380D01*
X174346570Y-122961400D01*
X174141430Y-122961400D01*
X173940235Y-122921380D01*
X173750711Y-122842877D01*
X173580145Y-122728908D01*
X173435092Y-122583855D01*
X173321123Y-122413289D01*
X173242620Y-122223765D01*
X173202600Y-122022570D01*
X173202600Y-121817430D01*
X173242620Y-121616235D01*
X173321123Y-121426711D01*
X173435092Y-121256145D01*
X173580145Y-121111092D01*
X173750711Y-120997123D01*
X173940235Y-120918620D01*
X174141430Y-120878600D01*
X174346570Y-120878600D01*
X174547765Y-120918620D01*
X174547765Y-120918620D01*
G37*
G36*
X169467765Y-120918620D02*
X169657289Y-120997123D01*
X169827855Y-121111092D01*
X169972908Y-121256145D01*
X170086877Y-121426711D01*
X170165380Y-121616235D01*
X170205400Y-121817430D01*
X170205400Y-122022570D01*
X170165380Y-122223765D01*
X170086877Y-122413289D01*
X169972908Y-122583855D01*
X169827855Y-122728908D01*
X169657289Y-122842877D01*
X169467765Y-122921380D01*
X169266570Y-122961400D01*
X169061430Y-122961400D01*
X168860235Y-122921380D01*
X168670711Y-122842877D01*
X168500145Y-122728908D01*
X168355092Y-122583855D01*
X168241123Y-122413289D01*
X168162620Y-122223765D01*
X168122600Y-122022570D01*
X168122600Y-121817430D01*
X168162620Y-121616235D01*
X168241123Y-121426711D01*
X168355092Y-121256145D01*
X168500145Y-121111092D01*
X168670711Y-120997123D01*
X168860235Y-120918620D01*
X169061430Y-120878600D01*
X169266570Y-120878600D01*
X169467765Y-120918620D01*
X169467765Y-120918620D01*
G37*
G36*
X166927765Y-120918620D02*
X167117289Y-120997123D01*
X167287855Y-121111092D01*
X167432908Y-121256145D01*
X167546877Y-121426711D01*
X167625380Y-121616235D01*
X167665400Y-121817430D01*
X167665400Y-122022570D01*
X167625380Y-122223765D01*
X167546877Y-122413289D01*
X167432908Y-122583855D01*
X167287855Y-122728908D01*
X167117289Y-122842877D01*
X166927765Y-122921380D01*
X166726570Y-122961400D01*
X166521430Y-122961400D01*
X166320235Y-122921380D01*
X166130711Y-122842877D01*
X165960145Y-122728908D01*
X165815092Y-122583855D01*
X165701123Y-122413289D01*
X165622620Y-122223765D01*
X165582600Y-122022570D01*
X165582600Y-121817430D01*
X165622620Y-121616235D01*
X165701123Y-121426711D01*
X165815092Y-121256145D01*
X165960145Y-121111092D01*
X166130711Y-120997123D01*
X166320235Y-120918620D01*
X166521430Y-120878600D01*
X166726570Y-120878600D01*
X166927765Y-120918620D01*
X166927765Y-120918620D01*
G37*
G36*
X164387765Y-120918620D02*
X164577289Y-120997123D01*
X164747855Y-121111092D01*
X164892908Y-121256145D01*
X165006877Y-121426711D01*
X165085380Y-121616235D01*
X165125400Y-121817430D01*
X165125400Y-122022570D01*
X165085380Y-122223765D01*
X165006877Y-122413289D01*
X164892908Y-122583855D01*
X164747855Y-122728908D01*
X164577289Y-122842877D01*
X164387765Y-122921380D01*
X164186570Y-122961400D01*
X163981430Y-122961400D01*
X163780235Y-122921380D01*
X163590711Y-122842877D01*
X163420145Y-122728908D01*
X163275092Y-122583855D01*
X163161123Y-122413289D01*
X163082620Y-122223765D01*
X163042600Y-122022570D01*
X163042600Y-121817430D01*
X163082620Y-121616235D01*
X163161123Y-121426711D01*
X163275092Y-121256145D01*
X163420145Y-121111092D01*
X163590711Y-120997123D01*
X163780235Y-120918620D01*
X163981430Y-120878600D01*
X164186570Y-120878600D01*
X164387765Y-120918620D01*
X164387765Y-120918620D01*
G37*
G36*
X161847765Y-120918620D02*
X162037289Y-120997123D01*
X162207855Y-121111092D01*
X162352908Y-121256145D01*
X162466877Y-121426711D01*
X162545380Y-121616235D01*
X162585400Y-121817430D01*
X162585400Y-122022570D01*
X162545380Y-122223765D01*
X162466877Y-122413289D01*
X162352908Y-122583855D01*
X162207855Y-122728908D01*
X162037289Y-122842877D01*
X161847765Y-122921380D01*
X161646570Y-122961400D01*
X161441430Y-122961400D01*
X161240235Y-122921380D01*
X161050711Y-122842877D01*
X160880145Y-122728908D01*
X160735092Y-122583855D01*
X160621123Y-122413289D01*
X160542620Y-122223765D01*
X160502600Y-122022570D01*
X160502600Y-121817430D01*
X160542620Y-121616235D01*
X160621123Y-121426711D01*
X160735092Y-121256145D01*
X160880145Y-121111092D01*
X161050711Y-120997123D01*
X161240235Y-120918620D01*
X161441430Y-120878600D01*
X161646570Y-120878600D01*
X161847765Y-120918620D01*
X161847765Y-120918620D01*
G37*
G36*
X134840397Y-121070571D02*
X135013467Y-121142259D01*
X135169231Y-121246337D01*
X135301689Y-121378795D01*
X135405767Y-121534559D01*
X135477455Y-121707629D01*
X135514001Y-121891358D01*
X135514001Y-122078692D01*
X135477455Y-122262421D01*
X135405767Y-122435491D01*
X135301689Y-122591255D01*
X135169231Y-122723713D01*
X135013467Y-122827791D01*
X134840397Y-122899479D01*
X134656668Y-122936025D01*
X134469334Y-122936025D01*
X134285605Y-122899479D01*
X134112535Y-122827791D01*
X133956771Y-122723713D01*
X133824313Y-122591255D01*
X133720235Y-122435491D01*
X133648547Y-122262421D01*
X133612001Y-122078692D01*
X133612001Y-121891358D01*
X133648547Y-121707629D01*
X133720235Y-121534559D01*
X133824313Y-121378795D01*
X133956771Y-121246337D01*
X134112535Y-121142259D01*
X134285605Y-121070571D01*
X134469334Y-121034025D01*
X134656668Y-121034025D01*
X134840397Y-121070571D01*
X134840397Y-121070571D01*
G37*
G36*
X132300397Y-121070571D02*
X132473467Y-121142259D01*
X132629231Y-121246337D01*
X132761689Y-121378795D01*
X132865767Y-121534559D01*
X132937455Y-121707629D01*
X132974001Y-121891358D01*
X132974001Y-122078692D01*
X132937455Y-122262421D01*
X132865767Y-122435491D01*
X132761689Y-122591255D01*
X132629231Y-122723713D01*
X132473467Y-122827791D01*
X132300397Y-122899479D01*
X132116668Y-122936025D01*
X131929334Y-122936025D01*
X131745605Y-122899479D01*
X131572535Y-122827791D01*
X131416771Y-122723713D01*
X131284313Y-122591255D01*
X131180235Y-122435491D01*
X131108547Y-122262421D01*
X131072001Y-122078692D01*
X131072001Y-121891358D01*
X131108547Y-121707629D01*
X131180235Y-121534559D01*
X131284313Y-121378795D01*
X131416771Y-121246337D01*
X131572535Y-121142259D01*
X131745605Y-121070571D01*
X131929334Y-121034025D01*
X132116668Y-121034025D01*
X132300397Y-121070571D01*
X132300397Y-121070571D01*
G37*
G36*
X150080397Y-121070571D02*
X150253467Y-121142259D01*
X150409231Y-121246337D01*
X150541689Y-121378795D01*
X150645767Y-121534559D01*
X150717455Y-121707629D01*
X150754001Y-121891358D01*
X150754001Y-122078692D01*
X150717455Y-122262421D01*
X150645767Y-122435491D01*
X150541689Y-122591255D01*
X150409231Y-122723713D01*
X150253467Y-122827791D01*
X150080397Y-122899479D01*
X149896668Y-122936025D01*
X149709334Y-122936025D01*
X149525605Y-122899479D01*
X149352535Y-122827791D01*
X149196771Y-122723713D01*
X149064313Y-122591255D01*
X148960235Y-122435491D01*
X148888547Y-122262421D01*
X148852001Y-122078692D01*
X148852001Y-121891358D01*
X148888547Y-121707629D01*
X148960235Y-121534559D01*
X149064313Y-121378795D01*
X149196771Y-121246337D01*
X149352535Y-121142259D01*
X149525605Y-121070571D01*
X149709334Y-121034025D01*
X149896668Y-121034025D01*
X150080397Y-121070571D01*
X150080397Y-121070571D01*
G37*
G36*
X147540397Y-121070571D02*
X147713467Y-121142259D01*
X147869231Y-121246337D01*
X148001689Y-121378795D01*
X148105767Y-121534559D01*
X148177455Y-121707629D01*
X148214001Y-121891358D01*
X148214001Y-122078692D01*
X148177455Y-122262421D01*
X148105767Y-122435491D01*
X148001689Y-122591255D01*
X147869231Y-122723713D01*
X147713467Y-122827791D01*
X147540397Y-122899479D01*
X147356668Y-122936025D01*
X147169334Y-122936025D01*
X146985605Y-122899479D01*
X146812535Y-122827791D01*
X146656771Y-122723713D01*
X146524313Y-122591255D01*
X146420235Y-122435491D01*
X146348547Y-122262421D01*
X146312001Y-122078692D01*
X146312001Y-121891358D01*
X146348547Y-121707629D01*
X146420235Y-121534559D01*
X146524313Y-121378795D01*
X146656771Y-121246337D01*
X146812535Y-121142259D01*
X146985605Y-121070571D01*
X147169334Y-121034025D01*
X147356668Y-121034025D01*
X147540397Y-121070571D01*
X147540397Y-121070571D01*
G37*
G36*
X145000397Y-121070571D02*
X145173467Y-121142259D01*
X145329231Y-121246337D01*
X145461689Y-121378795D01*
X145565767Y-121534559D01*
X145637455Y-121707629D01*
X145674001Y-121891358D01*
X145674001Y-122078692D01*
X145637455Y-122262421D01*
X145565767Y-122435491D01*
X145461689Y-122591255D01*
X145329231Y-122723713D01*
X145173467Y-122827791D01*
X145000397Y-122899479D01*
X144816668Y-122936025D01*
X144629334Y-122936025D01*
X144445605Y-122899479D01*
X144272535Y-122827791D01*
X144116771Y-122723713D01*
X143984313Y-122591255D01*
X143880235Y-122435491D01*
X143808547Y-122262421D01*
X143772001Y-122078692D01*
X143772001Y-121891358D01*
X143808547Y-121707629D01*
X143880235Y-121534559D01*
X143984313Y-121378795D01*
X144116771Y-121246337D01*
X144272535Y-121142259D01*
X144445605Y-121070571D01*
X144629334Y-121034025D01*
X144816668Y-121034025D01*
X145000397Y-121070571D01*
X145000397Y-121070571D01*
G37*
G36*
X137380397Y-121070571D02*
X137553467Y-121142259D01*
X137709231Y-121246337D01*
X137841689Y-121378795D01*
X137945767Y-121534559D01*
X138017455Y-121707629D01*
X138054001Y-121891358D01*
X138054001Y-122078692D01*
X138017455Y-122262421D01*
X137945767Y-122435491D01*
X137841689Y-122591255D01*
X137709231Y-122723713D01*
X137553467Y-122827791D01*
X137380397Y-122899479D01*
X137196668Y-122936025D01*
X137009334Y-122936025D01*
X136825605Y-122899479D01*
X136652535Y-122827791D01*
X136496771Y-122723713D01*
X136364313Y-122591255D01*
X136260235Y-122435491D01*
X136188547Y-122262421D01*
X136152001Y-122078692D01*
X136152001Y-121891358D01*
X136188547Y-121707629D01*
X136260235Y-121534559D01*
X136364313Y-121378795D01*
X136496771Y-121246337D01*
X136652535Y-121142259D01*
X136825605Y-121070571D01*
X137009334Y-121034025D01*
X137196668Y-121034025D01*
X137380397Y-121070571D01*
X137380397Y-121070571D01*
G37*
G36*
X142460397Y-121070571D02*
X142633467Y-121142259D01*
X142789231Y-121246337D01*
X142921689Y-121378795D01*
X143025767Y-121534559D01*
X143097455Y-121707629D01*
X143134001Y-121891358D01*
X143134001Y-122078692D01*
X143097455Y-122262421D01*
X143025767Y-122435491D01*
X142921689Y-122591255D01*
X142789231Y-122723713D01*
X142633467Y-122827791D01*
X142460397Y-122899479D01*
X142276668Y-122936025D01*
X142089334Y-122936025D01*
X141905605Y-122899479D01*
X141732535Y-122827791D01*
X141576771Y-122723713D01*
X141444313Y-122591255D01*
X141340235Y-122435491D01*
X141268547Y-122262421D01*
X141232001Y-122078692D01*
X141232001Y-121891358D01*
X141268547Y-121707629D01*
X141340235Y-121534559D01*
X141444313Y-121378795D01*
X141576771Y-121246337D01*
X141732535Y-121142259D01*
X141905605Y-121070571D01*
X142089334Y-121034025D01*
X142276668Y-121034025D01*
X142460397Y-121070571D01*
X142460397Y-121070571D01*
G37*
G36*
X139920397Y-121070571D02*
X140093467Y-121142259D01*
X140249231Y-121246337D01*
X140381689Y-121378795D01*
X140485767Y-121534559D01*
X140557455Y-121707629D01*
X140594001Y-121891358D01*
X140594001Y-122078692D01*
X140557455Y-122262421D01*
X140485767Y-122435491D01*
X140381689Y-122591255D01*
X140249231Y-122723713D01*
X140093467Y-122827791D01*
X139920397Y-122899479D01*
X139736668Y-122936025D01*
X139549334Y-122936025D01*
X139365605Y-122899479D01*
X139192535Y-122827791D01*
X139036771Y-122723713D01*
X138904313Y-122591255D01*
X138800235Y-122435491D01*
X138728547Y-122262421D01*
X138692001Y-122078692D01*
X138692001Y-121891358D01*
X138728547Y-121707629D01*
X138800235Y-121534559D01*
X138904313Y-121378795D01*
X139036771Y-121246337D01*
X139192535Y-121142259D01*
X139365605Y-121070571D01*
X139549334Y-121034025D01*
X139736668Y-121034025D01*
X139920397Y-121070571D01*
X139920397Y-121070571D01*
G37*
G36*
X119038821Y-116509313D02*
X119038824Y-116509314D01*
X119038825Y-116509314D01*
X119199239Y-116557975D01*
X119199241Y-116557976D01*
X119199244Y-116557977D01*
X119347078Y-116636995D01*
X119476659Y-116743341D01*
X119583005Y-116872922D01*
X119662023Y-117020756D01*
X119662024Y-117020759D01*
X119662025Y-117020761D01*
X119710686Y-117181175D01*
X119710687Y-117181179D01*
X119727117Y-117348000D01*
X119710687Y-117514821D01*
X119662023Y-117675244D01*
X119583005Y-117823078D01*
X119476659Y-117952659D01*
X119347078Y-118059005D01*
X119199244Y-118138023D01*
X119199241Y-118138024D01*
X119199239Y-118138025D01*
X119038825Y-118186686D01*
X119038824Y-118186686D01*
X119038821Y-118186687D01*
X118913804Y-118199000D01*
X118830196Y-118199000D01*
X118705179Y-118186687D01*
X118705176Y-118186686D01*
X118705175Y-118186686D01*
X118544761Y-118138025D01*
X118544759Y-118138024D01*
X118544756Y-118138023D01*
X118396922Y-118059005D01*
X118267341Y-117952659D01*
X118160995Y-117823078D01*
X118081977Y-117675244D01*
X118033313Y-117514821D01*
X118016883Y-117348000D01*
X118033313Y-117181179D01*
X118033314Y-117181175D01*
X118081975Y-117020761D01*
X118081976Y-117020759D01*
X118081977Y-117020756D01*
X118160995Y-116872922D01*
X118267341Y-116743341D01*
X118396922Y-116636995D01*
X118544756Y-116557977D01*
X118544759Y-116557976D01*
X118544761Y-116557975D01*
X118705175Y-116509314D01*
X118705176Y-116509314D01*
X118705179Y-116509313D01*
X118830196Y-116497000D01*
X118913804Y-116497000D01*
X119038821Y-116509313D01*
X119038821Y-116509313D01*
G37*
G36*
X111418821Y-116509313D02*
X111418824Y-116509314D01*
X111418825Y-116509314D01*
X111579239Y-116557975D01*
X111579241Y-116557976D01*
X111579244Y-116557977D01*
X111727078Y-116636995D01*
X111856659Y-116743341D01*
X111963005Y-116872922D01*
X112042023Y-117020756D01*
X112042024Y-117020759D01*
X112042025Y-117020761D01*
X112090686Y-117181175D01*
X112090687Y-117181179D01*
X112107117Y-117348000D01*
X112090687Y-117514821D01*
X112042023Y-117675244D01*
X111963005Y-117823078D01*
X111856659Y-117952659D01*
X111727078Y-118059005D01*
X111579244Y-118138023D01*
X111579241Y-118138024D01*
X111579239Y-118138025D01*
X111418825Y-118186686D01*
X111418824Y-118186686D01*
X111418821Y-118186687D01*
X111293804Y-118199000D01*
X111210196Y-118199000D01*
X111085179Y-118186687D01*
X111085176Y-118186686D01*
X111085175Y-118186686D01*
X110924761Y-118138025D01*
X110924759Y-118138024D01*
X110924756Y-118138023D01*
X110776922Y-118059005D01*
X110647341Y-117952659D01*
X110540995Y-117823078D01*
X110461977Y-117675244D01*
X110413313Y-117514821D01*
X110396883Y-117348000D01*
X110413313Y-117181179D01*
X110413314Y-117181175D01*
X110461975Y-117020761D01*
X110461976Y-117020759D01*
X110461977Y-117020756D01*
X110540995Y-116872922D01*
X110647341Y-116743341D01*
X110776922Y-116636995D01*
X110924756Y-116557977D01*
X110924759Y-116557976D01*
X110924761Y-116557975D01*
X111085175Y-116509314D01*
X111085176Y-116509314D01*
X111085179Y-116509313D01*
X111210196Y-116497000D01*
X111293804Y-116497000D01*
X111418821Y-116509313D01*
X111418821Y-116509313D01*
G37*
G36*
X172215214Y-113630751D02*
X172534166Y-113762865D01*
X172821220Y-113954669D01*
X173065331Y-114198780D01*
X173257135Y-114485834D01*
X173389249Y-114804786D01*
X173456600Y-115143383D01*
X173456600Y-115488617D01*
X173389249Y-115827214D01*
X173257135Y-116146166D01*
X173065331Y-116433220D01*
X172821220Y-116677331D01*
X172534166Y-116869135D01*
X172215214Y-117001249D01*
X171876617Y-117068600D01*
X171531383Y-117068600D01*
X171192786Y-117001249D01*
X170873834Y-116869135D01*
X170586780Y-116677331D01*
X170342669Y-116433220D01*
X170150865Y-116146166D01*
X170018751Y-115827214D01*
X169951400Y-115488617D01*
X169951400Y-115143383D01*
X170018751Y-114804786D01*
X170150865Y-114485834D01*
X170342669Y-114198780D01*
X170586780Y-113954669D01*
X170873834Y-113762865D01*
X171192786Y-113630751D01*
X171531383Y-113563400D01*
X171876617Y-113563400D01*
X172215214Y-113630751D01*
X172215214Y-113630751D01*
G37*
G36*
X111418821Y-113969313D02*
X111418824Y-113969314D01*
X111418825Y-113969314D01*
X111579239Y-114017975D01*
X111579241Y-114017976D01*
X111579244Y-114017977D01*
X111727078Y-114096995D01*
X111856659Y-114203341D01*
X111963005Y-114332922D01*
X112042023Y-114480756D01*
X112042024Y-114480759D01*
X112042025Y-114480761D01*
X112090686Y-114641175D01*
X112090687Y-114641179D01*
X112107117Y-114808000D01*
X112090687Y-114974821D01*
X112042023Y-115135244D01*
X111963005Y-115283078D01*
X111856659Y-115412659D01*
X111727078Y-115519005D01*
X111579244Y-115598023D01*
X111579241Y-115598024D01*
X111579239Y-115598025D01*
X111418825Y-115646686D01*
X111418824Y-115646686D01*
X111418821Y-115646687D01*
X111293804Y-115659000D01*
X111210196Y-115659000D01*
X111085179Y-115646687D01*
X111085176Y-115646686D01*
X111085175Y-115646686D01*
X110924761Y-115598025D01*
X110924759Y-115598024D01*
X110924756Y-115598023D01*
X110776922Y-115519005D01*
X110647341Y-115412659D01*
X110540995Y-115283078D01*
X110461977Y-115135244D01*
X110413313Y-114974821D01*
X110396883Y-114808000D01*
X110413313Y-114641179D01*
X110413314Y-114641175D01*
X110461975Y-114480761D01*
X110461976Y-114480759D01*
X110461977Y-114480756D01*
X110540995Y-114332922D01*
X110647341Y-114203341D01*
X110776922Y-114096995D01*
X110924756Y-114017977D01*
X110924759Y-114017976D01*
X110924761Y-114017975D01*
X111085175Y-113969314D01*
X111085176Y-113969314D01*
X111085179Y-113969313D01*
X111210196Y-113957000D01*
X111293804Y-113957000D01*
X111418821Y-113969313D01*
X111418821Y-113969313D01*
G37*
G36*
X119038821Y-113969313D02*
X119038824Y-113969314D01*
X119038825Y-113969314D01*
X119199239Y-114017975D01*
X119199241Y-114017976D01*
X119199244Y-114017977D01*
X119347078Y-114096995D01*
X119476659Y-114203341D01*
X119583005Y-114332922D01*
X119662023Y-114480756D01*
X119662024Y-114480759D01*
X119662025Y-114480761D01*
X119710686Y-114641175D01*
X119710687Y-114641179D01*
X119727117Y-114808000D01*
X119710687Y-114974821D01*
X119662023Y-115135244D01*
X119583005Y-115283078D01*
X119476659Y-115412659D01*
X119347078Y-115519005D01*
X119199244Y-115598023D01*
X119199241Y-115598024D01*
X119199239Y-115598025D01*
X119038825Y-115646686D01*
X119038824Y-115646686D01*
X119038821Y-115646687D01*
X118913804Y-115659000D01*
X118830196Y-115659000D01*
X118705179Y-115646687D01*
X118705176Y-115646686D01*
X118705175Y-115646686D01*
X118544761Y-115598025D01*
X118544759Y-115598024D01*
X118544756Y-115598023D01*
X118396922Y-115519005D01*
X118267341Y-115412659D01*
X118160995Y-115283078D01*
X118081977Y-115135244D01*
X118033313Y-114974821D01*
X118016883Y-114808000D01*
X118033313Y-114641179D01*
X118033314Y-114641175D01*
X118081975Y-114480761D01*
X118081976Y-114480759D01*
X118081977Y-114480756D01*
X118160995Y-114332922D01*
X118267341Y-114203341D01*
X118396922Y-114096995D01*
X118544756Y-114017977D01*
X118544759Y-114017976D01*
X118544761Y-114017975D01*
X118705175Y-113969314D01*
X118705176Y-113969314D01*
X118705179Y-113969313D01*
X118830196Y-113957000D01*
X118913804Y-113957000D01*
X119038821Y-113969313D01*
X119038821Y-113969313D01*
G37*
G36*
X119038821Y-111429313D02*
X119038824Y-111429314D01*
X119038825Y-111429314D01*
X119199239Y-111477975D01*
X119199241Y-111477976D01*
X119199244Y-111477977D01*
X119347078Y-111556995D01*
X119476659Y-111663341D01*
X119583005Y-111792922D01*
X119662023Y-111940756D01*
X119662024Y-111940759D01*
X119662025Y-111940761D01*
X119710686Y-112101175D01*
X119710687Y-112101179D01*
X119727117Y-112268000D01*
X119710687Y-112434821D01*
X119662023Y-112595244D01*
X119583005Y-112743078D01*
X119476659Y-112872659D01*
X119347078Y-112979005D01*
X119199244Y-113058023D01*
X119199241Y-113058024D01*
X119199239Y-113058025D01*
X119038825Y-113106686D01*
X119038824Y-113106686D01*
X119038821Y-113106687D01*
X118913804Y-113119000D01*
X118830196Y-113119000D01*
X118705179Y-113106687D01*
X118705176Y-113106686D01*
X118705175Y-113106686D01*
X118544761Y-113058025D01*
X118544759Y-113058024D01*
X118544756Y-113058023D01*
X118396922Y-112979005D01*
X118267341Y-112872659D01*
X118160995Y-112743078D01*
X118081977Y-112595244D01*
X118033313Y-112434821D01*
X118016883Y-112268000D01*
X118033313Y-112101179D01*
X118033314Y-112101175D01*
X118081975Y-111940761D01*
X118081976Y-111940759D01*
X118081977Y-111940756D01*
X118160995Y-111792922D01*
X118267341Y-111663341D01*
X118396922Y-111556995D01*
X118544756Y-111477977D01*
X118544759Y-111477976D01*
X118544761Y-111477975D01*
X118705175Y-111429314D01*
X118705176Y-111429314D01*
X118705179Y-111429313D01*
X118830196Y-111417000D01*
X118913804Y-111417000D01*
X119038821Y-111429313D01*
X119038821Y-111429313D01*
G37*
G36*
X111418821Y-111429313D02*
X111418824Y-111429314D01*
X111418825Y-111429314D01*
X111579239Y-111477975D01*
X111579241Y-111477976D01*
X111579244Y-111477977D01*
X111727078Y-111556995D01*
X111856659Y-111663341D01*
X111963005Y-111792922D01*
X112042023Y-111940756D01*
X112042024Y-111940759D01*
X112042025Y-111940761D01*
X112090686Y-112101175D01*
X112090687Y-112101179D01*
X112107117Y-112268000D01*
X112090687Y-112434821D01*
X112042023Y-112595244D01*
X111963005Y-112743078D01*
X111856659Y-112872659D01*
X111727078Y-112979005D01*
X111579244Y-113058023D01*
X111579241Y-113058024D01*
X111579239Y-113058025D01*
X111418825Y-113106686D01*
X111418824Y-113106686D01*
X111418821Y-113106687D01*
X111293804Y-113119000D01*
X111210196Y-113119000D01*
X111085179Y-113106687D01*
X111085176Y-113106686D01*
X111085175Y-113106686D01*
X110924761Y-113058025D01*
X110924759Y-113058024D01*
X110924756Y-113058023D01*
X110776922Y-112979005D01*
X110647341Y-112872659D01*
X110540995Y-112743078D01*
X110461977Y-112595244D01*
X110413313Y-112434821D01*
X110396883Y-112268000D01*
X110413313Y-112101179D01*
X110413314Y-112101175D01*
X110461975Y-111940761D01*
X110461976Y-111940759D01*
X110461977Y-111940756D01*
X110540995Y-111792922D01*
X110647341Y-111663341D01*
X110776922Y-111556995D01*
X110924756Y-111477977D01*
X110924759Y-111477976D01*
X110924761Y-111477975D01*
X111085175Y-111429314D01*
X111085176Y-111429314D01*
X111085179Y-111429313D01*
X111210196Y-111417000D01*
X111293804Y-111417000D01*
X111418821Y-111429313D01*
X111418821Y-111429313D01*
G37*
G36*
X164970903Y-110421587D02*
X165128068Y-110486687D01*
X165269513Y-110581198D01*
X165389802Y-110701487D01*
X165484313Y-110842932D01*
X165549413Y-111000097D01*
X165582600Y-111166943D01*
X165582600Y-111337057D01*
X165549413Y-111503903D01*
X165484313Y-111661068D01*
X165389802Y-111802513D01*
X165269513Y-111922802D01*
X165128068Y-112017313D01*
X164970903Y-112082413D01*
X164804057Y-112115600D01*
X164633943Y-112115600D01*
X164467097Y-112082413D01*
X164309932Y-112017313D01*
X164168487Y-111922802D01*
X164048198Y-111802513D01*
X163953687Y-111661068D01*
X163888587Y-111503903D01*
X163855400Y-111337057D01*
X163855400Y-111166943D01*
X163888587Y-111000097D01*
X163953687Y-110842932D01*
X164048198Y-110701487D01*
X164168487Y-110581198D01*
X164309932Y-110486687D01*
X164467097Y-110421587D01*
X164633943Y-110388400D01*
X164804057Y-110388400D01*
X164970903Y-110421587D01*
X164970903Y-110421587D01*
G37*
G36*
X179448903Y-110421587D02*
X179606068Y-110486687D01*
X179747513Y-110581198D01*
X179867802Y-110701487D01*
X179962313Y-110842932D01*
X180027413Y-111000097D01*
X180060600Y-111166943D01*
X180060600Y-111337057D01*
X180027413Y-111503903D01*
X179962313Y-111661068D01*
X179867802Y-111802513D01*
X179747513Y-111922802D01*
X179606068Y-112017313D01*
X179448903Y-112082413D01*
X179282057Y-112115600D01*
X179111943Y-112115600D01*
X178945097Y-112082413D01*
X178787932Y-112017313D01*
X178646487Y-111922802D01*
X178526198Y-111802513D01*
X178431687Y-111661068D01*
X178366587Y-111503903D01*
X178333400Y-111337057D01*
X178333400Y-111166943D01*
X178366587Y-111000097D01*
X178431687Y-110842932D01*
X178526198Y-110701487D01*
X178646487Y-110581198D01*
X178787932Y-110486687D01*
X178945097Y-110421587D01*
X179111943Y-110388400D01*
X179282057Y-110388400D01*
X179448903Y-110421587D01*
X179448903Y-110421587D01*
G37*
G36*
X112103000Y-110579000D02*
X110401000Y-110579000D01*
X110401000Y-108877000D01*
X112103000Y-108877000D01*
X112103000Y-110579000D01*
X112103000Y-110579000D01*
G37*
G36*
X119038821Y-108889313D02*
X119038824Y-108889314D01*
X119038825Y-108889314D01*
X119199239Y-108937975D01*
X119199241Y-108937976D01*
X119199244Y-108937977D01*
X119347078Y-109016995D01*
X119476659Y-109123341D01*
X119583005Y-109252922D01*
X119662023Y-109400756D01*
X119662024Y-109400759D01*
X119662025Y-109400761D01*
X119710686Y-109561175D01*
X119710687Y-109561179D01*
X119727117Y-109728000D01*
X119710687Y-109894821D01*
X119662023Y-110055244D01*
X119583005Y-110203078D01*
X119476659Y-110332659D01*
X119347078Y-110439005D01*
X119199244Y-110518023D01*
X119199241Y-110518024D01*
X119199239Y-110518025D01*
X119038825Y-110566686D01*
X119038824Y-110566686D01*
X119038821Y-110566687D01*
X118913804Y-110579000D01*
X118830196Y-110579000D01*
X118705179Y-110566687D01*
X118705176Y-110566686D01*
X118705175Y-110566686D01*
X118544761Y-110518025D01*
X118544759Y-110518024D01*
X118544756Y-110518023D01*
X118396922Y-110439005D01*
X118267341Y-110332659D01*
X118160995Y-110203078D01*
X118081977Y-110055244D01*
X118033313Y-109894821D01*
X118016883Y-109728000D01*
X118033313Y-109561179D01*
X118033314Y-109561175D01*
X118081975Y-109400761D01*
X118081976Y-109400759D01*
X118081977Y-109400756D01*
X118160995Y-109252922D01*
X118267341Y-109123341D01*
X118396922Y-109016995D01*
X118544756Y-108937977D01*
X118544759Y-108937976D01*
X118544761Y-108937975D01*
X118705175Y-108889314D01*
X118705176Y-108889314D01*
X118705179Y-108889313D01*
X118830196Y-108877000D01*
X118913804Y-108877000D01*
X119038821Y-108889313D01*
X119038821Y-108889313D01*
G37*
G36*
X179448903Y-107881587D02*
X179606068Y-107946687D01*
X179747513Y-108041198D01*
X179867802Y-108161487D01*
X179962313Y-108302932D01*
X180027413Y-108460097D01*
X180060600Y-108626943D01*
X180060600Y-108797057D01*
X180027413Y-108963903D01*
X179962313Y-109121068D01*
X179867802Y-109262513D01*
X179747513Y-109382802D01*
X179606068Y-109477313D01*
X179448903Y-109542413D01*
X179282057Y-109575600D01*
X179111943Y-109575600D01*
X178945097Y-109542413D01*
X178787932Y-109477313D01*
X178646487Y-109382802D01*
X178526198Y-109262513D01*
X178431687Y-109121068D01*
X178366587Y-108963903D01*
X178333400Y-108797057D01*
X178333400Y-108626943D01*
X178366587Y-108460097D01*
X178431687Y-108302932D01*
X178526198Y-108161487D01*
X178646487Y-108041198D01*
X178787932Y-107946687D01*
X178945097Y-107881587D01*
X179111943Y-107848400D01*
X179282057Y-107848400D01*
X179448903Y-107881587D01*
X179448903Y-107881587D01*
G37*
G36*
X179448903Y-105341587D02*
X179606068Y-105406687D01*
X179747513Y-105501198D01*
X179867802Y-105621487D01*
X179962313Y-105762932D01*
X180027413Y-105920097D01*
X180060600Y-106086943D01*
X180060600Y-106257057D01*
X180027413Y-106423903D01*
X179962313Y-106581068D01*
X179867802Y-106722513D01*
X179747513Y-106842802D01*
X179606068Y-106937313D01*
X179448903Y-107002413D01*
X179282057Y-107035600D01*
X179111943Y-107035600D01*
X178945097Y-107002413D01*
X178787932Y-106937313D01*
X178646487Y-106842802D01*
X178526198Y-106722513D01*
X178431687Y-106581068D01*
X178366587Y-106423903D01*
X178333400Y-106257057D01*
X178333400Y-106086943D01*
X178366587Y-105920097D01*
X178431687Y-105762932D01*
X178526198Y-105621487D01*
X178646487Y-105501198D01*
X178787932Y-105406687D01*
X178945097Y-105341587D01*
X179111943Y-105308400D01*
X179282057Y-105308400D01*
X179448903Y-105341587D01*
X179448903Y-105341587D01*
G37*
G36*
X164970903Y-105341587D02*
X165128068Y-105406687D01*
X165269513Y-105501198D01*
X165389802Y-105621487D01*
X165484313Y-105762932D01*
X165549413Y-105920097D01*
X165582600Y-106086943D01*
X165582600Y-106257057D01*
X165549413Y-106423903D01*
X165484313Y-106581068D01*
X165389802Y-106722513D01*
X165269513Y-106842802D01*
X165128068Y-106937313D01*
X164970903Y-107002413D01*
X164804057Y-107035600D01*
X164633943Y-107035600D01*
X164467097Y-107002413D01*
X164309932Y-106937313D01*
X164168487Y-106842802D01*
X164048198Y-106722513D01*
X163953687Y-106581068D01*
X163888587Y-106423903D01*
X163855400Y-106257057D01*
X163855400Y-106086943D01*
X163888587Y-105920097D01*
X163953687Y-105762932D01*
X164048198Y-105621487D01*
X164168487Y-105501198D01*
X164309932Y-105406687D01*
X164467097Y-105341587D01*
X164633943Y-105308400D01*
X164804057Y-105308400D01*
X164970903Y-105341587D01*
X164970903Y-105341587D01*
G37*
G36*
X150026821Y-104317313D02*
X150026824Y-104317314D01*
X150026825Y-104317314D01*
X150187239Y-104365975D01*
X150187241Y-104365976D01*
X150187244Y-104365977D01*
X150335078Y-104444995D01*
X150464659Y-104551341D01*
X150571005Y-104680922D01*
X150650023Y-104828756D01*
X150698687Y-104989179D01*
X150715117Y-105156000D01*
X150698687Y-105322821D01*
X150698686Y-105322824D01*
X150698686Y-105322825D01*
X150673247Y-105406687D01*
X150650023Y-105483244D01*
X150571005Y-105631078D01*
X150464659Y-105760659D01*
X150335078Y-105867005D01*
X150187244Y-105946023D01*
X150187241Y-105946024D01*
X150187239Y-105946025D01*
X150026825Y-105994686D01*
X150026824Y-105994686D01*
X150026821Y-105994687D01*
X149901804Y-106007000D01*
X149818196Y-106007000D01*
X149693179Y-105994687D01*
X149693176Y-105994686D01*
X149693175Y-105994686D01*
X149532761Y-105946025D01*
X149532759Y-105946024D01*
X149532756Y-105946023D01*
X149384922Y-105867005D01*
X149255341Y-105760659D01*
X149148995Y-105631078D01*
X149069977Y-105483244D01*
X149046754Y-105406687D01*
X149021314Y-105322825D01*
X149021314Y-105322824D01*
X149021313Y-105322821D01*
X149004883Y-105156000D01*
X149021313Y-104989179D01*
X149069977Y-104828756D01*
X149148995Y-104680922D01*
X149255341Y-104551341D01*
X149384922Y-104444995D01*
X149532756Y-104365977D01*
X149532759Y-104365976D01*
X149532761Y-104365975D01*
X149693175Y-104317314D01*
X149693176Y-104317314D01*
X149693179Y-104317313D01*
X149818196Y-104305000D01*
X149901804Y-104305000D01*
X150026821Y-104317313D01*
X150026821Y-104317313D01*
G37*
G36*
X152566821Y-104317313D02*
X152566824Y-104317314D01*
X152566825Y-104317314D01*
X152727239Y-104365975D01*
X152727241Y-104365976D01*
X152727244Y-104365977D01*
X152875078Y-104444995D01*
X153004659Y-104551341D01*
X153111005Y-104680922D01*
X153190023Y-104828756D01*
X153238687Y-104989179D01*
X153255117Y-105156000D01*
X153238687Y-105322821D01*
X153238686Y-105322824D01*
X153238686Y-105322825D01*
X153213247Y-105406687D01*
X153190023Y-105483244D01*
X153111005Y-105631078D01*
X153004659Y-105760659D01*
X152875078Y-105867005D01*
X152727244Y-105946023D01*
X152727241Y-105946024D01*
X152727239Y-105946025D01*
X152566825Y-105994686D01*
X152566824Y-105994686D01*
X152566821Y-105994687D01*
X152441804Y-106007000D01*
X152358196Y-106007000D01*
X152233179Y-105994687D01*
X152233176Y-105994686D01*
X152233175Y-105994686D01*
X152072761Y-105946025D01*
X152072759Y-105946024D01*
X152072756Y-105946023D01*
X151924922Y-105867005D01*
X151795341Y-105760659D01*
X151688995Y-105631078D01*
X151609977Y-105483244D01*
X151586754Y-105406687D01*
X151561314Y-105322825D01*
X151561314Y-105322824D01*
X151561313Y-105322821D01*
X151544883Y-105156000D01*
X151561313Y-104989179D01*
X151609977Y-104828756D01*
X151688995Y-104680922D01*
X151795341Y-104551341D01*
X151924922Y-104444995D01*
X152072756Y-104365977D01*
X152072759Y-104365976D01*
X152072761Y-104365975D01*
X152233175Y-104317314D01*
X152233176Y-104317314D01*
X152233179Y-104317313D01*
X152358196Y-104305000D01*
X152441804Y-104305000D01*
X152566821Y-104317313D01*
X152566821Y-104317313D01*
G37*
G36*
X147486821Y-104317313D02*
X147486824Y-104317314D01*
X147486825Y-104317314D01*
X147647239Y-104365975D01*
X147647241Y-104365976D01*
X147647244Y-104365977D01*
X147795078Y-104444995D01*
X147924659Y-104551341D01*
X148031005Y-104680922D01*
X148110023Y-104828756D01*
X148158687Y-104989179D01*
X148175117Y-105156000D01*
X148158687Y-105322821D01*
X148158686Y-105322824D01*
X148158686Y-105322825D01*
X148133247Y-105406687D01*
X148110023Y-105483244D01*
X148031005Y-105631078D01*
X147924659Y-105760659D01*
X147795078Y-105867005D01*
X147647244Y-105946023D01*
X147647241Y-105946024D01*
X147647239Y-105946025D01*
X147486825Y-105994686D01*
X147486824Y-105994686D01*
X147486821Y-105994687D01*
X147361804Y-106007000D01*
X147278196Y-106007000D01*
X147153179Y-105994687D01*
X147153176Y-105994686D01*
X147153175Y-105994686D01*
X146992761Y-105946025D01*
X146992759Y-105946024D01*
X146992756Y-105946023D01*
X146844922Y-105867005D01*
X146715341Y-105760659D01*
X146608995Y-105631078D01*
X146529977Y-105483244D01*
X146506754Y-105406687D01*
X146481314Y-105322825D01*
X146481314Y-105322824D01*
X146481313Y-105322821D01*
X146464883Y-105156000D01*
X146481313Y-104989179D01*
X146529977Y-104828756D01*
X146608995Y-104680922D01*
X146715341Y-104551341D01*
X146844922Y-104444995D01*
X146992756Y-104365977D01*
X146992759Y-104365976D01*
X146992761Y-104365975D01*
X147153175Y-104317314D01*
X147153176Y-104317314D01*
X147153179Y-104317313D01*
X147278196Y-104305000D01*
X147361804Y-104305000D01*
X147486821Y-104317313D01*
X147486821Y-104317313D01*
G37*
G36*
X144946821Y-104317313D02*
X144946824Y-104317314D01*
X144946825Y-104317314D01*
X145107239Y-104365975D01*
X145107241Y-104365976D01*
X145107244Y-104365977D01*
X145255078Y-104444995D01*
X145384659Y-104551341D01*
X145491005Y-104680922D01*
X145570023Y-104828756D01*
X145618687Y-104989179D01*
X145635117Y-105156000D01*
X145618687Y-105322821D01*
X145618686Y-105322824D01*
X145618686Y-105322825D01*
X145593247Y-105406687D01*
X145570023Y-105483244D01*
X145491005Y-105631078D01*
X145384659Y-105760659D01*
X145255078Y-105867005D01*
X145107244Y-105946023D01*
X145107241Y-105946024D01*
X145107239Y-105946025D01*
X144946825Y-105994686D01*
X144946824Y-105994686D01*
X144946821Y-105994687D01*
X144821804Y-106007000D01*
X144738196Y-106007000D01*
X144613179Y-105994687D01*
X144613176Y-105994686D01*
X144613175Y-105994686D01*
X144452761Y-105946025D01*
X144452759Y-105946024D01*
X144452756Y-105946023D01*
X144304922Y-105867005D01*
X144175341Y-105760659D01*
X144068995Y-105631078D01*
X143989977Y-105483244D01*
X143966754Y-105406687D01*
X143941314Y-105322825D01*
X143941314Y-105322824D01*
X143941313Y-105322821D01*
X143924883Y-105156000D01*
X143941313Y-104989179D01*
X143989977Y-104828756D01*
X144068995Y-104680922D01*
X144175341Y-104551341D01*
X144304922Y-104444995D01*
X144452756Y-104365977D01*
X144452759Y-104365976D01*
X144452761Y-104365975D01*
X144613175Y-104317314D01*
X144613176Y-104317314D01*
X144613179Y-104317313D01*
X144738196Y-104305000D01*
X144821804Y-104305000D01*
X144946821Y-104317313D01*
X144946821Y-104317313D01*
G37*
G36*
X139866821Y-104317313D02*
X139866824Y-104317314D01*
X139866825Y-104317314D01*
X140027239Y-104365975D01*
X140027241Y-104365976D01*
X140027244Y-104365977D01*
X140175078Y-104444995D01*
X140304659Y-104551341D01*
X140411005Y-104680922D01*
X140490023Y-104828756D01*
X140538687Y-104989179D01*
X140555117Y-105156000D01*
X140538687Y-105322821D01*
X140538686Y-105322824D01*
X140538686Y-105322825D01*
X140513247Y-105406687D01*
X140490023Y-105483244D01*
X140411005Y-105631078D01*
X140304659Y-105760659D01*
X140175078Y-105867005D01*
X140027244Y-105946023D01*
X140027241Y-105946024D01*
X140027239Y-105946025D01*
X139866825Y-105994686D01*
X139866824Y-105994686D01*
X139866821Y-105994687D01*
X139741804Y-106007000D01*
X139658196Y-106007000D01*
X139533179Y-105994687D01*
X139533176Y-105994686D01*
X139533175Y-105994686D01*
X139372761Y-105946025D01*
X139372759Y-105946024D01*
X139372756Y-105946023D01*
X139224922Y-105867005D01*
X139095341Y-105760659D01*
X138988995Y-105631078D01*
X138909977Y-105483244D01*
X138886754Y-105406687D01*
X138861314Y-105322825D01*
X138861314Y-105322824D01*
X138861313Y-105322821D01*
X138844883Y-105156000D01*
X138861313Y-104989179D01*
X138909977Y-104828756D01*
X138988995Y-104680922D01*
X139095341Y-104551341D01*
X139224922Y-104444995D01*
X139372756Y-104365977D01*
X139372759Y-104365976D01*
X139372761Y-104365975D01*
X139533175Y-104317314D01*
X139533176Y-104317314D01*
X139533179Y-104317313D01*
X139658196Y-104305000D01*
X139741804Y-104305000D01*
X139866821Y-104317313D01*
X139866821Y-104317313D01*
G37*
G36*
X137326821Y-104317313D02*
X137326824Y-104317314D01*
X137326825Y-104317314D01*
X137487239Y-104365975D01*
X137487241Y-104365976D01*
X137487244Y-104365977D01*
X137635078Y-104444995D01*
X137764659Y-104551341D01*
X137871005Y-104680922D01*
X137950023Y-104828756D01*
X137998687Y-104989179D01*
X138015117Y-105156000D01*
X137998687Y-105322821D01*
X137998686Y-105322824D01*
X137998686Y-105322825D01*
X137973247Y-105406687D01*
X137950023Y-105483244D01*
X137871005Y-105631078D01*
X137764659Y-105760659D01*
X137635078Y-105867005D01*
X137487244Y-105946023D01*
X137487241Y-105946024D01*
X137487239Y-105946025D01*
X137326825Y-105994686D01*
X137326824Y-105994686D01*
X137326821Y-105994687D01*
X137201804Y-106007000D01*
X137118196Y-106007000D01*
X136993179Y-105994687D01*
X136993176Y-105994686D01*
X136993175Y-105994686D01*
X136832761Y-105946025D01*
X136832759Y-105946024D01*
X136832756Y-105946023D01*
X136684922Y-105867005D01*
X136555341Y-105760659D01*
X136448995Y-105631078D01*
X136369977Y-105483244D01*
X136346754Y-105406687D01*
X136321314Y-105322825D01*
X136321314Y-105322824D01*
X136321313Y-105322821D01*
X136304883Y-105156000D01*
X136321313Y-104989179D01*
X136369977Y-104828756D01*
X136448995Y-104680922D01*
X136555341Y-104551341D01*
X136684922Y-104444995D01*
X136832756Y-104365977D01*
X136832759Y-104365976D01*
X136832761Y-104365975D01*
X136993175Y-104317314D01*
X136993176Y-104317314D01*
X136993179Y-104317313D01*
X137118196Y-104305000D01*
X137201804Y-104305000D01*
X137326821Y-104317313D01*
X137326821Y-104317313D01*
G37*
G36*
X134786821Y-104317313D02*
X134786824Y-104317314D01*
X134786825Y-104317314D01*
X134947239Y-104365975D01*
X134947241Y-104365976D01*
X134947244Y-104365977D01*
X135095078Y-104444995D01*
X135224659Y-104551341D01*
X135331005Y-104680922D01*
X135410023Y-104828756D01*
X135458687Y-104989179D01*
X135475117Y-105156000D01*
X135458687Y-105322821D01*
X135458686Y-105322824D01*
X135458686Y-105322825D01*
X135433247Y-105406687D01*
X135410023Y-105483244D01*
X135331005Y-105631078D01*
X135224659Y-105760659D01*
X135095078Y-105867005D01*
X134947244Y-105946023D01*
X134947241Y-105946024D01*
X134947239Y-105946025D01*
X134786825Y-105994686D01*
X134786824Y-105994686D01*
X134786821Y-105994687D01*
X134661804Y-106007000D01*
X134578196Y-106007000D01*
X134453179Y-105994687D01*
X134453176Y-105994686D01*
X134453175Y-105994686D01*
X134292761Y-105946025D01*
X134292759Y-105946024D01*
X134292756Y-105946023D01*
X134144922Y-105867005D01*
X134015341Y-105760659D01*
X133908995Y-105631078D01*
X133829977Y-105483244D01*
X133806754Y-105406687D01*
X133781314Y-105322825D01*
X133781314Y-105322824D01*
X133781313Y-105322821D01*
X133764883Y-105156000D01*
X133781313Y-104989179D01*
X133829977Y-104828756D01*
X133908995Y-104680922D01*
X134015341Y-104551341D01*
X134144922Y-104444995D01*
X134292756Y-104365977D01*
X134292759Y-104365976D01*
X134292761Y-104365975D01*
X134453175Y-104317314D01*
X134453176Y-104317314D01*
X134453179Y-104317313D01*
X134578196Y-104305000D01*
X134661804Y-104305000D01*
X134786821Y-104317313D01*
X134786821Y-104317313D01*
G37*
G36*
X132931000Y-106007000D02*
X131229000Y-106007000D01*
X131229000Y-104305000D01*
X132931000Y-104305000D01*
X132931000Y-106007000D01*
X132931000Y-106007000D01*
G37*
G36*
X142406821Y-104317313D02*
X142406824Y-104317314D01*
X142406825Y-104317314D01*
X142567239Y-104365975D01*
X142567241Y-104365976D01*
X142567244Y-104365977D01*
X142715078Y-104444995D01*
X142844659Y-104551341D01*
X142951005Y-104680922D01*
X143030023Y-104828756D01*
X143078687Y-104989179D01*
X143095117Y-105156000D01*
X143078687Y-105322821D01*
X143078686Y-105322824D01*
X143078686Y-105322825D01*
X143053247Y-105406687D01*
X143030023Y-105483244D01*
X142951005Y-105631078D01*
X142844659Y-105760659D01*
X142715078Y-105867005D01*
X142567244Y-105946023D01*
X142567241Y-105946024D01*
X142567239Y-105946025D01*
X142406825Y-105994686D01*
X142406824Y-105994686D01*
X142406821Y-105994687D01*
X142281804Y-106007000D01*
X142198196Y-106007000D01*
X142073179Y-105994687D01*
X142073176Y-105994686D01*
X142073175Y-105994686D01*
X141912761Y-105946025D01*
X141912759Y-105946024D01*
X141912756Y-105946023D01*
X141764922Y-105867005D01*
X141635341Y-105760659D01*
X141528995Y-105631078D01*
X141449977Y-105483244D01*
X141426754Y-105406687D01*
X141401314Y-105322825D01*
X141401314Y-105322824D01*
X141401313Y-105322821D01*
X141384883Y-105156000D01*
X141401313Y-104989179D01*
X141449977Y-104828756D01*
X141528995Y-104680922D01*
X141635341Y-104551341D01*
X141764922Y-104444995D01*
X141912756Y-104365977D01*
X141912759Y-104365976D01*
X141912761Y-104365975D01*
X142073175Y-104317314D01*
X142073176Y-104317314D01*
X142073179Y-104317313D01*
X142198196Y-104305000D01*
X142281804Y-104305000D01*
X142406821Y-104317313D01*
X142406821Y-104317313D01*
G37*
G36*
X172215214Y-100422751D02*
X172534166Y-100554865D01*
X172821220Y-100746669D01*
X173065331Y-100990780D01*
X173257135Y-101277834D01*
X173389249Y-101596786D01*
X173456600Y-101935383D01*
X173456600Y-102280617D01*
X173389249Y-102619214D01*
X173257135Y-102938166D01*
X173065331Y-103225220D01*
X172821220Y-103469331D01*
X172534166Y-103661135D01*
X172215214Y-103793249D01*
X171876617Y-103860600D01*
X171531383Y-103860600D01*
X171192786Y-103793249D01*
X170873834Y-103661135D01*
X170586780Y-103469331D01*
X170342669Y-103225220D01*
X170150865Y-102938166D01*
X170018751Y-102619214D01*
X169951400Y-102280617D01*
X169951400Y-101935383D01*
X170018751Y-101596786D01*
X170150865Y-101277834D01*
X170342669Y-100990780D01*
X170586780Y-100746669D01*
X170873834Y-100554865D01*
X171192786Y-100422751D01*
X171531383Y-100355400D01*
X171876617Y-100355400D01*
X172215214Y-100422751D01*
X172215214Y-100422751D01*
G37*
G36*
X178206373Y-96001024D02*
X178407589Y-96041048D01*
X178786671Y-96198069D01*
X178813858Y-96216235D01*
X179127838Y-96426030D01*
X179417970Y-96716162D01*
X179417972Y-96716165D01*
X179645931Y-97057329D01*
X179802952Y-97436411D01*
X179883000Y-97838842D01*
X179883000Y-98249158D01*
X179802952Y-98651589D01*
X179645931Y-99030671D01*
X179520300Y-99218690D01*
X179417970Y-99371838D01*
X179127838Y-99661970D01*
X179127835Y-99661972D01*
X178786671Y-99889931D01*
X178407589Y-100046952D01*
X178261428Y-100076025D01*
X178005159Y-100127000D01*
X177594841Y-100127000D01*
X177338572Y-100076025D01*
X177192411Y-100046952D01*
X176813329Y-99889931D01*
X176472165Y-99661972D01*
X176472162Y-99661970D01*
X176182030Y-99371838D01*
X176079700Y-99218690D01*
X175954069Y-99030671D01*
X175797048Y-98651589D01*
X175717000Y-98249158D01*
X175717000Y-97838842D01*
X175797048Y-97436411D01*
X175954069Y-97057329D01*
X176182028Y-96716165D01*
X176182030Y-96716162D01*
X176472162Y-96426030D01*
X176786142Y-96216235D01*
X176813329Y-96198069D01*
X177192411Y-96041048D01*
X177393627Y-96001024D01*
X177594841Y-95961000D01*
X178005159Y-95961000D01*
X178206373Y-96001024D01*
X178206373Y-96001024D01*
G37*
G36*
X142460397Y-98210571D02*
X142633467Y-98282259D01*
X142789231Y-98386337D01*
X142921689Y-98518795D01*
X143025767Y-98674559D01*
X143097455Y-98847629D01*
X143134001Y-99031358D01*
X143134001Y-99218692D01*
X143097455Y-99402421D01*
X143025767Y-99575491D01*
X142921689Y-99731255D01*
X142789231Y-99863713D01*
X142633467Y-99967791D01*
X142460397Y-100039479D01*
X142276668Y-100076025D01*
X142089334Y-100076025D01*
X141905605Y-100039479D01*
X141732535Y-99967791D01*
X141576771Y-99863713D01*
X141444313Y-99731255D01*
X141340235Y-99575491D01*
X141268547Y-99402421D01*
X141232001Y-99218692D01*
X141232001Y-99031358D01*
X141268547Y-98847629D01*
X141340235Y-98674559D01*
X141444313Y-98518795D01*
X141576771Y-98386337D01*
X141732535Y-98282259D01*
X141905605Y-98210571D01*
X142089334Y-98174025D01*
X142276668Y-98174025D01*
X142460397Y-98210571D01*
X142460397Y-98210571D01*
G37*
G36*
X150080397Y-98210571D02*
X150253467Y-98282259D01*
X150409231Y-98386337D01*
X150541689Y-98518795D01*
X150645767Y-98674559D01*
X150717455Y-98847629D01*
X150754001Y-99031358D01*
X150754001Y-99218692D01*
X150717455Y-99402421D01*
X150645767Y-99575491D01*
X150541689Y-99731255D01*
X150409231Y-99863713D01*
X150253467Y-99967791D01*
X150080397Y-100039479D01*
X149896668Y-100076025D01*
X149709334Y-100076025D01*
X149525605Y-100039479D01*
X149352535Y-99967791D01*
X149196771Y-99863713D01*
X149064313Y-99731255D01*
X148960235Y-99575491D01*
X148888547Y-99402421D01*
X148852001Y-99218692D01*
X148852001Y-99031358D01*
X148888547Y-98847629D01*
X148960235Y-98674559D01*
X149064313Y-98518795D01*
X149196771Y-98386337D01*
X149352535Y-98282259D01*
X149525605Y-98210571D01*
X149709334Y-98174025D01*
X149896668Y-98174025D01*
X150080397Y-98210571D01*
X150080397Y-98210571D01*
G37*
G36*
X147540397Y-98210571D02*
X147713467Y-98282259D01*
X147869231Y-98386337D01*
X148001689Y-98518795D01*
X148105767Y-98674559D01*
X148177455Y-98847629D01*
X148214001Y-99031358D01*
X148214001Y-99218692D01*
X148177455Y-99402421D01*
X148105767Y-99575491D01*
X148001689Y-99731255D01*
X147869231Y-99863713D01*
X147713467Y-99967791D01*
X147540397Y-100039479D01*
X147356668Y-100076025D01*
X147169334Y-100076025D01*
X146985605Y-100039479D01*
X146812535Y-99967791D01*
X146656771Y-99863713D01*
X146524313Y-99731255D01*
X146420235Y-99575491D01*
X146348547Y-99402421D01*
X146312001Y-99218692D01*
X146312001Y-99031358D01*
X146348547Y-98847629D01*
X146420235Y-98674559D01*
X146524313Y-98518795D01*
X146656771Y-98386337D01*
X146812535Y-98282259D01*
X146985605Y-98210571D01*
X147169334Y-98174025D01*
X147356668Y-98174025D01*
X147540397Y-98210571D01*
X147540397Y-98210571D01*
G37*
G36*
X132300397Y-98210571D02*
X132473467Y-98282259D01*
X132629231Y-98386337D01*
X132761689Y-98518795D01*
X132865767Y-98674559D01*
X132937455Y-98847629D01*
X132974001Y-99031358D01*
X132974001Y-99218692D01*
X132937455Y-99402421D01*
X132865767Y-99575491D01*
X132761689Y-99731255D01*
X132629231Y-99863713D01*
X132473467Y-99967791D01*
X132300397Y-100039479D01*
X132116668Y-100076025D01*
X131929334Y-100076025D01*
X131745605Y-100039479D01*
X131572535Y-99967791D01*
X131416771Y-99863713D01*
X131284313Y-99731255D01*
X131180235Y-99575491D01*
X131108547Y-99402421D01*
X131072001Y-99218692D01*
X131072001Y-99031358D01*
X131108547Y-98847629D01*
X131180235Y-98674559D01*
X131284313Y-98518795D01*
X131416771Y-98386337D01*
X131572535Y-98282259D01*
X131745605Y-98210571D01*
X131929334Y-98174025D01*
X132116668Y-98174025D01*
X132300397Y-98210571D01*
X132300397Y-98210571D01*
G37*
G36*
X134840397Y-98210571D02*
X135013467Y-98282259D01*
X135169231Y-98386337D01*
X135301689Y-98518795D01*
X135405767Y-98674559D01*
X135477455Y-98847629D01*
X135514001Y-99031358D01*
X135514001Y-99218692D01*
X135477455Y-99402421D01*
X135405767Y-99575491D01*
X135301689Y-99731255D01*
X135169231Y-99863713D01*
X135013467Y-99967791D01*
X134840397Y-100039479D01*
X134656668Y-100076025D01*
X134469334Y-100076025D01*
X134285605Y-100039479D01*
X134112535Y-99967791D01*
X133956771Y-99863713D01*
X133824313Y-99731255D01*
X133720235Y-99575491D01*
X133648547Y-99402421D01*
X133612001Y-99218692D01*
X133612001Y-99031358D01*
X133648547Y-98847629D01*
X133720235Y-98674559D01*
X133824313Y-98518795D01*
X133956771Y-98386337D01*
X134112535Y-98282259D01*
X134285605Y-98210571D01*
X134469334Y-98174025D01*
X134656668Y-98174025D01*
X134840397Y-98210571D01*
X134840397Y-98210571D01*
G37*
G36*
X137380397Y-98210571D02*
X137553467Y-98282259D01*
X137709231Y-98386337D01*
X137841689Y-98518795D01*
X137945767Y-98674559D01*
X138017455Y-98847629D01*
X138054001Y-99031358D01*
X138054001Y-99218692D01*
X138017455Y-99402421D01*
X137945767Y-99575491D01*
X137841689Y-99731255D01*
X137709231Y-99863713D01*
X137553467Y-99967791D01*
X137380397Y-100039479D01*
X137196668Y-100076025D01*
X137009334Y-100076025D01*
X136825605Y-100039479D01*
X136652535Y-99967791D01*
X136496771Y-99863713D01*
X136364313Y-99731255D01*
X136260235Y-99575491D01*
X136188547Y-99402421D01*
X136152001Y-99218692D01*
X136152001Y-99031358D01*
X136188547Y-98847629D01*
X136260235Y-98674559D01*
X136364313Y-98518795D01*
X136496771Y-98386337D01*
X136652535Y-98282259D01*
X136825605Y-98210571D01*
X137009334Y-98174025D01*
X137196668Y-98174025D01*
X137380397Y-98210571D01*
X137380397Y-98210571D01*
G37*
G36*
X139920397Y-98210571D02*
X140093467Y-98282259D01*
X140249231Y-98386337D01*
X140381689Y-98518795D01*
X140485767Y-98674559D01*
X140557455Y-98847629D01*
X140594001Y-99031358D01*
X140594001Y-99218692D01*
X140557455Y-99402421D01*
X140485767Y-99575491D01*
X140381689Y-99731255D01*
X140249231Y-99863713D01*
X140093467Y-99967791D01*
X139920397Y-100039479D01*
X139736668Y-100076025D01*
X139549334Y-100076025D01*
X139365605Y-100039479D01*
X139192535Y-99967791D01*
X139036771Y-99863713D01*
X138904313Y-99731255D01*
X138800235Y-99575491D01*
X138728547Y-99402421D01*
X138692001Y-99218692D01*
X138692001Y-99031358D01*
X138728547Y-98847629D01*
X138800235Y-98674559D01*
X138904313Y-98518795D01*
X139036771Y-98386337D01*
X139192535Y-98282259D01*
X139365605Y-98210571D01*
X139549334Y-98174025D01*
X139736668Y-98174025D01*
X139920397Y-98210571D01*
X139920397Y-98210571D01*
G37*
G36*
X145000397Y-98210571D02*
X145173467Y-98282259D01*
X145329231Y-98386337D01*
X145461689Y-98518795D01*
X145565767Y-98674559D01*
X145637455Y-98847629D01*
X145674001Y-99031358D01*
X145674001Y-99218692D01*
X145637455Y-99402421D01*
X145565767Y-99575491D01*
X145461689Y-99731255D01*
X145329231Y-99863713D01*
X145173467Y-99967791D01*
X145000397Y-100039479D01*
X144816668Y-100076025D01*
X144629334Y-100076025D01*
X144445605Y-100039479D01*
X144272535Y-99967791D01*
X144116771Y-99863713D01*
X143984313Y-99731255D01*
X143880235Y-99575491D01*
X143808547Y-99402421D01*
X143772001Y-99218692D01*
X143772001Y-99031358D01*
X143808547Y-98847629D01*
X143880235Y-98674559D01*
X143984313Y-98518795D01*
X144116771Y-98386337D01*
X144272535Y-98282259D01*
X144445605Y-98210571D01*
X144629334Y-98174025D01*
X144816668Y-98174025D01*
X145000397Y-98210571D01*
X145000397Y-98210571D01*
G37*
G36*
X160323765Y-95518620D02*
X160513289Y-95597123D01*
X160683855Y-95711092D01*
X160828908Y-95856145D01*
X160942877Y-96026711D01*
X161021380Y-96216235D01*
X161061400Y-96417430D01*
X161061400Y-96622570D01*
X161021380Y-96823765D01*
X160942877Y-97013289D01*
X160828908Y-97183855D01*
X160683855Y-97328908D01*
X160513289Y-97442877D01*
X160323765Y-97521380D01*
X160122570Y-97561400D01*
X159917430Y-97561400D01*
X159716235Y-97521380D01*
X159526711Y-97442877D01*
X159356145Y-97328908D01*
X159211092Y-97183855D01*
X159097123Y-97013289D01*
X159018620Y-96823765D01*
X158978600Y-96622570D01*
X158978600Y-96417430D01*
X159018620Y-96216235D01*
X159097123Y-96026711D01*
X159211092Y-95856145D01*
X159356145Y-95711092D01*
X159526711Y-95597123D01*
X159716235Y-95518620D01*
X159917430Y-95478600D01*
X160122570Y-95478600D01*
X160323765Y-95518620D01*
X160323765Y-95518620D01*
G37*
G36*
X162863765Y-95518620D02*
X163053289Y-95597123D01*
X163223855Y-95711092D01*
X163368908Y-95856145D01*
X163482877Y-96026711D01*
X163561380Y-96216235D01*
X163601400Y-96417430D01*
X163601400Y-96622570D01*
X163561380Y-96823765D01*
X163482877Y-97013289D01*
X163368908Y-97183855D01*
X163223855Y-97328908D01*
X163053289Y-97442877D01*
X162863765Y-97521380D01*
X162662570Y-97561400D01*
X162457430Y-97561400D01*
X162256235Y-97521380D01*
X162066711Y-97442877D01*
X161896145Y-97328908D01*
X161751092Y-97183855D01*
X161637123Y-97013289D01*
X161558620Y-96823765D01*
X161518600Y-96622570D01*
X161518600Y-96417430D01*
X161558620Y-96216235D01*
X161637123Y-96026711D01*
X161751092Y-95856145D01*
X161896145Y-95711092D01*
X162066711Y-95597123D01*
X162256235Y-95518620D01*
X162457430Y-95478600D01*
X162662570Y-95478600D01*
X162863765Y-95518620D01*
X162863765Y-95518620D01*
G37*
M02*
