M48
METRIC,TZ
T1C0.800
T2C1.016
T3C2.286
T4C3.048
%
G90
G05
T1
X132080Y-105156
X134620Y-105156
X137160Y-105156
X139700Y-105156
X142240Y-105156
X144780Y-105156
X147320Y-105156
X149860Y-105156
X152400Y-105156
X111252Y-109728
X111252Y-112268
X111252Y-114808
X111252Y-117348
X118872Y-109728
X118872Y-112268
X118872Y-114808
X118872Y-117348
T2
X164719Y-106172
X164719Y-111252
X179197Y-106172
X179197Y-108712
X179197Y-111252
X161544Y-121920
X164084Y-121920
X166624Y-121920
X169164Y-121920
X171704Y-121920
X174244Y-121920
X176784Y-121920
X179324Y-121920
X160020Y-96520
X162560Y-96520
X132023Y-99125
X132023Y-121985
X134563Y-99125
X134563Y-121985
X137103Y-99125
X137103Y-121985
X139643Y-99125
X139643Y-121985
X142183Y-99125
X142183Y-121985
X144723Y-99125
X144723Y-121985
X147263Y-99125
X147263Y-121985
X149803Y-99125
X149803Y-121985
X134620Y-127508
X137160Y-127508
X139700Y-127508
T3
X171704Y-102108
X171704Y-115316
T4
X177800Y-98044
X107696Y-127000
T0
M30
