G04 #@! TF.GenerationSoftware,KiCad,Pcbnew,5.0.2-bee76a0~70~ubuntu18.04.1*
G04 #@! TF.CreationDate,2019-09-20T23:32:28+01:00*
G04 #@! TF.ProjectId,Shock Sensor,53686f63-6b20-4536-956e-736f722e6b69,rev?*
G04 #@! TF.SameCoordinates,Original*
G04 #@! TF.FileFunction,Copper,L1,Top*
G04 #@! TF.FilePolarity,Positive*
%FSLAX46Y46*%
G04 Gerber Fmt 4.6, Leading zero omitted, Abs format (unit mm)*
G04 Created by KiCad (PCBNEW 5.0.2-bee76a0~70~ubuntu18.04.1) date Fri 20 Sep 2019 23:32:28 BST*
%MOMM*%
%LPD*%
G01*
G04 APERTURE LIST*
G04 #@! TA.AperFunction,ComponentPad*
%ADD10C,1.800000*%
G04 #@! TD*
G04 #@! TA.AperFunction,ComponentPad*
%ADD11C,1.879600*%
G04 #@! TD*
G04 #@! TA.AperFunction,ComponentPad*
%ADD12O,1.600000X1.600000*%
G04 #@! TD*
G04 #@! TA.AperFunction,ComponentPad*
%ADD13R,1.600000X1.600000*%
G04 #@! TD*
G04 #@! TA.AperFunction,ComponentPad*
%ADD14C,1.524000*%
G04 #@! TD*
G04 #@! TA.AperFunction,ComponentPad*
%ADD15C,3.302000*%
G04 #@! TD*
G04 #@! TA.AperFunction,ComponentPad*
%ADD16C,4.064000*%
G04 #@! TD*
G04 #@! TA.AperFunction,Conductor*
%ADD17C,0.250000*%
G04 #@! TD*
G04 #@! TA.AperFunction,Conductor*
%ADD18C,0.254000*%
G04 #@! TD*
G04 APERTURE END LIST*
D10*
G04 #@! TO.P,U1,16*
G04 #@! TO.N,+3V3*
X132023001Y-99125025D03*
G04 #@! TO.P,U1,1*
G04 #@! TO.N,+5V*
X132023001Y-121985025D03*
G04 #@! TO.P,U1,15*
G04 #@! TO.N,Net-(RN1-Pad2)*
X134563001Y-99125025D03*
G04 #@! TO.P,U1,2*
G04 #@! TO.N,GND*
X134563001Y-121985025D03*
G04 #@! TO.P,U1,14*
G04 #@! TO.N,Net-(RN1-Pad3)*
X137103001Y-99125025D03*
G04 #@! TO.P,U1,3*
G04 #@! TO.N,Net-(S1-PadB)*
X137103001Y-121985025D03*
G04 #@! TO.P,U1,13*
G04 #@! TO.N,Net-(RN1-Pad4)*
X139643001Y-99125025D03*
G04 #@! TO.P,U1,4*
G04 #@! TO.N,Net-(S1-PadA)*
X139643001Y-121985025D03*
G04 #@! TO.P,U1,12*
G04 #@! TO.N,Net-(RN1-Pad5)*
X142183001Y-99125025D03*
G04 #@! TO.P,U1,5*
G04 #@! TO.N,Net-(J2-Pad4)*
X142183001Y-121985025D03*
G04 #@! TO.P,U1,11*
G04 #@! TO.N,Net-(RN1-Pad6)*
X144723001Y-99125025D03*
G04 #@! TO.P,U1,6*
G04 #@! TO.N,Net-(J2-Pad3)*
X144723001Y-121985025D03*
G04 #@! TO.P,U1,10*
G04 #@! TO.N,Net-(U1-Pad10)*
X147263001Y-99125025D03*
G04 #@! TO.P,U1,7*
G04 #@! TO.N,Net-(J1-Pad2)*
X147263001Y-121985025D03*
G04 #@! TO.P,U1,9*
G04 #@! TO.N,Net-(J3-Pad2)*
X149803001Y-99125025D03*
G04 #@! TO.P,U1,8*
G04 #@! TO.N,Net-(U1-Pad8)*
X149803001Y-121985025D03*
G04 #@! TD*
D11*
G04 #@! TO.P,J1,1*
G04 #@! TO.N,GND*
X139700000Y-127508000D03*
G04 #@! TO.P,J1,2*
G04 #@! TO.N,Net-(J1-Pad2)*
X137160000Y-127508000D03*
G04 #@! TO.P,J1,3*
G04 #@! TO.N,+5V*
X134620000Y-127508000D03*
G04 #@! TD*
G04 #@! TO.P,J3,1*
G04 #@! TO.N,GND*
X162560000Y-96520000D03*
G04 #@! TO.P,J3,2*
G04 #@! TO.N,Net-(J3-Pad2)*
X160020000Y-96520000D03*
G04 #@! TD*
D12*
G04 #@! TO.P,RN1,9*
G04 #@! TO.N,Net-(RN1-Pad9)*
X152400000Y-105156000D03*
G04 #@! TO.P,RN1,8*
G04 #@! TO.N,Net-(RN1-Pad8)*
X149860000Y-105156000D03*
G04 #@! TO.P,RN1,7*
G04 #@! TO.N,Net-(RN1-Pad7)*
X147320000Y-105156000D03*
G04 #@! TO.P,RN1,6*
G04 #@! TO.N,Net-(RN1-Pad6)*
X144780000Y-105156000D03*
G04 #@! TO.P,RN1,5*
G04 #@! TO.N,Net-(RN1-Pad5)*
X142240000Y-105156000D03*
G04 #@! TO.P,RN1,4*
G04 #@! TO.N,Net-(RN1-Pad4)*
X139700000Y-105156000D03*
G04 #@! TO.P,RN1,3*
G04 #@! TO.N,Net-(RN1-Pad3)*
X137160000Y-105156000D03*
G04 #@! TO.P,RN1,2*
G04 #@! TO.N,Net-(RN1-Pad2)*
X134620000Y-105156000D03*
D13*
G04 #@! TO.P,RN1,1*
G04 #@! TO.N,+3V3*
X132080000Y-105156000D03*
G04 #@! TD*
D12*
G04 #@! TO.P,Address,8*
G04 #@! TO.N,Net-(RN1-Pad2)*
X118872000Y-109728000D03*
G04 #@! TO.P,Address,4*
G04 #@! TO.N,GND*
X111252000Y-117348000D03*
G04 #@! TO.P,Address,7*
G04 #@! TO.N,Net-(RN1-Pad3)*
X118872000Y-112268000D03*
G04 #@! TO.P,Address,3*
G04 #@! TO.N,GND*
X111252000Y-114808000D03*
G04 #@! TO.P,Address,6*
G04 #@! TO.N,Net-(RN1-Pad4)*
X118872000Y-114808000D03*
G04 #@! TO.P,Address,2*
G04 #@! TO.N,GND*
X111252000Y-112268000D03*
G04 #@! TO.P,Address,5*
G04 #@! TO.N,Net-(RN1-Pad5)*
X118872000Y-117348000D03*
D13*
G04 #@! TO.P,Address,1*
G04 #@! TO.N,GND*
X111252000Y-109728000D03*
G04 #@! TD*
D14*
G04 #@! TO.P,S1,A*
G04 #@! TO.N,Net-(S1-PadA)*
X179197000Y-111252000D03*
G04 #@! TO.P,S1,B*
G04 #@! TO.N,Net-(S1-PadB)*
X179197000Y-106172000D03*
G04 #@! TO.P,S1,C*
G04 #@! TO.N,GND*
X179197000Y-108712000D03*
D15*
G04 #@! TO.P,S1,P$3*
G04 #@! TO.N,N/C*
X171704000Y-102108000D03*
G04 #@! TO.P,S1,P$4*
X171704000Y-115316000D03*
D14*
G04 #@! TO.P,S1,SW+*
G04 #@! TO.N,GND*
X164719000Y-106172000D03*
G04 #@! TO.P,S1,SW-*
G04 #@! TO.N,Net-(RN1-Pad6)*
X164719000Y-111252000D03*
G04 #@! TD*
D11*
G04 #@! TO.P,J2,1*
G04 #@! TO.N,+5V*
X179324000Y-121920000D03*
G04 #@! TO.P,J2,2*
G04 #@! TO.N,GND*
X176784000Y-121920000D03*
G04 #@! TO.P,J2,3*
G04 #@! TO.N,Net-(J2-Pad3)*
X174244000Y-121920000D03*
G04 #@! TO.P,J2,4*
G04 #@! TO.N,Net-(J2-Pad4)*
X171704000Y-121920000D03*
G04 #@! TO.P,J2,5*
G04 #@! TO.N,Net-(J2-Pad5)*
X169164000Y-121920000D03*
G04 #@! TO.P,J2,6*
G04 #@! TO.N,Net-(J2-Pad6)*
X166624000Y-121920000D03*
G04 #@! TO.P,J2,7*
G04 #@! TO.N,Net-(J2-Pad7)*
X164084000Y-121920000D03*
G04 #@! TO.P,J2,8*
G04 #@! TO.N,Net-(J2-Pad8)*
X161544000Y-121920000D03*
G04 #@! TD*
D16*
G04 #@! TO.P,REF\002A\002A,1*
G04 #@! TO.N,N/C*
X107696000Y-127000000D03*
G04 #@! TD*
G04 #@! TO.P,REF\002A\002A,1*
G04 #@! TO.N,N/C*
X177800000Y-98044000D03*
G04 #@! TD*
D17*
G04 #@! TO.N,Net-(J1-Pad2)*
X137103001Y-127451001D02*
X137160000Y-127508000D01*
X137160000Y-127508000D02*
X137160000Y-125984000D01*
X137160000Y-125984000D02*
X138176000Y-124968000D01*
X138176000Y-124968000D02*
X145796000Y-124968000D01*
X145796000Y-124968000D02*
X147320000Y-123444000D01*
X147320000Y-123444000D02*
X147263001Y-123387001D01*
X147263001Y-123387001D02*
X147263001Y-121985025D01*
G04 #@! TO.N,+5V*
X132023001Y-124911001D02*
X132023001Y-121985025D01*
X134620000Y-127508000D02*
X132023001Y-124911001D01*
X174752000Y-129540000D02*
X179324000Y-124968000D01*
X135128000Y-129540000D02*
X174752000Y-129540000D01*
X179324000Y-124968000D02*
X179324000Y-121920000D01*
X134620000Y-127508000D02*
X134620000Y-129032000D01*
X134620000Y-129032000D02*
X135128000Y-129540000D01*
G04 #@! TO.N,Net-(J2-Pad3)*
X144723001Y-120960999D02*
X144723001Y-121985025D01*
X174244000Y-123444000D02*
X173228000Y-124460000D01*
X174244000Y-121920000D02*
X174244000Y-123444000D01*
X173228000Y-124460000D02*
X155956000Y-124460000D01*
X155956000Y-124460000D02*
X151384000Y-119888000D01*
X151384000Y-119888000D02*
X145796000Y-119888000D01*
X145796000Y-119888000D02*
X144723001Y-120960999D01*
G04 #@! TO.N,Net-(J2-Pad4)*
X142183001Y-121985025D02*
X142183001Y-120960999D01*
X142183001Y-120452999D02*
X142183001Y-121985025D01*
X143764000Y-118872000D02*
X142183001Y-120452999D01*
X170180000Y-118872000D02*
X143764000Y-118872000D01*
X171704000Y-121920000D02*
X171704000Y-120396000D01*
X171704000Y-120396000D02*
X170180000Y-118872000D01*
G04 #@! TO.N,Net-(J3-Pad2)*
X157414975Y-99125025D02*
X160020000Y-96520000D01*
X149803001Y-99125025D02*
X157414975Y-99125025D01*
G04 #@! TO.N,Net-(RN1-Pad6)*
X144723001Y-105099001D02*
X144780000Y-105156000D01*
X144723001Y-99125025D02*
X144723001Y-105099001D01*
X164719000Y-111252000D02*
X147320000Y-111252000D01*
X144780000Y-108712000D02*
X144780000Y-105156000D01*
X147320000Y-111252000D02*
X144780000Y-108712000D01*
G04 #@! TO.N,Net-(RN1-Pad5)*
X142183001Y-105099001D02*
X142240000Y-105156000D01*
X142183001Y-99125025D02*
X142183001Y-105099001D01*
X118872000Y-117348000D02*
X132080000Y-117348000D01*
X142240000Y-107188000D02*
X142240000Y-105156000D01*
X132080000Y-117348000D02*
X142240000Y-107188000D01*
G04 #@! TO.N,Net-(RN1-Pad4)*
X139643001Y-105099001D02*
X139700000Y-105156000D01*
X139643001Y-99125025D02*
X139643001Y-105099001D01*
X118872000Y-114808000D02*
X132080000Y-114808000D01*
X132080000Y-114808000D02*
X139700000Y-107188000D01*
X139700000Y-107188000D02*
X139700000Y-105156000D01*
G04 #@! TO.N,Net-(RN1-Pad3)*
X137160000Y-99182024D02*
X137103001Y-99125025D01*
X137103001Y-105099001D02*
X137160000Y-105156000D01*
X137103001Y-99125025D02*
X137103001Y-105099001D01*
X118872000Y-112268000D02*
X132080000Y-112268000D01*
X132080000Y-112268000D02*
X137160000Y-107188000D01*
X137160000Y-107188000D02*
X137160000Y-105156000D01*
G04 #@! TO.N,Net-(RN1-Pad2)*
X134620000Y-99182024D02*
X134563001Y-99125025D01*
X134563001Y-105099001D02*
X134620000Y-105156000D01*
X134563001Y-99125025D02*
X134563001Y-105099001D01*
X134620000Y-105156000D02*
X134620000Y-107188000D01*
X132080000Y-109728000D02*
X118872000Y-109728000D01*
X134620000Y-107188000D02*
X132080000Y-109728000D01*
G04 #@! TO.N,Net-(S1-PadB)*
X137160000Y-122042024D02*
X137103001Y-121985025D01*
G04 #@! TD*
D18*
G04 #@! TO.N,+3V3*
G36*
X182170001Y-130862000D02*
X103834000Y-130862000D01*
X103834000Y-126469501D01*
X105029000Y-126469501D01*
X105029000Y-127530499D01*
X105435026Y-128510734D01*
X106185266Y-129260974D01*
X107165501Y-129667000D01*
X108226499Y-129667000D01*
X109206734Y-129260974D01*
X109956974Y-128510734D01*
X110363000Y-127530499D01*
X110363000Y-126469501D01*
X109956974Y-125489266D01*
X109206734Y-124739026D01*
X108226499Y-124333000D01*
X107165501Y-124333000D01*
X106185266Y-124739026D01*
X105435026Y-125489266D01*
X105029000Y-126469501D01*
X103834000Y-126469501D01*
X103834000Y-121679695D01*
X130488001Y-121679695D01*
X130488001Y-122290355D01*
X130721691Y-122854532D01*
X131153494Y-123286335D01*
X131263002Y-123331695D01*
X131263001Y-124836154D01*
X131248113Y-124911001D01*
X131263001Y-124985848D01*
X131263001Y-124985852D01*
X131307097Y-125207537D01*
X131475072Y-125458930D01*
X131538531Y-125501332D01*
X133099898Y-127062700D01*
X133045200Y-127194753D01*
X133045200Y-127821247D01*
X133284949Y-128400052D01*
X133727948Y-128843051D01*
X133860001Y-128897749D01*
X133860001Y-128957149D01*
X133845112Y-129032000D01*
X133860001Y-129106852D01*
X133904097Y-129328537D01*
X134072072Y-129579929D01*
X134135527Y-129622328D01*
X134537672Y-130024475D01*
X134580071Y-130087929D01*
X134643524Y-130130327D01*
X134643526Y-130130329D01*
X134768902Y-130214102D01*
X134831463Y-130255904D01*
X135053148Y-130300000D01*
X135053152Y-130300000D01*
X135127999Y-130314888D01*
X135202846Y-130300000D01*
X174677153Y-130300000D01*
X174752000Y-130314888D01*
X174826847Y-130300000D01*
X174826852Y-130300000D01*
X175048537Y-130255904D01*
X175299929Y-130087929D01*
X175342331Y-130024470D01*
X179808476Y-125558327D01*
X179871929Y-125515929D01*
X179914327Y-125452476D01*
X179914329Y-125452474D01*
X180039903Y-125264538D01*
X180039904Y-125264537D01*
X180084000Y-125042852D01*
X180084000Y-125042848D01*
X180098888Y-124968001D01*
X180084000Y-124893154D01*
X180084000Y-123309749D01*
X180216052Y-123255051D01*
X180659051Y-122812052D01*
X180898800Y-122233247D01*
X180898800Y-121606753D01*
X180659051Y-121027948D01*
X180216052Y-120584949D01*
X179637247Y-120345200D01*
X179010753Y-120345200D01*
X178431948Y-120584949D01*
X178054000Y-120962897D01*
X177676052Y-120584949D01*
X177097247Y-120345200D01*
X176470753Y-120345200D01*
X175891948Y-120584949D01*
X175514000Y-120962897D01*
X175136052Y-120584949D01*
X174557247Y-120345200D01*
X173930753Y-120345200D01*
X173351948Y-120584949D01*
X172974000Y-120962897D01*
X172596052Y-120584949D01*
X172464000Y-120530251D01*
X172464000Y-120470846D01*
X172478888Y-120395999D01*
X172464000Y-120321152D01*
X172464000Y-120321148D01*
X172419904Y-120099463D01*
X172378102Y-120036902D01*
X172294329Y-119911526D01*
X172294327Y-119911524D01*
X172251929Y-119848071D01*
X172188476Y-119805673D01*
X170770331Y-118387530D01*
X170727929Y-118324071D01*
X170476537Y-118156096D01*
X170254852Y-118112000D01*
X170254847Y-118112000D01*
X170180000Y-118097112D01*
X170105153Y-118112000D01*
X143838846Y-118112000D01*
X143763999Y-118097112D01*
X143689152Y-118112000D01*
X143689148Y-118112000D01*
X143467463Y-118156096D01*
X143216071Y-118324071D01*
X143173671Y-118387527D01*
X141698531Y-119862668D01*
X141635072Y-119905070D01*
X141467097Y-120156463D01*
X141423001Y-120378148D01*
X141423001Y-120378152D01*
X141408113Y-120452999D01*
X141423001Y-120527846D01*
X141423001Y-120638356D01*
X141313494Y-120683715D01*
X140913001Y-121084208D01*
X140512508Y-120683715D01*
X139948331Y-120450025D01*
X139337671Y-120450025D01*
X138773494Y-120683715D01*
X138373001Y-121084208D01*
X137972508Y-120683715D01*
X137408331Y-120450025D01*
X136797671Y-120450025D01*
X136233494Y-120683715D01*
X135833001Y-121084208D01*
X135432508Y-120683715D01*
X134868331Y-120450025D01*
X134257671Y-120450025D01*
X133693494Y-120683715D01*
X133293001Y-121084208D01*
X132892508Y-120683715D01*
X132328331Y-120450025D01*
X131717671Y-120450025D01*
X131153494Y-120683715D01*
X130721691Y-121115518D01*
X130488001Y-121679695D01*
X103834000Y-121679695D01*
X103834000Y-112268000D01*
X109788887Y-112268000D01*
X109900260Y-112827909D01*
X110217423Y-113302577D01*
X110569758Y-113538000D01*
X110217423Y-113773423D01*
X109900260Y-114248091D01*
X109788887Y-114808000D01*
X109900260Y-115367909D01*
X110217423Y-115842577D01*
X110569758Y-116078000D01*
X110217423Y-116313423D01*
X109900260Y-116788091D01*
X109788887Y-117348000D01*
X109900260Y-117907909D01*
X110217423Y-118382577D01*
X110692091Y-118699740D01*
X111110667Y-118783000D01*
X111393333Y-118783000D01*
X111811909Y-118699740D01*
X112286577Y-118382577D01*
X112603740Y-117907909D01*
X112715113Y-117348000D01*
X112603740Y-116788091D01*
X112286577Y-116313423D01*
X111934242Y-116078000D01*
X112286577Y-115842577D01*
X112603740Y-115367909D01*
X112715113Y-114808000D01*
X112603740Y-114248091D01*
X112286577Y-113773423D01*
X111934242Y-113538000D01*
X112286577Y-113302577D01*
X112603740Y-112827909D01*
X112715113Y-112268000D01*
X112603740Y-111708091D01*
X112286577Y-111233423D01*
X112165894Y-111152785D01*
X112299765Y-111126157D01*
X112509809Y-110985809D01*
X112650157Y-110775765D01*
X112699440Y-110528000D01*
X112699440Y-109728000D01*
X117408887Y-109728000D01*
X117520260Y-110287909D01*
X117837423Y-110762577D01*
X118189758Y-110998000D01*
X117837423Y-111233423D01*
X117520260Y-111708091D01*
X117408887Y-112268000D01*
X117520260Y-112827909D01*
X117837423Y-113302577D01*
X118189758Y-113538000D01*
X117837423Y-113773423D01*
X117520260Y-114248091D01*
X117408887Y-114808000D01*
X117520260Y-115367909D01*
X117837423Y-115842577D01*
X118189758Y-116078000D01*
X117837423Y-116313423D01*
X117520260Y-116788091D01*
X117408887Y-117348000D01*
X117520260Y-117907909D01*
X117837423Y-118382577D01*
X118312091Y-118699740D01*
X118730667Y-118783000D01*
X119013333Y-118783000D01*
X119431909Y-118699740D01*
X119906577Y-118382577D01*
X120090043Y-118108000D01*
X132005153Y-118108000D01*
X132080000Y-118122888D01*
X132154847Y-118108000D01*
X132154852Y-118108000D01*
X132376537Y-118063904D01*
X132627929Y-117895929D01*
X132670331Y-117832470D01*
X135641515Y-114861286D01*
X169418000Y-114861286D01*
X169418000Y-115770714D01*
X169766023Y-116610915D01*
X170409085Y-117253977D01*
X171249286Y-117602000D01*
X172158714Y-117602000D01*
X172998915Y-117253977D01*
X173641977Y-116610915D01*
X173990000Y-115770714D01*
X173990000Y-114861286D01*
X173641977Y-114021085D01*
X172998915Y-113378023D01*
X172158714Y-113030000D01*
X171249286Y-113030000D01*
X170409085Y-113378023D01*
X169766023Y-114021085D01*
X169418000Y-114861286D01*
X135641515Y-114861286D01*
X142724473Y-107778329D01*
X142787929Y-107735929D01*
X142927077Y-107527680D01*
X142955904Y-107484538D01*
X142989627Y-107315000D01*
X143000000Y-107262852D01*
X143000000Y-107262848D01*
X143014888Y-107188000D01*
X143000000Y-107113152D01*
X143000000Y-106374043D01*
X143274577Y-106190577D01*
X143510000Y-105838242D01*
X143745423Y-106190577D01*
X144020001Y-106374044D01*
X144020000Y-108637153D01*
X144005112Y-108712000D01*
X144020000Y-108786847D01*
X144020000Y-108786851D01*
X144064096Y-109008536D01*
X144232071Y-109259929D01*
X144295530Y-109302331D01*
X146729673Y-111736476D01*
X146772071Y-111799929D01*
X146835524Y-111842327D01*
X146835526Y-111842329D01*
X146960902Y-111926102D01*
X147023463Y-111967904D01*
X147245148Y-112012000D01*
X147245152Y-112012000D01*
X147319999Y-112026888D01*
X147394846Y-112012000D01*
X163521700Y-112012000D01*
X163534680Y-112043337D01*
X163927663Y-112436320D01*
X164441119Y-112649000D01*
X164996881Y-112649000D01*
X165510337Y-112436320D01*
X165903320Y-112043337D01*
X166116000Y-111529881D01*
X166116000Y-110974119D01*
X165903320Y-110460663D01*
X165510337Y-110067680D01*
X164996881Y-109855000D01*
X164441119Y-109855000D01*
X163927663Y-110067680D01*
X163534680Y-110460663D01*
X163521700Y-110492000D01*
X147634803Y-110492000D01*
X145540000Y-108397199D01*
X145540000Y-106374043D01*
X145814577Y-106190577D01*
X146050000Y-105838242D01*
X146285423Y-106190577D01*
X146760091Y-106507740D01*
X147178667Y-106591000D01*
X147461333Y-106591000D01*
X147879909Y-106507740D01*
X148354577Y-106190577D01*
X148590000Y-105838242D01*
X148825423Y-106190577D01*
X149300091Y-106507740D01*
X149718667Y-106591000D01*
X150001333Y-106591000D01*
X150419909Y-106507740D01*
X150894577Y-106190577D01*
X151130000Y-105838242D01*
X151365423Y-106190577D01*
X151840091Y-106507740D01*
X152258667Y-106591000D01*
X152541333Y-106591000D01*
X152959909Y-106507740D01*
X153434577Y-106190577D01*
X153632663Y-105894119D01*
X163322000Y-105894119D01*
X163322000Y-106449881D01*
X163534680Y-106963337D01*
X163927663Y-107356320D01*
X164441119Y-107569000D01*
X164996881Y-107569000D01*
X165510337Y-107356320D01*
X165903320Y-106963337D01*
X166116000Y-106449881D01*
X166116000Y-105894119D01*
X177800000Y-105894119D01*
X177800000Y-106449881D01*
X178012680Y-106963337D01*
X178405663Y-107356320D01*
X178612513Y-107442000D01*
X178405663Y-107527680D01*
X178012680Y-107920663D01*
X177800000Y-108434119D01*
X177800000Y-108989881D01*
X178012680Y-109503337D01*
X178405663Y-109896320D01*
X178612513Y-109982000D01*
X178405663Y-110067680D01*
X178012680Y-110460663D01*
X177800000Y-110974119D01*
X177800000Y-111529881D01*
X178012680Y-112043337D01*
X178405663Y-112436320D01*
X178919119Y-112649000D01*
X179474881Y-112649000D01*
X179988337Y-112436320D01*
X180381320Y-112043337D01*
X180594000Y-111529881D01*
X180594000Y-110974119D01*
X180381320Y-110460663D01*
X179988337Y-110067680D01*
X179781487Y-109982000D01*
X179988337Y-109896320D01*
X180381320Y-109503337D01*
X180594000Y-108989881D01*
X180594000Y-108434119D01*
X180381320Y-107920663D01*
X179988337Y-107527680D01*
X179781487Y-107442000D01*
X179988337Y-107356320D01*
X180381320Y-106963337D01*
X180594000Y-106449881D01*
X180594000Y-105894119D01*
X180381320Y-105380663D01*
X179988337Y-104987680D01*
X179474881Y-104775000D01*
X178919119Y-104775000D01*
X178405663Y-104987680D01*
X178012680Y-105380663D01*
X177800000Y-105894119D01*
X166116000Y-105894119D01*
X165903320Y-105380663D01*
X165510337Y-104987680D01*
X164996881Y-104775000D01*
X164441119Y-104775000D01*
X163927663Y-104987680D01*
X163534680Y-105380663D01*
X163322000Y-105894119D01*
X153632663Y-105894119D01*
X153751740Y-105715909D01*
X153863113Y-105156000D01*
X153751740Y-104596091D01*
X153434577Y-104121423D01*
X152959909Y-103804260D01*
X152541333Y-103721000D01*
X152258667Y-103721000D01*
X151840091Y-103804260D01*
X151365423Y-104121423D01*
X151130000Y-104473758D01*
X150894577Y-104121423D01*
X150419909Y-103804260D01*
X150001333Y-103721000D01*
X149718667Y-103721000D01*
X149300091Y-103804260D01*
X148825423Y-104121423D01*
X148590000Y-104473758D01*
X148354577Y-104121423D01*
X147879909Y-103804260D01*
X147461333Y-103721000D01*
X147178667Y-103721000D01*
X146760091Y-103804260D01*
X146285423Y-104121423D01*
X146050000Y-104473758D01*
X145814577Y-104121423D01*
X145483001Y-103899871D01*
X145483001Y-101653286D01*
X169418000Y-101653286D01*
X169418000Y-102562714D01*
X169766023Y-103402915D01*
X170409085Y-104045977D01*
X171249286Y-104394000D01*
X172158714Y-104394000D01*
X172998915Y-104045977D01*
X173641977Y-103402915D01*
X173990000Y-102562714D01*
X173990000Y-101653286D01*
X173641977Y-100813085D01*
X172998915Y-100170023D01*
X172158714Y-99822000D01*
X171249286Y-99822000D01*
X170409085Y-100170023D01*
X169766023Y-100813085D01*
X169418000Y-101653286D01*
X145483001Y-101653286D01*
X145483001Y-100471694D01*
X145592508Y-100426335D01*
X145993001Y-100025842D01*
X146393494Y-100426335D01*
X146957671Y-100660025D01*
X147568331Y-100660025D01*
X148132508Y-100426335D01*
X148533001Y-100025842D01*
X148933494Y-100426335D01*
X149497671Y-100660025D01*
X150108331Y-100660025D01*
X150672508Y-100426335D01*
X151104311Y-99994532D01*
X151149670Y-99885025D01*
X157340128Y-99885025D01*
X157414975Y-99899913D01*
X157489822Y-99885025D01*
X157489827Y-99885025D01*
X157711512Y-99840929D01*
X157962904Y-99672954D01*
X158005306Y-99609495D01*
X159574700Y-98040102D01*
X159706753Y-98094800D01*
X160333247Y-98094800D01*
X160912052Y-97855051D01*
X161290000Y-97477103D01*
X161667948Y-97855051D01*
X162246753Y-98094800D01*
X162873247Y-98094800D01*
X163452052Y-97855051D01*
X163793602Y-97513501D01*
X175133000Y-97513501D01*
X175133000Y-98574499D01*
X175539026Y-99554734D01*
X176289266Y-100304974D01*
X177269501Y-100711000D01*
X178330499Y-100711000D01*
X179310734Y-100304974D01*
X180060974Y-99554734D01*
X180467000Y-98574499D01*
X180467000Y-97513501D01*
X180060974Y-96533266D01*
X179310734Y-95783026D01*
X178330499Y-95377000D01*
X177269501Y-95377000D01*
X176289266Y-95783026D01*
X175539026Y-96533266D01*
X175133000Y-97513501D01*
X163793602Y-97513501D01*
X163895051Y-97412052D01*
X164134800Y-96833247D01*
X164134800Y-96206753D01*
X163895051Y-95627948D01*
X163452052Y-95184949D01*
X162873247Y-94945200D01*
X162246753Y-94945200D01*
X161667948Y-95184949D01*
X161290000Y-95562897D01*
X160912052Y-95184949D01*
X160333247Y-94945200D01*
X159706753Y-94945200D01*
X159127948Y-95184949D01*
X158684949Y-95627948D01*
X158445200Y-96206753D01*
X158445200Y-96833247D01*
X158499898Y-96965300D01*
X157100174Y-98365025D01*
X151149670Y-98365025D01*
X151104311Y-98255518D01*
X150672508Y-97823715D01*
X150108331Y-97590025D01*
X149497671Y-97590025D01*
X148933494Y-97823715D01*
X148533001Y-98224208D01*
X148132508Y-97823715D01*
X147568331Y-97590025D01*
X146957671Y-97590025D01*
X146393494Y-97823715D01*
X145993001Y-98224208D01*
X145592508Y-97823715D01*
X145028331Y-97590025D01*
X144417671Y-97590025D01*
X143853494Y-97823715D01*
X143453001Y-98224208D01*
X143052508Y-97823715D01*
X142488331Y-97590025D01*
X141877671Y-97590025D01*
X141313494Y-97823715D01*
X140913001Y-98224208D01*
X140512508Y-97823715D01*
X139948331Y-97590025D01*
X139337671Y-97590025D01*
X138773494Y-97823715D01*
X138373001Y-98224208D01*
X137972508Y-97823715D01*
X137408331Y-97590025D01*
X136797671Y-97590025D01*
X136233494Y-97823715D01*
X135833001Y-98224208D01*
X135432508Y-97823715D01*
X134868331Y-97590025D01*
X134257671Y-97590025D01*
X133693494Y-97823715D01*
X133261691Y-98255518D01*
X133253563Y-98275140D01*
X133103160Y-98224471D01*
X132202606Y-99125025D01*
X133103160Y-100025579D01*
X133253563Y-99974910D01*
X133261691Y-99994532D01*
X133693494Y-100426335D01*
X133803001Y-100471694D01*
X133803002Y-103976041D01*
X133585423Y-104121423D01*
X133514266Y-104227917D01*
X133418327Y-103996301D01*
X133239698Y-103817673D01*
X133006309Y-103721000D01*
X132365750Y-103721000D01*
X132207000Y-103879750D01*
X132207000Y-105029000D01*
X132227000Y-105029000D01*
X132227000Y-105283000D01*
X132207000Y-105283000D01*
X132207000Y-106432250D01*
X132365750Y-106591000D01*
X133006309Y-106591000D01*
X133239698Y-106494327D01*
X133418327Y-106315699D01*
X133514266Y-106084083D01*
X133585423Y-106190577D01*
X133860001Y-106374044D01*
X133860001Y-106873196D01*
X131765199Y-108968000D01*
X120090043Y-108968000D01*
X119906577Y-108693423D01*
X119431909Y-108376260D01*
X119013333Y-108293000D01*
X118730667Y-108293000D01*
X118312091Y-108376260D01*
X117837423Y-108693423D01*
X117520260Y-109168091D01*
X117408887Y-109728000D01*
X112699440Y-109728000D01*
X112699440Y-108928000D01*
X112650157Y-108680235D01*
X112509809Y-108470191D01*
X112299765Y-108329843D01*
X112052000Y-108280560D01*
X110452000Y-108280560D01*
X110204235Y-108329843D01*
X109994191Y-108470191D01*
X109853843Y-108680235D01*
X109804560Y-108928000D01*
X109804560Y-110528000D01*
X109853843Y-110775765D01*
X109994191Y-110985809D01*
X110204235Y-111126157D01*
X110338106Y-111152785D01*
X110217423Y-111233423D01*
X109900260Y-111708091D01*
X109788887Y-112268000D01*
X103834000Y-112268000D01*
X103834000Y-105441750D01*
X130645000Y-105441750D01*
X130645000Y-106082310D01*
X130741673Y-106315699D01*
X130920302Y-106494327D01*
X131153691Y-106591000D01*
X131794250Y-106591000D01*
X131953000Y-106432250D01*
X131953000Y-105283000D01*
X130803750Y-105283000D01*
X130645000Y-105441750D01*
X103834000Y-105441750D01*
X103834000Y-104229690D01*
X130645000Y-104229690D01*
X130645000Y-104870250D01*
X130803750Y-105029000D01*
X131953000Y-105029000D01*
X131953000Y-103879750D01*
X131794250Y-103721000D01*
X131153691Y-103721000D01*
X130920302Y-103817673D01*
X130741673Y-103996301D01*
X130645000Y-104229690D01*
X103834000Y-104229690D01*
X103834000Y-100205184D01*
X131122447Y-100205184D01*
X131208853Y-100461668D01*
X131782337Y-100671483D01*
X132392461Y-100645864D01*
X132837149Y-100461668D01*
X132923555Y-100205184D01*
X132023001Y-99304630D01*
X131122447Y-100205184D01*
X103834000Y-100205184D01*
X103834000Y-98884361D01*
X130476543Y-98884361D01*
X130502162Y-99494485D01*
X130686358Y-99939173D01*
X130942842Y-100025579D01*
X131843396Y-99125025D01*
X130942842Y-98224471D01*
X130686358Y-98310877D01*
X130476543Y-98884361D01*
X103834000Y-98884361D01*
X103834000Y-98044866D01*
X131122447Y-98044866D01*
X132023001Y-98945420D01*
X132923555Y-98044866D01*
X132837149Y-97788382D01*
X132263665Y-97578567D01*
X131653541Y-97604186D01*
X131208853Y-97788382D01*
X131122447Y-98044866D01*
X103834000Y-98044866D01*
X103834000Y-94182000D01*
X182170000Y-94182000D01*
X182170001Y-130862000D01*
X182170001Y-130862000D01*
G37*
X182170001Y-130862000D02*
X103834000Y-130862000D01*
X103834000Y-126469501D01*
X105029000Y-126469501D01*
X105029000Y-127530499D01*
X105435026Y-128510734D01*
X106185266Y-129260974D01*
X107165501Y-129667000D01*
X108226499Y-129667000D01*
X109206734Y-129260974D01*
X109956974Y-128510734D01*
X110363000Y-127530499D01*
X110363000Y-126469501D01*
X109956974Y-125489266D01*
X109206734Y-124739026D01*
X108226499Y-124333000D01*
X107165501Y-124333000D01*
X106185266Y-124739026D01*
X105435026Y-125489266D01*
X105029000Y-126469501D01*
X103834000Y-126469501D01*
X103834000Y-121679695D01*
X130488001Y-121679695D01*
X130488001Y-122290355D01*
X130721691Y-122854532D01*
X131153494Y-123286335D01*
X131263002Y-123331695D01*
X131263001Y-124836154D01*
X131248113Y-124911001D01*
X131263001Y-124985848D01*
X131263001Y-124985852D01*
X131307097Y-125207537D01*
X131475072Y-125458930D01*
X131538531Y-125501332D01*
X133099898Y-127062700D01*
X133045200Y-127194753D01*
X133045200Y-127821247D01*
X133284949Y-128400052D01*
X133727948Y-128843051D01*
X133860001Y-128897749D01*
X133860001Y-128957149D01*
X133845112Y-129032000D01*
X133860001Y-129106852D01*
X133904097Y-129328537D01*
X134072072Y-129579929D01*
X134135527Y-129622328D01*
X134537672Y-130024475D01*
X134580071Y-130087929D01*
X134643524Y-130130327D01*
X134643526Y-130130329D01*
X134768902Y-130214102D01*
X134831463Y-130255904D01*
X135053148Y-130300000D01*
X135053152Y-130300000D01*
X135127999Y-130314888D01*
X135202846Y-130300000D01*
X174677153Y-130300000D01*
X174752000Y-130314888D01*
X174826847Y-130300000D01*
X174826852Y-130300000D01*
X175048537Y-130255904D01*
X175299929Y-130087929D01*
X175342331Y-130024470D01*
X179808476Y-125558327D01*
X179871929Y-125515929D01*
X179914327Y-125452476D01*
X179914329Y-125452474D01*
X180039903Y-125264538D01*
X180039904Y-125264537D01*
X180084000Y-125042852D01*
X180084000Y-125042848D01*
X180098888Y-124968001D01*
X180084000Y-124893154D01*
X180084000Y-123309749D01*
X180216052Y-123255051D01*
X180659051Y-122812052D01*
X180898800Y-122233247D01*
X180898800Y-121606753D01*
X180659051Y-121027948D01*
X180216052Y-120584949D01*
X179637247Y-120345200D01*
X179010753Y-120345200D01*
X178431948Y-120584949D01*
X178054000Y-120962897D01*
X177676052Y-120584949D01*
X177097247Y-120345200D01*
X176470753Y-120345200D01*
X175891948Y-120584949D01*
X175514000Y-120962897D01*
X175136052Y-120584949D01*
X174557247Y-120345200D01*
X173930753Y-120345200D01*
X173351948Y-120584949D01*
X172974000Y-120962897D01*
X172596052Y-120584949D01*
X172464000Y-120530251D01*
X172464000Y-120470846D01*
X172478888Y-120395999D01*
X172464000Y-120321152D01*
X172464000Y-120321148D01*
X172419904Y-120099463D01*
X172378102Y-120036902D01*
X172294329Y-119911526D01*
X172294327Y-119911524D01*
X172251929Y-119848071D01*
X172188476Y-119805673D01*
X170770331Y-118387530D01*
X170727929Y-118324071D01*
X170476537Y-118156096D01*
X170254852Y-118112000D01*
X170254847Y-118112000D01*
X170180000Y-118097112D01*
X170105153Y-118112000D01*
X143838846Y-118112000D01*
X143763999Y-118097112D01*
X143689152Y-118112000D01*
X143689148Y-118112000D01*
X143467463Y-118156096D01*
X143216071Y-118324071D01*
X143173671Y-118387527D01*
X141698531Y-119862668D01*
X141635072Y-119905070D01*
X141467097Y-120156463D01*
X141423001Y-120378148D01*
X141423001Y-120378152D01*
X141408113Y-120452999D01*
X141423001Y-120527846D01*
X141423001Y-120638356D01*
X141313494Y-120683715D01*
X140913001Y-121084208D01*
X140512508Y-120683715D01*
X139948331Y-120450025D01*
X139337671Y-120450025D01*
X138773494Y-120683715D01*
X138373001Y-121084208D01*
X137972508Y-120683715D01*
X137408331Y-120450025D01*
X136797671Y-120450025D01*
X136233494Y-120683715D01*
X135833001Y-121084208D01*
X135432508Y-120683715D01*
X134868331Y-120450025D01*
X134257671Y-120450025D01*
X133693494Y-120683715D01*
X133293001Y-121084208D01*
X132892508Y-120683715D01*
X132328331Y-120450025D01*
X131717671Y-120450025D01*
X131153494Y-120683715D01*
X130721691Y-121115518D01*
X130488001Y-121679695D01*
X103834000Y-121679695D01*
X103834000Y-112268000D01*
X109788887Y-112268000D01*
X109900260Y-112827909D01*
X110217423Y-113302577D01*
X110569758Y-113538000D01*
X110217423Y-113773423D01*
X109900260Y-114248091D01*
X109788887Y-114808000D01*
X109900260Y-115367909D01*
X110217423Y-115842577D01*
X110569758Y-116078000D01*
X110217423Y-116313423D01*
X109900260Y-116788091D01*
X109788887Y-117348000D01*
X109900260Y-117907909D01*
X110217423Y-118382577D01*
X110692091Y-118699740D01*
X111110667Y-118783000D01*
X111393333Y-118783000D01*
X111811909Y-118699740D01*
X112286577Y-118382577D01*
X112603740Y-117907909D01*
X112715113Y-117348000D01*
X112603740Y-116788091D01*
X112286577Y-116313423D01*
X111934242Y-116078000D01*
X112286577Y-115842577D01*
X112603740Y-115367909D01*
X112715113Y-114808000D01*
X112603740Y-114248091D01*
X112286577Y-113773423D01*
X111934242Y-113538000D01*
X112286577Y-113302577D01*
X112603740Y-112827909D01*
X112715113Y-112268000D01*
X112603740Y-111708091D01*
X112286577Y-111233423D01*
X112165894Y-111152785D01*
X112299765Y-111126157D01*
X112509809Y-110985809D01*
X112650157Y-110775765D01*
X112699440Y-110528000D01*
X112699440Y-109728000D01*
X117408887Y-109728000D01*
X117520260Y-110287909D01*
X117837423Y-110762577D01*
X118189758Y-110998000D01*
X117837423Y-111233423D01*
X117520260Y-111708091D01*
X117408887Y-112268000D01*
X117520260Y-112827909D01*
X117837423Y-113302577D01*
X118189758Y-113538000D01*
X117837423Y-113773423D01*
X117520260Y-114248091D01*
X117408887Y-114808000D01*
X117520260Y-115367909D01*
X117837423Y-115842577D01*
X118189758Y-116078000D01*
X117837423Y-116313423D01*
X117520260Y-116788091D01*
X117408887Y-117348000D01*
X117520260Y-117907909D01*
X117837423Y-118382577D01*
X118312091Y-118699740D01*
X118730667Y-118783000D01*
X119013333Y-118783000D01*
X119431909Y-118699740D01*
X119906577Y-118382577D01*
X120090043Y-118108000D01*
X132005153Y-118108000D01*
X132080000Y-118122888D01*
X132154847Y-118108000D01*
X132154852Y-118108000D01*
X132376537Y-118063904D01*
X132627929Y-117895929D01*
X132670331Y-117832470D01*
X135641515Y-114861286D01*
X169418000Y-114861286D01*
X169418000Y-115770714D01*
X169766023Y-116610915D01*
X170409085Y-117253977D01*
X171249286Y-117602000D01*
X172158714Y-117602000D01*
X172998915Y-117253977D01*
X173641977Y-116610915D01*
X173990000Y-115770714D01*
X173990000Y-114861286D01*
X173641977Y-114021085D01*
X172998915Y-113378023D01*
X172158714Y-113030000D01*
X171249286Y-113030000D01*
X170409085Y-113378023D01*
X169766023Y-114021085D01*
X169418000Y-114861286D01*
X135641515Y-114861286D01*
X142724473Y-107778329D01*
X142787929Y-107735929D01*
X142927077Y-107527680D01*
X142955904Y-107484538D01*
X142989627Y-107315000D01*
X143000000Y-107262852D01*
X143000000Y-107262848D01*
X143014888Y-107188000D01*
X143000000Y-107113152D01*
X143000000Y-106374043D01*
X143274577Y-106190577D01*
X143510000Y-105838242D01*
X143745423Y-106190577D01*
X144020001Y-106374044D01*
X144020000Y-108637153D01*
X144005112Y-108712000D01*
X144020000Y-108786847D01*
X144020000Y-108786851D01*
X144064096Y-109008536D01*
X144232071Y-109259929D01*
X144295530Y-109302331D01*
X146729673Y-111736476D01*
X146772071Y-111799929D01*
X146835524Y-111842327D01*
X146835526Y-111842329D01*
X146960902Y-111926102D01*
X147023463Y-111967904D01*
X147245148Y-112012000D01*
X147245152Y-112012000D01*
X147319999Y-112026888D01*
X147394846Y-112012000D01*
X163521700Y-112012000D01*
X163534680Y-112043337D01*
X163927663Y-112436320D01*
X164441119Y-112649000D01*
X164996881Y-112649000D01*
X165510337Y-112436320D01*
X165903320Y-112043337D01*
X166116000Y-111529881D01*
X166116000Y-110974119D01*
X165903320Y-110460663D01*
X165510337Y-110067680D01*
X164996881Y-109855000D01*
X164441119Y-109855000D01*
X163927663Y-110067680D01*
X163534680Y-110460663D01*
X163521700Y-110492000D01*
X147634803Y-110492000D01*
X145540000Y-108397199D01*
X145540000Y-106374043D01*
X145814577Y-106190577D01*
X146050000Y-105838242D01*
X146285423Y-106190577D01*
X146760091Y-106507740D01*
X147178667Y-106591000D01*
X147461333Y-106591000D01*
X147879909Y-106507740D01*
X148354577Y-106190577D01*
X148590000Y-105838242D01*
X148825423Y-106190577D01*
X149300091Y-106507740D01*
X149718667Y-106591000D01*
X150001333Y-106591000D01*
X150419909Y-106507740D01*
X150894577Y-106190577D01*
X151130000Y-105838242D01*
X151365423Y-106190577D01*
X151840091Y-106507740D01*
X152258667Y-106591000D01*
X152541333Y-106591000D01*
X152959909Y-106507740D01*
X153434577Y-106190577D01*
X153632663Y-105894119D01*
X163322000Y-105894119D01*
X163322000Y-106449881D01*
X163534680Y-106963337D01*
X163927663Y-107356320D01*
X164441119Y-107569000D01*
X164996881Y-107569000D01*
X165510337Y-107356320D01*
X165903320Y-106963337D01*
X166116000Y-106449881D01*
X166116000Y-105894119D01*
X177800000Y-105894119D01*
X177800000Y-106449881D01*
X178012680Y-106963337D01*
X178405663Y-107356320D01*
X178612513Y-107442000D01*
X178405663Y-107527680D01*
X178012680Y-107920663D01*
X177800000Y-108434119D01*
X177800000Y-108989881D01*
X178012680Y-109503337D01*
X178405663Y-109896320D01*
X178612513Y-109982000D01*
X178405663Y-110067680D01*
X178012680Y-110460663D01*
X177800000Y-110974119D01*
X177800000Y-111529881D01*
X178012680Y-112043337D01*
X178405663Y-112436320D01*
X178919119Y-112649000D01*
X179474881Y-112649000D01*
X179988337Y-112436320D01*
X180381320Y-112043337D01*
X180594000Y-111529881D01*
X180594000Y-110974119D01*
X180381320Y-110460663D01*
X179988337Y-110067680D01*
X179781487Y-109982000D01*
X179988337Y-109896320D01*
X180381320Y-109503337D01*
X180594000Y-108989881D01*
X180594000Y-108434119D01*
X180381320Y-107920663D01*
X179988337Y-107527680D01*
X179781487Y-107442000D01*
X179988337Y-107356320D01*
X180381320Y-106963337D01*
X180594000Y-106449881D01*
X180594000Y-105894119D01*
X180381320Y-105380663D01*
X179988337Y-104987680D01*
X179474881Y-104775000D01*
X178919119Y-104775000D01*
X178405663Y-104987680D01*
X178012680Y-105380663D01*
X177800000Y-105894119D01*
X166116000Y-105894119D01*
X165903320Y-105380663D01*
X165510337Y-104987680D01*
X164996881Y-104775000D01*
X164441119Y-104775000D01*
X163927663Y-104987680D01*
X163534680Y-105380663D01*
X163322000Y-105894119D01*
X153632663Y-105894119D01*
X153751740Y-105715909D01*
X153863113Y-105156000D01*
X153751740Y-104596091D01*
X153434577Y-104121423D01*
X152959909Y-103804260D01*
X152541333Y-103721000D01*
X152258667Y-103721000D01*
X151840091Y-103804260D01*
X151365423Y-104121423D01*
X151130000Y-104473758D01*
X150894577Y-104121423D01*
X150419909Y-103804260D01*
X150001333Y-103721000D01*
X149718667Y-103721000D01*
X149300091Y-103804260D01*
X148825423Y-104121423D01*
X148590000Y-104473758D01*
X148354577Y-104121423D01*
X147879909Y-103804260D01*
X147461333Y-103721000D01*
X147178667Y-103721000D01*
X146760091Y-103804260D01*
X146285423Y-104121423D01*
X146050000Y-104473758D01*
X145814577Y-104121423D01*
X145483001Y-103899871D01*
X145483001Y-101653286D01*
X169418000Y-101653286D01*
X169418000Y-102562714D01*
X169766023Y-103402915D01*
X170409085Y-104045977D01*
X171249286Y-104394000D01*
X172158714Y-104394000D01*
X172998915Y-104045977D01*
X173641977Y-103402915D01*
X173990000Y-102562714D01*
X173990000Y-101653286D01*
X173641977Y-100813085D01*
X172998915Y-100170023D01*
X172158714Y-99822000D01*
X171249286Y-99822000D01*
X170409085Y-100170023D01*
X169766023Y-100813085D01*
X169418000Y-101653286D01*
X145483001Y-101653286D01*
X145483001Y-100471694D01*
X145592508Y-100426335D01*
X145993001Y-100025842D01*
X146393494Y-100426335D01*
X146957671Y-100660025D01*
X147568331Y-100660025D01*
X148132508Y-100426335D01*
X148533001Y-100025842D01*
X148933494Y-100426335D01*
X149497671Y-100660025D01*
X150108331Y-100660025D01*
X150672508Y-100426335D01*
X151104311Y-99994532D01*
X151149670Y-99885025D01*
X157340128Y-99885025D01*
X157414975Y-99899913D01*
X157489822Y-99885025D01*
X157489827Y-99885025D01*
X157711512Y-99840929D01*
X157962904Y-99672954D01*
X158005306Y-99609495D01*
X159574700Y-98040102D01*
X159706753Y-98094800D01*
X160333247Y-98094800D01*
X160912052Y-97855051D01*
X161290000Y-97477103D01*
X161667948Y-97855051D01*
X162246753Y-98094800D01*
X162873247Y-98094800D01*
X163452052Y-97855051D01*
X163793602Y-97513501D01*
X175133000Y-97513501D01*
X175133000Y-98574499D01*
X175539026Y-99554734D01*
X176289266Y-100304974D01*
X177269501Y-100711000D01*
X178330499Y-100711000D01*
X179310734Y-100304974D01*
X180060974Y-99554734D01*
X180467000Y-98574499D01*
X180467000Y-97513501D01*
X180060974Y-96533266D01*
X179310734Y-95783026D01*
X178330499Y-95377000D01*
X177269501Y-95377000D01*
X176289266Y-95783026D01*
X175539026Y-96533266D01*
X175133000Y-97513501D01*
X163793602Y-97513501D01*
X163895051Y-97412052D01*
X164134800Y-96833247D01*
X164134800Y-96206753D01*
X163895051Y-95627948D01*
X163452052Y-95184949D01*
X162873247Y-94945200D01*
X162246753Y-94945200D01*
X161667948Y-95184949D01*
X161290000Y-95562897D01*
X160912052Y-95184949D01*
X160333247Y-94945200D01*
X159706753Y-94945200D01*
X159127948Y-95184949D01*
X158684949Y-95627948D01*
X158445200Y-96206753D01*
X158445200Y-96833247D01*
X158499898Y-96965300D01*
X157100174Y-98365025D01*
X151149670Y-98365025D01*
X151104311Y-98255518D01*
X150672508Y-97823715D01*
X150108331Y-97590025D01*
X149497671Y-97590025D01*
X148933494Y-97823715D01*
X148533001Y-98224208D01*
X148132508Y-97823715D01*
X147568331Y-97590025D01*
X146957671Y-97590025D01*
X146393494Y-97823715D01*
X145993001Y-98224208D01*
X145592508Y-97823715D01*
X145028331Y-97590025D01*
X144417671Y-97590025D01*
X143853494Y-97823715D01*
X143453001Y-98224208D01*
X143052508Y-97823715D01*
X142488331Y-97590025D01*
X141877671Y-97590025D01*
X141313494Y-97823715D01*
X140913001Y-98224208D01*
X140512508Y-97823715D01*
X139948331Y-97590025D01*
X139337671Y-97590025D01*
X138773494Y-97823715D01*
X138373001Y-98224208D01*
X137972508Y-97823715D01*
X137408331Y-97590025D01*
X136797671Y-97590025D01*
X136233494Y-97823715D01*
X135833001Y-98224208D01*
X135432508Y-97823715D01*
X134868331Y-97590025D01*
X134257671Y-97590025D01*
X133693494Y-97823715D01*
X133261691Y-98255518D01*
X133253563Y-98275140D01*
X133103160Y-98224471D01*
X132202606Y-99125025D01*
X133103160Y-100025579D01*
X133253563Y-99974910D01*
X133261691Y-99994532D01*
X133693494Y-100426335D01*
X133803001Y-100471694D01*
X133803002Y-103976041D01*
X133585423Y-104121423D01*
X133514266Y-104227917D01*
X133418327Y-103996301D01*
X133239698Y-103817673D01*
X133006309Y-103721000D01*
X132365750Y-103721000D01*
X132207000Y-103879750D01*
X132207000Y-105029000D01*
X132227000Y-105029000D01*
X132227000Y-105283000D01*
X132207000Y-105283000D01*
X132207000Y-106432250D01*
X132365750Y-106591000D01*
X133006309Y-106591000D01*
X133239698Y-106494327D01*
X133418327Y-106315699D01*
X133514266Y-106084083D01*
X133585423Y-106190577D01*
X133860001Y-106374044D01*
X133860001Y-106873196D01*
X131765199Y-108968000D01*
X120090043Y-108968000D01*
X119906577Y-108693423D01*
X119431909Y-108376260D01*
X119013333Y-108293000D01*
X118730667Y-108293000D01*
X118312091Y-108376260D01*
X117837423Y-108693423D01*
X117520260Y-109168091D01*
X117408887Y-109728000D01*
X112699440Y-109728000D01*
X112699440Y-108928000D01*
X112650157Y-108680235D01*
X112509809Y-108470191D01*
X112299765Y-108329843D01*
X112052000Y-108280560D01*
X110452000Y-108280560D01*
X110204235Y-108329843D01*
X109994191Y-108470191D01*
X109853843Y-108680235D01*
X109804560Y-108928000D01*
X109804560Y-110528000D01*
X109853843Y-110775765D01*
X109994191Y-110985809D01*
X110204235Y-111126157D01*
X110338106Y-111152785D01*
X110217423Y-111233423D01*
X109900260Y-111708091D01*
X109788887Y-112268000D01*
X103834000Y-112268000D01*
X103834000Y-105441750D01*
X130645000Y-105441750D01*
X130645000Y-106082310D01*
X130741673Y-106315699D01*
X130920302Y-106494327D01*
X131153691Y-106591000D01*
X131794250Y-106591000D01*
X131953000Y-106432250D01*
X131953000Y-105283000D01*
X130803750Y-105283000D01*
X130645000Y-105441750D01*
X103834000Y-105441750D01*
X103834000Y-104229690D01*
X130645000Y-104229690D01*
X130645000Y-104870250D01*
X130803750Y-105029000D01*
X131953000Y-105029000D01*
X131953000Y-103879750D01*
X131794250Y-103721000D01*
X131153691Y-103721000D01*
X130920302Y-103817673D01*
X130741673Y-103996301D01*
X130645000Y-104229690D01*
X103834000Y-104229690D01*
X103834000Y-100205184D01*
X131122447Y-100205184D01*
X131208853Y-100461668D01*
X131782337Y-100671483D01*
X132392461Y-100645864D01*
X132837149Y-100461668D01*
X132923555Y-100205184D01*
X132023001Y-99304630D01*
X131122447Y-100205184D01*
X103834000Y-100205184D01*
X103834000Y-98884361D01*
X130476543Y-98884361D01*
X130502162Y-99494485D01*
X130686358Y-99939173D01*
X130942842Y-100025579D01*
X131843396Y-99125025D01*
X130942842Y-98224471D01*
X130686358Y-98310877D01*
X130476543Y-98884361D01*
X103834000Y-98884361D01*
X103834000Y-98044866D01*
X131122447Y-98044866D01*
X132023001Y-98945420D01*
X132923555Y-98044866D01*
X132837149Y-97788382D01*
X132263665Y-97578567D01*
X131653541Y-97604186D01*
X131208853Y-97788382D01*
X131122447Y-98044866D01*
X103834000Y-98044866D01*
X103834000Y-94182000D01*
X182170000Y-94182000D01*
X182170001Y-130862000D01*
G04 #@! TD*
M02*
